<svg width="376" height="612" viewBox="0 0 376 612" fill="none" xmlns="http://www.w3.org/2000/svg">
<path d="M201.045 586.284L186.041 581.098L194.077 544.934L209.101 550.139L201.045 586.284Z" fill="#FF8B7B"/>
<path opacity="0.2" d="M194.077 544.953L189.94 563.579L204.944 568.785L209.101 550.159L194.077 544.953Z" fill="black"/>
<path d="M345.404 594.815H329.529L317.137 558.018H333.032L345.404 594.815Z" fill="#FF8B7B"/>
<path opacity="0.2" d="M333.032 558.037H317.137L323.531 577H339.426L333.032 558.037Z" fill="black"/>
<path d="M327.411 592.974H346.77C347.084 592.975 347.389 593.084 347.634 593.282C347.878 593.48 348.048 593.755 348.116 594.062L351.263 608.195C351.338 608.538 351.334 608.893 351.252 609.234C351.17 609.575 351.011 609.893 350.788 610.164C350.565 610.434 350.283 610.651 349.964 610.797C349.645 610.943 349.298 611.014 348.947 611.006C342.712 610.907 338.159 610.531 330.301 610.531C325.471 610.531 310.922 611.046 304.252 611.046C297.581 611.046 296.71 604.454 299.442 603.841C311.674 601.168 320.899 597.487 324.818 593.944C325.537 593.319 326.458 592.974 327.411 592.974Z" fill="#263238"/>
<path d="M186.753 579.395L203.143 585.076C203.441 585.178 203.696 585.379 203.866 585.645C204.035 585.911 204.108 586.227 204.073 586.541L202.41 600.912C202.38 601.264 202.268 601.606 202.085 601.909C201.902 602.212 201.651 602.469 201.353 602.66C201.055 602.852 200.717 602.972 200.365 603.012C200.013 603.052 199.656 603.01 199.322 602.891C193.384 600.753 185.011 597.448 177.549 594.973C168.859 591.965 161.179 589.827 150.985 586.303C144.829 584.166 145.264 577.337 148.055 577.673C160.684 579.178 170.364 582.206 182.676 579.474C184 579.065 185.414 579.037 186.753 579.395Z" fill="#263238"/>
<path d="M1.57816 61.9736L163.732 206.313L160.961 209.421L0.251953 63.4384L1.57816 61.9736Z" fill="#B7BDC0"/>
<path d="M273.076 117.18C271.928 120.624 270.819 123.613 269.552 126.74C268.285 129.868 267.019 132.896 265.593 135.945C262.875 142.015 259.873 147.999 256.587 153.898C253.238 159.893 249.495 165.659 245.383 171.159C241.054 177.067 235.978 182.39 230.28 186.994L227.885 188.775C227.074 189.35 226.163 189.904 225.292 190.458C223.567 191.511 221.776 192.45 219.928 193.269C216.425 194.827 212.779 196.04 209.041 196.891C202.084 198.434 194.967 199.139 187.842 198.989C181.065 198.834 174.31 198.172 167.632 197.01C164.346 196.475 161.08 195.743 157.853 195.03C154.627 194.318 151.48 193.427 148.115 192.319L150.767 180.699C153.637 180.937 156.824 181.174 159.853 181.333C162.881 181.491 165.989 181.511 169.037 181.551C175.047 181.622 181.055 181.331 187.03 180.68C192.658 180.115 198.211 178.96 203.598 177.235C206.02 176.44 208.36 175.413 210.585 174.167C211.618 173.619 212.611 172.997 213.554 172.307C213.99 171.95 214.425 171.653 214.881 171.277L216.266 170.09C220.227 166.363 223.753 162.199 226.777 157.679C230.036 152.779 233.022 147.704 235.724 142.477C238.495 137.152 241.088 131.669 243.543 126.107C244.783 123.309 245.971 120.505 247.106 117.694C248.214 114.903 249.402 111.934 250.352 109.381L273.076 117.18Z" fill="#FF8B7B"/>
<path d="M279.529 109.381C282.933 124.168 255.578 165.775 255.578 165.775L221.274 140.696C227.743 128.428 235.507 116.888 244.433 106.274C257.814 91.1903 275.787 93.1302 279.529 109.381Z" fill="#9953F5"/>
<path d="M152.786 180.72L135.842 176.899L138.317 197.03C141.462 197.869 144.794 197.68 147.825 196.49C150.855 195.301 153.426 193.174 155.161 190.419L152.786 180.72Z" fill="#FF8B7B"/>
<path d="M124.777 176.404L130.28 191.626L138.317 197.03L135.842 176.899L124.777 176.404Z" fill="#FF8B7B"/>
<path d="M350.61 107.164C329.925 166.388 329.549 230.522 327.233 243.388C314.881 241.745 268.365 235.47 243.008 232.046C237.308 141.111 262.288 96.0595 262.288 96.0595C262.288 96.0595 267.791 95.3271 275.233 95.0104C277.569 95.0104 280.083 94.852 282.696 94.8718C284.141 94.8718 285.605 94.8718 287.09 94.9708C299.11 95.9203 311.066 97.5593 322.898 99.8798C325.134 100.295 327.411 100.77 329.608 101.265C331.805 101.76 333.567 102.235 335.546 102.73C344.058 104.888 350.61 107.164 350.61 107.164Z" fill="#9953F5"/>
<path d="M335.526 102.651L328.875 107.679C320.423 114.072 310.704 119.991 296.749 119.991C295.166 119.991 293.543 119.991 291.92 119.753C280.36 118.605 275.946 112.984 274.263 108.451C273.51 106.261 273.207 103.941 273.374 101.631C273.541 99.3215 274.173 97.0693 275.233 95.0104C277.569 95.0104 280.083 94.852 282.696 94.8718C284.141 94.8718 285.605 94.8718 287.09 94.9708C299.11 95.9203 311.066 97.5593 322.898 99.8798C325.134 100.295 327.411 100.77 329.608 101.265C331.805 101.76 333.666 102.156 335.526 102.651Z" fill="#9953F5"/>
<path d="M324.778 59.0049C320.978 70.2282 315.871 91.0319 322.898 99.8008C315.792 105.185 306.647 111.262 292.89 109.896C279.133 108.53 282.814 99.4445 287.09 94.971C300.352 93.6448 301.302 84.0644 300.273 74.8007L324.778 59.0049Z" fill="#FF8B7B"/>
<path opacity="0.2" d="M314.782 65.458L300.293 74.8009C300.558 76.9542 300.637 79.1264 300.53 81.2934C305.538 81.2934 313.001 76.7803 314.208 71.713C314.781 69.6808 314.976 67.5606 314.782 65.458Z" fill="black"/>
<path d="M295.621 13.993C283.309 12.9835 279.053 42.6154 286.734 48.2963C294.414 53.9773 318.662 15.8734 295.621 13.993Z" fill="#263238"/>
<path d="M328.48 41.8629C325.431 57.3222 324.422 66.5265 315.455 73.5337C301.995 83.985 283.784 74.2462 282.082 58.1733C280.617 43.7038 285.863 20.8415 301.975 16.6055C305.524 15.6759 309.252 15.6692 312.804 16.5859C316.356 17.5027 319.615 19.3124 322.271 21.8433C324.926 24.3741 326.891 27.542 327.978 31.0459C329.065 34.5498 329.237 38.2734 328.48 41.8629Z" fill="#FF8B7B"/>
<path d="M325.332 56.9854C317.712 61.7361 310.368 19.4952 331.528 20.4849C357.419 21.7121 341.583 46.9102 325.332 56.9854Z" fill="#263238"/>
<path d="M331.924 26.5226C320.621 30.2043 272.739 25.3547 266.801 13.498C270.206 13.8809 273.653 13.4466 276.856 12.2312C276.856 12.2312 266.722 9.47978 265.099 0.196289C283.032 9.36101 320.899 -2.57491 334.378 7.59932C345.641 15.9921 340.713 23.6722 331.924 26.5226Z" fill="#263238"/>
<path d="M337.407 22.6825C337.407 22.6825 336.754 18.0902 350.075 23.3555C339.07 21.376 337.763 24.6817 337.763 24.6817L337.407 22.6825Z" fill="#263238"/>
<path d="M333.21 59.9948C331.953 61.502 330.411 62.7464 328.672 63.6567C326.933 64.567 325.031 65.1252 323.076 65.2996C317.83 65.7351 316.207 60.8261 318.484 56.3922C320.463 52.4334 325.748 47.3858 330.598 49.0287C335.447 50.6717 336.298 56.3328 333.21 59.9948Z" fill="#FF8B7B"/>
<path d="M185.506 558.175L210.942 567.023C210.942 567.023 235.843 468.864 243.642 419.972C246.017 405.106 251.322 384.52 257.735 362.569C265.811 334.857 275.649 305.007 283.626 281.63C292.058 257.006 298.373 239.607 298.373 239.607L242.949 232.145C242.949 232.145 200.767 361.46 196.017 409.718C191.147 459.798 185.506 558.175 185.506 558.175Z" fill="#222222" fill-opacity="0.133333"/>
<path opacity="0.2" d="M257.735 362.47C265.811 334.758 275.649 304.908 283.626 281.531L278.658 268.725C263.812 284.243 256.844 334.738 257.735 362.47Z" fill="black"/>
<path d="M272.878 236.084C272.878 236.084 270.146 372.209 273.887 418.606C277.965 469.438 316.049 573.318 316.049 573.318H345.166C345.166 573.318 325.748 478.306 319.79 428.82C313 372.605 327.233 243.348 327.233 243.348L272.878 236.084Z" fill="#222222"/>
<path d="M312.585 573.952H346.849V563.718L308.547 563.045L312.585 573.952Z" fill="#263238"/>
<path d="M182.101 557.661L212.406 568.152L215.791 558.354L182.101 546.121V557.661Z" fill="#263238"/>
<path d="M304.232 43.0309C304.073 44.2977 303.262 45.228 302.43 45.129C301.599 45.0301 301.065 43.882 301.243 42.6152C301.421 41.3484 302.213 40.418 303.044 40.517C303.875 40.616 304.41 41.764 304.232 43.0309Z" fill="#263238"/>
<path d="M289.881 41.091C289.723 42.3578 288.911 43.308 288.08 43.1892C287.248 43.0704 286.714 41.962 286.872 40.6951C287.031 39.4283 287.862 38.4782 288.693 38.5969C289.525 38.7157 290.119 39.8242 289.881 41.091Z" fill="#263238"/>
<path d="M294.354 42.3379C292.322 46.0141 289.791 49.3914 286.833 52.3736C287.615 53.1206 288.554 53.6855 289.58 54.0277C290.607 54.3699 291.696 54.4809 292.771 54.353L294.354 42.3379Z" fill="#FF5652"/>
<path d="M297.64 58.4509C299.079 58.4746 300.508 58.2042 301.839 57.6562C303.17 57.1082 304.375 56.2942 305.38 55.2641C305.445 55.1879 305.478 55.0889 305.471 54.9886C305.463 54.8884 305.416 54.7952 305.34 54.7296C305.264 54.664 305.165 54.6313 305.065 54.6387C304.965 54.6462 304.871 54.6931 304.806 54.7692C303.677 55.8958 302.298 56.7395 300.781 57.2314C299.264 57.7233 297.652 57.8495 296.077 57.5998C295.977 57.5866 295.876 57.6137 295.796 57.6749C295.716 57.7362 295.664 57.8266 295.651 57.9264C295.638 58.0261 295.665 58.127 295.726 58.2068C295.787 58.2866 295.878 58.3388 295.978 58.352C296.529 58.4232 297.084 58.4563 297.64 58.4509Z" fill="#263238"/>
<path d="M309.299 38.9931C309.416 39.0195 309.538 39.0195 309.655 38.9931C309.743 38.9456 309.82 38.8811 309.883 38.8034C309.945 38.7257 309.991 38.6364 310.019 38.5406C310.047 38.4448 310.055 38.3445 310.044 38.2455C310.032 38.1465 310.001 38.0508 309.952 37.9638C309.391 36.9017 308.585 35.9886 307.6 35.3001C306.616 34.6117 305.481 34.1677 304.291 34.005C304.192 33.9997 304.093 34.0139 304 34.0468C303.907 34.0798 303.821 34.1308 303.747 34.197C303.674 34.2632 303.614 34.3432 303.571 34.4326C303.529 34.5219 303.504 34.6188 303.499 34.7176C303.491 34.8154 303.503 34.9138 303.534 35.007C303.564 35.1002 303.613 35.1863 303.678 35.2602C303.743 35.334 303.821 35.3942 303.91 35.437C303.998 35.4798 304.094 35.5044 304.192 35.5094C305.126 35.6409 306.016 35.9932 306.787 36.5371C307.558 37.081 308.189 37.8008 308.626 38.6368C308.696 38.7507 308.796 38.8438 308.914 38.9065C309.032 38.9691 309.165 38.999 309.299 38.9931Z" fill="#263238"/>
<path d="M284.358 35.3115C284.484 35.3145 284.608 35.2851 284.719 35.2261C284.83 35.1672 284.924 35.0807 284.992 34.975C285.492 34.1712 286.176 33.4985 286.989 33.013C287.802 32.5275 288.719 32.2433 289.663 32.1841C289.861 32.179 290.05 32.0982 290.19 31.9582C290.33 31.8182 290.41 31.6298 290.415 31.4319C290.415 31.2324 290.336 31.0411 290.195 30.9C290.054 30.7589 289.863 30.6797 289.663 30.6797C288.467 30.7355 287.303 31.0796 286.269 31.6828C285.235 32.2859 284.362 33.1302 283.725 34.1437C283.669 34.2254 283.629 34.3175 283.609 34.4146C283.588 34.5117 283.587 34.6119 283.606 34.7094C283.624 34.807 283.662 34.8999 283.716 34.9828C283.77 35.0658 283.841 35.1371 283.923 35.1928C284.054 35.2718 284.205 35.3129 284.358 35.3115Z" fill="#263238"/>
<path d="M322.146 595.764C323.548 595.724 324.942 595.532 326.302 595.19C326.371 595.168 326.433 595.128 326.481 595.073C326.528 595.018 326.56 594.952 326.572 594.88C326.585 594.809 326.577 594.735 326.55 594.668C326.524 594.6 326.479 594.541 326.421 594.498C325.827 594.141 320.72 590.994 318.959 591.885C318.764 591.988 318.6 592.141 318.485 592.33C318.371 592.518 318.308 592.733 318.305 592.954C318.269 593.323 318.322 593.695 318.46 594.04C318.598 594.384 318.816 594.691 319.097 594.933C319.991 595.544 321.065 595.837 322.146 595.764ZM325.214 594.656C322.522 595.19 320.443 595.091 319.572 594.359C319.381 594.196 319.233 593.987 319.143 593.752C319.053 593.516 319.024 593.262 319.058 593.013C319.052 592.923 319.071 592.832 319.113 592.752C319.155 592.672 319.218 592.605 319.295 592.558C320.206 592.083 323.135 593.448 325.214 594.735V594.656Z" fill="#9953F5"/>
<path d="M326.223 595.19C326.288 595.208 326.356 595.208 326.421 595.19C326.476 595.154 326.522 595.104 326.553 595.045C326.584 594.986 326.6 594.92 326.599 594.854C326.599 594.656 326.203 590.064 324.343 588.559C324.126 588.368 323.87 588.226 323.593 588.144C323.317 588.062 323.025 588.042 322.739 588.084C322.46 588.083 322.188 588.179 321.972 588.356C321.755 588.533 321.607 588.78 321.552 589.054C321.215 590.836 324.402 594.319 326.045 595.21L326.223 595.19ZM323.016 588.797C323.333 588.795 323.638 588.916 323.867 589.133C324.986 590.559 325.642 592.292 325.748 594.102C324.125 592.855 322.086 590.143 322.284 589.193C322.284 589.094 322.284 588.856 322.838 588.797H323.016Z" fill="#9953F5"/>
<path d="M184.556 580.88C184.624 580.877 184.69 580.857 184.749 580.823C184.808 580.788 184.857 580.74 184.892 580.682C184.935 580.617 184.958 580.541 184.958 580.464C184.958 580.387 184.935 580.311 184.892 580.246C184.338 579.652 179.37 574.506 177.193 574.882C176.989 574.919 176.798 575.007 176.639 575.139C176.48 575.271 176.357 575.441 176.282 575.634C176.122 575.94 176.039 576.279 176.039 576.624C176.039 576.968 176.122 577.308 176.282 577.614C177.43 579.593 181.923 580.543 184.516 580.899L184.556 580.88ZM177.39 575.614C178.657 575.614 181.508 577.99 183.487 579.949C179.984 579.355 177.549 578.366 176.915 577.218C176.808 577.02 176.752 576.799 176.752 576.574C176.752 576.35 176.808 576.128 176.915 575.931C176.935 575.853 176.977 575.783 177.038 575.73C177.098 575.677 177.172 575.644 177.252 575.634L177.39 575.614Z" fill="#9953F5"/>
<path d="M184.556 580.879H184.655C184.721 580.864 184.78 580.83 184.826 580.78C184.872 580.731 184.902 580.669 184.912 580.602C184.912 580.424 185.961 576.248 184.595 574.011C184.402 573.69 184.147 573.411 183.845 573.19C183.542 572.969 183.198 572.81 182.834 572.724C181.804 572.487 181.369 572.883 181.151 573.259C180.3 574.862 182.755 579.355 184.299 580.8C184.372 580.857 184.463 580.886 184.556 580.879ZM182.26 573.377H182.656C182.924 573.438 183.178 573.553 183.399 573.717C183.621 573.88 183.806 574.088 183.942 574.328C184.619 576.02 184.751 577.881 184.318 579.652C182.854 577.891 181.31 574.506 181.824 573.536C181.844 573.615 181.943 573.457 182.26 573.457V573.377Z" fill="#9953F5"/>
<path d="M353.599 116.25C355.162 119.12 356.449 121.654 357.716 124.385C358.983 127.117 360.21 129.789 361.417 132.501C363.753 137.964 365.93 143.526 367.85 149.188C369.77 154.849 371.473 160.668 372.918 166.587L373.927 171.08L374.759 175.652C375.056 177.157 375.234 178.74 375.451 180.304L375.748 182.64V183.214L375.847 184.184C375.847 184.936 375.847 185.589 375.847 186.163C375.68 190.325 374.719 194.416 373.017 198.218C371.718 201.271 370.203 204.228 368.484 207.066C365.307 212.274 361.789 217.266 357.953 222.01C350.565 231.205 342.471 239.808 333.745 247.743L324.877 239.825C331.231 230.661 337.526 221.199 343.187 211.836C345.973 207.276 348.517 202.571 350.808 197.743C351.839 195.576 352.719 193.341 353.44 191.052C353.974 189.581 354.235 188.025 354.212 186.46C354.212 186.559 354.212 186.579 354.212 186.361L354.113 185.906L353.698 183.926C353.42 182.679 353.183 181.432 352.827 180.166L351.837 176.365L350.709 172.565C349.125 167.497 347.363 162.41 345.384 157.343C343.405 152.275 341.306 147.248 339.089 142.24C337.981 139.726 336.872 137.232 335.705 134.758L332.32 127.592L353.599 116.25Z" fill="#FF8B7B"/>
<path d="M350.61 107.165C364.802 112.568 374.363 146.872 374.363 146.872L345.028 176.167C345.028 176.167 332.359 150.771 327.213 131.828C321.651 111.183 333.408 100.632 350.61 107.165Z" fill="#9953F5"/>
<path d="M328.499 237.47L313.198 242.517L327.054 257.383C327.054 257.383 339.129 250.178 336.041 243.349L328.499 237.47Z" fill="#FF8B7B"/>
<path d="M305.756 253.523L317.771 265.261L327.015 257.383L313.179 242.518L305.756 253.523Z" fill="#FF8B7B"/>
</svg>
