<svg width="634" height="402" viewBox="0 0 634 402" fill="none" xmlns="http://www.w3.org/2000/svg">
<path d="M449.224 358.506H435.034V358.916H449.224V358.506Z" fill="#EBEBEB"/>
<path d="M587.301 338.832H555.965V339.242H587.301V338.832Z" fill="#EBEBEB"/>
<path d="M517.691 0H426.478V326.471H517.691V0Z" fill="#F5F5F5"/>
<path d="M509.82 9.3125H434.348V319.062H509.82V9.3125Z" fill="#EBEBEB"/>
<path d="M496.071 18.4268H448.081V21.6236H496.071V18.4268Z" fill="#E0E0E0"/>
<path d="M496.071 32.2139H448.081V35.4107H496.071V32.2139Z" fill="#E0E0E0"/>
<path d="M496.071 46.0176H448.081V49.2144H496.071V46.0176Z" fill="#E0E0E0"/>
<path d="M496.071 59.8213H448.081V63.0181H496.071V59.8213Z" fill="#E0E0E0"/>
<path d="M496.071 73.626H448.081V76.8228H496.071V73.626Z" fill="#E0E0E0"/>
<path d="M496.071 87.4141H448.081V90.6109H496.071V87.4141Z" fill="#E0E0E0"/>
<path d="M496.071 101.216H448.081V104.413H496.071V101.216Z" fill="#E0E0E0"/>
<path d="M496.071 213.451H448.081V216.648H496.071V213.451Z" fill="#E0E0E0"/>
<path d="M496.071 227.255H448.081V230.452H496.071V227.255Z" fill="#E0E0E0"/>
<path d="M496.071 241.058H448.081V244.254H496.071V241.058Z" fill="#E0E0E0"/>
<path d="M496.071 254.847H448.081V258.043H496.071V254.847Z" fill="#E0E0E0"/>
<path d="M496.071 268.649H448.081V271.846H496.071V268.649Z" fill="#E0E0E0"/>
<path d="M496.071 282.453H448.081V285.65H496.071V282.453Z" fill="#E0E0E0"/>
<path d="M496.071 296.257H448.081V299.454H496.071V296.257Z" fill="#E0E0E0"/>
<path d="M498.439 148.466C498.439 149.52 498.128 150.55 497.545 151.426C496.961 152.302 496.133 152.985 495.163 153.388C494.193 153.792 493.126 153.897 492.097 153.691C491.067 153.486 490.122 152.978 489.38 152.233C488.637 151.488 488.132 150.539 487.927 149.505C487.722 148.472 487.827 147.4 488.229 146.427C488.631 145.453 489.311 144.621 490.184 144.036C491.056 143.45 492.082 143.138 493.132 143.138C493.83 143.136 494.521 143.272 495.165 143.539C495.81 143.806 496.396 144.198 496.889 144.693C497.383 145.189 497.773 145.777 498.039 146.424C498.305 147.072 498.441 147.765 498.439 148.466Z" fill="#E0E0E0"/>
<path d="M423.8 0H332.586V326.471H423.8V0Z" fill="#F5F5F5"/>
<path d="M415.929 9.3125H340.457V319.062H415.929V9.3125Z" fill="#EBEBEB"/>
<path d="M402.18 18.4268H354.19V21.6236H402.18V18.4268Z" fill="#E0E0E0"/>
<path d="M402.18 32.2139H354.19V35.4107H402.18V32.2139Z" fill="#E0E0E0"/>
<path d="M402.18 46.0176H354.19V49.2144H402.18V46.0176Z" fill="#E0E0E0"/>
<path d="M402.18 59.8213H354.19V63.0181H402.18V59.8213Z" fill="#E0E0E0"/>
<path d="M402.18 73.626H354.19V76.8228H402.18V73.626Z" fill="#E0E0E0"/>
<path d="M402.18 87.4141H354.19V90.6109H402.18V87.4141Z" fill="#E0E0E0"/>
<path d="M402.18 101.216H354.19V104.413H402.18V101.216Z" fill="#E0E0E0"/>
<path d="M402.18 213.451H354.19V216.648H402.18V213.451Z" fill="#E0E0E0"/>
<path d="M402.18 227.255H354.19V230.452H402.18V227.255Z" fill="#E0E0E0"/>
<path d="M402.18 241.058H354.19V244.254H402.18V241.058Z" fill="#E0E0E0"/>
<path d="M402.18 254.847H354.19V258.043H402.18V254.847Z" fill="#E0E0E0"/>
<path d="M402.18 268.649H354.19V271.846H402.18V268.649Z" fill="#E0E0E0"/>
<path d="M402.18 282.453H354.19V285.65H402.18V282.453Z" fill="#E0E0E0"/>
<path d="M402.18 296.257H354.19V299.454H402.18V296.257Z" fill="#E0E0E0"/>
<path d="M404.548 148.466C404.548 149.52 404.237 150.55 403.653 151.426C403.07 152.302 402.242 152.985 401.272 153.388C400.302 153.792 399.235 153.897 398.206 153.691C397.176 153.486 396.231 152.978 395.488 152.233C394.746 151.488 394.241 150.539 394.036 149.505C393.831 148.472 393.936 147.4 394.338 146.427C394.74 145.453 395.42 144.621 396.293 144.036C397.165 143.45 398.191 143.138 399.241 143.138C399.938 143.136 400.63 143.272 401.274 143.539C401.919 143.806 402.505 144.198 402.998 144.693C403.492 145.189 403.882 145.777 404.148 146.424C404.414 147.072 404.55 147.765 404.548 148.466Z" fill="#E0E0E0"/>
<path d="M611.582 0H520.369V326.471H611.582V0Z" fill="#F5F5F5"/>
<path d="M603.711 9.3125H528.239V319.062H603.711V9.3125Z" fill="#EBEBEB"/>
<path d="M589.962 18.4268H541.972V21.6236H589.962V18.4268Z" fill="#E0E0E0"/>
<path d="M589.962 32.2139H541.972V35.4107H589.962V32.2139Z" fill="#E0E0E0"/>
<path d="M589.962 46.0176H541.972V49.2144H589.962V46.0176Z" fill="#E0E0E0"/>
<path d="M589.962 59.8213H541.972V63.0181H589.962V59.8213Z" fill="#E0E0E0"/>
<path d="M589.962 73.626H541.972V76.8228H589.962V73.626Z" fill="#E0E0E0"/>
<path d="M589.962 87.4141H541.972V90.6109H589.962V87.4141Z" fill="#E0E0E0"/>
<path d="M589.962 101.216H541.972V104.413H589.962V101.216Z" fill="#E0E0E0"/>
<path d="M589.962 213.451H541.972V216.648H589.962V213.451Z" fill="#E0E0E0"/>
<path d="M589.962 227.255H541.972V230.452H589.962V227.255Z" fill="#E0E0E0"/>
<path d="M589.962 241.058H541.972V244.254H589.962V241.058Z" fill="#E0E0E0"/>
<path d="M589.962 254.847H541.972V258.043H589.962V254.847Z" fill="#E0E0E0"/>
<path d="M589.962 268.649H541.972V271.846H589.962V268.649Z" fill="#E0E0E0"/>
<path d="M589.962 282.453H541.972V285.65H589.962V282.453Z" fill="#E0E0E0"/>
<path d="M589.962 296.257H541.972V299.454H589.962V296.257Z" fill="#E0E0E0"/>
<path d="M592.33 148.466C592.33 149.52 592.019 150.55 591.436 151.426C590.853 152.302 590.024 152.985 589.054 153.388C588.084 153.792 587.017 153.897 585.988 153.691C584.958 153.486 584.013 152.978 583.271 152.233C582.528 151.488 582.023 150.539 581.818 149.505C581.614 148.472 581.719 147.4 582.12 146.427C582.522 145.453 583.202 144.621 584.075 144.036C584.948 143.45 585.974 143.138 587.023 143.138C587.721 143.136 588.412 143.272 589.057 143.539C589.701 143.806 590.287 144.198 590.781 144.693C591.274 145.189 591.665 145.777 591.93 146.424C592.196 147.072 592.332 147.765 592.33 148.466Z" fill="#E0E0E0"/>
<path d="M316.601 401.703C491.454 401.703 633.201 393.394 633.201 383.145C633.201 372.896 491.454 364.587 316.601 364.587C141.747 364.587 0 372.896 0 383.145C0 393.394 141.747 401.703 316.601 401.703Z" fill="#F5F5F5"/>
<path d="M61.7238 360.998C61.7238 360.998 53.1185 320.193 68.7779 298.094C84.4373 275.995 54.6371 297.848 51.208 318.537C51.208 318.537 46.0644 281.536 61.2503 255.518C76.4361 229.501 48.0239 250.862 45.6072 277.667C45.6072 277.667 40.9535 244.682 47.9422 226.124C54.931 207.566 42.766 219.566 38.1449 231.14C33.5238 242.715 39.5982 271.552 39.5982 271.552C39.5982 271.552 27.4168 218.32 15.8886 222.55C4.36044 226.78 33.1156 261.666 37.1162 279.798C37.1162 279.798 23.5142 255.387 13.1944 260.469C2.87452 265.552 29.1803 268.076 41.2147 304.487L45.4439 321.554C45.4439 321.554 32.9033 297.504 24.7226 305.061C16.5418 312.619 48.9709 325.783 56.5149 362.293L61.7238 360.998Z" fill="#9953F5"/>
<path d="M60.0415 363.34C60.0415 363.34 58.229 311.896 32.9192 290.125C7.60945 268.353 49.7869 285.583 60.0415 309.338C60.0415 309.338 55.2245 263.435 29.2942 236.86C3.36395 210.286 43.7616 227.335 54.6203 258.73C54.6203 258.73 50.3911 217.745 36.5279 197.695C22.6647 177.645 40.7571 188.219 49.7869 200.744C58.8168 213.269 60.0415 249.582 60.0415 249.582C60.0415 249.582 58.8331 182.186 73.9047 183.809C88.9762 185.432 64.8585 235.811 65.4627 258.73C65.4627 258.73 74.5089 225.417 88.3231 228.417C102.137 231.417 71.439 242.32 67.8303 289.518V311.224C67.8303 311.224 75.6682 278.616 87.7189 285.272C99.7696 291.928 64.8585 317.355 66.622 363.34H60.0415Z" fill="#9953F5"/>
<path opacity="0.2" d="M60.0415 363.34C60.0415 363.34 58.229 311.896 32.9192 290.125C7.60945 268.353 49.7869 285.583 60.0415 309.338C60.0415 309.338 55.2245 263.435 29.2942 236.86C3.36395 210.286 43.7616 227.335 54.6203 258.73C54.6203 258.73 50.3911 217.745 36.5279 197.695C22.6647 177.645 40.7571 188.219 49.7869 200.744C58.8168 213.269 60.0415 249.582 60.0415 249.582C60.0415 249.582 58.8331 182.186 73.9047 183.809C88.9762 185.432 64.8585 235.811 65.4627 258.73C65.4627 258.73 74.5089 225.417 88.3231 228.417C102.137 231.417 71.439 242.32 67.8303 289.518V311.224C67.8303 311.224 75.6682 278.616 87.7189 285.272C99.7696 291.928 64.8585 317.355 66.622 363.34H60.0415Z" fill="white"/>
<path d="M25.6697 360.342H100.097V368.408C100.097 373.19 98.2043 377.777 94.8358 381.159C91.4673 384.541 86.8987 386.441 82.1349 386.441H43.6314C38.8677 386.441 34.299 384.541 30.9306 381.159C27.5621 377.777 25.6697 373.19 25.6697 368.408V360.342Z" fill="#263238"/>
<path d="M15.9209 356.029V361.734C15.9252 363.566 16.6531 365.322 17.9449 366.616C19.2367 367.91 20.987 368.636 22.8117 368.636H102.97C104.793 368.636 106.542 367.909 107.831 366.615C109.12 365.32 109.845 363.565 109.845 361.734V356.029H15.9209Z" fill="#263238"/>
<path opacity="0.2" d="M15.9209 356.029V361.734C15.9252 363.566 16.6531 365.322 17.9449 366.616C19.2367 367.91 20.987 368.636 22.8117 368.636H102.97C104.793 368.636 106.542 367.909 107.831 366.615C109.12 365.32 109.845 363.565 109.845 361.734V356.029H15.9209Z" fill="white"/>
<path d="M593.228 354.39C593.5 353.832 593.633 353.215 593.616 352.594C593.599 351.973 593.433 351.365 593.131 350.822C592.829 350.279 592.402 349.818 591.884 349.477C591.366 349.136 590.774 348.926 590.158 348.865C590.69 347.281 590.726 345.571 590.262 343.965C589.798 342.359 588.856 340.934 587.562 339.881C587.252 339.592 586.856 339.414 586.435 339.373C585.985 339.421 585.562 339.61 585.227 339.914L578.042 345.078C577.465 345.437 576.978 345.925 576.621 346.504C575.152 349.357 580.442 353.062 578.254 355.357C577.634 356.029 576.621 356.177 575.838 356.669C574.205 357.734 573.927 360.095 573.127 361.948C572.327 363.8 569.567 365.226 568.506 363.587C569.29 361.816 566.873 360.308 564.979 360.046C563.085 359.784 561.044 359.718 559.982 357.898C557.255 360.308 551.132 353.603 551.263 350.914C550.185 351.11 549.195 351.638 548.431 352.426C547.667 353.214 547.167 354.221 547.001 355.308C546.688 357.534 546.611 359.787 546.772 362.03C546.772 366.407 545.303 370.686 545.368 375.046C545.368 378.456 546.74 382.227 549.842 383.588C551.377 384.148 553.014 384.372 554.643 384.244L589.946 384.014C590.794 384.079 591.645 383.938 592.428 383.604C594.061 382.768 594.371 380.67 594.518 378.866C595.138 371.161 595.77 363.461 596.412 355.767L593.228 354.39Z" fill="#9953F5"/>
<path opacity="0.3" d="M593.228 354.39C593.5 353.832 593.633 353.215 593.616 352.594C593.599 351.973 593.433 351.365 593.131 350.822C592.829 350.279 592.402 349.818 591.884 349.477C591.366 349.136 590.774 348.926 590.158 348.865C590.69 347.281 590.726 345.571 590.262 343.965C589.798 342.359 588.856 340.934 587.562 339.881C587.252 339.592 586.856 339.414 586.435 339.373C585.985 339.421 585.562 339.61 585.227 339.914L578.042 345.078C577.465 345.437 576.978 345.925 576.621 346.504C575.152 349.357 580.442 353.062 578.254 355.357C577.634 356.029 576.621 356.177 575.838 356.669C574.205 357.734 573.927 360.095 573.127 361.948C572.327 363.8 569.567 365.226 568.506 363.587C569.29 361.816 566.873 360.308 564.979 360.046C563.085 359.784 561.044 359.718 559.982 357.898C557.255 360.308 551.132 353.603 551.263 350.914C550.185 351.11 549.195 351.638 548.431 352.426C547.667 353.214 547.167 354.221 547.001 355.308C546.688 357.534 546.611 359.787 546.772 362.03C546.772 366.407 545.303 370.686 545.368 375.046C545.368 378.456 546.74 382.227 549.842 383.588C551.377 384.148 553.014 384.372 554.643 384.244L589.946 384.014C590.794 384.079 591.645 383.938 592.428 383.604C594.061 382.768 594.371 380.67 594.518 378.866C595.138 371.161 595.77 363.461 596.412 355.767L593.228 354.39Z" fill="white"/>
<path d="M595.286 316.93H540.519L540.96 322.487L541.286 326.455L542.119 336.783L542.592 342.701L543.229 350.603L543.491 353.98L543.589 354.997L543.915 358.98L544.34 364.423L544.617 367.817L544.895 371.26L545.221 375.227L545.466 378.243L545.744 381.637L545.858 383.096H596.135L596.249 381.637L596.51 378.26L596.755 375.227L597.082 371.243L597.359 367.817L597.637 364.423L598.078 358.964L598.388 354.997L598.47 353.98L598.747 350.603L599.384 342.701L599.858 336.783L600.691 326.455L601.001 322.487L601.458 316.93H595.286ZM598.552 320.569L597.49 319.504H598.649L598.552 320.569ZM598.29 323.946L598.176 325.291L593.277 330.209L587.66 324.569L592.706 319.504H593.881L598.29 323.946ZM596.87 341.537L593.277 345.144L587.66 339.504L593.294 333.865L597.18 337.767L596.87 341.537ZM544.748 337.767L548.634 333.865L554.251 339.504L548.634 345.144L545.042 341.537L544.748 337.767ZM591.465 332.029L585.831 337.685L580.214 332.029L585.831 326.389L591.465 332.029ZM582.615 319.504H589.048L585.782 322.782L582.615 319.504ZM584.002 339.504L578.402 345.144L572.768 339.504L578.402 333.865L584.002 339.504ZM565.339 346.964L570.956 341.34L576.573 346.964L570.956 352.62L565.339 346.964ZM569.127 354.439L563.51 360.095L557.893 354.456L563.526 348.8L569.127 354.439ZM578.402 348.8L584.002 354.456L578.402 360.095L572.768 354.439L578.402 348.8ZM570.956 337.685L565.339 332.029L570.956 326.389L576.573 332.029L570.956 337.685ZM569.127 339.504L563.526 345.144L557.893 339.504L563.526 333.865L569.127 339.504ZM556.064 337.685L550.447 332.029L556.064 326.389L561.697 332.029L556.064 337.685ZM556.064 341.34L561.697 346.964L556.064 352.62L550.447 346.964L556.064 341.34ZM561.697 361.915L556.064 367.555L550.447 361.915L556.064 356.275L561.697 361.915ZM563.51 363.751L569.127 369.391L563.526 375.047L557.893 369.391L563.51 363.751ZM565.339 361.915L570.956 356.275L576.573 361.915L570.956 367.555L565.339 361.915ZM578.402 363.751L584.002 369.391L578.402 375.047L572.768 369.391L578.402 363.751ZM585.864 371.276L591.497 376.932L587.856 380.588H583.888L580.247 376.932L585.864 371.276ZM580.247 361.981L585.864 356.341L591.497 361.981L585.864 367.62L580.247 361.981ZM580.247 347.029L585.864 341.406L591.497 347.029L585.864 352.685L580.247 347.029ZM584.035 324.635L578.434 330.291L572.801 324.651L577.83 319.586H579.022L584.035 324.635ZM570.972 322.815L567.706 319.536H574.123L570.972 322.815ZM569.143 324.635L563.559 330.291L557.925 324.651L562.955 319.586H564.147L569.143 324.635ZM559.346 319.569L556.08 322.848L552.814 319.569H559.346ZM549.287 319.569L554.317 324.635L548.667 330.291L543.768 325.373L543.67 324.028L548.063 319.586L549.287 319.569ZM544.389 319.569L543.344 320.618L543.262 319.569H544.389ZM544.046 329.406L546.789 332.16L544.454 334.52L544.046 329.406ZM545.581 348.324L545.352 345.652L546.789 347.095L545.581 348.324ZM545.842 351.734L548.618 348.931L554.235 354.587L548.618 360.226L546.348 357.948L545.842 351.734ZM546.675 362.177V361.931L546.789 362.046L546.675 362.177ZM547.654 374.194L546.952 365.538L548.585 363.899L554.202 369.538L548.585 375.178L547.622 374.21L547.654 374.194ZM548.177 380.653L548.063 379.358L548.618 378.817L550.43 380.653H548.177ZM550.43 376.997L556.047 371.342L561.681 376.997L558.04 380.653H554.072L550.43 376.997ZM561.681 380.653L563.51 378.817L565.322 380.653H561.681ZM568.964 380.653L565.322 376.997L570.939 371.342L576.557 376.997L572.964 380.522L568.964 380.653ZM576.557 380.653L578.385 378.817L580.214 380.653H576.557ZM593.702 380.653H591.432L593.261 378.817L593.8 379.358L593.702 380.653ZM594.224 374.194L593.261 375.161L587.66 369.391L593.294 363.751L594.927 365.39L594.224 374.194ZM595.22 361.915V362.177L595.106 362.046L595.253 361.915H595.22ZM595.531 357.948L593.261 360.226L587.66 354.456L593.294 348.8L596.069 351.603L595.531 357.948ZM596.314 348.341L595.073 347.095L596.527 345.652L596.314 348.341ZM597.849 329.389L597.425 334.537L595.073 332.16L597.849 329.389Z" fill="#9953F5"/>
<g opacity="0.6">
<path d="M595.286 316.93H540.519L540.96 322.487L541.286 326.455L542.119 336.783L542.592 342.701L543.229 350.603L543.491 353.98L543.589 354.997L543.915 358.98L544.34 364.423L544.617 367.817L544.895 371.26L545.221 375.227L545.466 378.243L545.744 381.637L545.858 383.096H596.135L596.249 381.637L596.51 378.26L596.755 375.227L597.082 371.243L597.359 367.817L597.637 364.423L598.078 358.964L598.388 354.997L598.47 353.98L598.747 350.603L599.384 342.701L599.858 336.783L600.691 326.455L601.001 322.487L601.458 316.93H595.286ZM598.552 320.569L597.49 319.504H598.649L598.552 320.569ZM598.29 323.946L598.176 325.291L593.277 330.209L587.66 324.569L592.706 319.504H593.881L598.29 323.946ZM596.87 341.537L593.277 345.144L587.66 339.504L593.294 333.865L597.18 337.767L596.87 341.537ZM544.748 337.767L548.634 333.865L554.251 339.504L548.634 345.144L545.042 341.537L544.748 337.767ZM591.465 332.029L585.831 337.685L580.214 332.029L585.831 326.389L591.465 332.029ZM582.615 319.504H589.048L585.782 322.782L582.615 319.504ZM584.002 339.504L578.402 345.144L572.768 339.504L578.402 333.865L584.002 339.504ZM565.339 346.964L570.956 341.34L576.573 346.964L570.956 352.62L565.339 346.964ZM569.127 354.439L563.51 360.095L557.893 354.456L563.526 348.8L569.127 354.439ZM578.402 348.8L584.002 354.456L578.402 360.095L572.768 354.439L578.402 348.8ZM570.956 337.685L565.339 332.029L570.956 326.389L576.573 332.029L570.956 337.685ZM569.127 339.504L563.526 345.144L557.893 339.504L563.526 333.865L569.127 339.504ZM556.064 337.685L550.447 332.029L556.064 326.389L561.697 332.029L556.064 337.685ZM556.064 341.34L561.697 346.964L556.064 352.62L550.447 346.964L556.064 341.34ZM561.697 361.915L556.064 367.555L550.447 361.915L556.064 356.275L561.697 361.915ZM563.51 363.751L569.127 369.391L563.526 375.047L557.893 369.391L563.51 363.751ZM565.339 361.915L570.956 356.275L576.573 361.915L570.956 367.555L565.339 361.915ZM578.402 363.751L584.002 369.391L578.402 375.047L572.768 369.391L578.402 363.751ZM585.864 371.276L591.497 376.932L587.856 380.588H583.888L580.247 376.932L585.864 371.276ZM580.247 361.981L585.864 356.341L591.497 361.981L585.864 367.62L580.247 361.981ZM580.247 347.029L585.864 341.406L591.497 347.029L585.864 352.685L580.247 347.029ZM584.035 324.635L578.434 330.291L572.801 324.651L577.83 319.586H579.022L584.035 324.635ZM570.972 322.815L567.706 319.536H574.123L570.972 322.815ZM569.143 324.635L563.559 330.291L557.925 324.651L562.955 319.586H564.147L569.143 324.635ZM559.346 319.569L556.08 322.848L552.814 319.569H559.346ZM549.287 319.569L554.317 324.635L548.667 330.291L543.768 325.373L543.67 324.028L548.063 319.586L549.287 319.569ZM544.389 319.569L543.344 320.618L543.262 319.569H544.389ZM544.046 329.406L546.789 332.16L544.454 334.52L544.046 329.406ZM545.581 348.324L545.352 345.652L546.789 347.095L545.581 348.324ZM545.842 351.734L548.618 348.931L554.235 354.587L548.618 360.226L546.348 357.948L545.842 351.734ZM546.675 362.177V361.931L546.789 362.046L546.675 362.177ZM547.654 374.194L546.952 365.538L548.585 363.899L554.202 369.538L548.585 375.178L547.622 374.21L547.654 374.194ZM548.177 380.653L548.063 379.358L548.618 378.817L550.43 380.653H548.177ZM550.43 376.997L556.047 371.342L561.681 376.997L558.04 380.653H554.072L550.43 376.997ZM561.681 380.653L563.51 378.817L565.322 380.653H561.681ZM568.964 380.653L565.322 376.997L570.939 371.342L576.557 376.997L572.964 380.522L568.964 380.653ZM576.557 380.653L578.385 378.817L580.214 380.653H576.557ZM593.702 380.653H591.432L593.261 378.817L593.8 379.358L593.702 380.653ZM594.224 374.194L593.261 375.161L587.66 369.391L593.294 363.751L594.927 365.39L594.224 374.194ZM595.22 361.915V362.177L595.106 362.046L595.253 361.915H595.22ZM595.531 357.948L593.261 360.226L587.66 354.456L593.294 348.8L596.069 351.603L595.531 357.948ZM596.314 348.341L595.073 347.095L596.527 345.652L596.314 348.341ZM597.849 329.389L597.425 334.537L595.073 332.16L597.849 329.389Z" fill="white"/>
</g>
<path d="M539.686 321.815H602.291C603.77 321.815 604.969 320.612 604.969 319.127V317.307C604.969 315.822 603.77 314.618 602.291 314.618H539.686C538.207 314.618 537.008 315.822 537.008 317.307V319.127C537.008 320.612 538.207 321.815 539.686 321.815Z" fill="#9953F5"/>
<path d="M597.392 379.228H544.584C543.105 379.228 541.906 380.431 541.906 381.916V383.736C541.906 385.221 543.105 386.425 544.584 386.425H597.392C598.871 386.425 600.07 385.221 600.07 383.736V381.916C600.07 380.431 598.871 379.228 597.392 379.228Z" fill="#9953F5"/>
<path d="M507.535 350.357L462.01 345.865V294.322H443.966V345.849L398.245 350.357C396.055 350.573 394.023 351.598 392.545 353.235C391.066 354.871 390.246 357.001 390.244 359.21V366.079H515.503V359.21C515.502 357.006 514.687 354.88 513.215 353.245C511.743 351.609 509.719 350.58 507.535 350.357Z" fill="#263238"/>
<path opacity="0.1" d="M507.535 350.357L462.01 345.865V294.322H443.966V345.849L398.245 350.357C396.055 350.573 394.023 351.598 392.545 353.235C391.066 354.871 390.246 357.001 390.244 359.21V366.079H515.503V359.21C515.502 357.006 514.687 354.88 513.215 353.245C511.743 351.609 509.719 350.58 507.535 350.357Z" fill="white"/>
<path d="M395.077 386.425C401.589 386.425 406.867 381.126 406.867 374.588C406.867 368.051 401.589 362.752 395.077 362.752C388.566 362.752 383.288 368.051 383.288 374.588C383.288 381.126 388.566 386.425 395.077 386.425Z" fill="#263238"/>
<path d="M510.702 386.425C517.213 386.425 522.492 381.126 522.492 374.588C522.492 368.051 517.213 362.752 510.702 362.752C504.191 362.752 498.913 368.051 498.913 374.588C498.913 381.126 504.191 386.425 510.702 386.425Z" fill="#263238"/>
<path d="M440.864 250.912H465.194V301.34C465.194 303.136 464.483 304.858 463.218 306.128C461.954 307.398 460.238 308.111 458.45 308.111H447.689C445.901 308.111 444.185 307.398 442.921 306.128C441.656 304.858 440.945 303.136 440.945 301.34V250.912H440.864Z" fill="#263238"/>
<path opacity="0.2" d="M440.864 250.912H465.194V301.34C465.194 303.136 464.483 304.858 463.218 306.128C461.954 307.398 460.238 308.111 458.45 308.111H447.689C445.901 308.111 444.185 307.398 442.921 306.128C441.656 304.858 440.945 303.136 440.945 301.34V250.912H440.864Z" fill="white"/>
<path d="M515.993 151.597C515.993 151.597 502.472 236.321 475.807 250.895H502.913C502.913 250.895 529.709 222.091 537.873 151.597H515.993Z" fill="#263238"/>
<path opacity="0.1" d="M515.993 151.597C515.993 151.597 502.472 236.321 475.807 250.895H502.913C502.913 250.895 529.709 222.091 537.873 151.597H515.993Z" fill="white"/>
<path d="M512.155 257.486H390.62V247.142C390.62 244.968 391.48 242.883 393.011 241.346C394.542 239.808 396.619 238.945 398.784 238.945H503.991C506.156 238.945 508.233 239.808 509.764 241.346C511.295 242.883 512.155 244.968 512.155 247.142V257.486Z" fill="#9953F5"/>
<path d="M388.84 257.486H513.935C515.748 257.486 517.217 256.011 517.217 254.191V251.503C517.217 249.683 515.748 248.207 513.935 248.207L388.84 248.207C387.027 248.207 385.558 249.683 385.558 251.503V254.191C385.558 256.011 387.027 257.486 388.84 257.486Z" fill="#263238"/>
<path opacity="0.6" d="M388.84 257.486H513.935C515.748 257.486 517.217 256.011 517.217 254.191V251.503C517.217 249.683 515.748 248.207 513.935 248.207L388.84 248.207C387.027 248.207 385.558 249.683 385.558 251.503V254.191C385.558 256.011 387.027 257.486 388.84 257.486Z" fill="white"/>
<path d="M541.074 168.826H497.623C484.903 168.826 476.64 158.579 479.171 145.874L482.551 129.004C485.066 116.365 497.443 106.053 510.163 106.053H553.598C566.335 106.053 574.597 116.299 572.066 129.004L568.686 145.874C566.155 158.579 553.794 168.826 541.074 168.826Z" fill="#9953F5"/>
<path d="M321.042 112.069L309.792 105.692C308.035 104.268 305.963 103.29 303.75 102.84C297.54 102.737 291.335 103.225 285.217 104.299C283.584 104.938 284.172 118.102 285.217 118.316C286.262 118.529 302.509 118.725 303.962 118.316C305.416 117.906 308.959 113.922 308.959 113.922L317.303 119.529L321.042 112.069Z" fill="#EBB376"/>
<path d="M371.956 94.4307C366.045 99.7423 347.462 121.989 344.556 122.792C341.649 123.596 314.478 106.398 314.478 106.398L310.624 117.235C310.624 117.235 336.195 138.367 344.556 139.826C353.618 141.465 383.827 116.874 383.827 116.874L371.956 94.4307Z" fill="#9953F5"/>
<path opacity="0.5" d="M383.827 116.873C383.827 116.873 377.018 122.415 368.853 128.054C359.872 134.284 349.259 140.661 344.539 139.825C336.163 138.382 310.592 117.25 310.592 117.25L314.445 106.414C314.445 106.414 341.649 123.579 344.539 122.808C347.43 122.037 366.028 99.758 371.907 94.4463L379.679 109.103L383.827 116.873Z" fill="white"/>
<path opacity="0.2" d="M383.827 116.874C383.827 116.874 377.018 122.415 368.853 128.055C370.241 120.333 376.512 112.579 379.679 109.087L383.827 116.874Z" fill="black"/>
<path d="M400.744 163.959C400.744 163.959 373.295 115.793 371.956 94.4316C371.956 94.4316 381.378 76.9392 393.739 73.1193C406.099 69.2995 438.823 71.4799 438.823 71.4799C438.823 71.4799 464.704 98.1367 478.714 158.778L400.744 163.959Z" fill="#9953F5"/>
<path opacity="0.7" d="M400.744 163.959C400.744 163.959 373.295 115.793 371.956 94.4316C371.956 94.4316 381.378 76.9392 393.739 73.1193C406.099 69.2995 438.823 71.4799 438.823 71.4799C438.823 71.4799 464.704 98.1367 478.714 158.778L400.744 163.959Z" fill="white"/>
<path opacity="0.1" d="M420.109 108.168L436.373 104.332L442.3 119.431L436.046 126.136L425.857 122.792L420.109 108.168Z" fill="black"/>
<path d="M415.276 370.13L401.331 372.736L388.954 341.538L402.883 338.948L415.276 370.13Z" fill="#EBB376"/>
<path opacity="0.2" d="M402.883 338.948L388.97 341.555L396.041 359.392L409.724 356.129L402.883 338.948Z" fill="black"/>
<path d="M266.977 375.475L255.368 367.311L268.888 336.604L280.481 344.769L266.977 375.475Z" fill="#EBB376"/>
<path opacity="0.2" d="M280.481 344.768L268.888 336.62L261.164 354.178L273.052 361.703L280.481 344.768Z" fill="black"/>
<path d="M460.964 211.353L416.468 225.042L327.704 252.387C307.244 300.094 282.18 349.964 282.18 349.964L258.96 340.39C258.96 340.39 283.959 256.633 291.258 235.698C302.917 202.287 427.474 179.958 427.474 179.958L460.964 211.353Z" fill="#263238"/>
<path d="M281.02 358.719L252.428 346.292L256.151 333.177L287.241 347.423L281.02 358.719Z" fill="#9953F5"/>
<path opacity="0.2" d="M281.02 358.719L252.428 346.292L256.151 333.177L287.241 347.423L281.02 358.719Z" fill="white"/>
<path d="M253.587 366.472C253.587 366.472 253.424 366.308 253.424 366.292L253.245 366.112L253.441 366.276C253.538 366.079 255.514 362.57 254.779 360.751C254.685 360.522 254.541 360.318 254.357 360.153C254.174 359.988 253.955 359.868 253.718 359.8C253.457 359.699 253.171 359.69 252.904 359.773C252.637 359.856 252.406 360.028 252.249 360.259C251.77 361.385 251.701 362.644 252.053 363.816C251.105 362.62 249.913 361.423 248.917 361.374C248.707 361.374 248.499 361.424 248.311 361.521C248.124 361.618 247.962 361.759 247.84 361.931C247.611 362.177 247.455 362.483 247.392 362.814C247.328 363.144 247.359 363.486 247.48 363.8C247.97 364.597 248.739 365.182 249.636 365.439C250.797 365.92 252.007 366.272 253.245 366.489H253.359H253.457L253.587 366.472ZM252.787 360.702C252.902 360.538 253.098 360.374 253.555 360.521H253.702C253.822 360.574 253.93 360.65 254.02 360.746C254.11 360.842 254.18 360.955 254.224 361.079C254.682 362.161 253.881 364.275 253.31 365.505C253.256 365.408 253.196 365.315 253.13 365.226C252.505 363.802 252.384 362.205 252.787 360.702ZM248.019 363.554C247.955 363.352 247.945 363.136 247.991 362.928C248.036 362.721 248.137 362.529 248.281 362.374C248.337 362.286 248.414 362.215 248.506 362.166C248.597 362.117 248.7 362.093 248.803 362.095C249.799 362.095 251.481 364.177 252.559 365.8C250.109 365.243 248.444 364.423 248.019 363.554Z" fill="#9953F5"/>
<path d="M255.204 365.31L269.77 371.703C269.894 371.75 270.008 371.822 270.104 371.914C270.2 372.006 270.277 372.116 270.331 372.238C270.384 372.36 270.412 372.492 270.414 372.626C270.416 372.759 270.391 372.891 270.341 373.015L265.981 384.917C265.716 385.521 265.225 385.996 264.615 386.241C264.004 386.487 263.323 386.482 262.715 386.228C257.67 383.917 255.384 382.556 248.999 379.671C245.064 377.933 237.128 374.884 232.131 371.654C227.135 368.425 230.499 363.556 232.85 364.474C238.549 366.638 247.709 366.343 252.624 365.064C253.487 364.852 254.396 364.939 255.204 365.31Z" fill="#263238"/>
<path d="M399.601 371.277C399.601 371.031 399.356 366.998 397.886 365.719C397.654 365.547 397.389 365.427 397.108 365.365C396.826 365.302 396.535 365.3 396.253 365.358C395.963 365.378 395.688 365.493 395.469 365.686C395.251 365.878 395.102 366.138 395.045 366.424C395.1 367.649 395.592 368.813 396.433 369.703C395.254 369.001 393.866 368.739 392.514 368.965C392.321 369.059 392.154 369.199 392.028 369.374C391.903 369.548 391.823 369.752 391.795 369.965C391.706 370.287 391.707 370.628 391.8 370.949C391.892 371.271 392.071 371.56 392.318 371.785C393.12 372.29 394.08 372.477 395.012 372.309C396.266 372.203 397.504 371.956 398.702 371.572C398.721 371.579 398.74 371.583 398.76 371.583C398.779 371.583 398.799 371.579 398.817 371.572C398.817 371.572 398.817 371.572 398.817 371.473C398.817 371.375 399.16 371.391 399.176 371.342H399.47L399.601 371.277ZM395.698 366.555C395.698 366.358 395.829 366.129 396.286 366.047H396.449C396.58 366.039 396.712 366.058 396.835 366.103C396.959 366.149 397.072 366.219 397.168 366.309C398.066 367.063 398.311 369.309 398.376 370.654L398.082 370.49C396.845 369.506 396 368.11 395.698 366.555ZM392.808 371.277C392.661 371.126 392.555 370.939 392.501 370.735C392.447 370.532 392.445 370.317 392.498 370.113C392.504 370.007 392.539 369.905 392.6 369.818C392.66 369.731 392.744 369.663 392.84 369.621C393.739 369.195 396.106 370.244 397.87 371.178C395.371 371.834 393.51 371.867 392.808 371.277Z" fill="#9953F5"/>
<path d="M399.878 369.637L415.75 368.637C415.881 368.624 416.013 368.636 416.139 368.674C416.265 368.712 416.382 368.775 416.484 368.859C416.586 368.943 416.67 369.046 416.732 369.163C416.794 369.279 416.832 369.407 416.844 369.539L418.477 382.097C418.517 382.759 418.297 383.41 417.863 383.91C417.429 384.41 416.817 384.718 416.158 384.769C410.623 385.015 407.994 384.867 400.972 385.244C396.694 385.507 388.236 386.425 382.325 385.851C376.414 385.277 377.132 379.408 379.696 379.129C385.754 378.441 393.771 373.982 397.559 370.588C398.208 370.025 399.022 369.691 399.878 369.637Z" fill="#263238"/>
<path d="M373.589 80.8079C376.019 79.9466 378.67 79.9466 381.1 80.8079C381.658 83.1926 382.995 85.3212 384.897 86.8543C386.8 88.3875 389.16 89.2369 391.599 89.2672C392.804 89.3286 394.012 89.2792 395.208 89.1197C407.438 87.4803 406.099 69.1681 406.099 69.1681C401.641 69.4876 397.193 68.4169 393.363 66.1024C390.113 64.1875 387.276 61.6403 385.019 58.6104L373.589 80.8079Z" fill="#EBB376"/>
<path opacity="0.2" d="M373.589 80.8079C376.019 79.9466 378.67 79.9466 381.1 80.8079C381.658 83.1926 382.995 85.3212 384.897 86.8543C386.8 88.3875 389.16 89.2369 391.599 89.2672C394.751 81.4473 394.343 72.4961 393.363 66.1024C390.113 64.1875 387.276 61.6403 385.019 58.6104L373.589 80.8079Z" fill="black"/>
<path d="M365.065 40.444C371.107 43.067 369.833 49.7066 359.546 61.7562C353.423 56.297 350.255 44.0179 353.57 40.1489C356.884 36.2799 359.791 38.1652 365.065 40.444Z" fill="#263238"/>
<path d="M389.966 46.068C391.861 59.3144 393.624 66.9704 388.448 75.0527C380.643 87.2006 363.334 84.5612 357.521 72.1345C352.328 60.9866 350.091 41.199 361.767 33.3626C364.332 31.6252 367.297 30.5737 370.38 30.3074C373.463 30.0412 376.563 30.569 379.386 31.841C382.209 33.1131 384.663 35.0872 386.514 37.5767C388.366 40.0662 389.554 42.9888 389.966 46.068Z" fill="#EBB376"/>
<path d="M371.254 53.7071C371.482 54.7727 371.09 55.74 370.388 55.8875C369.686 56.0351 368.968 55.2974 368.755 54.2481C368.543 53.1989 368.902 52.1989 369.604 52.0513C370.306 51.9038 370.96 52.6743 371.254 53.7071Z" fill="#263238"/>
<path d="M359.203 56.2332C359.431 57.2824 359.039 58.2661 358.353 58.4136C357.668 58.5612 356.917 57.8234 356.721 56.7742C356.525 55.725 356.884 54.7249 357.586 54.5938C358.288 54.4626 359.056 55.1676 359.203 56.2332Z" fill="#263238"/>
<path d="M363.236 55.9043C362.645 59.4233 361.574 62.8436 360.052 66.0686C360.886 66.4364 361.791 66.6167 362.702 66.5969C363.613 66.5771 364.508 66.3576 365.326 65.9538L363.236 55.9043Z" fill="#D58745"/>
<path d="M382.39 35.5595C376.723 38.9203 378.83 45.396 390.554 55.9209C395.942 49.7076 397.543 37.117 393.82 33.7234C390.097 30.3298 387.337 32.6414 382.39 35.5595Z" fill="#263238"/>
<path d="M398.327 55.2488C398.075 58.6053 396.507 61.7244 393.967 63.9213C390.571 66.7903 387.044 64.2 386.44 60.0195C385.901 56.2489 387.011 50.1831 391.159 48.9699C395.306 47.7568 398.621 51.1339 398.327 55.2488Z" fill="#EBB376"/>
<path d="M376.658 47.4451C376.567 47.5279 376.455 47.5851 376.335 47.611C376.215 47.6369 376.09 47.6306 375.972 47.5926C375.173 47.287 374.314 47.1737 373.463 47.262C372.612 47.3502 371.794 47.6375 371.074 48.1009C370.933 48.2117 370.754 48.2619 370.577 48.2404C370.399 48.2189 370.237 48.1274 370.127 47.9861C370.016 47.8448 369.966 47.6652 369.988 47.4869C370.009 47.3086 370.1 47.1461 370.241 47.0352C371.131 46.4349 372.151 46.0563 373.216 45.9309C374.281 45.8054 375.36 45.9368 376.364 46.3139C376.448 46.3399 376.525 46.3823 376.591 46.4387C376.658 46.4951 376.713 46.5643 376.752 46.6422C376.792 46.7201 376.815 46.8051 376.822 46.8924C376.828 46.9796 376.817 47.0672 376.789 47.15C376.761 47.2547 376.717 47.3544 376.658 47.4451Z" fill="#263238"/>
<path d="M352.655 50.7076C352.519 50.688 352.393 50.6247 352.296 50.5273C352.2 50.3782 352.165 50.1979 352.199 50.0238C352.232 49.8498 352.331 49.6954 352.475 49.5928C353.364 48.9887 354.384 48.6079 355.449 48.4823C356.515 48.3568 357.595 48.4902 358.599 48.8714C358.681 48.9052 358.755 48.9553 358.817 49.0187C358.879 49.0821 358.927 49.1575 358.959 49.2403C358.991 49.3231 359.006 49.4115 359.003 49.5003C359 49.5891 358.979 49.6763 358.942 49.7567C358.87 49.9197 358.737 50.0475 358.572 50.112C358.406 50.1766 358.222 50.1726 358.06 50.101C357.249 49.818 356.384 49.7299 355.533 49.8438C354.682 49.9576 353.87 50.2704 353.161 50.7568C353.078 50.7839 352.99 50.7936 352.903 50.7851C352.816 50.7766 352.731 50.7503 352.655 50.7076Z" fill="#263238"/>
<path d="M392.334 35.1992C392.334 35.1992 395.241 29.3957 387.599 24.3627C379.957 19.3297 356.835 23.2643 348.556 33.7893C340.278 44.3143 347.462 50.7244 347.462 50.7244C347.114 48.9817 347.385 47.1716 348.23 45.6094C349.096 47.3759 350.496 48.822 352.23 49.7407C354.859 50.9211 353.112 50.544 353.112 50.544C353.001 47.7707 353.894 45.0507 355.627 42.888C357.614 44.8433 360.03 46.3032 362.681 47.1504C363.257 44.8616 364.615 42.8484 366.518 41.4617C366.518 41.4617 367.955 46.1012 370.159 46.5439C370.159 46.5439 369.964 42.7568 375.058 39.9862C375.058 39.9862 375.63 43.5929 377.067 44.5438C377.116 44.6749 379.549 36.5107 392.334 35.1992Z" fill="#263238"/>
<path d="M368.723 70.4121C368.607 70.4124 368.493 70.3782 368.396 70.3137C368.326 70.2718 368.266 70.2162 368.218 70.1501C368.17 70.0841 368.136 70.009 368.117 69.9294C368.099 69.8498 368.097 69.7673 368.111 69.6868C368.125 69.6064 368.156 69.5296 368.2 69.4612C370.099 66.7491 372.865 64.7706 376.038 63.8545C376.114 63.8295 376.194 63.8203 376.274 63.8276C376.354 63.8349 376.431 63.8584 376.502 63.8968C376.572 63.9352 376.634 63.9876 376.683 64.0508C376.733 64.114 376.769 64.1866 376.789 64.2643C376.835 64.4208 376.818 64.5893 376.742 64.7334C376.666 64.8774 376.536 64.9857 376.381 65.0348C373.498 65.8791 370.98 67.6683 369.229 70.117C369.178 70.2063 369.104 70.2805 369.015 70.3323C368.926 70.3841 368.825 70.4116 368.723 70.4121Z" fill="#263238"/>
<path d="M369.294 61.4287C367.828 61.2956 366.45 60.6696 365.383 59.6519C364.316 58.6343 363.623 57.2847 363.415 55.8219C362.73 52.1988 364.656 48.7724 367.71 48.1823C370.763 47.5921 373.801 50.084 374.486 53.707C374.825 55.3804 374.571 57.12 373.768 58.6253C373.408 59.3133 372.9 59.9127 372.282 60.3804C371.664 60.8481 370.95 61.1725 370.192 61.3303C369.896 61.3882 369.595 61.4211 369.294 61.4287ZM368.608 48.9692C368.364 48.9448 368.118 48.9448 367.873 48.9692C365.293 49.461 363.66 52.4283 364.265 55.5268C364.852 58.6744 367.432 60.8713 370.029 60.3631C370.664 60.2305 371.262 59.9572 371.779 59.5629C372.296 59.1687 372.719 58.6635 373.017 58.0843C373.725 56.7541 373.945 55.2162 373.637 53.7398C373.469 52.4809 372.879 51.3169 371.965 50.4382C371.052 49.5596 369.868 49.0185 368.608 48.9036V48.9692Z" fill="#263238"/>
<path d="M355.251 63.8069C354.003 63.7884 352.801 63.33 351.855 62.5117C350.556 61.4019 349.683 59.8709 349.389 58.1837C348.704 54.5606 350.63 51.1507 353.684 50.5605C354.447 50.4294 355.23 50.4702 355.975 50.68C356.721 50.8899 357.411 51.2634 357.995 51.7736C359.293 52.8776 360.165 54.403 360.46 56.0853C360.789 57.7589 360.536 59.4952 359.742 61.0035C359.382 61.6899 358.874 62.2872 358.255 62.7522C357.637 63.2173 356.923 63.5383 356.166 63.6921C355.866 63.7627 355.559 63.8012 355.251 63.8069ZM350.238 58.0362C350.493 59.5176 351.255 60.8631 352.394 61.8396C352.874 62.2679 353.446 62.58 354.065 62.7516C354.684 62.9232 355.334 62.9498 355.965 62.8295C356.596 62.7091 357.191 62.4449 357.704 62.0573C358.217 61.6697 358.635 61.1689 358.925 60.5936C359.616 59.2496 359.838 57.7123 359.557 56.2267C359.276 54.7411 358.507 53.3928 357.374 52.3966C356.889 51.9688 356.314 51.6554 355.693 51.4796C355.071 51.3037 354.418 51.2697 353.782 51.3802C351.185 51.872 349.569 54.8393 350.173 57.9378L350.238 58.0362Z" fill="#263238"/>
<path d="M360.035 56.5933C359.942 56.5934 359.851 56.5648 359.774 56.5113C359.728 56.4774 359.69 56.4347 359.661 56.3855C359.632 56.3364 359.613 56.2819 359.605 56.2254C359.598 56.1688 359.602 56.1113 359.617 56.0562C359.632 56.0011 359.657 55.9496 359.693 55.9047C360.224 55.2874 360.962 54.8854 361.767 54.7738C362.572 54.6622 363.39 54.8485 364.069 55.2981C364.164 55.359 364.232 55.4541 364.259 55.5639C364.287 55.6736 364.271 55.7897 364.216 55.8883C364.187 55.9394 364.148 55.9841 364.102 56.0195C364.056 56.055 364.002 56.0804 363.946 56.0942C363.889 56.1081 363.83 56.1101 363.772 56.1C363.715 56.09 363.66 56.0682 363.612 56.0359C363.11 55.7001 362.505 55.5553 361.906 55.6274C361.308 55.6995 360.754 55.9839 360.346 56.4293C360.309 56.4773 360.262 56.5167 360.208 56.545C360.155 56.5732 360.096 56.5897 360.035 56.5933Z" fill="#263238"/>
<path d="M374.062 54.1662C373.968 54.1651 373.876 54.1323 373.802 54.0729C373.728 54.0134 373.676 53.9309 373.654 53.8383C373.624 53.7296 373.638 53.6134 373.693 53.5151C373.748 53.4167 373.84 53.3443 373.948 53.3137L386.195 49.871C386.307 49.8451 386.425 49.8628 386.525 49.9206C386.625 49.9784 386.699 50.0719 386.734 50.1825C386.759 50.2932 386.741 50.4094 386.683 50.507C386.625 50.6047 386.532 50.6763 386.423 50.7071L374.177 54.1498L374.062 54.1662Z" fill="#263238"/>
<path opacity="0.2" d="M416.468 225.043L327.704 252.388C327.704 252.388 324.438 227.797 340.424 216.321C363.775 199.501 415.276 194.796 415.276 194.796C415.276 194.796 415.913 209.419 416.468 225.043Z" fill="black"/>
<path d="M398.686 196.763L402.115 175.205L400.743 163.958L478.714 158.729L479.889 171.27C479.889 171.27 489.164 215.272 482.731 227.206C471.3 248.519 423.947 247.683 382.814 247.683C391.746 273.913 409.675 340.309 409.675 340.309L388.17 350.145C388.17 350.145 346.679 274.372 337.257 241.568C328.978 212.599 369.327 203.91 398.686 196.763Z" fill="#263238"/>
<path d="M414.558 346.244L385.705 358.031L378.977 346.195L410.884 333.866L414.558 346.244Z" fill="#9953F5"/>
<path opacity="0.2" d="M414.558 346.244L385.705 358.031L378.977 346.195L410.884 333.866L414.558 346.244Z" fill="white"/>
<path d="M454.269 172.072L480.836 170.482L479.236 160.58L453.257 162.252L454.269 172.072Z" fill="black"/>
<path d="M405.152 165.334L400.744 165.629L402.115 175.203L405.92 174.974L405.152 165.334Z" fill="black"/>
<path d="M409.039 174.794L451.151 172.269L450.367 162.433L408.043 165.154L409.039 174.794Z" fill="black"/>
<path d="M421.416 174.926C420.499 174.929 419.615 174.585 418.94 173.962C418.265 173.339 417.849 172.483 417.775 171.565L417.464 167.991C417.378 167.031 417.672 166.076 418.284 165.333C418.896 164.59 419.775 164.12 420.73 164.024L428.29 163.368C428.771 163.322 429.256 163.373 429.716 163.52C430.176 163.666 430.602 163.905 430.968 164.221C431.334 164.531 431.635 164.911 431.853 165.339C432.072 165.767 432.204 166.233 432.242 166.713L432.552 170.287C432.596 170.769 432.543 171.255 432.398 171.717C432.252 172.179 432.016 172.606 431.703 172.975C431.397 173.347 431.02 173.654 430.593 173.877C430.167 174.099 429.7 174.233 429.221 174.27L421.661 174.91L421.416 174.926ZM428.666 164.991H428.503L420.942 165.647C420.677 165.668 420.418 165.741 420.181 165.863C419.944 165.985 419.733 166.153 419.562 166.358C419.39 166.562 419.26 166.799 419.181 167.054C419.101 167.309 419.073 167.578 419.097 167.844L419.391 171.434C419.439 171.971 419.698 172.466 420.11 172.811C420.521 173.152 421.047 173.322 421.579 173.287L429.139 172.631C429.407 172.608 429.667 172.533 429.905 172.409C430.143 172.285 430.355 172.116 430.527 171.91C430.869 171.497 431.038 170.969 431.001 170.434L430.691 166.86C430.668 166.592 430.593 166.331 430.47 166.092C430.346 165.853 430.177 165.64 429.972 165.467C429.608 165.155 429.144 164.986 428.666 164.991Z" fill="white"/>
<path d="M426.788 169.958C426.591 169.956 426.401 169.885 426.251 169.755C426.102 169.626 426.003 169.448 425.972 169.253C425.944 169.038 426.002 168.82 426.134 168.648C426.265 168.476 426.46 168.363 426.674 168.335L429.793 167.908C429.899 167.89 430.008 167.893 430.113 167.918C430.218 167.943 430.317 167.989 430.404 168.053C430.491 168.117 430.564 168.199 430.619 168.292C430.674 168.386 430.71 168.489 430.723 168.597C430.751 168.814 430.694 169.033 430.562 169.208C430.431 169.383 430.237 169.499 430.021 169.531L426.886 169.958H426.788Z" fill="white"/>
<path opacity="0.2" d="M399.012 96.235C399.012 96.235 406.916 124.285 416.468 143.27C416.468 143.27 401.429 115.121 395.812 93.4316L399.012 96.235Z" fill="black"/>
<path d="M399.421 101.464L403.487 96.1357H405.675L408.794 99.4146L409.104 103.152C405.267 104.874 399.421 103.152 399.421 103.152V101.464Z" fill="#9953F5"/>
<path d="M403.323 97.4964C403.237 90.6876 402.504 83.9026 401.135 77.2334L403.323 78.1843C405.391 84.8768 406.134 91.9108 405.511 98.8899L403.323 97.4964Z" fill="#9953F5"/>
<path d="M400.564 101.628C400.564 101.628 385.198 95.5297 383.729 85.5293L382.651 87.4146C382.651 87.4146 386.309 100.054 402.474 103.186L400.564 101.628Z" fill="#9953F5"/>
<path d="M406.965 100.678C408.534 100.425 410.018 99.7932 411.29 98.8364C412.561 97.8796 413.582 96.6266 414.264 95.1856C417.905 86.7754 414.264 74.4307 423.277 68.9551L428.339 70.7584C425.52 72.915 423.461 75.9189 422.461 79.3325C420.632 86.382 418.558 103.825 406.965 103.169V100.678Z" fill="#9953F5"/>
<path d="M403.34 66.1191L395.812 84.6772L395.208 89.12L389.868 86.5625L381.263 81.4148C381.263 81.4148 377.442 86.7756 383.827 95.1366L389.868 90.12L398.343 99.4482L400.743 87.9724L410.622 91.1692C410.622 91.1692 414.574 74.5457 414.574 69.7914L403.34 66.1191Z" fill="#9953F5"/>
<path opacity="0.6" d="M414.574 69.7901C414.574 74.5772 410.606 91.2171 410.606 91.2171L400.711 88.0203L398.327 99.4961L389.852 90.1679L383.811 95.1845C377.426 86.8235 381.231 81.4626 381.231 81.4626L389.852 86.6104L395.192 89.1678L395.796 84.7251L403.307 66.167L414.574 69.7901Z" fill="white"/>
<path opacity="0.2" d="M410.623 91.2173L400.727 88.0205L398.343 99.4471L397.821 85.0859L410.623 91.2173Z" fill="black"/>
<path opacity="0.2" d="M398.343 99.4481L389.869 90.1199L383.827 95.1364L388.138 87.3984L398.343 99.4481Z" fill="black"/>
<path d="M357.194 117.367L344.54 115.941C342.785 114.514 340.712 113.535 338.498 113.088C332.283 112.98 326.072 113.463 319.948 114.531C318.315 115.17 318.903 128.335 319.948 128.564C320.993 128.794 337.241 128.974 338.71 128.564C340.18 128.154 343.707 124.171 343.707 124.171L354.794 126.138L357.194 117.367Z" fill="#EBB376"/>
<path d="M438.823 71.4293C433.597 72.495 409.431 118.579 409.431 118.579L347.234 115.529L346.303 126.218C346.303 126.218 402.034 138.399 414.59 136.055C427.147 133.71 449.795 94.3646 451.151 90.0366C454.237 80.1837 442.333 70.708 438.823 71.4293Z" fill="#9953F5"/>
<path opacity="0.6" d="M438.823 71.4293C433.597 72.495 409.431 118.579 409.431 118.579L347.234 115.529L346.303 126.218C346.303 126.218 402.034 138.399 414.59 136.055C427.147 133.71 449.795 94.3646 451.151 90.0366C454.237 80.1837 442.333 70.708 438.823 71.4293Z" fill="white"/>
<path d="M96.2914 131.742V126.381H92.7153L96.2914 124.282H93.6134L97.1894 121.938H100.586V119.233H96.6506L100.586 117.659V111.807H96.6506V107.987H92.7153L96.6506 106.659V103.937H93.8257L96.1281 101.626L98.1365 99.6094H159.174V102.364H163.207L158.717 104.38V106.659H166.946V110.872H170.588L166.946 112.708V117.43H164.366V119.676H159.174V126.381H162.08L159.696 128.774V131.758L96.2914 131.742Z" fill="#9953F5"/>
<path opacity="0.7" d="M96.2914 131.742V126.381H92.7153L96.2914 124.282H93.6134L97.1894 121.938H100.586V119.233H96.6506L100.586 117.659V111.807H96.6506V107.987H92.7153L96.6506 106.659V103.937H93.8257L96.1281 101.626L98.1365 99.6094H159.174V102.364H163.207L158.717 104.38V106.659H166.946V110.872H170.588L166.946 112.708V117.43H164.366V119.676H159.174V126.381H162.08L159.696 128.774V131.758L96.2914 131.742Z" fill="white"/>
<path opacity="0.1" d="M96.2914 131.742V126.381H92.7153L96.2914 124.282H93.6134L97.1894 121.938H100.586V119.233H96.6506L100.586 117.659V111.807H96.6506V107.987H92.7153L96.6506 106.659V103.937H93.8257L96.1281 101.626L98.1365 99.6094H130.288V102.364H134.321L129.831 104.38V106.659H138.061V110.872H141.702L138.061 112.708V117.43H135.481V119.676H130.288V126.381H133.195L130.811 128.774V131.758L96.2914 131.742Z" fill="black"/>
<path opacity="0.1" d="M158.716 106.658H129.831L158.716 105.608V106.658Z" fill="black"/>
<path opacity="0.1" d="M159.174 119.675H130.288L130.157 121.708L159.174 119.675Z" fill="black"/>
<path opacity="0.1" d="M164.366 117.429H135.481L164.366 118.445V117.429Z" fill="black"/>
<path opacity="0.1" d="M159.174 126.381H130.288L159.174 125.299V126.381Z" fill="black"/>
<path opacity="0.1" d="M159.697 128.773H130.811V129.872L159.697 128.773Z" fill="black"/>
<path opacity="0.1" d="M166.946 110.873H138.06L166.946 109.955V110.873Z" fill="black"/>
<path opacity="0.1" d="M159.174 102.363H130.288L159.174 101.347V102.363Z" fill="black"/>
<path opacity="0.1" d="M96.6506 103.938H125.945L96.6506 104.839V103.938Z" fill="black"/>
<path opacity="0.1" d="M129.831 106.658H96.6506L126.728 107.642L129.831 106.658Z" fill="black"/>
<path opacity="0.1" d="M138.061 110.873L96.6506 111.807V110.873H138.061Z" fill="black"/>
<path opacity="0.1" d="M138.06 112.708H117.584L138.06 113.724V112.708Z" fill="black"/>
<path opacity="0.1" d="M100.585 117.659L130.288 117.429L100.585 116.757V117.659Z" fill="black"/>
<path opacity="0.1" d="M100.585 119.232H130.81L100.585 120.249V119.232Z" fill="black"/>
<path opacity="0.1" d="M96.2913 124.283H129.831V125.3L96.2913 124.283Z" fill="black"/>
<path opacity="0.1" d="M96.2913 126.38H120.605L96.2913 127.052V126.38Z" fill="black"/>
<path d="M267.157 132.774L268.496 127.692H323.606L348.981 130.233L349.944 132.774H267.157Z" fill="#263238"/>
<path opacity="0.4" d="M323.606 127.692V132.774H267.157L268.496 127.692H323.606Z" fill="black"/>
<path d="M148.511 71.2649L160.578 126.185C160.795 127.068 161.297 127.855 162.006 128.422C162.715 128.988 163.591 129.303 164.497 129.316H203.507C203.918 129.307 204.322 129.202 204.686 129.009C205.05 128.816 205.365 128.542 205.605 128.207C205.846 127.871 206.005 127.485 206.072 127.077C206.139 126.669 206.11 126.252 205.989 125.857L193.938 71.3632C193.693 70.5306 193.169 69.8084 192.455 69.3186C191.741 68.8287 190.881 68.6013 190.019 68.6746H151.01C149.23 68.7238 148.119 69.5271 148.511 71.2649Z" fill="#263238"/>
<path opacity="0.4" d="M150.748 71.2649L162.798 126.185C163.015 127.068 163.517 127.855 164.226 128.422C164.935 128.988 165.811 129.303 166.717 129.316H203.506C203.916 129.303 204.318 129.196 204.681 129.003C205.043 128.809 205.356 128.535 205.596 128.2C205.836 127.866 205.996 127.481 206.064 127.075C206.132 126.668 206.106 126.252 205.988 125.857L193.938 71.3632C193.692 70.5306 193.169 69.8084 192.455 69.3186C191.741 68.8287 190.88 68.6013 190.019 68.6746H153.311C151.466 68.7238 150.356 69.5271 150.748 71.2649Z" fill="white"/>
<path d="M167.044 125.742V130.841C167.044 132.136 168.579 132.677 169.853 132.677H260.119C261.409 132.677 262.976 132.136 262.976 130.841V125.742H167.044Z" fill="#263238"/>
<path opacity="0.2" d="M262.976 125.742V130.841C262.976 132.136 261.441 132.677 260.168 132.677H169.918C168.612 132.677 167.044 132.136 167.044 130.841V125.742H262.976Z" fill="white"/>
<path opacity="0.4" d="M262.976 125.742V130.841C262.976 132.136 261.442 132.677 260.168 132.677H218.627C217.321 132.677 215.77 132.136 215.77 130.841V125.742H262.976Z" fill="black"/>
<path d="M203.801 121.708L192.844 72.2471H152.936L163.795 121.708H203.801Z" fill="#9953F5"/>
<path d="M312.535 103.331C312.614 103.951 312.56 104.582 312.376 105.179C312.191 105.777 311.881 106.327 311.466 106.794C311.051 107.26 310.541 107.632 309.97 107.883C309.399 108.134 308.781 108.259 308.158 108.249H223.738C222.409 108.223 221.136 107.708 220.16 106.801C219.185 105.894 218.575 104.659 218.448 103.331L213.435 49.0665C213.37 48.5185 213.403 47.9633 213.533 47.4271C213.772 46.4758 214.325 45.634 215.102 45.0386C215.879 44.4432 216.834 44.1294 217.811 44.1483H302.231C303.56 44.1742 304.833 44.6896 305.809 45.5963C306.784 46.5031 307.394 47.738 307.522 49.0665L312.535 103.331Z" fill="#263238"/>
<path opacity="0.4" d="M307.848 108.199H223.738C222.409 108.173 221.136 107.658 220.16 106.751C219.185 105.844 218.575 104.609 218.448 103.281L213.435 49.0164C213.37 48.4684 213.403 47.9132 213.533 47.377H297.659C298.986 47.41 300.255 47.9277 301.229 48.8331C302.203 49.7385 302.815 50.9694 302.949 52.2952L307.962 106.559C308.023 107.108 307.984 107.664 307.848 108.199Z" fill="black"/>
<path d="M249.848 74.9199H267.32L262.666 125.119L290.278 129.283V132.775H232.115V129.283L244.035 125.119L249.848 74.9199Z" fill="#263238"/>
<path opacity="0.1" d="M267.32 74.9199L254.388 131.988L244.035 131.676L249.848 74.9199H267.32Z" fill="white"/>
<path d="M209.058 386.423H199.392L181.985 143.349H194.836L209.058 386.423Z" fill="#263238"/>
<path opacity="0.1" d="M209.075 386.421H199.392L182.851 155.413L181.985 143.724H194.836L195.522 155.413L209.075 386.421Z" fill="white"/>
<path opacity="0.2" d="M195.522 154.839H182.851L181.985 143.724H194.836L195.522 154.839Z" fill="black"/>
<path d="M327.492 386.423H317.809L316.241 143.349H329.076L327.492 386.423Z" fill="#263238"/>
<path opacity="0.1" d="M329.076 143.724L328.831 182.955L327.508 386.421H317.809L316.486 182.955L316.241 143.724H329.076Z" fill="white"/>
<path opacity="0.2" d="M329.076 143.724L328.831 183.381H316.486L316.241 143.724H329.076Z" fill="black"/>
<path d="M430.25 386.423H420.583L403.176 143.349H416.027L430.25 386.423Z" fill="#263238"/>
<path opacity="0.1" d="M430.266 386.421H420.583L404.025 155.413L403.176 143.724H416.027L416.713 155.413L430.266 386.421Z" fill="white"/>
<path opacity="0.2" d="M416.713 154.839H404.025L403.176 143.724H416.027L416.713 154.839Z" fill="black"/>
<path d="M98.3325 386.423H88.6658L102.888 143.349H115.723L98.3325 386.423Z" fill="#263238"/>
<path opacity="0.1" d="M115.723 143.724L114.874 155.413L98.3325 386.421H88.6658L102.186 155.413L102.888 143.724H115.723Z" fill="white"/>
<path opacity="0.2" d="M102.888 143.724H115.723L114.874 154.839H102.186L102.888 143.724Z" fill="black"/>
<path d="M92.7157 137.25H426.2V145.873C426.2 146.812 425.829 147.713 425.167 148.377C424.506 149.041 423.609 149.414 422.673 149.414H96.1611C95.2256 149.414 94.3285 149.041 93.6671 148.377C93.0056 147.713 92.634 146.812 92.634 145.873V137.25H92.7157Z" fill="#9953F5"/>
<path opacity="0.4" d="M92.7157 137.25H426.2V145.873C426.2 146.812 425.829 147.713 425.167 148.377C424.506 149.041 423.609 149.414 422.673 149.414H96.1611C95.2256 149.414 94.3285 149.041 93.6671 148.377C93.0056 147.713 92.634 146.812 92.634 145.873V137.25H92.7157Z" fill="white"/>
<path opacity="0.2" d="M426.216 137.25H92.7153V143.332H426.216V137.25Z" fill="black"/>
<path d="M432.209 138.84H86.7064C85.8026 138.836 84.9371 138.473 84.298 137.832C83.6589 137.19 83.298 136.321 83.2937 135.414C83.2937 134.505 83.6533 133.633 84.2933 132.991C84.9333 132.348 85.8013 131.987 86.7064 131.987H432.209C433.114 131.987 433.982 132.348 434.622 132.991C435.262 133.633 435.622 134.505 435.622 135.414C435.618 136.321 435.257 137.19 434.618 137.832C433.978 138.473 433.113 138.836 432.209 138.84Z" fill="#9953F5"/>
<path opacity="0.4" d="M432.209 138.84H86.7064C85.8026 138.836 84.9371 138.473 84.298 137.832C83.6589 137.19 83.298 136.321 83.2937 135.414C83.2937 134.505 83.6533 133.633 84.2933 132.991C84.9333 132.348 85.8013 131.987 86.7064 131.987H432.209C433.114 131.987 433.982 132.348 434.622 132.991C435.262 133.633 435.622 134.505 435.622 135.414C435.618 136.321 435.257 137.19 434.618 137.832C433.978 138.473 433.113 138.836 432.209 138.84Z" fill="white"/>
<path d="M348.638 116.511V117.658L344.703 119.232H348.638V121.937H345.241L341.649 124.282H344.343L340.767 126.38H344.343V131.741L407.748 131.757V128.773L410.132 126.38H407.21V119.675H412.418V117.429H414.998V116.511H348.638Z" fill="#9953F5"/>
<path opacity="0.9" d="M348.638 116.511V117.658L344.703 119.232H348.638V121.937H345.241L341.649 124.282H344.343L340.767 126.38H344.343V131.741L407.748 131.757V128.773L410.132 126.38H407.21V119.675H412.418V117.429H414.998V116.511H348.638Z" fill="white"/>
<path opacity="0.1" d="M348.638 116.511V117.658L344.703 119.232H348.638V121.937H345.241L341.649 124.282H344.343L340.767 126.38H344.343V131.741L378.863 131.757V128.773L381.247 126.38H378.324V119.675H383.533V117.429H386.113V116.511H348.638Z" fill="black"/>
<path opacity="0.1" d="M407.21 119.675H378.324L378.209 121.708L407.21 119.675Z" fill="black"/>
<path opacity="0.1" d="M412.418 117.429H383.533L412.418 118.445V117.429Z" fill="black"/>
<path opacity="0.1" d="M407.21 126.381H378.324L407.21 125.299V126.381Z" fill="black"/>
<path opacity="0.1" d="M407.748 128.773H378.862V129.872L407.748 128.773Z" fill="black"/>
<path opacity="0.1" d="M348.638 117.659L378.324 117.429L348.638 116.757V117.659Z" fill="black"/>
<path opacity="0.1" d="M348.638 119.232H378.862L348.638 120.249V119.232Z" fill="black"/>
<path opacity="0.1" d="M344.344 124.283H377.883V125.3L344.344 124.283Z" fill="black"/>
<path opacity="0.1" d="M344.344 126.38H368.641L344.344 127.052V126.38Z" fill="black"/>
</svg>
