<svg width="452" height="402" viewBox="0 0 452 402" fill="none" xmlns="http://www.w3.org/2000/svg">
<path d="M267.224 358.506H253.034V358.916H267.224V358.506Z" fill="#EBEBEB"/>
<path d="M405.3 338.832H373.965V339.242H405.3V338.832Z" fill="#EBEBEB"/>
<path d="M335.691 0H244.478V326.471H335.691V0Z" fill="#F5F5F5"/>
<path d="M327.82 9.3125H252.348V319.062H327.82V9.3125Z" fill="#EBEBEB"/>
<path d="M314.071 18.4268H266.081V21.6236H314.071V18.4268Z" fill="#E0E0E0"/>
<path d="M314.071 32.2139H266.081V35.4107H314.071V32.2139Z" fill="#E0E0E0"/>
<path d="M314.071 46.0176H266.081V49.2144H314.071V46.0176Z" fill="#E0E0E0"/>
<path d="M314.071 59.8213H266.081V63.0181H314.071V59.8213Z" fill="#E0E0E0"/>
<path d="M314.071 73.626H266.081V76.8228H314.071V73.626Z" fill="#E0E0E0"/>
<path d="M314.071 87.4141H266.081V90.6109H314.071V87.4141Z" fill="#E0E0E0"/>
<path d="M314.071 101.216H266.081V104.413H314.071V101.216Z" fill="#E0E0E0"/>
<path d="M314.071 213.451H266.081V216.648H314.071V213.451Z" fill="#E0E0E0"/>
<path d="M314.071 227.255H266.081V230.452H314.071V227.255Z" fill="#E0E0E0"/>
<path d="M314.071 241.058H266.081V244.254H314.071V241.058Z" fill="#E0E0E0"/>
<path d="M314.071 254.847H266.081V258.043H314.071V254.847Z" fill="#E0E0E0"/>
<path d="M314.071 268.649H266.081V271.846H314.071V268.649Z" fill="#E0E0E0"/>
<path d="M314.071 282.453H266.081V285.65H314.071V282.453Z" fill="#E0E0E0"/>
<path d="M314.071 296.257H266.081V299.454H314.071V296.257Z" fill="#E0E0E0"/>
<path d="M316.439 148.466C316.439 149.52 316.128 150.55 315.545 151.426C314.961 152.302 314.133 152.985 313.163 153.388C312.193 153.792 311.126 153.897 310.097 153.691C309.067 153.486 308.122 152.978 307.38 152.233C306.637 151.488 306.132 150.539 305.927 149.505C305.722 148.472 305.827 147.4 306.229 146.427C306.631 145.453 307.311 144.621 308.184 144.036C309.056 143.45 310.082 143.138 311.132 143.138C311.83 143.136 312.521 143.272 313.165 143.539C313.81 143.806 314.396 144.198 314.889 144.693C315.383 145.189 315.773 145.777 316.039 146.424C316.305 147.072 316.441 147.765 316.439 148.466Z" fill="#E0E0E0"/>
<path d="M241.8 0H150.586V326.471H241.8V0Z" fill="#F5F5F5"/>
<path d="M233.929 9.3125H158.457V319.062H233.929V9.3125Z" fill="#EBEBEB"/>
<path d="M220.18 18.4268H172.19V21.6236H220.18V18.4268Z" fill="#E0E0E0"/>
<path d="M220.18 32.2139H172.19V35.4107H220.18V32.2139Z" fill="#E0E0E0"/>
<path d="M220.18 46.0176H172.19V49.2144H220.18V46.0176Z" fill="#E0E0E0"/>
<path d="M220.18 59.8213H172.19V63.0181H220.18V59.8213Z" fill="#E0E0E0"/>
<path d="M220.18 73.626H172.19V76.8228H220.18V73.626Z" fill="#E0E0E0"/>
<path d="M220.18 87.4141H172.19V90.6109H220.18V87.4141Z" fill="#E0E0E0"/>
<path d="M220.18 101.216H172.19V104.413H220.18V101.216Z" fill="#E0E0E0"/>
<path d="M220.18 213.451H172.19V216.648H220.18V213.451Z" fill="#E0E0E0"/>
<path d="M220.18 227.255H172.19V230.452H220.18V227.255Z" fill="#E0E0E0"/>
<path d="M220.18 241.058H172.19V244.254H220.18V241.058Z" fill="#E0E0E0"/>
<path d="M220.18 254.847H172.19V258.043H220.18V254.847Z" fill="#E0E0E0"/>
<path d="M220.18 268.649H172.19V271.846H220.18V268.649Z" fill="#E0E0E0"/>
<path d="M220.18 282.453H172.19V285.65H220.18V282.453Z" fill="#E0E0E0"/>
<path d="M220.18 296.257H172.19V299.454H220.18V296.257Z" fill="#E0E0E0"/>
<path d="M222.548 148.466C222.548 149.52 222.237 150.55 221.653 151.426C221.07 152.302 220.242 152.985 219.272 153.388C218.302 153.792 217.235 153.897 216.206 153.691C215.176 153.486 214.231 152.978 213.488 152.233C212.746 151.488 212.241 150.539 212.036 149.505C211.831 148.472 211.936 147.4 212.338 146.427C212.74 145.453 213.42 144.621 214.293 144.036C215.165 143.45 216.191 143.138 217.241 143.138C217.938 143.136 218.63 143.272 219.274 143.539C219.919 143.806 220.505 144.198 220.998 144.693C221.492 145.189 221.882 145.777 222.148 146.424C222.414 147.072 222.55 147.765 222.548 148.466Z" fill="#E0E0E0"/>
<path d="M429.582 0H338.369V326.471H429.582V0Z" fill="#F5F5F5"/>
<path d="M421.711 9.3125H346.239V319.062H421.711V9.3125Z" fill="#EBEBEB"/>
<path d="M407.962 18.4268H359.972V21.6236H407.962V18.4268Z" fill="#E0E0E0"/>
<path d="M407.962 32.2139H359.972V35.4107H407.962V32.2139Z" fill="#E0E0E0"/>
<path d="M407.962 46.0176H359.972V49.2144H407.962V46.0176Z" fill="#E0E0E0"/>
<path d="M407.962 59.8213H359.972V63.0181H407.962V59.8213Z" fill="#E0E0E0"/>
<path d="M407.962 73.626H359.972V76.8228H407.962V73.626Z" fill="#E0E0E0"/>
<path d="M407.962 87.4141H359.972V90.6109H407.962V87.4141Z" fill="#E0E0E0"/>
<path d="M407.962 101.216H359.972V104.413H407.962V101.216Z" fill="#E0E0E0"/>
<path d="M407.962 213.451H359.972V216.648H407.962V213.451Z" fill="#E0E0E0"/>
<path d="M407.962 227.255H359.972V230.452H407.962V227.255Z" fill="#E0E0E0"/>
<path d="M407.962 241.058H359.972V244.254H407.962V241.058Z" fill="#E0E0E0"/>
<path d="M407.962 254.847H359.972V258.043H407.962V254.847Z" fill="#E0E0E0"/>
<path d="M407.962 268.649H359.972V271.846H407.962V268.649Z" fill="#E0E0E0"/>
<path d="M407.962 282.453H359.972V285.65H407.962V282.453Z" fill="#E0E0E0"/>
<path d="M407.962 296.257H359.972V299.454H407.962V296.257Z" fill="#E0E0E0"/>
<path d="M410.33 148.466C410.33 149.52 410.019 150.55 409.436 151.426C408.853 152.302 408.024 152.985 407.054 153.388C406.084 153.792 405.017 153.897 403.988 153.691C402.958 153.486 402.013 152.978 401.271 152.233C400.528 151.488 400.023 150.539 399.818 149.505C399.614 148.472 399.719 147.4 400.12 146.427C400.522 145.453 401.202 144.621 402.075 144.036C402.948 143.45 403.974 143.138 405.023 143.138C405.721 143.136 406.412 143.272 407.057 143.539C407.701 143.806 408.287 144.198 408.781 144.693C409.274 145.189 409.665 145.777 409.93 146.424C410.196 147.072 410.332 147.765 410.33 148.466Z" fill="#E0E0E0"/>
<path d="M225.601 401.703C350.196 401.703 451.201 393.394 451.201 383.145C451.201 372.896 350.196 364.587 225.601 364.587C101.005 364.587 0 372.896 0 383.145C0 393.394 101.005 401.703 225.601 401.703Z" fill="#F5F5F5"/>
<path d="M375.241 350.357L329.716 345.865V294.322H311.673V345.849L265.952 350.357C263.762 350.573 261.73 351.598 260.251 353.235C258.772 354.871 257.952 357.001 257.951 359.21V366.079H383.209V359.21C383.209 357.006 382.393 354.88 380.921 353.245C379.449 351.609 377.425 350.58 375.241 350.357Z" fill="#263238"/>
<path opacity="0.1" d="M375.241 350.357L329.716 345.865V294.322H311.673V345.849L265.952 350.357C263.762 350.573 261.73 351.598 260.251 353.235C258.772 354.871 257.952 357.001 257.951 359.21V366.079H383.209V359.21C383.209 357.006 382.393 354.88 380.921 353.245C379.449 351.609 377.425 350.58 375.241 350.357Z" fill="white"/>
<path d="M378.409 386.425C384.92 386.425 390.198 381.126 390.198 374.588C390.198 368.051 384.92 362.752 378.409 362.752C371.898 362.752 366.619 368.051 366.619 374.588C366.619 381.126 371.898 386.425 378.409 386.425Z" fill="#263238"/>
<path d="M308.57 250.912H332.9V301.34C332.9 303.136 332.19 304.858 330.925 306.128C329.66 307.398 327.945 308.111 326.156 308.111H315.396C313.607 308.111 311.892 307.398 310.627 306.128C309.362 304.858 308.652 303.136 308.652 301.34V250.912H308.57Z" fill="#263238"/>
<path opacity="0.2" d="M308.57 250.912H332.9V301.34C332.9 303.136 332.19 304.858 330.925 306.128C329.66 307.398 327.945 308.111 326.156 308.111H315.396C313.607 308.111 311.892 307.398 310.627 306.128C309.362 304.858 308.652 303.136 308.652 301.34V250.912H308.57Z" fill="white"/>
<path d="M383.699 151.597C383.699 151.597 370.179 236.321 343.514 250.895H370.62C370.62 250.895 397.416 222.091 405.58 151.597H383.699Z" fill="#263238"/>
<path opacity="0.1" d="M383.699 151.597C383.699 151.597 370.179 236.321 343.514 250.895H370.62C370.62 250.895 397.416 222.091 405.58 151.597H383.699Z" fill="white"/>
<path d="M379.862 257.486H258.326V247.142C258.326 244.968 259.186 242.883 260.717 241.346C262.248 239.808 264.325 238.945 266.49 238.945H371.697C373.863 238.945 375.939 239.808 377.47 241.346C379.002 242.883 379.862 244.968 379.862 247.142V257.486Z" fill="#9953F5"/>
<path d="M256.546 257.486H381.642C383.454 257.486 384.924 256.011 384.924 254.191V251.503C384.924 249.683 383.454 248.207 381.642 248.207L256.546 248.207C254.734 248.207 253.264 249.683 253.264 251.503V254.191C253.264 256.011 254.734 257.486 256.546 257.486Z" fill="#263238"/>
<path opacity="0.6" d="M256.546 257.486H381.642C383.454 257.486 384.924 256.011 384.924 254.191V251.503C384.924 249.683 383.454 248.207 381.642 248.207L256.546 248.207C254.734 248.207 253.264 249.683 253.264 251.503V254.191C253.264 256.011 254.734 257.486 256.546 257.486Z" fill="white"/>
<path d="M408.781 168.826H365.329C352.609 168.826 344.347 158.579 346.878 145.874L350.258 129.004C352.773 116.365 365.15 106.053 377.87 106.053H421.305C434.041 106.053 442.304 116.299 439.773 129.004L436.393 145.874C433.862 158.579 421.501 168.826 408.781 168.826Z" fill="#9953F5"/>
<path d="M188.749 112.069L177.498 105.692C175.742 104.268 173.669 103.29 171.457 102.84C165.247 102.737 159.041 103.225 152.923 104.299C151.29 104.938 151.878 118.102 152.923 118.316C153.968 118.529 170.216 118.725 171.669 118.316C173.122 117.906 176.665 113.922 176.665 113.922L185.01 119.529L188.749 112.069Z" fill="#EBB376"/>
<path d="M239.662 94.4307C233.751 99.7423 215.169 121.989 212.262 122.792C209.356 123.596 182.185 106.398 182.185 106.398L178.331 117.235C178.331 117.235 203.902 138.367 212.262 139.826C221.325 141.465 251.533 116.874 251.533 116.874L239.662 94.4307Z" fill="#9953F5"/>
<path opacity="0.5" d="M251.533 116.873C251.533 116.873 244.724 122.415 236.56 128.054C227.579 134.284 216.965 140.661 212.246 139.825C203.869 138.382 178.298 117.25 178.298 117.25L182.152 106.414C182.152 106.414 209.356 123.579 212.246 122.808C215.136 122.037 233.735 99.758 239.613 94.4463L247.386 109.103L251.533 116.873Z" fill="white"/>
<path opacity="0.2" d="M251.533 116.874C251.533 116.874 244.724 122.415 236.56 128.055C237.948 120.333 244.218 112.579 247.386 109.087L251.533 116.874Z" fill="black"/>
<path d="M268.45 163.959C268.45 163.959 241.001 115.793 239.662 94.4316C239.662 94.4316 249.084 76.9392 261.445 73.1193C273.806 69.2995 306.529 71.4799 306.529 71.4799C306.529 71.4799 332.41 98.1367 346.421 158.778L268.45 163.959Z" fill="#9953F5"/>
<path opacity="0.7" d="M268.45 163.959C268.45 163.959 241.001 115.793 239.662 94.4316C239.662 94.4316 249.084 76.9392 261.445 73.1193C273.806 69.2995 306.529 71.4799 306.529 71.4799C306.529 71.4799 332.41 98.1367 346.421 158.778L268.45 163.959Z" fill="white"/>
<path opacity="0.1" d="M287.816 108.168L304.079 104.332L310.007 119.431L303.753 126.136L293.564 122.792L287.816 108.168Z" fill="black"/>
<path d="M282.983 370.13L269.038 372.736L256.661 341.538L270.589 338.948L282.983 370.13Z" fill="#EBB376"/>
<path opacity="0.2" d="M270.589 338.948L256.677 341.555L263.747 359.392L277.431 356.129L270.589 338.948Z" fill="black"/>
<path d="M148.727 358.719L120.135 346.292L123.858 333.177L154.948 347.423L148.727 358.719Z" fill="#9953F5"/>
<path d="M267.307 371.277C267.307 371.031 267.062 366.998 265.593 365.719C265.361 365.547 265.096 365.427 264.814 365.365C264.533 365.302 264.242 365.3 263.96 365.358C263.67 365.378 263.394 365.493 263.176 365.686C262.957 365.878 262.808 366.138 262.751 366.424C262.806 367.649 263.299 368.813 264.139 369.703C262.961 369.001 261.572 368.739 260.22 368.965C260.027 369.059 259.86 369.199 259.735 369.374C259.61 369.548 259.529 369.752 259.502 369.965C259.412 370.287 259.414 370.628 259.506 370.949C259.598 371.271 259.778 371.56 260.024 371.785C260.826 372.29 261.787 372.477 262.719 372.309C263.972 372.203 265.21 371.956 266.409 371.572C266.427 371.579 266.447 371.583 266.466 371.583C266.486 371.583 266.505 371.579 266.523 371.572C266.523 371.572 266.523 371.572 266.523 371.473C266.523 371.375 266.866 371.391 266.883 371.342H267.176L267.307 371.277ZM263.405 366.555C263.405 366.358 263.535 366.129 263.992 366.047H264.156C264.287 366.039 264.418 366.058 264.542 366.103C264.665 366.149 264.779 366.219 264.874 366.309C265.772 367.063 266.017 369.309 266.082 370.654L265.789 370.49C264.552 369.506 263.706 368.11 263.405 366.555ZM260.514 371.277C260.367 371.126 260.262 370.939 260.207 370.735C260.153 370.532 260.152 370.317 260.204 370.113C260.21 370.007 260.246 369.905 260.306 369.818C260.367 369.731 260.45 369.663 260.547 369.621C261.445 369.195 263.813 370.244 265.576 371.178C263.078 371.834 261.216 371.867 260.514 371.277Z" fill="#9953F5"/>
<path d="M267.585 369.637L283.456 368.637C283.587 368.624 283.719 368.636 283.846 368.674C283.972 368.712 284.089 368.775 284.191 368.859C284.292 368.943 284.376 369.046 284.438 369.163C284.5 369.279 284.538 369.407 284.55 369.539L286.183 382.097C286.224 382.759 286.003 383.41 285.569 383.91C285.135 384.41 284.523 384.718 283.864 384.769C278.329 385.015 275.7 384.867 268.679 385.244C264.4 385.507 255.942 386.425 250.031 385.851C244.12 385.277 244.839 379.408 247.402 379.129C253.46 378.441 261.478 373.982 265.266 370.588C265.914 370.025 266.729 369.691 267.585 369.637Z" fill="#263238"/>
<path d="M241.295 80.8079C243.725 79.9466 246.376 79.9466 248.806 80.8079C249.364 83.1926 250.701 85.3212 252.604 86.8543C254.507 88.3875 256.866 89.2369 259.306 89.2672C260.511 89.3286 261.719 89.2792 262.915 89.1197C275.145 87.4803 273.806 69.1681 273.806 69.1681C269.347 69.4876 264.899 68.4169 261.069 66.1024C257.819 64.1875 254.982 61.6403 252.725 58.6104L241.295 80.8079Z" fill="#EBB376"/>
<path opacity="0.2" d="M241.295 80.8079C243.725 79.9466 246.376 79.9466 248.806 80.8079C249.364 83.1926 250.701 85.3212 252.604 86.8543C254.507 88.3875 256.866 89.2369 259.306 89.2672C262.457 81.4473 262.049 72.4961 261.069 66.1024C257.819 64.1875 254.982 61.6403 252.725 58.6104L241.295 80.8079Z" fill="black"/>
<path d="M232.772 40.444C238.813 43.067 237.54 49.7066 227.252 61.7562C221.129 56.297 217.961 44.0179 221.276 40.1489C224.591 36.2799 227.497 38.1652 232.772 40.444Z" fill="#263238"/>
<path d="M257.673 46.068C259.567 59.3144 261.331 66.9704 256.154 75.0527C248.349 87.2006 231.041 84.5612 225.228 72.1345C220.035 60.9866 217.798 41.199 229.473 33.3626C232.039 31.6252 235.003 30.5737 238.086 30.3074C241.169 30.0412 244.269 30.569 247.093 31.841C249.916 33.1131 252.369 35.0872 254.221 37.5767C256.072 40.0662 257.26 42.9888 257.673 46.068Z" fill="#EBB376"/>
<path d="M238.96 53.7071C239.189 54.7727 238.797 55.74 238.095 55.8875C237.393 56.0351 236.674 55.2974 236.462 54.2481C236.25 53.1989 236.609 52.1989 237.311 52.0513C238.013 51.9038 238.666 52.6743 238.96 53.7071Z" fill="#263238"/>
<path d="M226.909 56.2332C227.138 57.2824 226.746 58.2661 226.06 58.4136C225.374 58.5612 224.623 57.8234 224.427 56.7742C224.231 55.725 224.59 54.7249 225.293 54.5938C225.995 54.4626 226.762 55.1676 226.909 56.2332Z" fill="#263238"/>
<path d="M230.943 55.9043C230.352 59.4233 229.28 62.8436 227.759 66.0686C228.593 66.4364 229.497 66.6167 230.408 66.5969C231.319 66.5771 232.215 66.3576 233.033 65.9538L230.943 55.9043Z" fill="#D58745"/>
<path d="M250.096 35.5595C244.43 38.9203 246.536 45.396 258.261 55.9209C263.649 49.7076 265.249 37.117 261.526 33.7234C257.803 30.3298 255.044 32.6414 250.096 35.5595Z" fill="#263238"/>
<path d="M266.033 55.2488C265.782 58.6053 264.214 61.7244 261.674 63.9213C258.277 66.7903 254.75 64.2 254.146 60.0195C253.607 56.2489 254.718 50.1831 258.865 48.9699C263.013 47.7568 266.327 51.1339 266.033 55.2488Z" fill="#EBB376"/>
<path d="M244.365 47.4451C244.273 47.5279 244.162 47.5851 244.042 47.611C243.921 47.6369 243.796 47.6306 243.679 47.5926C242.88 47.287 242.02 47.1737 241.17 47.262C240.319 47.3502 239.5 47.6375 238.78 48.1009C238.64 48.2117 238.461 48.2619 238.283 48.2404C238.106 48.2189 237.944 48.1274 237.833 47.9861C237.723 47.8448 237.673 47.6652 237.694 47.4869C237.716 47.3086 237.807 47.1461 237.948 47.0352C238.838 46.4349 239.857 46.0563 240.922 45.9309C241.987 45.8054 243.067 45.9368 244.071 46.3139C244.154 46.3399 244.231 46.3823 244.298 46.4387C244.364 46.4951 244.419 46.5643 244.459 46.6422C244.498 46.7201 244.522 46.8051 244.528 46.8924C244.534 46.9796 244.523 47.0672 244.495 47.15C244.468 47.2547 244.424 47.3544 244.365 47.4451Z" fill="#263238"/>
<path d="M220.361 50.7076C220.225 50.688 220.099 50.6247 220.002 50.5273C219.906 50.3782 219.872 50.1979 219.905 50.0238C219.939 49.8498 220.038 49.6954 220.182 49.5928C221.07 48.9887 222.09 48.6079 223.156 48.4823C224.221 48.3568 225.302 48.4902 226.305 48.8714C226.387 48.9052 226.461 48.9553 226.523 49.0187C226.585 49.0821 226.633 49.1575 226.666 49.2403C226.698 49.3231 226.713 49.4115 226.71 49.5003C226.707 49.5891 226.686 49.6763 226.648 49.7567C226.576 49.9197 226.443 50.0475 226.278 50.112C226.113 50.1766 225.929 50.1726 225.766 50.101C224.956 49.818 224.09 49.7299 223.239 49.8438C222.388 49.9576 221.576 50.2704 220.868 50.7568C220.784 50.7839 220.696 50.7936 220.609 50.7851C220.522 50.7766 220.438 50.7503 220.361 50.7076Z" fill="#263238"/>
<path d="M260.041 35.1992C260.041 35.1992 262.947 29.3957 255.305 24.3627C247.663 19.3297 224.542 23.2643 216.263 33.7893C207.984 44.3143 215.169 50.7244 215.169 50.7244C214.82 48.9817 215.092 47.1716 215.936 45.6094C216.802 47.3759 218.202 48.822 219.937 49.7407C222.566 50.9211 220.819 50.544 220.819 50.544C220.707 47.7707 221.6 45.0507 223.333 42.888C225.32 44.8433 227.736 46.3032 230.387 47.1504C230.964 44.8616 232.322 42.8484 234.225 41.4617C234.225 41.4617 235.661 46.1012 237.866 46.5439C237.866 46.5439 237.67 42.7568 242.765 39.9862C242.765 39.9862 243.336 43.5929 244.773 44.5438C244.822 44.6749 247.255 36.5107 260.041 35.1992Z" fill="#263238"/>
<path d="M236.429 70.4121C236.313 70.4124 236.199 70.3782 236.103 70.3137C236.033 70.2718 235.972 70.2162 235.924 70.1501C235.876 70.0841 235.842 70.009 235.824 69.9294C235.806 69.8498 235.803 69.7673 235.818 69.6868C235.832 69.6064 235.862 69.5296 235.907 69.4612C237.806 66.7491 240.571 64.7706 243.745 63.8545C243.821 63.8295 243.901 63.8203 243.981 63.8276C244.06 63.8349 244.138 63.8584 244.208 63.8968C244.278 63.9352 244.34 63.9876 244.39 64.0508C244.439 64.114 244.475 64.1866 244.496 64.2643C244.542 64.4208 244.525 64.5893 244.448 64.7334C244.372 64.8774 244.242 64.9857 244.087 65.0348C241.205 65.8791 238.687 67.6683 236.935 70.117C236.884 70.2063 236.81 70.2805 236.722 70.3323C236.633 70.3841 236.532 70.4116 236.429 70.4121Z" fill="#263238"/>
<path d="M237 61.4287C235.535 61.2956 234.157 60.6696 233.09 59.6519C232.023 58.6343 231.329 57.2847 231.122 55.8219C230.436 52.1988 232.363 48.7724 235.416 48.1823C238.47 47.5921 241.507 50.084 242.193 53.707C242.532 55.3804 242.277 57.12 241.474 58.6253C241.114 59.3133 240.607 59.9127 239.989 60.3804C239.37 60.8481 238.656 61.1725 237.898 61.3303C237.602 61.3882 237.302 61.4211 237 61.4287ZM236.315 48.9692C236.07 48.9448 235.824 48.9448 235.58 48.9692C233 49.461 231.367 52.4283 231.971 55.5268C232.559 58.6744 235.139 60.8713 237.735 60.3631C238.371 60.2305 238.969 59.9572 239.486 59.5629C240.003 59.1687 240.426 58.6635 240.723 58.0843C241.432 56.7541 241.651 55.2162 241.344 53.7398C241.175 52.4809 240.586 51.3169 239.672 50.4382C238.758 49.5596 237.575 49.0185 236.315 48.9036V48.9692Z" fill="#263238"/>
<path d="M222.958 63.8069C221.71 63.7884 220.507 63.33 219.562 62.5117C218.262 61.4019 217.39 59.8709 217.096 58.1837C216.41 54.5606 218.337 51.1507 221.39 50.5605C222.154 50.4294 222.936 50.4702 223.682 50.68C224.427 50.8899 225.117 51.2634 225.701 51.7736C226.999 52.8776 227.872 54.403 228.167 56.0853C228.496 57.7589 228.242 59.4952 227.448 61.0035C227.088 61.6899 226.581 62.2872 225.962 62.7522C225.344 63.2173 224.63 63.5383 223.872 63.6921C223.572 63.7627 223.266 63.8012 222.958 63.8069ZM217.945 58.0362C218.199 59.5176 218.962 60.8631 220.1 61.8396C220.581 62.2679 221.152 62.58 221.771 62.7516C222.39 62.9232 223.04 62.9498 223.671 62.8295C224.302 62.7091 224.897 62.4449 225.411 62.0573C225.924 61.6697 226.342 61.1689 226.632 60.5936C227.322 59.2496 227.545 57.7123 227.263 56.2267C226.982 54.7411 226.214 53.3928 225.081 52.3966C224.595 51.9688 224.021 51.6554 223.399 51.4796C222.778 51.3037 222.125 51.2697 221.488 51.3802C218.892 51.872 217.275 54.8393 217.88 57.9378L217.945 58.0362Z" fill="#263238"/>
<path d="M227.742 56.5933C227.649 56.5934 227.557 56.5648 227.481 56.5113C227.435 56.4774 227.396 56.4347 227.367 56.3855C227.338 56.3364 227.32 56.2819 227.312 56.2254C227.304 56.1688 227.308 56.1113 227.323 56.0562C227.338 56.0011 227.364 55.9496 227.399 55.9047C227.931 55.2874 228.668 54.8854 229.473 54.7738C230.279 54.6622 231.097 54.8485 231.775 55.2981C231.87 55.359 231.938 55.4541 231.966 55.5639C231.993 55.6736 231.977 55.7897 231.922 55.8883C231.894 55.9394 231.855 55.9841 231.808 56.0195C231.762 56.055 231.709 56.0804 231.652 56.0942C231.595 56.1081 231.536 56.1101 231.479 56.1C231.421 56.09 231.367 56.0682 231.318 56.0359C230.816 55.7001 230.211 55.5553 229.613 55.6274C229.014 55.6995 228.461 55.9839 228.052 56.4293C228.015 56.4773 227.968 56.5167 227.915 56.545C227.861 56.5732 227.802 56.5897 227.742 56.5933Z" fill="#263238"/>
<path d="M241.769 54.1662C241.674 54.1651 241.582 54.1323 241.508 54.0729C241.434 54.0134 241.382 53.9309 241.361 53.8383C241.33 53.7296 241.344 53.6134 241.399 53.5151C241.455 53.4167 241.546 53.3443 241.654 53.3137L253.901 49.871C254.013 49.8451 254.131 49.8628 254.231 49.9206C254.331 49.9784 254.406 50.0719 254.44 50.1825C254.465 50.2932 254.447 50.4094 254.389 50.507C254.331 50.6047 254.239 50.6763 254.13 50.7071L241.883 54.1498L241.769 54.1662Z" fill="#263238"/>
<path opacity="0.2" d="M284.175 225.043L195.411 252.388C195.411 252.388 192.145 227.797 208.131 216.321C231.481 199.501 282.983 194.796 282.983 194.796C282.983 194.796 283.619 209.419 284.175 225.043Z" fill="black"/>
<path d="M266.393 196.763L269.822 175.205L268.45 163.958L346.42 158.729L347.596 171.27C347.596 171.27 356.871 215.272 350.437 227.206C339.007 248.519 291.653 247.683 250.521 247.683C259.453 273.913 277.382 340.309 277.382 340.309L255.877 350.145C255.877 350.145 214.385 274.372 204.963 241.568C196.685 212.599 237.033 203.91 266.393 196.763Z" fill="#263238"/>
<path d="M282.264 346.244L253.411 358.031L246.684 346.195L278.59 333.866L282.264 346.244Z" fill="#9953F5"/>
<path opacity="0.2" d="M282.264 346.244L253.411 358.031L246.684 346.195L278.59 333.866L282.264 346.244Z" fill="white"/>
<path d="M321.976 172.072L348.543 170.482L346.943 160.58L320.964 162.252L321.976 172.072Z" fill="black"/>
<path d="M272.859 165.334L268.45 165.629L269.822 175.203L273.626 174.974L272.859 165.334Z" fill="black"/>
<path d="M276.745 174.794L318.857 172.269L318.074 162.433L275.749 165.154L276.745 174.794Z" fill="black"/>
<path d="M289.122 174.926C288.206 174.929 287.321 174.585 286.646 173.962C285.971 173.339 285.555 172.483 285.481 171.565L285.171 167.991C285.084 167.031 285.379 166.076 285.991 165.333C286.602 164.59 287.481 164.12 288.437 164.024L295.997 163.368C296.477 163.322 296.962 163.373 297.423 163.52C297.883 163.666 298.309 163.905 298.675 164.221C299.041 164.531 299.341 164.911 299.56 165.339C299.779 165.767 299.911 166.233 299.948 166.713L300.259 170.287C300.303 170.769 300.25 171.255 300.104 171.717C299.958 172.179 299.722 172.606 299.41 172.975C299.104 173.347 298.726 173.654 298.3 173.877C297.874 174.099 297.407 174.233 296.928 174.27L289.367 174.91L289.122 174.926ZM296.372 164.991H296.209L288.649 165.647C288.383 165.668 288.124 165.741 287.887 165.863C287.65 165.985 287.44 166.153 287.268 166.358C287.096 166.562 286.967 166.799 286.887 167.054C286.808 167.309 286.779 167.578 286.804 167.844L287.098 171.434C287.146 171.971 287.404 172.466 287.816 172.811C288.228 173.152 288.753 173.322 289.286 173.287L296.846 172.631C297.113 172.608 297.373 172.533 297.611 172.409C297.85 172.285 298.061 172.116 298.234 171.91C298.575 171.497 298.745 170.969 298.707 170.434L298.397 166.86C298.375 166.592 298.299 166.331 298.176 166.092C298.053 165.853 297.884 165.64 297.679 165.467C297.315 165.155 296.851 164.986 296.372 164.991Z" fill="white"/>
<path d="M294.495 169.958C294.297 169.956 294.107 169.885 293.958 169.755C293.808 169.626 293.709 169.448 293.678 169.253C293.65 169.038 293.709 168.82 293.84 168.648C293.972 168.476 294.166 168.363 294.38 168.335L297.499 167.908C297.606 167.89 297.715 167.893 297.82 167.918C297.925 167.943 298.024 167.989 298.111 168.053C298.198 168.117 298.271 168.199 298.326 168.292C298.381 168.386 298.416 168.489 298.43 168.597C298.458 168.814 298.4 169.033 298.269 169.208C298.138 169.383 297.943 169.499 297.728 169.531L294.593 169.958H294.495Z" fill="white"/>
<path opacity="0.2" d="M266.719 96.235C266.719 96.235 274.622 124.285 284.175 143.27C284.175 143.27 269.136 115.121 263.519 93.4316L266.719 96.235Z" fill="black"/>
<path d="M267.127 101.464L271.193 96.1357H273.381L276.5 99.4146L276.81 103.152C272.973 104.874 267.127 103.152 267.127 103.152V101.464Z" fill="#9953F5"/>
<path d="M271.03 97.4964C270.944 90.6876 270.211 83.9026 268.842 77.2334L271.03 78.1843C273.097 84.8768 273.841 91.9108 273.218 98.8899L271.03 97.4964Z" fill="#9953F5"/>
<path d="M268.27 101.628C268.27 101.628 252.905 95.5297 251.435 85.5293L250.358 87.4146C250.358 87.4146 254.015 100.054 270.181 103.186L268.27 101.628Z" fill="#9953F5"/>
<path d="M274.671 100.678C276.24 100.425 277.725 99.7932 278.996 98.8364C280.268 97.8796 281.289 96.6266 281.97 95.1856C285.612 86.7754 281.97 74.4307 290.984 68.9551L296.046 70.7584C293.227 72.915 291.167 75.9189 290.167 79.3325C288.339 86.382 286.265 103.825 274.671 103.169V100.678Z" fill="#9953F5"/>
<path d="M271.046 66.1191L263.519 84.6772L262.914 89.12L257.575 86.5625L248.97 81.4148C248.97 81.4148 245.149 86.7756 251.533 95.1366L257.575 90.12L266.05 99.4482L268.45 87.9724L278.329 91.1692C278.329 91.1692 282.281 74.5457 282.281 69.7914L271.046 66.1191Z" fill="#9953F5"/>
<path opacity="0.6" d="M282.281 69.7901C282.281 74.5772 278.313 91.2171 278.313 91.2171L268.418 88.0203L266.033 99.4961L257.559 90.1679L251.517 95.1845C245.133 86.8235 248.937 81.4626 248.937 81.4626L257.559 86.6104L262.898 89.1678L263.503 84.7251L271.014 66.167L282.281 69.7901Z" fill="white"/>
<path opacity="0.2" d="M278.329 91.2173L268.434 88.0205L266.05 99.4471L265.527 85.0859L278.329 91.2173Z" fill="black"/>
<path opacity="0.2" d="M266.05 99.4481L257.575 90.1199L251.533 95.1364L255.844 87.3984L266.05 99.4481Z" fill="black"/>
<path d="M224.901 117.367L212.246 115.941C210.491 114.514 208.418 113.535 206.205 113.088C199.99 112.98 193.779 113.463 187.655 114.531C186.022 115.17 186.61 128.335 187.655 128.564C188.7 128.794 204.947 128.974 206.417 128.564C207.886 128.154 211.413 124.171 211.413 124.171L222.501 126.138L224.901 117.367Z" fill="#EBB376"/>
<path d="M306.529 71.4293C301.304 72.495 277.137 118.579 277.137 118.579L214.94 115.529L214.01 126.218C214.01 126.218 269.74 138.399 282.297 136.055C294.854 133.71 317.502 94.3646 318.857 90.0366C321.943 80.1837 310.04 70.708 306.529 71.4293Z" fill="#9953F5"/>
<path opacity="0.6" d="M306.529 71.4293C301.304 72.495 277.137 118.579 277.137 118.579L214.94 115.529L214.01 126.218C214.01 126.218 269.74 138.399 282.297 136.055C294.854 133.71 317.502 94.3646 318.857 90.0366C321.943 80.1837 310.04 70.708 306.529 71.4293Z" fill="white"/>
<path d="M134.684 375.475L123.074 367.311L136.595 336.604L148.188 344.769L134.684 375.475Z" fill="#EBB376"/>
<path opacity="0.2" d="M148.188 344.768L136.594 336.62L128.871 354.178L140.758 361.703L148.188 344.768Z" fill="black"/>
<path d="M328.671 211.353L284.175 225.042L195.411 252.387C174.951 300.094 149.886 349.964 149.886 349.964L126.666 340.39C126.666 340.39 151.666 256.633 158.965 235.698C170.624 202.287 295.18 179.958 295.18 179.958L328.671 211.353Z" fill="#263238"/>
<path opacity="0.2" d="M148.727 358.719L120.135 346.292L123.858 333.177L154.948 347.423L148.727 358.719Z" fill="white"/>
<path d="M121.294 366.472C121.294 366.472 121.131 366.308 121.131 366.292L120.951 366.112L121.147 366.276C121.245 366.079 123.221 362.57 122.486 360.751C122.392 360.522 122.248 360.318 122.064 360.153C121.88 359.988 121.662 359.868 121.425 359.8C121.164 359.699 120.877 359.69 120.61 359.773C120.344 359.856 120.113 360.028 119.955 360.259C119.477 361.385 119.408 362.644 119.759 363.816C118.812 362.62 117.62 361.423 116.624 361.374C116.413 361.374 116.205 361.424 116.018 361.521C115.83 361.618 115.669 361.759 115.546 361.931C115.317 362.177 115.162 362.483 115.098 362.814C115.035 363.144 115.065 363.486 115.187 363.8C115.677 364.597 116.445 365.182 117.342 365.439C118.504 365.92 119.714 366.272 120.951 366.489H121.065H121.163L121.294 366.472ZM120.494 360.702C120.608 360.538 120.804 360.374 121.261 360.521H121.408C121.529 360.574 121.637 360.65 121.727 360.746C121.817 360.842 121.886 360.955 121.931 361.079C122.388 362.161 121.588 364.275 121.016 365.505C120.962 365.408 120.902 365.315 120.837 365.226C120.211 363.802 120.09 362.205 120.494 360.702ZM115.726 363.554C115.661 363.352 115.651 363.136 115.697 362.928C115.743 362.721 115.843 362.529 115.987 362.374C116.043 362.286 116.121 362.215 116.212 362.166C116.304 362.117 116.406 362.093 116.51 362.095C117.506 362.095 119.188 364.177 120.265 365.8C117.816 365.243 116.15 364.423 115.726 363.554Z" fill="#9953F5"/>
<path d="M122.911 365.31L137.476 371.703C137.6 371.75 137.714 371.822 137.81 371.914C137.907 372.006 137.984 372.116 138.037 372.238C138.09 372.36 138.119 372.492 138.121 372.626C138.122 372.759 138.098 372.891 138.048 373.015L133.688 384.917C133.422 385.521 132.932 385.996 132.321 386.241C131.711 386.487 131.029 386.482 130.422 386.228C125.376 383.917 123.09 382.556 116.706 379.671C112.77 377.933 104.835 374.884 99.838 371.654C94.8414 368.425 98.2051 363.556 100.556 364.474C106.255 366.638 115.416 366.343 120.331 365.064C121.194 364.852 122.103 364.939 122.911 365.31Z" fill="#263238"/>
<path d="M134.863 132.774L136.202 127.692H191.312L216.687 130.233L217.651 132.774H134.863Z" fill="#263238"/>
<path opacity="0.4" d="M191.312 127.692V132.774H134.863L136.202 127.692H191.312Z" fill="black"/>
<path d="M34.751 125.742V130.841C34.751 132.136 36.2859 132.677 37.5595 132.677H127.826C129.116 132.677 130.683 132.136 130.683 130.841V125.742H34.751Z" fill="#263238"/>
<path opacity="0.2" d="M130.683 125.742V130.841C130.683 132.136 129.148 132.677 127.875 132.677H37.6248C36.3185 132.677 34.751 132.136 34.751 130.841V125.742H130.683Z" fill="white"/>
<path opacity="0.4" d="M130.683 125.742V130.841C130.683 132.136 129.148 132.677 127.875 132.677H86.3339C85.0276 132.677 83.4763 132.136 83.4763 130.841V125.742H130.683Z" fill="black"/>
<path d="M180.241 103.331C180.321 103.951 180.267 104.582 180.082 105.179C179.898 105.777 179.588 106.327 179.173 106.794C178.758 107.26 178.247 107.632 177.677 107.883C177.106 108.134 176.488 108.259 175.865 108.249H91.4448C90.1157 108.223 88.8425 107.708 87.8671 106.801C86.8917 105.894 86.2821 104.659 86.1542 103.331L81.1413 49.0665C81.0762 48.5185 81.1094 47.9633 81.2392 47.4271C81.4788 46.4758 82.032 45.634 82.8088 45.0386C83.5856 44.4432 84.5403 44.1294 85.5174 44.1483H169.938C171.267 44.1742 172.54 44.6896 173.515 45.5963C174.491 46.5031 175.1 47.738 175.228 49.0665L180.241 103.331Z" fill="#263238"/>
<path opacity="0.4" d="M175.555 108.199H91.4448C90.1157 108.173 88.8425 107.658 87.8671 106.751C86.8917 105.844 86.2821 104.609 86.1542 103.281L81.1413 49.0164C81.0762 48.4684 81.1094 47.9132 81.2392 47.377H165.366C166.693 47.41 167.962 47.9277 168.936 48.8331C169.91 49.7385 170.521 50.9694 170.656 52.2952L175.669 106.559C175.73 107.108 175.691 107.664 175.555 108.199Z" fill="black"/>
<path d="M117.555 74.9199H135.027L130.373 125.119L157.985 129.283V132.775H99.8215V129.283L111.742 125.119L117.555 74.9199Z" fill="#263238"/>
<path opacity="0.1" d="M135.027 74.9199L122.094 131.988L111.742 131.676L117.555 74.9199H135.027Z" fill="white"/>
<path d="M136.393 386.423H126.726L109.32 143.349H122.17L136.393 386.423Z" fill="#263238"/>
<path d="M195.198 386.423H185.515L183.948 143.349H196.782L195.198 386.423Z" fill="#263238"/>
<path opacity="0.1" d="M196.782 143.724L196.537 182.955L195.215 386.421H185.515L184.193 182.955L183.948 143.724H196.782Z" fill="white"/>
<path opacity="0.2" d="M196.782 143.724L196.537 183.381H184.193L183.948 143.724H196.782Z" fill="black"/>
<path d="M297.956 386.423H288.289L270.883 143.349H283.734L297.956 386.423Z" fill="#263238"/>
<path opacity="0.1" d="M297.972 386.421H288.289L271.732 155.413L270.883 143.724H283.734L284.419 155.413L297.972 386.421Z" fill="white"/>
<path opacity="0.2" d="M284.419 154.839H271.732L270.883 143.724H283.734L284.419 154.839Z" fill="black"/>
<path d="M25.6667 386.423H16L30.2225 143.349H43.0569L25.6667 386.423Z" fill="#263238"/>
<path opacity="0.1" d="M43.0569 148L42.2078 159.689L25.6667 390.697H16L29.5203 159.689L30.2225 148H43.0569Z" fill="white"/>
<path d="M24.0666 137H296V145.507C296 146.433 295.697 147.322 295.158 147.977C294.618 148.632 293.887 149 293.124 149H26.8761C26.1133 149 25.3817 148.632 24.8424 147.977C24.303 147.322 24 146.433 24 145.507V137H24.0666Z" fill="#9953F5"/>
<path opacity="0.4" d="M24.0663 137H295V145.507C295 146.433 294.698 147.322 294.161 147.977C293.623 148.632 292.894 149 292.135 149H26.8655C26.1055 149 25.3767 148.632 24.8393 147.977C24.3019 147.322 24 146.433 24 145.507V137H24.0663Z" fill="white"/>
<path opacity="0.2" d="M296 137H24V143H296V137Z" fill="black"/>
<path d="M300.22 139H18.7799C18.0437 138.996 17.3387 138.625 16.8181 137.97C16.2975 137.315 16.0035 136.427 16 135.5C16 134.572 16.2929 133.682 16.8142 133.025C17.3356 132.369 18.0427 132 18.7799 132H300.22C300.957 132 301.664 132.369 302.186 133.025C302.707 133.682 303 134.572 303 135.5C302.997 136.427 302.702 137.315 302.182 137.97C301.661 138.625 300.956 138.996 300.22 139Z" fill="#9953F5"/>
<path opacity="0.4" d="M300.22 139H18.7799C18.0437 138.996 17.3387 138.625 16.8181 137.97C16.2975 137.315 16.0035 136.427 16 135.5C16 134.572 16.2929 133.682 16.8142 133.025C17.3356 132.369 18.0427 132 18.7799 132H300.22C300.957 132 301.664 132.369 302.186 133.025C302.707 133.682 303 134.572 303 135.5C302.997 136.427 302.702 137.315 302.182 137.97C301.661 138.625 300.956 138.996 300.22 139Z" fill="white"/>
<path opacity="0.1" d="M275.455 128.773H246.569V129.872L275.455 128.773Z" fill="black"/>
<path opacity="0.1" d="M216.344 117.659L246.03 117.429L216.344 116.757V117.659Z" fill="black"/>
<path opacity="0.1" d="M216.344 119.232H246.569L216.344 120.249V119.232Z" fill="black"/>
<path opacity="0.1" d="M212.05 124.283H245.59V125.3L212.05 124.283Z" fill="black"/>
<path opacity="0.1" d="M212.05 126.38H236.347L212.05 127.052V126.38Z" fill="black"/>
<path opacity="0.1" d="M136.409 390.697H126.726L110.185 159.689L109.32 148H122.17L122.856 159.689L136.409 390.697Z" fill="white"/>
<path d="M411.228 354.39C411.5 353.832 411.633 353.215 411.616 352.594C411.599 351.973 411.433 351.365 411.131 350.822C410.83 350.279 410.402 349.818 409.884 349.477C409.366 349.136 408.774 348.926 408.158 348.865C408.69 347.281 408.726 345.571 408.262 343.965C407.798 342.359 406.856 340.934 405.562 339.881C405.252 339.592 404.856 339.414 404.435 339.373C403.986 339.421 403.563 339.61 403.227 339.914L396.042 345.078C395.465 345.437 394.978 345.925 394.622 346.504C393.152 349.357 398.442 353.062 396.254 355.357C395.634 356.029 394.622 356.177 393.838 356.669C392.205 357.734 391.927 360.095 391.127 361.948C390.327 363.8 387.567 365.226 386.506 363.587C387.29 361.816 384.873 360.308 382.979 360.046C381.085 359.784 379.044 359.718 377.982 357.898C375.255 360.308 369.132 353.603 369.263 350.914C368.185 351.11 367.195 351.638 366.431 352.426C365.667 353.214 365.167 354.221 365.001 355.308C364.688 357.534 364.611 359.787 364.772 362.03C364.772 366.407 363.303 370.686 363.368 375.046C363.368 378.456 364.74 382.227 367.842 383.588C369.377 384.148 371.014 384.372 372.643 384.244L407.946 384.014C408.794 384.079 409.645 383.938 410.428 383.604C412.061 382.768 412.371 380.67 412.518 378.866C413.139 371.161 413.77 363.461 414.412 355.767L411.228 354.39Z" fill="#9953F5"/>
<path opacity="0.3" d="M411.228 354.39C411.5 353.832 411.633 353.215 411.616 352.594C411.599 351.973 411.433 351.365 411.131 350.822C410.83 350.279 410.402 349.818 409.884 349.477C409.366 349.136 408.774 348.926 408.158 348.865C408.69 347.281 408.726 345.571 408.262 343.965C407.798 342.359 406.856 340.934 405.562 339.881C405.252 339.592 404.856 339.414 404.435 339.373C403.986 339.421 403.563 339.61 403.227 339.914L396.042 345.078C395.465 345.437 394.978 345.925 394.622 346.504C393.152 349.357 398.442 353.062 396.254 355.357C395.634 356.029 394.622 356.177 393.838 356.669C392.205 357.734 391.927 360.095 391.127 361.948C390.327 363.8 387.567 365.226 386.506 363.587C387.29 361.816 384.873 360.308 382.979 360.046C381.085 359.784 379.044 359.718 377.982 357.898C375.255 360.308 369.132 353.603 369.263 350.914C368.185 351.11 367.195 351.638 366.431 352.426C365.667 353.214 365.167 354.221 365.001 355.308C364.688 357.534 364.611 359.787 364.772 362.03C364.772 366.407 363.303 370.686 363.368 375.046C363.368 378.456 364.74 382.227 367.842 383.588C369.377 384.148 371.014 384.372 372.643 384.244L407.946 384.014C408.794 384.079 409.645 383.938 410.428 383.604C412.061 382.768 412.371 380.67 412.518 378.866C413.139 371.161 413.77 363.461 414.412 355.767L411.228 354.39Z" fill="white"/>
<path d="M413.286 316.93H358.519L358.959 322.487L359.286 326.455L360.119 336.783L360.592 342.701L361.229 350.603L361.49 353.98L361.588 354.997L361.915 358.98L362.34 364.423L362.617 367.817L362.895 371.26L363.221 375.227L363.466 378.243L363.744 381.637L363.858 383.096H414.135L414.249 381.637L414.51 378.26L414.755 375.227L415.082 371.243L415.359 367.817L415.637 364.423L416.078 358.964L416.388 354.997L416.47 353.98L416.747 350.603L417.384 342.701L417.858 336.783L418.69 326.455L419.001 322.487L419.458 316.93H413.286ZM416.551 320.569L415.49 319.504H416.649L416.551 320.569ZM416.29 323.946L416.176 325.291L411.277 330.209L405.66 324.569L410.706 319.504H411.881L416.29 323.946ZM414.87 341.537L411.277 345.144L405.66 339.504L411.293 333.865L415.18 337.767L414.87 341.537ZM362.748 337.767L366.634 333.865L372.251 339.504L366.634 345.144L363.042 341.537L362.748 337.767ZM409.465 332.029L403.831 337.685L398.214 332.029L403.831 326.389L409.465 332.029ZM400.614 319.504H407.048L403.782 322.782L400.614 319.504ZM402.002 339.504L396.402 345.144L390.768 339.504L396.402 333.865L402.002 339.504ZM383.338 346.964L388.956 341.34L394.573 346.964L388.956 352.62L383.338 346.964ZM387.127 354.439L381.51 360.095L375.892 354.456L381.526 348.8L387.127 354.439ZM396.402 348.8L402.002 354.456L396.402 360.095L390.768 354.439L396.402 348.8ZM388.956 337.685L383.338 332.029L388.956 326.389L394.573 332.029L388.956 337.685ZM387.127 339.504L381.526 345.144L375.892 339.504L381.526 333.865L387.127 339.504ZM374.064 337.685L368.446 332.029L374.064 326.389L379.697 332.029L374.064 337.685ZM374.064 341.34L379.697 346.964L374.064 352.62L368.446 346.964L374.064 341.34ZM379.697 361.915L374.064 367.555L368.446 361.915L374.064 356.275L379.697 361.915ZM381.51 363.751L387.127 369.391L381.526 375.047L375.892 369.391L381.51 363.751ZM383.338 361.915L388.956 356.275L394.573 361.915L388.956 367.555L383.338 361.915ZM396.402 363.751L402.002 369.391L396.402 375.047L390.768 369.391L396.402 363.751ZM403.864 371.276L409.497 376.932L405.856 380.588H401.888L398.247 376.932L403.864 371.276ZM398.247 361.981L403.864 356.341L409.497 361.981L403.864 367.62L398.247 361.981ZM398.247 347.029L403.864 341.406L409.497 347.029L403.864 352.685L398.247 347.029ZM402.035 324.635L396.434 330.291L390.801 324.651L395.83 319.586H397.022L402.035 324.635ZM388.972 322.815L385.706 319.536H392.123L388.972 322.815ZM387.143 324.635L381.559 330.291L375.925 324.651L380.954 319.586H382.146L387.143 324.635ZM377.346 319.569L374.08 322.848L370.814 319.569H377.346ZM367.287 319.569L372.316 324.635L366.667 330.291L361.768 325.373L361.67 324.028L366.062 319.586L367.287 319.569ZM362.388 319.569L361.343 320.618L361.262 319.569H362.388ZM362.046 329.406L364.789 332.16L362.454 334.52L362.046 329.406ZM363.581 348.324L363.352 345.652L364.789 347.095L363.581 348.324ZM363.842 351.734L366.618 348.931L372.235 354.587L366.618 360.226L364.348 357.948L363.842 351.734ZM364.675 362.177V361.931L364.789 362.046L364.675 362.177ZM365.654 374.194L364.952 365.538L366.585 363.899L372.202 369.538L366.585 375.178L365.622 374.21L365.654 374.194ZM366.177 380.653L366.062 379.358L366.618 378.817L368.43 380.653H366.177ZM368.43 376.997L374.047 371.342L379.681 376.997L376.039 380.653H372.072L368.43 376.997ZM379.681 380.653L381.51 378.817L383.322 380.653H379.681ZM386.963 380.653L383.322 376.997L388.939 371.342L394.556 376.997L390.964 380.522L386.963 380.653ZM394.556 380.653L396.385 378.817L398.214 380.653H394.556ZM411.702 380.653H409.432L411.261 378.817L411.8 379.358L411.702 380.653ZM412.224 374.194L411.261 375.161L405.66 369.391L411.293 363.751L412.926 365.39L412.224 374.194ZM413.22 361.915V362.177L413.106 362.046L413.253 361.915H413.22ZM413.531 357.948L411.261 360.226L405.66 354.456L411.293 348.8L414.069 351.603L413.531 357.948ZM414.314 348.341L413.073 347.095L414.527 345.652L414.314 348.341ZM415.849 329.389L415.425 334.537L413.073 332.16L415.849 329.389Z" fill="#9953F5"/>
<g opacity="0.6">
<path d="M413.286 316.93H358.519L358.959 322.487L359.286 326.455L360.119 336.783L360.592 342.701L361.229 350.603L361.49 353.98L361.588 354.997L361.915 358.98L362.34 364.423L362.617 367.817L362.895 371.26L363.221 375.227L363.466 378.243L363.744 381.637L363.858 383.096H414.135L414.249 381.637L414.51 378.26L414.755 375.227L415.082 371.243L415.359 367.817L415.637 364.423L416.078 358.964L416.388 354.997L416.47 353.98L416.747 350.603L417.384 342.701L417.858 336.783L418.69 326.455L419.001 322.487L419.458 316.93H413.286ZM416.551 320.569L415.49 319.504H416.649L416.551 320.569ZM416.29 323.946L416.176 325.291L411.277 330.209L405.66 324.569L410.706 319.504H411.881L416.29 323.946ZM414.87 341.537L411.277 345.144L405.66 339.504L411.293 333.865L415.18 337.767L414.87 341.537ZM362.748 337.767L366.634 333.865L372.251 339.504L366.634 345.144L363.042 341.537L362.748 337.767ZM409.465 332.029L403.831 337.685L398.214 332.029L403.831 326.389L409.465 332.029ZM400.614 319.504H407.048L403.782 322.782L400.614 319.504ZM402.002 339.504L396.402 345.144L390.768 339.504L396.402 333.865L402.002 339.504ZM383.338 346.964L388.956 341.34L394.573 346.964L388.956 352.62L383.338 346.964ZM387.127 354.439L381.51 360.095L375.892 354.456L381.526 348.8L387.127 354.439ZM396.402 348.8L402.002 354.456L396.402 360.095L390.768 354.439L396.402 348.8ZM388.956 337.685L383.338 332.029L388.956 326.389L394.573 332.029L388.956 337.685ZM387.127 339.504L381.526 345.144L375.892 339.504L381.526 333.865L387.127 339.504ZM374.064 337.685L368.446 332.029L374.064 326.389L379.697 332.029L374.064 337.685ZM374.064 341.34L379.697 346.964L374.064 352.62L368.446 346.964L374.064 341.34ZM379.697 361.915L374.064 367.555L368.446 361.915L374.064 356.275L379.697 361.915ZM381.51 363.751L387.127 369.391L381.526 375.047L375.892 369.391L381.51 363.751ZM383.338 361.915L388.956 356.275L394.573 361.915L388.956 367.555L383.338 361.915ZM396.402 363.751L402.002 369.391L396.402 375.047L390.768 369.391L396.402 363.751ZM403.864 371.276L409.497 376.932L405.856 380.588H401.888L398.247 376.932L403.864 371.276ZM398.247 361.981L403.864 356.341L409.497 361.981L403.864 367.62L398.247 361.981ZM398.247 347.029L403.864 341.406L409.497 347.029L403.864 352.685L398.247 347.029ZM402.035 324.635L396.434 330.291L390.801 324.651L395.83 319.586H397.022L402.035 324.635ZM388.972 322.815L385.706 319.536H392.123L388.972 322.815ZM387.143 324.635L381.559 330.291L375.925 324.651L380.954 319.586H382.146L387.143 324.635ZM377.346 319.569L374.08 322.848L370.814 319.569H377.346ZM367.287 319.569L372.316 324.635L366.667 330.291L361.768 325.373L361.67 324.028L366.062 319.586L367.287 319.569ZM362.388 319.569L361.343 320.618L361.262 319.569H362.388ZM362.046 329.406L364.789 332.16L362.454 334.52L362.046 329.406ZM363.581 348.324L363.352 345.652L364.789 347.095L363.581 348.324ZM363.842 351.734L366.618 348.931L372.235 354.587L366.618 360.226L364.348 357.948L363.842 351.734ZM364.675 362.177V361.931L364.789 362.046L364.675 362.177ZM365.654 374.194L364.952 365.538L366.585 363.899L372.202 369.538L366.585 375.178L365.622 374.21L365.654 374.194ZM366.177 380.653L366.062 379.358L366.618 378.817L368.43 380.653H366.177ZM368.43 376.997L374.047 371.342L379.681 376.997L376.039 380.653H372.072L368.43 376.997ZM379.681 380.653L381.51 378.817L383.322 380.653H379.681ZM386.963 380.653L383.322 376.997L388.939 371.342L394.556 376.997L390.964 380.522L386.963 380.653ZM394.556 380.653L396.385 378.817L398.214 380.653H394.556ZM411.702 380.653H409.432L411.261 378.817L411.8 379.358L411.702 380.653ZM412.224 374.194L411.261 375.161L405.66 369.391L411.293 363.751L412.926 365.39L412.224 374.194ZM413.22 361.915V362.177L413.106 362.046L413.253 361.915H413.22ZM413.531 357.948L411.261 360.226L405.66 354.456L411.293 348.8L414.069 351.603L413.531 357.948ZM414.314 348.341L413.073 347.095L414.527 345.652L414.314 348.341ZM415.849 329.389L415.425 334.537L413.073 332.16L415.849 329.389Z" fill="white"/>
</g>
<path d="M357.686 321.815H420.291C421.77 321.815 422.969 320.612 422.969 319.127V317.307C422.969 315.822 421.77 314.618 420.291 314.618H357.686C356.207 314.618 355.008 315.822 355.008 317.307V319.127C355.008 320.612 356.207 321.815 357.686 321.815Z" fill="#9953F5"/>
<path d="M415.392 379.228H362.584C361.105 379.228 359.906 380.431 359.906 381.916V383.736C359.906 385.221 361.105 386.425 362.584 386.425H415.392C416.871 386.425 418.07 385.221 418.07 383.736V381.916C418.07 380.431 416.871 379.228 415.392 379.228Z" fill="#9953F5"/>
</svg>
