<svg width="511" height="402" viewBox="0 0 511 402" fill="none" xmlns="http://www.w3.org/2000/svg">
<path d="M326.224 358.506H312.034V358.916H326.224V358.506Z" fill="#EBEBEB"/>
<path d="M464.3 338.832H432.965V339.242H464.3V338.832Z" fill="#EBEBEB"/>
<path d="M394.691 0H303.478V326.471H394.691V0Z" fill="#F5F5F5"/>
<path d="M386.82 9.3125H311.348V319.062H386.82V9.3125Z" fill="#EBEBEB"/>
<path d="M373.071 18.4268H325.081V21.6236H373.071V18.4268Z" fill="#E0E0E0"/>
<path d="M373.071 32.2139H325.081V35.4107H373.071V32.2139Z" fill="#E0E0E0"/>
<path d="M373.071 46.0176H325.081V49.2144H373.071V46.0176Z" fill="#E0E0E0"/>
<path d="M373.071 59.8213H325.081V63.0181H373.071V59.8213Z" fill="#E0E0E0"/>
<path d="M373.071 73.626H325.081V76.8228H373.071V73.626Z" fill="#E0E0E0"/>
<path d="M373.071 87.4141H325.081V90.6109H373.071V87.4141Z" fill="#E0E0E0"/>
<path d="M373.071 101.216H325.081V104.413H373.071V101.216Z" fill="#E0E0E0"/>
<path d="M373.071 213.451H325.081V216.648H373.071V213.451Z" fill="#E0E0E0"/>
<path d="M373.071 227.255H325.081V230.452H373.071V227.255Z" fill="#E0E0E0"/>
<path d="M373.071 241.058H325.081V244.254H373.071V241.058Z" fill="#E0E0E0"/>
<path d="M373.071 254.847H325.081V258.043H373.071V254.847Z" fill="#E0E0E0"/>
<path d="M373.071 268.649H325.081V271.846H373.071V268.649Z" fill="#E0E0E0"/>
<path d="M373.071 282.453H325.081V285.65H373.071V282.453Z" fill="#E0E0E0"/>
<path d="M373.071 296.257H325.081V299.454H373.071V296.257Z" fill="#E0E0E0"/>
<path d="M375.439 148.466C375.439 149.52 375.128 150.55 374.545 151.426C373.961 152.302 373.133 152.985 372.163 153.388C371.193 153.792 370.126 153.897 369.097 153.691C368.067 153.486 367.122 152.978 366.38 152.233C365.637 151.488 365.132 150.539 364.927 149.505C364.722 148.472 364.827 147.4 365.229 146.427C365.631 145.453 366.311 144.621 367.184 144.036C368.056 143.45 369.082 143.138 370.132 143.138C370.83 143.136 371.521 143.272 372.165 143.539C372.81 143.806 373.396 144.198 373.889 144.693C374.383 145.189 374.773 145.777 375.039 146.424C375.305 147.072 375.441 147.765 375.439 148.466Z" fill="#E0E0E0"/>
<path d="M300.8 0H209.586V326.471H300.8V0Z" fill="#F5F5F5"/>
<path d="M292.929 9.3125H217.457V319.062H292.929V9.3125Z" fill="#EBEBEB"/>
<path d="M279.18 18.4268H231.19V21.6236H279.18V18.4268Z" fill="#E0E0E0"/>
<path d="M279.18 32.2139H231.19V35.4107H279.18V32.2139Z" fill="#E0E0E0"/>
<path d="M279.18 46.0176H231.19V49.2144H279.18V46.0176Z" fill="#E0E0E0"/>
<path d="M279.18 59.8213H231.19V63.0181H279.18V59.8213Z" fill="#E0E0E0"/>
<path d="M279.18 73.626H231.19V76.8228H279.18V73.626Z" fill="#E0E0E0"/>
<path d="M279.18 87.4141H231.19V90.6109H279.18V87.4141Z" fill="#E0E0E0"/>
<path d="M279.18 101.216H231.19V104.413H279.18V101.216Z" fill="#E0E0E0"/>
<path d="M279.18 213.451H231.19V216.648H279.18V213.451Z" fill="#E0E0E0"/>
<path d="M279.18 227.255H231.19V230.452H279.18V227.255Z" fill="#E0E0E0"/>
<path d="M279.18 241.058H231.19V244.254H279.18V241.058Z" fill="#E0E0E0"/>
<path d="M279.18 254.847H231.19V258.043H279.18V254.847Z" fill="#E0E0E0"/>
<path d="M279.18 268.649H231.19V271.846H279.18V268.649Z" fill="#E0E0E0"/>
<path d="M279.18 282.453H231.19V285.65H279.18V282.453Z" fill="#E0E0E0"/>
<path d="M279.18 296.257H231.19V299.454H279.18V296.257Z" fill="#E0E0E0"/>
<path d="M281.548 148.466C281.548 149.52 281.237 150.55 280.653 151.426C280.07 152.302 279.242 152.985 278.272 153.388C277.302 153.792 276.235 153.897 275.206 153.691C274.176 153.486 273.231 152.978 272.488 152.233C271.746 151.488 271.241 150.539 271.036 149.505C270.831 148.472 270.936 147.4 271.338 146.427C271.74 145.453 272.42 144.621 273.293 144.036C274.165 143.45 275.191 143.138 276.241 143.138C276.938 143.136 277.63 143.272 278.274 143.539C278.919 143.806 279.505 144.198 279.998 144.693C280.492 145.189 280.882 145.777 281.148 146.424C281.414 147.072 281.55 147.765 281.548 148.466Z" fill="#E0E0E0"/>
<path d="M488.582 0H397.369V326.471H488.582V0Z" fill="#F5F5F5"/>
<path d="M480.711 9.3125H405.239V319.062H480.711V9.3125Z" fill="#EBEBEB"/>
<path d="M466.962 18.4268H418.972V21.6236H466.962V18.4268Z" fill="#E0E0E0"/>
<path d="M466.962 32.2139H418.972V35.4107H466.962V32.2139Z" fill="#E0E0E0"/>
<path d="M466.962 46.0176H418.972V49.2144H466.962V46.0176Z" fill="#E0E0E0"/>
<path d="M466.962 59.8213H418.972V63.0181H466.962V59.8213Z" fill="#E0E0E0"/>
<path d="M466.962 73.626H418.972V76.8228H466.962V73.626Z" fill="#E0E0E0"/>
<path d="M466.962 87.4141H418.972V90.6109H466.962V87.4141Z" fill="#E0E0E0"/>
<path d="M466.962 101.216H418.972V104.413H466.962V101.216Z" fill="#E0E0E0"/>
<path d="M466.962 213.451H418.972V216.648H466.962V213.451Z" fill="#E0E0E0"/>
<path d="M466.962 227.255H418.972V230.452H466.962V227.255Z" fill="#E0E0E0"/>
<path d="M466.962 241.058H418.972V244.254H466.962V241.058Z" fill="#E0E0E0"/>
<path d="M466.962 254.847H418.972V258.043H466.962V254.847Z" fill="#E0E0E0"/>
<path d="M466.962 268.649H418.972V271.846H466.962V268.649Z" fill="#E0E0E0"/>
<path d="M466.962 282.453H418.972V285.65H466.962V282.453Z" fill="#E0E0E0"/>
<path d="M466.962 296.257H418.972V299.454H466.962V296.257Z" fill="#E0E0E0"/>
<path d="M469.33 148.466C469.33 149.52 469.019 150.55 468.436 151.426C467.853 152.302 467.024 152.985 466.054 153.388C465.084 153.792 464.017 153.897 462.988 153.691C461.958 153.486 461.013 152.978 460.271 152.233C459.528 151.488 459.023 150.539 458.818 149.505C458.614 148.472 458.719 147.4 459.12 146.427C459.522 145.453 460.202 144.621 461.075 144.036C461.948 143.45 462.974 143.138 464.023 143.138C464.721 143.136 465.412 143.272 466.057 143.539C466.701 143.806 467.287 144.198 467.781 144.693C468.274 145.189 468.665 145.777 468.93 146.424C469.196 147.072 469.332 147.765 469.33 148.466Z" fill="#E0E0E0"/>
<path d="M255.101 401.703C395.989 401.703 510.201 393.394 510.201 383.145C510.201 372.896 395.989 364.587 255.101 364.587C114.212 364.587 0 372.896 0 383.145C0 393.394 114.212 401.703 255.101 401.703Z" fill="#F5F5F5"/>
<path d="M434.241 350.357L388.716 345.865V294.322H370.673V345.849L324.952 350.357C322.762 350.573 320.73 351.598 319.251 353.235C317.772 354.871 316.952 357.001 316.951 359.21V366.079H442.209V359.21C442.209 357.006 441.393 354.88 439.921 353.245C438.449 351.609 436.425 350.58 434.241 350.357Z" fill="#263238"/>
<path opacity="0.1" d="M434.241 350.357L388.716 345.865V294.322H370.673V345.849L324.952 350.357C322.762 350.573 320.73 351.598 319.251 353.235C317.772 354.871 316.952 357.001 316.951 359.21V366.079H442.209V359.21C442.209 357.006 441.393 354.88 439.921 353.245C438.449 351.609 436.425 350.58 434.241 350.357Z" fill="white"/>
<path d="M321.784 386.425C328.295 386.425 333.573 381.126 333.573 374.588C333.573 368.051 328.295 362.752 321.784 362.752C315.273 362.752 309.994 368.051 309.994 374.588C309.994 381.126 315.273 386.425 321.784 386.425Z" fill="#263238"/>
<path d="M437.409 386.425C443.92 386.425 449.198 381.126 449.198 374.588C449.198 368.051 443.92 362.752 437.409 362.752C430.898 362.752 425.619 368.051 425.619 374.588C425.619 381.126 430.898 386.425 437.409 386.425Z" fill="#263238"/>
<path d="M367.57 250.912H391.9V301.34C391.9 303.136 391.19 304.858 389.925 306.128C388.66 307.398 386.945 308.111 385.156 308.111H374.396C372.607 308.111 370.892 307.398 369.627 306.128C368.362 304.858 367.652 303.136 367.652 301.34V250.912H367.57Z" fill="#263238"/>
<path opacity="0.2" d="M367.57 250.912H391.9V301.34C391.9 303.136 391.19 304.858 389.925 306.128C388.66 307.398 386.945 308.111 385.156 308.111H374.396C372.607 308.111 370.892 307.398 369.627 306.128C368.362 304.858 367.652 303.136 367.652 301.34V250.912H367.57Z" fill="white"/>
<path d="M442.699 151.597C442.699 151.597 429.179 236.321 402.514 250.895H429.62C429.62 250.895 456.416 222.091 464.58 151.597H442.699Z" fill="#263238"/>
<path opacity="0.1" d="M442.699 151.597C442.699 151.597 429.179 236.321 402.514 250.895H429.62C429.62 250.895 456.416 222.091 464.58 151.597H442.699Z" fill="white"/>
<path d="M438.862 257.486H317.326V247.142C317.326 244.968 318.186 242.883 319.717 241.346C321.248 239.808 323.325 238.945 325.49 238.945H430.697C432.863 238.945 434.939 239.808 436.47 241.346C438.002 242.883 438.862 244.968 438.862 247.142V257.486Z" fill="#9953F5"/>
<path d="M315.546 257.486H440.642C442.454 257.486 443.924 256.011 443.924 254.191V251.503C443.924 249.683 442.454 248.207 440.642 248.207L315.546 248.207C313.734 248.207 312.264 249.683 312.264 251.503V254.191C312.264 256.011 313.734 257.486 315.546 257.486Z" fill="#263238"/>
<path opacity="0.6" d="M315.546 257.486H440.642C442.454 257.486 443.924 256.011 443.924 254.191V251.503C443.924 249.683 442.454 248.207 440.642 248.207L315.546 248.207C313.734 248.207 312.264 249.683 312.264 251.503V254.191C312.264 256.011 313.734 257.486 315.546 257.486Z" fill="white"/>
<path d="M467.781 168.826H424.329C411.609 168.826 403.347 158.579 405.878 145.874L409.258 129.004C411.773 116.365 424.15 106.053 436.87 106.053H480.305C493.041 106.053 501.304 116.299 498.773 129.004L495.393 145.874C492.862 158.579 480.501 168.826 467.781 168.826Z" fill="#9953F5"/>
<path d="M247.749 112.069L236.498 105.692C234.742 104.268 232.669 103.29 230.457 102.84C224.247 102.737 218.041 103.225 211.923 104.299C210.29 104.938 210.878 118.102 211.923 118.316C212.968 118.529 229.216 118.725 230.669 118.316C232.122 117.906 235.665 113.922 235.665 113.922L244.01 119.529L247.749 112.069Z" fill="#EBB376"/>
<path d="M298.662 94.4307C292.751 99.7423 274.169 121.989 271.262 122.792C268.356 123.596 241.185 106.398 241.185 106.398L237.331 117.235C237.331 117.235 262.902 138.367 271.262 139.826C280.325 141.465 310.533 116.874 310.533 116.874L298.662 94.4307Z" fill="#9953F5"/>
<path opacity="0.5" d="M310.533 116.873C310.533 116.873 303.724 122.415 295.56 128.054C286.579 134.284 275.965 140.661 271.246 139.825C262.869 138.382 237.298 117.25 237.298 117.25L241.152 106.414C241.152 106.414 268.356 123.579 271.246 122.808C274.136 122.037 292.735 99.758 298.613 94.4463L306.386 109.103L310.533 116.873Z" fill="white"/>
<path opacity="0.2" d="M310.533 116.874C310.533 116.874 303.724 122.415 295.56 128.055C296.948 120.333 303.218 112.579 306.386 109.087L310.533 116.874Z" fill="black"/>
<path d="M327.45 163.959C327.45 163.959 300.001 115.793 298.662 94.4316C298.662 94.4316 308.084 76.9392 320.445 73.1193C332.806 69.2995 365.529 71.4799 365.529 71.4799C365.529 71.4799 391.41 98.1367 405.421 158.778L327.45 163.959Z" fill="#9953F5"/>
<path opacity="0.7" d="M327.45 163.959C327.45 163.959 300.001 115.793 298.662 94.4316C298.662 94.4316 308.084 76.9392 320.445 73.1193C332.806 69.2995 365.529 71.4799 365.529 71.4799C365.529 71.4799 391.41 98.1367 405.421 158.778L327.45 163.959Z" fill="white"/>
<path opacity="0.1" d="M346.816 108.168L363.079 104.332L369.007 119.431L362.753 126.136L352.564 122.792L346.816 108.168Z" fill="black"/>
<path d="M341.983 370.13L328.038 372.736L315.661 341.538L329.589 338.948L341.983 370.13Z" fill="#EBB376"/>
<path opacity="0.2" d="M329.589 338.948L315.677 341.555L322.747 359.392L336.431 356.129L329.589 338.948Z" fill="black"/>
<path d="M193.684 375.475L182.074 367.311L195.595 336.604L207.188 344.769L193.684 375.475Z" fill="#EBB376"/>
<path opacity="0.2" d="M207.188 344.768L195.594 336.62L187.871 354.178L199.758 361.703L207.188 344.768Z" fill="black"/>
<path d="M387.671 211.353L343.175 225.042L254.411 252.387C233.951 300.094 208.886 349.964 208.886 349.964L185.666 340.39C185.666 340.39 210.666 256.633 217.965 235.698C229.624 202.287 354.18 179.958 354.18 179.958L387.671 211.353Z" fill="#263238"/>
<path d="M207.727 358.719L179.135 346.292L182.858 333.177L213.948 347.423L207.727 358.719Z" fill="#9953F5"/>
<path opacity="0.2" d="M207.727 358.719L179.135 346.292L182.858 333.177L213.948 347.423L207.727 358.719Z" fill="white"/>
<path d="M180.294 366.472C180.294 366.472 180.131 366.308 180.131 366.292L179.951 366.112L180.147 366.276C180.245 366.079 182.221 362.57 181.486 360.751C181.392 360.522 181.248 360.318 181.064 360.153C180.88 359.988 180.662 359.868 180.425 359.8C180.164 359.699 179.877 359.69 179.61 359.773C179.344 359.856 179.113 360.028 178.955 360.259C178.477 361.385 178.408 362.644 178.759 363.816C177.812 362.62 176.62 361.423 175.624 361.374C175.413 361.374 175.205 361.424 175.018 361.521C174.83 361.618 174.669 361.759 174.546 361.931C174.317 362.177 174.162 362.483 174.098 362.814C174.035 363.144 174.065 363.486 174.187 363.8C174.677 364.597 175.445 365.182 176.342 365.439C177.504 365.92 178.714 366.272 179.951 366.489H180.065H180.163L180.294 366.472ZM179.494 360.702C179.608 360.538 179.804 360.374 180.261 360.521H180.408C180.529 360.574 180.637 360.65 180.727 360.746C180.817 360.842 180.886 360.955 180.931 361.079C181.388 362.161 180.588 364.275 180.016 365.505C179.962 365.408 179.902 365.315 179.837 365.226C179.211 363.802 179.09 362.205 179.494 360.702ZM174.726 363.554C174.661 363.352 174.651 363.136 174.697 362.928C174.743 362.721 174.843 362.529 174.987 362.374C175.043 362.286 175.121 362.215 175.212 362.166C175.304 362.117 175.406 362.093 175.51 362.095C176.506 362.095 178.188 364.177 179.265 365.8C176.816 365.243 175.15 364.423 174.726 363.554Z" fill="#9953F5"/>
<path d="M181.911 365.31L196.476 371.703C196.6 371.75 196.714 371.822 196.81 371.914C196.907 372.006 196.984 372.116 197.037 372.238C197.09 372.36 197.119 372.492 197.121 372.626C197.122 372.759 197.098 372.891 197.048 373.015L192.688 384.917C192.422 385.521 191.932 385.996 191.321 386.241C190.711 386.487 190.029 386.482 189.422 386.228C184.376 383.917 182.09 382.556 175.706 379.671C171.77 377.933 163.835 374.884 158.838 371.654C153.841 368.425 157.205 363.556 159.556 364.474C165.255 366.638 174.416 366.343 179.331 365.064C180.194 364.852 181.103 364.939 181.911 365.31Z" fill="#263238"/>
<path d="M326.307 371.277C326.307 371.031 326.062 366.998 324.593 365.719C324.361 365.547 324.096 365.427 323.814 365.365C323.533 365.302 323.242 365.3 322.96 365.358C322.67 365.378 322.394 365.493 322.176 365.686C321.957 365.878 321.808 366.138 321.751 366.424C321.806 367.649 322.299 368.813 323.139 369.703C321.961 369.001 320.572 368.739 319.22 368.965C319.027 369.059 318.86 369.199 318.735 369.374C318.61 369.548 318.529 369.752 318.502 369.965C318.412 370.287 318.414 370.628 318.506 370.949C318.598 371.271 318.778 371.56 319.024 371.785C319.826 372.29 320.787 372.477 321.719 372.309C322.972 372.203 324.21 371.956 325.409 371.572C325.427 371.579 325.447 371.583 325.466 371.583C325.486 371.583 325.505 371.579 325.523 371.572C325.523 371.572 325.523 371.572 325.523 371.473C325.523 371.375 325.866 371.391 325.883 371.342H326.176L326.307 371.277ZM322.405 366.555C322.405 366.358 322.535 366.129 322.992 366.047H323.156C323.287 366.039 323.418 366.058 323.542 366.103C323.665 366.149 323.779 366.219 323.874 366.309C324.772 367.063 325.017 369.309 325.082 370.654L324.789 370.49C323.552 369.506 322.706 368.11 322.405 366.555ZM319.514 371.277C319.367 371.126 319.262 370.939 319.207 370.735C319.153 370.532 319.152 370.317 319.204 370.113C319.21 370.007 319.246 369.905 319.306 369.818C319.367 369.731 319.45 369.663 319.547 369.621C320.445 369.195 322.813 370.244 324.576 371.178C322.078 371.834 320.216 371.867 319.514 371.277Z" fill="#9953F5"/>
<path d="M326.585 369.637L342.456 368.637C342.587 368.624 342.719 368.636 342.846 368.674C342.972 368.712 343.089 368.775 343.191 368.859C343.292 368.943 343.376 369.046 343.438 369.163C343.5 369.279 343.538 369.407 343.55 369.539L345.183 382.097C345.224 382.759 345.003 383.41 344.569 383.91C344.135 384.41 343.523 384.718 342.864 384.769C337.329 385.015 334.7 384.867 327.679 385.244C323.4 385.507 314.942 386.425 309.031 385.851C303.12 385.277 303.839 379.408 306.402 379.129C312.46 378.441 320.478 373.982 324.266 370.588C324.914 370.025 325.729 369.691 326.585 369.637Z" fill="#263238"/>
<path d="M300.295 80.8079C302.725 79.9466 305.376 79.9466 307.806 80.8079C308.364 83.1926 309.701 85.3212 311.604 86.8543C313.507 88.3875 315.866 89.2369 318.306 89.2672C319.511 89.3286 320.719 89.2792 321.915 89.1197C334.145 87.4803 332.806 69.1681 332.806 69.1681C328.347 69.4876 323.899 68.4169 320.069 66.1024C316.819 64.1875 313.982 61.6403 311.725 58.6104L300.295 80.8079Z" fill="#EBB376"/>
<path opacity="0.2" d="M300.295 80.8079C302.725 79.9466 305.376 79.9466 307.806 80.8079C308.364 83.1926 309.701 85.3212 311.604 86.8543C313.507 88.3875 315.866 89.2369 318.306 89.2672C321.457 81.4473 321.049 72.4961 320.069 66.1024C316.819 64.1875 313.982 61.6403 311.725 58.6104L300.295 80.8079Z" fill="black"/>
<path d="M291.772 40.444C297.813 43.067 296.54 49.7066 286.252 61.7562C280.129 56.297 276.961 44.0179 280.276 40.1489C283.591 36.2799 286.497 38.1652 291.772 40.444Z" fill="#263238"/>
<path d="M316.673 46.068C318.567 59.3144 320.331 66.9704 315.154 75.0527C307.349 87.2006 290.041 84.5612 284.228 72.1345C279.035 60.9866 276.798 41.199 288.473 33.3626C291.039 31.6252 294.003 30.5737 297.086 30.3074C300.169 30.0412 303.269 30.569 306.093 31.841C308.916 33.1131 311.369 35.0872 313.221 37.5767C315.072 40.0662 316.26 42.9888 316.673 46.068Z" fill="#EBB376"/>
<path d="M297.96 53.7071C298.189 54.7727 297.797 55.74 297.095 55.8875C296.393 56.0351 295.674 55.2974 295.462 54.2481C295.25 53.1989 295.609 52.1989 296.311 52.0513C297.013 51.9038 297.666 52.6743 297.96 53.7071Z" fill="#263238"/>
<path d="M285.909 56.2332C286.138 57.2824 285.746 58.2661 285.06 58.4136C284.374 58.5612 283.623 57.8234 283.427 56.7742C283.231 55.725 283.59 54.7249 284.293 54.5938C284.995 54.4626 285.762 55.1676 285.909 56.2332Z" fill="#263238"/>
<path d="M289.943 55.9043C289.352 59.4233 288.28 62.8436 286.759 66.0686C287.593 66.4364 288.497 66.6167 289.408 66.5969C290.319 66.5771 291.215 66.3576 292.033 65.9538L289.943 55.9043Z" fill="#D58745"/>
<path d="M309.096 35.5595C303.43 38.9203 305.536 45.396 317.261 55.9209C322.649 49.7076 324.249 37.117 320.526 33.7234C316.803 30.3298 314.044 32.6414 309.096 35.5595Z" fill="#263238"/>
<path d="M325.033 55.2488C324.782 58.6053 323.214 61.7244 320.674 63.9213C317.277 66.7903 313.75 64.2 313.146 60.0195C312.607 56.2489 313.718 50.1831 317.865 48.9699C322.013 47.7568 325.327 51.1339 325.033 55.2488Z" fill="#EBB376"/>
<path d="M303.365 47.4451C303.273 47.5279 303.162 47.5851 303.042 47.611C302.921 47.6369 302.796 47.6306 302.679 47.5926C301.88 47.287 301.02 47.1737 300.17 47.262C299.319 47.3502 298.5 47.6375 297.78 48.1009C297.64 48.2117 297.461 48.2619 297.283 48.2404C297.106 48.2189 296.944 48.1274 296.833 47.9861C296.723 47.8448 296.673 47.6652 296.694 47.4869C296.716 47.3086 296.807 47.1461 296.948 47.0352C297.838 46.4349 298.857 46.0563 299.922 45.9309C300.987 45.8054 302.067 45.9368 303.071 46.3139C303.154 46.3399 303.231 46.3823 303.298 46.4387C303.364 46.4951 303.419 46.5643 303.459 46.6422C303.498 46.7201 303.522 46.8051 303.528 46.8924C303.534 46.9796 303.523 47.0672 303.495 47.15C303.468 47.2547 303.424 47.3544 303.365 47.4451Z" fill="#263238"/>
<path d="M279.361 50.7076C279.225 50.688 279.099 50.6247 279.002 50.5273C278.906 50.3782 278.872 50.1979 278.905 50.0238C278.939 49.8498 279.038 49.6954 279.182 49.5928C280.07 48.9887 281.09 48.6079 282.156 48.4823C283.221 48.3568 284.302 48.4902 285.305 48.8714C285.387 48.9052 285.461 48.9553 285.523 49.0187C285.585 49.0821 285.633 49.1575 285.666 49.2403C285.698 49.3231 285.713 49.4115 285.71 49.5003C285.707 49.5891 285.686 49.6763 285.648 49.7567C285.576 49.9197 285.443 50.0475 285.278 50.112C285.113 50.1766 284.929 50.1726 284.766 50.101C283.956 49.818 283.09 49.7299 282.239 49.8438C281.388 49.9576 280.576 50.2704 279.868 50.7568C279.784 50.7839 279.696 50.7936 279.609 50.7851C279.522 50.7766 279.438 50.7503 279.361 50.7076Z" fill="#263238"/>
<path d="M319.041 35.1992C319.041 35.1992 321.947 29.3957 314.305 24.3627C306.663 19.3297 283.542 23.2643 275.263 33.7893C266.984 44.3143 274.169 50.7244 274.169 50.7244C273.82 48.9817 274.092 47.1716 274.936 45.6094C275.802 47.3759 277.202 48.822 278.937 49.7407C281.566 50.9211 279.819 50.544 279.819 50.544C279.707 47.7707 280.6 45.0507 282.333 42.888C284.32 44.8433 286.736 46.3032 289.387 47.1504C289.964 44.8616 291.322 42.8484 293.225 41.4617C293.225 41.4617 294.661 46.1012 296.866 46.5439C296.866 46.5439 296.67 42.7568 301.765 39.9862C301.765 39.9862 302.336 43.5929 303.773 44.5438C303.822 44.6749 306.255 36.5107 319.041 35.1992Z" fill="#263238"/>
<path d="M295.429 70.4121C295.313 70.4124 295.199 70.3782 295.103 70.3137C295.033 70.2718 294.972 70.2162 294.924 70.1501C294.876 70.0841 294.842 70.009 294.824 69.9294C294.806 69.8498 294.803 69.7673 294.818 69.6868C294.832 69.6064 294.862 69.5296 294.907 69.4612C296.806 66.7491 299.571 64.7706 302.745 63.8545C302.821 63.8295 302.901 63.8203 302.981 63.8276C303.06 63.8349 303.138 63.8584 303.208 63.8968C303.278 63.9352 303.34 63.9876 303.39 64.0508C303.439 64.114 303.475 64.1866 303.496 64.2643C303.542 64.4208 303.525 64.5893 303.448 64.7334C303.372 64.8774 303.242 64.9857 303.087 65.0348C300.205 65.8791 297.687 67.6683 295.935 70.117C295.884 70.2063 295.81 70.2805 295.722 70.3323C295.633 70.3841 295.532 70.4116 295.429 70.4121Z" fill="#263238"/>
<path d="M296 61.4287C294.535 61.2956 293.157 60.6696 292.09 59.6519C291.023 58.6343 290.329 57.2847 290.122 55.8219C289.436 52.1988 291.363 48.7724 294.416 48.1823C297.47 47.5921 300.507 50.084 301.193 53.707C301.532 55.3804 301.277 57.12 300.474 58.6253C300.114 59.3133 299.607 59.9127 298.989 60.3804C298.37 60.8481 297.656 61.1725 296.898 61.3303C296.602 61.3882 296.302 61.4211 296 61.4287ZM295.315 48.9692C295.07 48.9448 294.824 48.9448 294.58 48.9692C292 49.461 290.367 52.4283 290.971 55.5268C291.559 58.6744 294.139 60.8713 296.735 60.3631C297.371 60.2305 297.969 59.9572 298.486 59.5629C299.003 59.1687 299.426 58.6635 299.723 58.0843C300.432 56.7541 300.651 55.2162 300.344 53.7398C300.175 52.4809 299.586 51.3169 298.672 50.4382C297.758 49.5596 296.575 49.0185 295.315 48.9036V48.9692Z" fill="#263238"/>
<path d="M281.958 63.8069C280.71 63.7884 279.507 63.33 278.562 62.5117C277.262 61.4019 276.39 59.8709 276.096 58.1837C275.41 54.5606 277.337 51.1507 280.39 50.5605C281.154 50.4294 281.936 50.4702 282.682 50.68C283.427 50.8899 284.117 51.2634 284.701 51.7736C285.999 52.8776 286.872 54.403 287.167 56.0853C287.496 57.7589 287.242 59.4952 286.448 61.0035C286.088 61.6899 285.581 62.2872 284.962 62.7522C284.344 63.2173 283.63 63.5383 282.872 63.6921C282.572 63.7627 282.266 63.8012 281.958 63.8069ZM276.945 58.0362C277.199 59.5176 277.962 60.8631 279.1 61.8396C279.581 62.2679 280.152 62.58 280.771 62.7516C281.39 62.9232 282.04 62.9498 282.671 62.8295C283.302 62.7091 283.897 62.4449 284.411 62.0573C284.924 61.6697 285.342 61.1689 285.632 60.5936C286.322 59.2496 286.545 57.7123 286.263 56.2267C285.982 54.7411 285.214 53.3928 284.081 52.3966C283.595 51.9688 283.021 51.6554 282.399 51.4796C281.778 51.3037 281.125 51.2697 280.488 51.3802C277.892 51.872 276.275 54.8393 276.88 57.9378L276.945 58.0362Z" fill="#263238"/>
<path d="M286.742 56.5933C286.649 56.5934 286.557 56.5648 286.481 56.5113C286.435 56.4774 286.396 56.4347 286.367 56.3855C286.338 56.3364 286.32 56.2819 286.312 56.2254C286.304 56.1688 286.308 56.1113 286.323 56.0562C286.338 56.0011 286.364 55.9496 286.399 55.9047C286.931 55.2874 287.668 54.8854 288.473 54.7738C289.279 54.6622 290.097 54.8485 290.775 55.2981C290.87 55.359 290.938 55.4541 290.966 55.5639C290.993 55.6736 290.977 55.7897 290.922 55.8883C290.894 55.9394 290.855 55.9841 290.808 56.0195C290.762 56.055 290.709 56.0804 290.652 56.0942C290.595 56.1081 290.536 56.1101 290.479 56.1C290.421 56.09 290.367 56.0682 290.318 56.0359C289.816 55.7001 289.211 55.5553 288.613 55.6274C288.014 55.6995 287.461 55.9839 287.052 56.4293C287.015 56.4773 286.968 56.5167 286.915 56.545C286.861 56.5732 286.802 56.5897 286.742 56.5933Z" fill="#263238"/>
<path d="M300.769 54.1662C300.674 54.1651 300.582 54.1323 300.508 54.0729C300.434 54.0134 300.382 53.9309 300.361 53.8383C300.33 53.7296 300.344 53.6134 300.399 53.5151C300.455 53.4167 300.546 53.3443 300.654 53.3137L312.901 49.871C313.013 49.8451 313.131 49.8628 313.231 49.9206C313.331 49.9784 313.406 50.0719 313.44 50.1825C313.465 50.2932 313.447 50.4094 313.389 50.507C313.331 50.6047 313.239 50.6763 313.13 50.7071L300.883 54.1498L300.769 54.1662Z" fill="#263238"/>
<path opacity="0.2" d="M343.175 225.043L254.411 252.388C254.411 252.388 251.145 227.797 267.131 216.321C290.481 199.501 341.983 194.796 341.983 194.796C341.983 194.796 342.619 209.419 343.175 225.043Z" fill="black"/>
<path d="M325.393 196.763L328.822 175.205L327.45 163.958L405.42 158.729L406.596 171.27C406.596 171.27 415.871 215.272 409.437 227.206C398.007 248.519 350.653 247.683 309.521 247.683C318.453 273.913 336.382 340.309 336.382 340.309L314.877 350.145C314.877 350.145 273.385 274.372 263.963 241.568C255.685 212.599 296.033 203.91 325.393 196.763Z" fill="#263238"/>
<path d="M341.264 346.244L312.411 358.031L305.684 346.195L337.59 333.866L341.264 346.244Z" fill="#9953F5"/>
<path opacity="0.2" d="M341.264 346.244L312.411 358.031L305.684 346.195L337.59 333.866L341.264 346.244Z" fill="white"/>
<path d="M380.976 172.072L407.543 170.482L405.943 160.58L379.964 162.252L380.976 172.072Z" fill="black"/>
<path d="M331.859 165.334L327.45 165.629L328.822 175.203L332.626 174.974L331.859 165.334Z" fill="black"/>
<path d="M335.745 174.794L377.857 172.269L377.074 162.433L334.749 165.154L335.745 174.794Z" fill="black"/>
<path d="M348.122 174.926C347.206 174.929 346.321 174.585 345.646 173.962C344.971 173.339 344.555 172.483 344.481 171.565L344.171 167.991C344.084 167.031 344.379 166.076 344.991 165.333C345.602 164.59 346.481 164.12 347.437 164.024L354.997 163.368C355.477 163.322 355.962 163.373 356.423 163.52C356.883 163.666 357.309 163.905 357.675 164.221C358.041 164.531 358.341 164.911 358.56 165.339C358.779 165.767 358.911 166.233 358.948 166.713L359.259 170.287C359.303 170.769 359.25 171.255 359.104 171.717C358.958 172.179 358.722 172.606 358.41 172.975C358.104 173.347 357.726 173.654 357.3 173.877C356.874 174.099 356.407 174.233 355.928 174.27L348.367 174.91L348.122 174.926ZM355.372 164.991H355.209L347.649 165.647C347.383 165.668 347.124 165.741 346.887 165.863C346.65 165.985 346.44 166.153 346.268 166.358C346.096 166.562 345.967 166.799 345.887 167.054C345.808 167.309 345.779 167.578 345.804 167.844L346.098 171.434C346.146 171.971 346.404 172.466 346.816 172.811C347.228 173.152 347.753 173.322 348.286 173.287L355.846 172.631C356.113 172.608 356.373 172.533 356.611 172.409C356.85 172.285 357.061 172.116 357.234 171.91C357.575 171.497 357.745 170.969 357.707 170.434L357.397 166.86C357.375 166.592 357.299 166.331 357.176 166.092C357.053 165.853 356.884 165.64 356.679 165.467C356.315 165.155 355.851 164.986 355.372 164.991Z" fill="white"/>
<path d="M353.495 169.958C353.297 169.956 353.107 169.885 352.958 169.755C352.808 169.626 352.709 169.448 352.678 169.253C352.65 169.038 352.709 168.82 352.84 168.648C352.972 168.476 353.166 168.363 353.38 168.335L356.499 167.908C356.606 167.89 356.715 167.893 356.82 167.918C356.925 167.943 357.024 167.989 357.111 168.053C357.198 168.117 357.271 168.199 357.326 168.292C357.381 168.386 357.416 168.489 357.43 168.597C357.458 168.814 357.4 169.033 357.269 169.208C357.138 169.383 356.943 169.499 356.728 169.531L353.593 169.958H353.495Z" fill="white"/>
<path opacity="0.2" d="M325.719 96.235C325.719 96.235 333.622 124.285 343.175 143.27C343.175 143.27 328.136 115.121 322.519 93.4316L325.719 96.235Z" fill="black"/>
<path d="M326.127 101.464L330.193 96.1357H332.381L335.5 99.4146L335.81 103.152C331.973 104.874 326.127 103.152 326.127 103.152V101.464Z" fill="#9953F5"/>
<path d="M330.03 97.4964C329.944 90.6876 329.211 83.9026 327.842 77.2334L330.03 78.1843C332.097 84.8768 332.841 91.9108 332.218 98.8899L330.03 97.4964Z" fill="#9953F5"/>
<path d="M327.27 101.628C327.27 101.628 311.905 95.5297 310.435 85.5293L309.358 87.4146C309.358 87.4146 313.015 100.054 329.181 103.186L327.27 101.628Z" fill="#9953F5"/>
<path d="M333.671 100.678C335.24 100.425 336.725 99.7932 337.996 98.8364C339.268 97.8796 340.289 96.6266 340.97 95.1856C344.612 86.7754 340.97 74.4307 349.984 68.9551L355.046 70.7584C352.227 72.915 350.167 75.9189 349.167 79.3325C347.339 86.382 345.265 103.825 333.671 103.169V100.678Z" fill="#9953F5"/>
<path d="M330.046 66.1191L322.519 84.6772L321.914 89.12L316.575 86.5625L307.97 81.4148C307.97 81.4148 304.149 86.7756 310.533 95.1366L316.575 90.12L325.05 99.4482L327.45 87.9724L337.329 91.1692C337.329 91.1692 341.281 74.5457 341.281 69.7914L330.046 66.1191Z" fill="#9953F5"/>
<path opacity="0.6" d="M341.281 69.7901C341.281 74.5772 337.313 91.2171 337.313 91.2171L327.418 88.0203L325.033 99.4961L316.559 90.1679L310.517 95.1845C304.133 86.8235 307.937 81.4626 307.937 81.4626L316.559 86.6104L321.898 89.1678L322.503 84.7251L330.014 66.167L341.281 69.7901Z" fill="white"/>
<path opacity="0.2" d="M337.329 91.2173L327.434 88.0205L325.05 99.4471L324.527 85.0859L337.329 91.2173Z" fill="black"/>
<path opacity="0.2" d="M325.05 99.4481L316.575 90.1199L310.533 95.1364L314.844 87.3984L325.05 99.4481Z" fill="black"/>
<path d="M283.901 117.367L271.246 115.941C269.491 114.514 267.418 113.535 265.205 113.088C258.99 112.98 252.779 113.463 246.655 114.531C245.022 115.17 245.61 128.335 246.655 128.564C247.7 128.794 263.947 128.974 265.417 128.564C266.886 128.154 270.413 124.171 270.413 124.171L281.501 126.138L283.901 117.367Z" fill="#EBB376"/>
<path d="M365.529 71.4293C360.304 72.495 336.137 118.579 336.137 118.579L273.94 115.529L273.01 126.218C273.01 126.218 328.74 138.399 341.297 136.055C353.854 133.71 376.502 94.3646 377.857 90.0366C380.943 80.1837 369.04 70.708 365.529 71.4293Z" fill="#9953F5"/>
<path opacity="0.6" d="M365.529 71.4293C360.304 72.495 336.137 118.579 336.137 118.579L273.94 115.529L273.01 126.218C273.01 126.218 328.74 138.399 341.297 136.055C353.854 133.71 376.502 94.3646 377.857 90.0366C380.943 80.1837 369.04 70.708 365.529 71.4293Z" fill="white"/>
<path d="M22.9979 131.742V126.381H19.4219L22.9979 124.282H20.32L23.896 121.938H27.2924V119.233H23.3571L27.2924 117.659V111.807H23.3571V107.987H19.4219L23.3571 106.659V103.937H20.5322L22.8346 101.626L24.8431 99.6094H85.8804V102.364H89.9136L85.4232 104.38V106.659H93.653V110.872H97.2943L93.653 112.708V117.43H91.073V119.676H85.8804V126.381H88.7869L86.4029 128.774V131.758L22.9979 131.742Z" fill="#9953F5"/>
<path opacity="0.7" d="M22.9979 131.742V126.381H19.4219L22.9979 124.282H20.32L23.896 121.938H27.2924V119.233H23.3571L27.2924 117.659V111.807H23.3571V107.987H19.4219L23.3571 106.659V103.937H20.5322L22.8346 101.626L24.8431 99.6094H85.8804V102.364H89.9136L85.4232 104.38V106.659H93.653V110.872H97.2943L93.653 112.708V117.43H91.073V119.676H85.8804V126.381H88.7869L86.4029 128.774V131.758L22.9979 131.742Z" fill="white"/>
<path opacity="0.1" d="M22.9979 131.742V126.381H19.4219L22.9979 124.282H20.32L23.896 121.938H27.2924V119.233H23.3571L27.2924 117.659V111.807H23.3571V107.987H19.4219L23.3571 106.659V103.937H20.5322L22.8346 101.626L24.8431 99.6094H56.9946V102.364H61.0278L56.5374 104.38V106.659H64.7672V110.872H68.4085L64.7672 112.708V117.43H62.1872V119.676H56.9946V126.381H59.9012L57.5171 128.774V131.758L22.9979 131.742Z" fill="black"/>
<path opacity="0.1" d="M85.4229 106.658H56.5371L85.4229 105.608V106.658Z" fill="black"/>
<path opacity="0.1" d="M85.8802 119.675H56.9944L56.8638 121.708L85.8802 119.675Z" fill="black"/>
<path opacity="0.1" d="M91.073 117.429H62.1873L91.073 118.445V117.429Z" fill="black"/>
<path opacity="0.1" d="M85.8802 126.381H56.9944L85.8802 125.299V126.381Z" fill="black"/>
<path opacity="0.1" d="M86.4031 128.773H57.5173V129.872L86.4031 128.773Z" fill="black"/>
<path opacity="0.1" d="M93.6526 110.873H64.7668L93.6526 109.955V110.873Z" fill="black"/>
<path opacity="0.1" d="M85.8802 102.363H56.9944L85.8802 101.347V102.363Z" fill="black"/>
<path opacity="0.1" d="M23.3569 103.938H52.6509L23.3569 104.839V103.938Z" fill="black"/>
<path opacity="0.1" d="M56.5372 106.658H23.3569L53.4347 107.642L56.5372 106.658Z" fill="black"/>
<path opacity="0.1" d="M64.767 110.873L23.3569 111.807V110.873H64.767Z" fill="black"/>
<path opacity="0.1" d="M64.767 112.708H44.2905L64.767 113.724V112.708Z" fill="black"/>
<path opacity="0.1" d="M27.292 117.659L56.9942 117.429L27.292 116.757V117.659Z" fill="black"/>
<path opacity="0.1" d="M27.292 119.232H57.5167L27.292 120.249V119.232Z" fill="black"/>
<path opacity="0.1" d="M22.9976 124.283H56.5371V125.3L22.9976 124.283Z" fill="black"/>
<path opacity="0.1" d="M22.9976 126.38H47.3113L22.9976 127.052V126.38Z" fill="black"/>
<path d="M193.863 132.774L195.202 127.692H250.312L275.687 130.233L276.65 132.774H193.863Z" fill="#263238"/>
<path opacity="0.4" d="M250.312 127.692V132.774H193.863L195.202 127.692H250.312Z" fill="black"/>
<path d="M75.2178 71.2649L87.2848 126.185C87.5014 127.068 88.0034 127.855 88.7125 128.422C89.4216 128.988 90.2977 129.303 91.2038 129.316H130.213C130.625 129.307 131.028 129.202 131.392 129.009C131.757 128.816 132.071 128.542 132.312 128.207C132.552 127.871 132.712 127.485 132.779 127.077C132.845 126.669 132.817 126.252 132.695 125.857L120.645 71.3632C120.4 70.5306 119.876 69.8084 119.162 69.3186C118.448 68.8287 117.587 68.6013 116.726 68.6746H77.7161C75.9363 68.7238 74.8259 69.5271 75.2178 71.2649Z" fill="#263238"/>
<path opacity="0.4" d="M77.4542 71.2649L89.5049 126.185C89.7214 127.068 90.2235 127.855 90.9326 128.422C91.6416 128.988 92.5178 129.303 93.4239 129.316H130.213C130.623 129.303 131.025 129.196 131.387 129.003C131.749 128.809 132.063 128.535 132.302 128.2C132.542 127.866 132.702 127.481 132.77 127.075C132.838 126.668 132.813 126.252 132.695 125.857L120.644 71.3632C120.399 70.5306 119.875 69.8084 119.161 69.3186C118.447 68.8287 117.587 68.6013 116.725 68.6746H80.0178C78.1727 68.7238 77.0623 69.5271 77.4542 71.2649Z" fill="white"/>
<path d="M93.7507 125.742V130.841C93.7507 132.136 95.2856 132.677 96.5593 132.677H186.825C188.115 132.677 189.683 132.136 189.683 130.841V125.742H93.7507Z" fill="#263238"/>
<path opacity="0.2" d="M189.683 125.742V130.841C189.683 132.136 188.148 132.677 186.874 132.677H96.6246C95.3183 132.677 93.7507 132.136 93.7507 130.841V125.742H189.683Z" fill="white"/>
<path opacity="0.4" d="M189.683 125.742V130.841C189.683 132.136 188.148 132.677 186.874 132.677H145.334C144.027 132.677 142.476 132.136 142.476 130.841V125.742H189.683Z" fill="black"/>
<path d="M130.507 121.708L119.551 72.2471H79.6428L90.5015 121.708H130.507Z" fill="#9953F5"/>
<path d="M239.241 103.331C239.321 103.951 239.267 104.582 239.082 105.179C238.898 105.777 238.587 106.327 238.172 106.794C237.757 107.26 237.247 107.632 236.676 107.883C236.106 108.134 235.488 108.259 234.865 108.249H150.445C149.115 108.223 147.842 107.708 146.867 106.801C145.891 105.894 145.282 104.659 145.154 103.331L140.141 49.0665C140.076 48.5185 140.109 47.9633 140.239 47.4271C140.479 46.4758 141.032 45.634 141.809 45.0386C142.585 44.4432 143.54 44.1294 144.517 44.1483H228.937C230.266 44.1742 231.54 44.6896 232.515 45.5963C233.491 46.5031 234.1 47.738 234.228 49.0665L239.241 103.331Z" fill="#263238"/>
<path opacity="0.4" d="M234.555 108.199H150.445C149.115 108.173 147.842 107.658 146.867 106.751C145.891 105.844 145.282 104.609 145.154 103.281L140.141 49.0164C140.076 48.4684 140.109 47.9132 140.239 47.377H224.365C225.692 47.41 226.962 47.9277 227.936 48.8331C228.91 49.7385 229.521 50.9694 229.656 52.2952L234.669 106.559C234.729 107.108 234.691 107.664 234.555 108.199Z" fill="black"/>
<path d="M176.554 74.9199H194.026L189.373 125.119L216.985 129.283V132.775H158.821V129.283L170.741 125.119L176.554 74.9199Z" fill="#263238"/>
<path opacity="0.1" d="M194.027 74.9199L181.094 131.988L170.742 131.676L176.555 74.9199H194.027Z" fill="white"/>
<path d="M135.765 386.423H126.098L108.692 143.349H121.542L135.765 386.423Z" fill="#263238"/>
<path opacity="0.1" d="M135.781 386.421H126.098L109.557 155.413L108.692 143.724H121.542L122.228 155.413L135.781 386.421Z" fill="white"/>
<path opacity="0.2" d="M122.228 154.839H109.557L108.692 143.724H121.542L122.228 154.839Z" fill="black"/>
<path d="M254.198 386.423H244.515L242.948 143.349H255.782L254.198 386.423Z" fill="#263238"/>
<path opacity="0.1" d="M255.782 143.724L255.537 182.955L254.215 386.421H244.515L243.193 182.955L242.948 143.724H255.782Z" fill="white"/>
<path opacity="0.2" d="M255.782 143.724L255.537 183.381H243.193L242.948 143.724H255.782Z" fill="black"/>
<path d="M356.956 386.423H347.289L329.883 143.349H342.734L356.956 386.423Z" fill="#263238"/>
<path opacity="0.1" d="M356.972 386.421H347.289L330.732 155.413L329.883 143.724H342.734L343.419 155.413L356.972 386.421Z" fill="white"/>
<path opacity="0.2" d="M343.419 154.839H330.732L329.883 143.724H342.734L343.419 154.839Z" fill="black"/>
<path d="M25.0388 386.423H15.3721L29.5945 143.349H42.429L25.0388 386.423Z" fill="#263238"/>
<path opacity="0.1" d="M42.429 143.724L41.5799 155.413L25.0388 386.421H15.3721L28.8924 155.413L29.5945 143.724H42.429Z" fill="white"/>
<path opacity="0.2" d="M29.595 143.724H42.4295L41.5804 154.839H28.8928L29.595 143.724Z" fill="black"/>
<path d="M19.422 137.25H352.907V145.873C352.907 146.812 352.535 147.713 351.874 148.377C351.212 149.041 350.315 149.414 349.38 149.414H22.8674C21.9319 149.414 21.0348 149.041 20.3734 148.377C19.7119 147.713 19.3403 146.812 19.3403 145.873V137.25H19.422Z" fill="#9953F5"/>
<path opacity="0.4" d="M19.422 137.25H352.907V145.873C352.907 146.812 352.535 147.713 351.874 148.377C351.212 149.041 350.315 149.414 349.38 149.414H22.8674C21.9319 149.414 21.0348 149.041 20.3734 148.377C19.7119 147.713 19.3403 146.812 19.3403 145.873V137.25H19.422Z" fill="white"/>
<path opacity="0.2" d="M352.923 137.25H19.4219V143.332H352.923V137.25Z" fill="black"/>
<path d="M358.915 138.84H13.4127C12.5089 138.836 11.6434 138.473 11.0043 137.832C10.3652 137.19 10.0043 136.321 10 135.414C10 134.505 10.3596 133.633 10.9996 132.991C11.6396 132.348 12.5076 131.987 13.4127 131.987H358.915C359.821 131.987 360.689 132.348 361.329 132.991C361.969 133.633 362.328 134.505 362.328 135.414C362.324 136.321 361.963 137.19 361.324 137.832C360.685 138.473 359.819 138.836 358.915 138.84Z" fill="#9953F5"/>
<path opacity="0.4" d="M358.915 138.84H13.4127C12.5089 138.836 11.6434 138.473 11.0043 137.832C10.3652 137.19 10.0043 136.321 10 135.414C10 134.505 10.3596 133.633 10.9996 132.991C11.6396 132.348 12.5076 131.987 13.4127 131.987H358.915C359.821 131.987 360.689 132.348 361.329 132.991C361.969 133.633 362.328 134.505 362.328 135.414C362.324 136.321 361.963 137.19 361.324 137.832C360.685 138.473 359.819 138.836 358.915 138.84Z" fill="white"/>
<path d="M275.344 116.511V117.658L271.409 119.232H275.344V121.937H271.948L268.356 124.282H271.05L267.474 126.38H271.05V131.741L334.455 131.757V128.773L336.839 126.38H333.916V119.675H339.125V117.429H341.705V116.511H275.344Z" fill="#9953F5"/>
<path opacity="0.9" d="M275.344 116.511V117.658L271.409 119.232H275.344V121.937H271.948L268.356 124.282H271.05L267.474 126.38H271.05V131.741L334.455 131.757V128.773L336.839 126.38H333.916V119.675H339.125V117.429H341.705V116.511H275.344Z" fill="white"/>
<path opacity="0.1" d="M275.344 116.511V117.658L271.409 119.232H275.344V121.937H271.948L268.356 124.282H271.05L267.474 126.38H271.05V131.741L305.569 131.757V128.773L307.953 126.38H305.03V119.675H310.239V117.429H312.819V116.511H275.344Z" fill="black"/>
<path opacity="0.1" d="M333.916 119.675H305.03L304.916 121.708L333.916 119.675Z" fill="black"/>
<path opacity="0.1" d="M339.125 117.429H310.239L339.125 118.445V117.429Z" fill="black"/>
<path opacity="0.1" d="M333.916 126.381H305.03L333.916 125.299V126.381Z" fill="black"/>
<path opacity="0.1" d="M334.455 128.773H305.569V129.872L334.455 128.773Z" fill="black"/>
<path opacity="0.1" d="M275.344 117.659L305.03 117.429L275.344 116.757V117.659Z" fill="black"/>
<path opacity="0.1" d="M275.344 119.232H305.569L275.344 120.249V119.232Z" fill="black"/>
<path opacity="0.1" d="M271.05 124.283H304.59V125.3L271.05 124.283Z" fill="black"/>
<path opacity="0.1" d="M271.05 126.38H295.347L271.05 127.052V126.38Z" fill="black"/>
<path d="M470.228 354.39C470.5 353.832 470.633 353.215 470.616 352.594C470.599 351.973 470.433 351.365 470.131 350.822C469.83 350.279 469.402 349.818 468.884 349.477C468.366 349.136 467.774 348.926 467.158 348.865C467.69 347.281 467.726 345.571 467.262 343.965C466.798 342.359 465.856 340.934 464.562 339.881C464.252 339.592 463.856 339.414 463.435 339.373C462.986 339.421 462.563 339.61 462.227 339.914L455.042 345.078C454.465 345.437 453.978 345.925 453.622 346.504C452.152 349.357 457.442 353.062 455.254 355.357C454.634 356.029 453.622 356.177 452.838 356.669C451.205 357.734 450.927 360.095 450.127 361.948C449.327 363.8 446.567 365.226 445.506 363.587C446.29 361.816 443.873 360.308 441.979 360.046C440.085 359.784 438.044 359.718 436.982 357.898C434.255 360.308 428.132 353.603 428.263 350.914C427.185 351.11 426.195 351.638 425.431 352.426C424.667 353.214 424.167 354.221 424.001 355.308C423.688 357.534 423.611 359.787 423.772 362.03C423.772 366.407 422.303 370.686 422.368 375.046C422.368 378.456 423.74 382.227 426.842 383.588C428.377 384.148 430.014 384.372 431.643 384.244L466.946 384.014C467.794 384.079 468.645 383.938 469.428 383.604C471.061 382.768 471.371 380.67 471.518 378.866C472.139 371.161 472.77 363.461 473.412 355.767L470.228 354.39Z" fill="#9953F5"/>
<path opacity="0.3" d="M470.228 354.39C470.5 353.832 470.633 353.215 470.616 352.594C470.599 351.973 470.433 351.365 470.131 350.822C469.83 350.279 469.402 349.818 468.884 349.477C468.366 349.136 467.774 348.926 467.158 348.865C467.69 347.281 467.726 345.571 467.262 343.965C466.798 342.359 465.856 340.934 464.562 339.881C464.252 339.592 463.856 339.414 463.435 339.373C462.986 339.421 462.563 339.61 462.227 339.914L455.042 345.078C454.465 345.437 453.978 345.925 453.622 346.504C452.152 349.357 457.442 353.062 455.254 355.357C454.634 356.029 453.622 356.177 452.838 356.669C451.205 357.734 450.927 360.095 450.127 361.948C449.327 363.8 446.567 365.226 445.506 363.587C446.29 361.816 443.873 360.308 441.979 360.046C440.085 359.784 438.044 359.718 436.982 357.898C434.255 360.308 428.132 353.603 428.263 350.914C427.185 351.11 426.195 351.638 425.431 352.426C424.667 353.214 424.167 354.221 424.001 355.308C423.688 357.534 423.611 359.787 423.772 362.03C423.772 366.407 422.303 370.686 422.368 375.046C422.368 378.456 423.74 382.227 426.842 383.588C428.377 384.148 430.014 384.372 431.643 384.244L466.946 384.014C467.794 384.079 468.645 383.938 469.428 383.604C471.061 382.768 471.371 380.67 471.518 378.866C472.139 371.161 472.77 363.461 473.412 355.767L470.228 354.39Z" fill="white"/>
<path d="M472.286 316.93H417.519L417.959 322.487L418.286 326.455L419.119 336.783L419.592 342.701L420.229 350.603L420.49 353.98L420.588 354.997L420.915 358.98L421.34 364.423L421.617 367.817L421.895 371.26L422.221 375.227L422.466 378.243L422.744 381.637L422.858 383.096H473.135L473.249 381.637L473.51 378.26L473.755 375.227L474.082 371.243L474.359 367.817L474.637 364.423L475.078 358.964L475.388 354.997L475.47 353.98L475.747 350.603L476.384 342.701L476.858 336.783L477.69 326.455L478.001 322.487L478.458 316.93H472.286ZM475.551 320.569L474.49 319.504H475.649L475.551 320.569ZM475.29 323.946L475.176 325.291L470.277 330.209L464.66 324.569L469.706 319.504H470.881L475.29 323.946ZM473.87 341.537L470.277 345.144L464.66 339.504L470.293 333.865L474.18 337.767L473.87 341.537ZM421.748 337.767L425.634 333.865L431.251 339.504L425.634 345.144L422.042 341.537L421.748 337.767ZM468.465 332.029L462.831 337.685L457.214 332.029L462.831 326.389L468.465 332.029ZM459.614 319.504H466.048L462.782 322.782L459.614 319.504ZM461.002 339.504L455.402 345.144L449.768 339.504L455.402 333.865L461.002 339.504ZM442.338 346.964L447.956 341.34L453.573 346.964L447.956 352.62L442.338 346.964ZM446.127 354.439L440.51 360.095L434.892 354.456L440.526 348.8L446.127 354.439ZM455.402 348.8L461.002 354.456L455.402 360.095L449.768 354.439L455.402 348.8ZM447.956 337.685L442.338 332.029L447.956 326.389L453.573 332.029L447.956 337.685ZM446.127 339.504L440.526 345.144L434.892 339.504L440.526 333.865L446.127 339.504ZM433.064 337.685L427.446 332.029L433.064 326.389L438.697 332.029L433.064 337.685ZM433.064 341.34L438.697 346.964L433.064 352.62L427.446 346.964L433.064 341.34ZM438.697 361.915L433.064 367.555L427.446 361.915L433.064 356.275L438.697 361.915ZM440.51 363.751L446.127 369.391L440.526 375.047L434.892 369.391L440.51 363.751ZM442.338 361.915L447.956 356.275L453.573 361.915L447.956 367.555L442.338 361.915ZM455.402 363.751L461.002 369.391L455.402 375.047L449.768 369.391L455.402 363.751ZM462.864 371.276L468.497 376.932L464.856 380.588H460.888L457.247 376.932L462.864 371.276ZM457.247 361.981L462.864 356.341L468.497 361.981L462.864 367.62L457.247 361.981ZM457.247 347.029L462.864 341.406L468.497 347.029L462.864 352.685L457.247 347.029ZM461.035 324.635L455.434 330.291L449.801 324.651L454.83 319.586H456.022L461.035 324.635ZM447.972 322.815L444.706 319.536H451.123L447.972 322.815ZM446.143 324.635L440.559 330.291L434.925 324.651L439.954 319.586H441.146L446.143 324.635ZM436.346 319.569L433.08 322.848L429.814 319.569H436.346ZM426.287 319.569L431.316 324.635L425.667 330.291L420.768 325.373L420.67 324.028L425.062 319.586L426.287 319.569ZM421.388 319.569L420.343 320.618L420.262 319.569H421.388ZM421.046 329.406L423.789 332.16L421.454 334.52L421.046 329.406ZM422.581 348.324L422.352 345.652L423.789 347.095L422.581 348.324ZM422.842 351.734L425.618 348.931L431.235 354.587L425.618 360.226L423.348 357.948L422.842 351.734ZM423.675 362.177V361.931L423.789 362.046L423.675 362.177ZM424.654 374.194L423.952 365.538L425.585 363.899L431.202 369.538L425.585 375.178L424.622 374.21L424.654 374.194ZM425.177 380.653L425.062 379.358L425.618 378.817L427.43 380.653H425.177ZM427.43 376.997L433.047 371.342L438.681 376.997L435.039 380.653H431.072L427.43 376.997ZM438.681 380.653L440.51 378.817L442.322 380.653H438.681ZM445.963 380.653L442.322 376.997L447.939 371.342L453.556 376.997L449.964 380.522L445.963 380.653ZM453.556 380.653L455.385 378.817L457.214 380.653H453.556ZM470.702 380.653H468.432L470.261 378.817L470.8 379.358L470.702 380.653ZM471.224 374.194L470.261 375.161L464.66 369.391L470.293 363.751L471.926 365.39L471.224 374.194ZM472.22 361.915V362.177L472.106 362.046L472.253 361.915H472.22ZM472.531 357.948L470.261 360.226L464.66 354.456L470.293 348.8L473.069 351.603L472.531 357.948ZM473.314 348.341L472.073 347.095L473.527 345.652L473.314 348.341ZM474.849 329.389L474.425 334.537L472.073 332.16L474.849 329.389Z" fill="#9953F5"/>
<g opacity="0.6">
<path d="M472.286 316.93H417.519L417.959 322.487L418.286 326.455L419.119 336.783L419.592 342.701L420.229 350.603L420.49 353.98L420.588 354.997L420.915 358.98L421.34 364.423L421.617 367.817L421.895 371.26L422.221 375.227L422.466 378.243L422.744 381.637L422.858 383.096H473.135L473.249 381.637L473.51 378.26L473.755 375.227L474.082 371.243L474.359 367.817L474.637 364.423L475.078 358.964L475.388 354.997L475.47 353.98L475.747 350.603L476.384 342.701L476.858 336.783L477.69 326.455L478.001 322.487L478.458 316.93H472.286ZM475.551 320.569L474.49 319.504H475.649L475.551 320.569ZM475.29 323.946L475.176 325.291L470.277 330.209L464.66 324.569L469.706 319.504H470.881L475.29 323.946ZM473.87 341.537L470.277 345.144L464.66 339.504L470.293 333.865L474.18 337.767L473.87 341.537ZM421.748 337.767L425.634 333.865L431.251 339.504L425.634 345.144L422.042 341.537L421.748 337.767ZM468.465 332.029L462.831 337.685L457.214 332.029L462.831 326.389L468.465 332.029ZM459.614 319.504H466.048L462.782 322.782L459.614 319.504ZM461.002 339.504L455.402 345.144L449.768 339.504L455.402 333.865L461.002 339.504ZM442.338 346.964L447.956 341.34L453.573 346.964L447.956 352.62L442.338 346.964ZM446.127 354.439L440.51 360.095L434.892 354.456L440.526 348.8L446.127 354.439ZM455.402 348.8L461.002 354.456L455.402 360.095L449.768 354.439L455.402 348.8ZM447.956 337.685L442.338 332.029L447.956 326.389L453.573 332.029L447.956 337.685ZM446.127 339.504L440.526 345.144L434.892 339.504L440.526 333.865L446.127 339.504ZM433.064 337.685L427.446 332.029L433.064 326.389L438.697 332.029L433.064 337.685ZM433.064 341.34L438.697 346.964L433.064 352.62L427.446 346.964L433.064 341.34ZM438.697 361.915L433.064 367.555L427.446 361.915L433.064 356.275L438.697 361.915ZM440.51 363.751L446.127 369.391L440.526 375.047L434.892 369.391L440.51 363.751ZM442.338 361.915L447.956 356.275L453.573 361.915L447.956 367.555L442.338 361.915ZM455.402 363.751L461.002 369.391L455.402 375.047L449.768 369.391L455.402 363.751ZM462.864 371.276L468.497 376.932L464.856 380.588H460.888L457.247 376.932L462.864 371.276ZM457.247 361.981L462.864 356.341L468.497 361.981L462.864 367.62L457.247 361.981ZM457.247 347.029L462.864 341.406L468.497 347.029L462.864 352.685L457.247 347.029ZM461.035 324.635L455.434 330.291L449.801 324.651L454.83 319.586H456.022L461.035 324.635ZM447.972 322.815L444.706 319.536H451.123L447.972 322.815ZM446.143 324.635L440.559 330.291L434.925 324.651L439.954 319.586H441.146L446.143 324.635ZM436.346 319.569L433.08 322.848L429.814 319.569H436.346ZM426.287 319.569L431.316 324.635L425.667 330.291L420.768 325.373L420.67 324.028L425.062 319.586L426.287 319.569ZM421.388 319.569L420.343 320.618L420.262 319.569H421.388ZM421.046 329.406L423.789 332.16L421.454 334.52L421.046 329.406ZM422.581 348.324L422.352 345.652L423.789 347.095L422.581 348.324ZM422.842 351.734L425.618 348.931L431.235 354.587L425.618 360.226L423.348 357.948L422.842 351.734ZM423.675 362.177V361.931L423.789 362.046L423.675 362.177ZM424.654 374.194L423.952 365.538L425.585 363.899L431.202 369.538L425.585 375.178L424.622 374.21L424.654 374.194ZM425.177 380.653L425.062 379.358L425.618 378.817L427.43 380.653H425.177ZM427.43 376.997L433.047 371.342L438.681 376.997L435.039 380.653H431.072L427.43 376.997ZM438.681 380.653L440.51 378.817L442.322 380.653H438.681ZM445.963 380.653L442.322 376.997L447.939 371.342L453.556 376.997L449.964 380.522L445.963 380.653ZM453.556 380.653L455.385 378.817L457.214 380.653H453.556ZM470.702 380.653H468.432L470.261 378.817L470.8 379.358L470.702 380.653ZM471.224 374.194L470.261 375.161L464.66 369.391L470.293 363.751L471.926 365.39L471.224 374.194ZM472.22 361.915V362.177L472.106 362.046L472.253 361.915H472.22ZM472.531 357.948L470.261 360.226L464.66 354.456L470.293 348.8L473.069 351.603L472.531 357.948ZM473.314 348.341L472.073 347.095L473.527 345.652L473.314 348.341ZM474.849 329.389L474.425 334.537L472.073 332.16L474.849 329.389Z" fill="white"/>
</g>
<path d="M416.686 321.815H479.291C480.77 321.815 481.969 320.612 481.969 319.127V317.307C481.969 315.822 480.77 314.618 479.291 314.618H416.686C415.207 314.618 414.008 315.822 414.008 317.307V319.127C414.008 320.612 415.207 321.815 416.686 321.815Z" fill="#9953F5"/>
<path d="M474.392 379.228H421.584C420.105 379.228 418.906 380.431 418.906 381.916V383.736C418.906 385.221 420.105 386.425 421.584 386.425H474.392C475.871 386.425 477.07 385.221 477.07 383.736V381.916C477.07 380.431 475.871 379.228 474.392 379.228Z" fill="#9953F5"/>
</svg>
