<svg width="252" height="438" viewBox="0 0 252 438" fill="none" xmlns="http://www.w3.org/2000/svg">
<path d="M177.084 437.132C176.268 428.672 177.156 430.325 178.355 419.167C179.783 407.09 181.937 395.101 184.806 383.261C185.538 380.116 186.269 376.994 186.989 373.929C187.708 370.864 188.439 367.834 189.327 364.906C191.06 359.293 193.113 353.775 195.478 348.377C197.709 343.2 200.011 338.379 202.193 333.879C204.376 329.379 206.534 325.224 208.645 321.516C211.953 315.652 215.742 310.048 219.976 304.757C221.463 302.886 222.674 301.474 223.502 300.521L224.461 299.442C224.563 299.315 224.68 299.2 224.809 299.098C224.717 299.233 224.617 299.364 224.509 299.488C224.293 299.763 223.993 300.142 223.61 300.636C222.818 301.612 221.643 303.058 220.18 304.952C216.045 310.288 212.333 315.913 209.076 321.78C206.99 325.488 204.879 329.643 202.709 334.143C200.539 338.643 198.26 343.475 196.054 348.641C193.717 354.026 191.687 359.529 189.974 365.125C189.087 368.04 188.379 371.048 187.648 374.113C186.917 377.177 186.209 380.288 185.466 383.445C182.613 395.262 180.455 407.222 179.002 419.271C177.803 430.382 176.832 428.695 177.587 437.12" fill="#E0E0E0"/>
<path d="M175.214 433.31C153.977 424.127 145.236 401.502 141.854 380.381C141.29 376.857 140.175 373.241 141.314 369.855C142.454 366.469 146.111 363.656 149.708 364.552C152.658 365.286 154.433 368.099 156.435 370.291C159.106 373.271 162.608 375.461 166.532 376.604C169.086 377.351 172.108 377.546 174.17 375.927C177.012 373.7 176.568 369.453 175.873 365.975C174.57 359.493 173.267 353.008 171.964 346.518C171.071 343.075 170.763 339.517 171.053 335.98C171.544 332.479 173.451 328.955 176.736 327.417C180.022 325.879 184.663 327.015 186.054 330.298C186.473 331.715 186.789 333.157 187.001 334.614C187.385 336.049 188.404 337.519 189.915 337.668C191.426 337.817 192.709 336.52 193.596 335.372C196.666 331.182 198.392 326.189 199.843 321.276C201.294 316.363 202.769 311.324 205.431 306.881C208.093 302.439 212.218 298.559 217.422 297.354C222.627 296.149 228.73 298.226 230.996 302.898C233.263 307.57 231.248 313.08 228.766 317.637C225.063 324.415 220.353 330.644 214.784 336.13C213.663 337.016 212.869 338.223 212.518 339.573C212.182 342.041 214.916 343.935 217.47 344.268C220.348 344.659 223.238 343.867 226.14 343.671C229.042 343.476 232.351 344.142 233.922 346.518C236.105 349.813 233.718 354.094 231.128 357.09C225.945 363.073 219.727 368.159 212.746 372.128C210.252 373.54 207.59 374.871 205.779 377.052C203.968 379.233 203.273 382.596 205.06 384.823C206.846 387.05 210.336 387.234 213.046 386.235C215.756 385.237 217.974 383.331 220.468 381.896C225.109 379.199 231.632 378.384 235.637 381.954C236.893 383.201 237.829 384.712 238.37 386.365C238.911 388.019 239.043 389.77 238.755 391.481C238.158 394.889 236.853 398.149 234.918 401.066C228.758 411.567 219.8 420.316 208.957 426.423C198.105 432.335 187.564 435.285 175.249 433.31" fill="#EBEBEB"/>
<path d="M189.495 364.85C189.223 364.401 189.006 363.923 188.848 363.427C188.476 362.497 187.972 361.131 187.385 359.455C186.186 356.011 184.723 351.351 183.116 346.151C181.509 340.951 179.974 336.256 178.727 332.904C178.116 331.228 177.612 329.874 177.24 328.944C177.017 328.474 176.852 327.981 176.749 327.475C177.043 327.908 177.288 328.369 177.48 328.852C177.924 329.759 178.511 331.091 179.183 332.743C180.538 336.072 182.157 340.779 183.763 345.967C185.37 351.156 186.749 355.759 187.84 359.306C188.332 360.913 188.764 362.267 189.099 363.346C189.292 363.831 189.425 364.336 189.495 364.85Z" fill="#E0E0E0"/>
<path d="M234.654 348.159C234.066 348.398 233.456 348.583 232.831 348.71C231.632 349.02 229.941 349.468 227.843 350.088C223.646 351.293 217.902 353.153 211.667 355.471C205.431 357.79 199.879 360.132 195.91 361.934C193.932 362.818 192.313 363.575 191.234 364.092C190.682 364.4 190.1 364.654 189.495 364.85C190 364.475 190.543 364.149 191.114 363.874C192.181 363.277 193.74 362.45 195.706 361.509C199.627 359.604 205.167 357.182 211.415 354.851C216.751 352.85 222.19 351.111 227.711 349.64C229.821 349.077 231.56 348.699 232.771 348.492C233.387 348.326 234.017 348.215 234.654 348.159Z" fill="#E0E0E0"/>
<path d="M178.81 418.239C178.81 418.239 178.642 418.09 178.378 417.757L177.263 416.276C176.304 414.991 174.961 413.085 173.342 410.721C170.08 405.991 165.812 399.322 161.195 391.907C156.578 384.491 152.358 377.787 149.204 373.001L145.463 367.342L144.455 365.792C144.321 365.622 144.216 365.432 144.144 365.229C144.304 365.377 144.445 365.543 144.563 365.723C144.875 366.125 145.235 366.607 145.678 367.204C146.65 368.49 147.981 370.384 149.612 372.748C152.861 377.478 157.142 384.147 161.759 391.574C166.375 399.001 170.584 405.681 173.75 410.468L177.491 416.127L178.51 417.677C178.629 417.855 178.729 418.043 178.81 418.239Z" fill="#E0E0E0"/>
<path d="M237.22 388.003C237.048 388.149 236.854 388.269 236.644 388.359L234.954 389.254L228.694 392.503C223.418 395.258 216.163 399.126 208.165 403.408C200.167 407.689 192.853 411.512 187.516 414.152C184.842 415.472 182.72 416.517 181.149 417.217L179.398 418.009C179.204 418.116 178.994 418.193 178.775 418.238C178.944 418.095 179.134 417.975 179.338 417.883L181.029 416.987L187.289 413.739C192.577 410.995 199.819 407.127 207.83 402.834C215.84 398.541 223.13 394.73 228.466 392.089C231.14 390.769 233.263 389.725 234.834 389.036L236.584 388.244C236.785 388.138 236.998 388.058 237.22 388.003Z" fill="#E0E0E0"/>
<path d="M251.208 435.522C251.208 434.861 194.968 434.376 125.61 434.376C56.251 434.376 0 434.861 0 435.522C0 436.184 56.2293 436.757 125.604 436.757C194.979 436.757 251.208 436.14 251.208 435.522Z" fill="#263238"/>
<path d="M151.741 78.4889C151.909 83.8725 147.928 84.389 145.182 84.6071C142.436 84.8252 139.294 83.6314 136.788 82.495C131.704 80.1992 126.775 77.8116 124.725 72.4395" fill="#FFBE9D"/>
<path d="M214.119 28.2461C214.287 28.2461 214.431 36.2813 214.431 46.0958C214.431 55.9103 214.287 63.9341 214.119 63.9341C213.951 63.9341 213.807 55.8989 213.807 46.0958C213.807 36.2928 213.951 28.2461 214.119 28.2461Z" fill="#9953F5"/>
<path d="M218.976 32.1719C219.144 32.1719 219.288 38.2672 219.288 45.7974C219.288 53.3276 219.144 59.4114 218.976 59.4114C218.808 59.4114 218.664 53.3161 218.664 45.7974C218.664 38.2787 218.808 32.1719 218.976 32.1719Z" fill="#9953F5"/>
<path d="M224.444 36.0615C224.752 39.3395 224.856 42.6321 224.756 45.9219C224.857 49.2156 224.752 52.512 224.444 55.7938C224.128 52.5125 224.024 49.2156 224.132 45.9219C224.024 42.6321 224.128 39.3391 224.444 36.0615Z" fill="#9953F5"/>
<path d="M229.204 39.415C229.519 41.2352 229.623 43.0829 229.516 44.9249C229.623 46.7631 229.519 48.6071 229.204 50.4233C228.897 48.6063 228.792 46.7631 228.892 44.9249C228.792 43.0829 228.896 41.2359 229.204 39.415Z" fill="#9953F5"/>
<path d="M233.413 42.1016C233.829 44.0945 233.829 46.1465 233.413 48.1395C232.997 46.1465 232.997 44.0945 233.413 42.1016Z" fill="#9953F5"/>
<path d="M238.185 38.875C238.493 40.6959 238.598 42.5429 238.497 44.3849C238.598 46.2231 238.494 48.0663 238.185 49.8833C237.87 48.0671 237.766 46.2231 237.874 44.3849C237.766 42.5429 237.871 40.6951 238.185 38.875Z" fill="#9953F5"/>
<path d="M242.67 34.4551C242.979 37.8903 243.083 41.3396 242.982 44.7861C243.083 48.2327 242.979 51.6819 242.67 55.1172C242.354 51.6823 242.25 48.2327 242.359 44.7861C242.25 41.3396 242.354 37.8899 242.67 34.4551Z" fill="#9953F5"/>
<path d="M185.784 36.0615C186.093 39.3395 186.197 42.6321 186.096 45.9219C186.197 49.2156 186.093 52.512 185.784 55.7938C185.468 52.5125 185.364 49.2156 185.472 45.9219C185.364 42.6321 185.468 39.3391 185.784 36.0615Z" fill="#9953F5"/>
<path d="M190.544 39.415C190.859 41.2352 190.964 43.0829 190.856 44.9249C190.963 46.7631 190.859 48.6071 190.544 50.4233C190.237 48.6063 190.133 46.7631 190.233 44.9249C190.132 43.0829 190.237 41.2359 190.544 39.415Z" fill="#9953F5"/>
<path d="M194.754 42.1016C195.169 44.0945 195.169 46.1465 194.754 48.1395C194.443 47.1627 194.337 46.1367 194.442 45.1205C194.337 44.1044 194.443 43.0783 194.754 42.1016Z" fill="#9953F5"/>
<path d="M199.514 37.2666C199.829 39.6261 199.934 42.0071 199.826 44.3835C199.934 46.7562 199.83 49.1334 199.514 51.489C199.206 49.1328 199.101 46.7562 199.202 44.3835C199.102 42.0071 199.206 39.6267 199.514 37.2666Z" fill="#9953F5"/>
<path d="M203.999 34.4551C204.322 37.8894 204.431 41.3393 204.322 44.7861C204.431 48.2329 204.322 51.6828 203.999 55.1172C203.69 51.6819 203.586 48.2327 203.687 44.7861C203.586 41.3396 203.69 37.8903 203.999 34.4551Z" fill="#9953F5"/>
<path d="M209.467 32.2881C209.647 32.2881 209.779 38.1768 209.779 45.4315C209.779 52.6862 209.647 58.5863 209.467 58.5863C209.287 58.5863 209.155 52.6976 209.155 45.4315C209.155 38.1653 209.299 32.2881 209.467 32.2881Z" fill="#9953F5"/>
<path d="M180.688 49.8833C180.373 48.0671 180.268 46.2231 180.376 44.3849C180.269 42.5429 180.373 40.6951 180.688 38.875C180.996 40.6959 181.1 42.5429 181 44.3849C181.101 46.2231 180.996 48.0663 180.688 49.8833Z" fill="#9953F5"/>
<path d="M176.479 47.2088C176.063 45.2159 176.063 43.1639 176.479 41.1709C176.895 43.1639 176.895 45.2159 176.479 47.2088Z" fill="#9953F5"/>
<path d="M247.095 38.875C247.403 40.6959 247.507 42.5429 247.407 44.3849C247.508 46.2231 247.403 48.0663 247.095 49.8833C246.78 48.0671 246.675 46.2231 246.783 44.3849C246.676 42.5429 246.78 40.6951 247.095 38.875Z" fill="#9953F5"/>
<path d="M251.268 41.5615C251.684 43.5545 251.684 45.6065 251.268 47.5994C250.956 46.6229 250.85 45.5966 250.956 44.5805C250.851 43.5643 250.957 42.5383 251.268 41.5615Z" fill="#9953F5"/>
<path d="M208.975 390.511L217.717 414.777C217.717 414.777 246.424 414.433 248.486 418.772L199.946 436.668L184.741 399.384L208.975 390.511Z" fill="#9953F5"/>
<path d="M201.888 418.299C201.476 418.609 201.198 419.053 201.107 419.546C201.016 420.04 201.119 420.549 201.397 420.974C201.703 421.379 202.16 421.655 202.673 421.747C203.186 421.839 203.716 421.739 204.155 421.467C204.59 421.138 204.883 420.667 204.978 420.144C205.073 419.621 204.964 419.083 204.67 418.632C204.304 418.24 203.793 418 203.245 417.962C202.697 417.923 202.155 418.089 201.732 418.426" fill="#E0E0E0"/>
<g opacity="0.6">
<path d="M199.945 436.668L198.554 432.903L245.62 417.165C245.62 417.165 248.15 417.268 248.486 418.818L199.945 436.668Z" fill="white"/>
</g>
<path d="M218.412 414.247C218.496 414.477 217.345 415.017 216.469 416.176C215.594 417.335 215.366 418.529 215.114 418.472C214.862 418.414 214.683 417.014 215.762 415.636C216.841 414.259 218.376 414.029 218.412 414.247Z" fill="#263238"/>
<path d="M224.312 414.387C224.456 414.594 223.58 415.351 223.113 416.614C222.645 417.877 222.873 418.967 222.633 419.048C222.393 419.128 221.722 417.9 222.273 416.339C222.825 414.777 224.216 414.181 224.312 414.387Z" fill="#263238"/>
<path d="M229.552 419.127C229.36 419.254 228.569 418.243 228.677 416.832C228.785 415.42 229.696 414.455 229.876 414.616C230.056 414.777 229.624 415.684 229.564 416.912C229.504 418.14 229.78 419.047 229.552 419.127Z" fill="#263238"/>
<path d="M215.774 408.933C215.774 409.174 214.575 409.266 213.244 409.839C211.913 410.413 211.05 411.217 210.846 411.068C210.642 410.918 211.313 409.736 212.86 409.07C214.407 408.405 215.822 408.715 215.774 408.933Z" fill="#263238"/>
<path d="M24.2749 381.763L23.7233 382.451L13.267 395.583L0.256592 404.124L17.6798 436.265H36.8657C36.8657 436.265 35.4747 431.845 26.2535 429.561L25.6419 411.918L42.2138 394.493" fill="#9953F5"/>
<g opacity="0.6">
<path d="M0.208252 404.123L17.6315 436.253L36.8174 436.276L34.6589 433.509L19.0584 432.671L2.97823 402.298L0.208252 404.123Z" fill="white"/>
</g>
<path d="M26.0854 421.491C25.9415 421.675 24.8862 421.078 23.3514 421.112C21.8165 421.147 20.7733 421.744 20.6294 421.56C20.4855 421.376 21.5287 420.32 23.3394 420.309C25.15 420.297 26.2652 421.342 26.0854 421.491Z" fill="#263238"/>
<path d="M25.7737 417.119C25.5818 417.245 24.7305 416.166 23.1956 415.879C21.6607 415.592 20.4496 416.258 20.3297 416.063C20.2098 415.867 20.4856 415.672 21.0252 415.397C21.7468 415.044 22.5714 414.935 23.3658 415.087C24.1601 415.239 24.8775 415.644 25.402 416.235C25.7857 416.694 25.8696 417.061 25.7737 417.119Z" fill="#263238"/>
<path d="M25.9057 411.493C25.6898 411.596 25.0423 410.54 23.7112 410.093C22.3802 409.645 21.1691 410.093 21.0732 409.863C20.9773 409.633 21.265 409.507 21.7927 409.324C22.5022 409.081 23.2776 409.081 23.9871 409.324C24.6955 409.564 25.2993 410.025 25.7018 410.632C25.9896 411.091 26.0016 411.459 25.9057 411.493Z" fill="#263238"/>
<path d="M31.0379 407.142C30.81 407.222 30.2824 406.178 29.0833 405.432C27.8842 404.685 26.6851 404.582 26.6851 404.353C26.6851 404.123 28.112 403.836 29.5509 404.766C30.9899 405.696 31.2537 407.119 31.0379 407.142Z" fill="#263238"/>
<g opacity="0.6">
<path d="M15.5095 403.573C15.5095 404.004 15.3759 404.426 15.1256 404.784C14.8752 405.143 14.5194 405.423 14.1031 405.588C13.6868 405.753 13.2287 405.796 12.7867 405.712C12.3448 405.628 11.9388 405.42 11.6202 405.115C11.3016 404.81 11.0846 404.421 10.9967 403.998C10.9087 403.575 10.9539 403.137 11.1263 402.738C11.2988 402.339 11.5908 401.999 11.9655 401.759C12.3401 401.52 12.7806 401.392 13.2312 401.392C13.8355 401.392 14.415 401.621 14.8422 402.03C15.2695 402.439 15.5095 402.994 15.5095 403.573Z" fill="white"/>
</g>
<path d="M124.905 235.681C129.437 237.288 107.721 322.818 107.721 322.818L42.1656 398.269L20.3176 380.247L69.3496 308.056L84.7343 191.729L120.084 193.565L124.905 235.681Z" fill="#263238"/>
<path d="M155.015 191.729C155.638 193.382 192.067 313.521 192.067 313.521L212.321 395.446L185.94 403.676C185.94 403.676 151.333 327.008 147.173 314.14C143.012 301.273 133.179 282.527 133.179 282.527L113.993 233.972C113.993 233.972 83.3194 217.752 85.5738 190.352L155.015 191.729Z" fill="#263238"/>
<path d="M215.426 401.311L213.867 391.45L182.115 401.322L185.808 411.745L215.426 401.311Z" fill="#263238"/>
<path d="M85.8255 191.729C85.8255 191.729 85.8854 192.05 85.9693 192.693L86.3411 195.517C86.7758 199.103 87.4771 202.655 88.4395 206.146C89.1523 208.629 90.1539 211.028 91.4253 213.297C92.9469 215.959 94.8167 218.424 96.9892 220.632C102.307 225.892 108.571 230.192 115.48 233.328L115.588 233.386V233.489C116.787 237.851 118.358 242.362 120.072 247.023C121.787 251.683 123.67 256.493 125.612 261.452C129.521 271.358 133.838 281.827 138.311 292.651C144.546 307.574 150.302 321.911 155.902 334.814C161.502 347.716 166.598 359.275 170.915 368.986C175.232 378.698 178.745 386.549 181.071 392.013C182.271 394.745 183.122 396.88 183.697 398.327L184.345 399.991C184.489 400.358 184.549 400.553 184.549 400.553C184.549 400.553 184.453 400.37 184.285 400.002L183.59 398.372L180.856 392.105C178.457 386.664 174.86 378.824 170.507 369.147C166.154 359.47 160.914 347.911 155.362 335.009C149.81 322.106 143.971 307.781 137.747 292.858C133.275 282.033 128.97 271.565 125.073 261.635C123.118 256.688 121.271 251.855 119.569 247.183C117.866 242.511 116.295 238 115.108 233.604L115.24 233.764C108.292 230.582 102.003 226.223 96.6775 220.897C94.4948 218.652 92.6173 216.153 91.0896 213.458C89.8322 211.156 88.8469 208.726 88.1518 206.215C87.2147 202.705 86.5573 199.133 86.1852 195.528C86.0533 194.3 85.9573 193.359 85.8854 192.693C85.8135 192.027 85.8255 191.729 85.8255 191.729Z" fill="#455A64"/>
<path d="M139.618 239.148C139.354 239.366 139.049 239.533 138.719 239.642C137.854 239.99 136.934 240.196 135.997 240.25C132.856 240.37 129.786 239.34 127.411 237.369C125.118 235.385 123.326 232.928 122.171 230.183C121.715 229.15 121.404 228.289 121.2 227.692C121.063 227.391 120.986 227.068 120.972 226.739C121.068 226.739 121.571 228.002 122.579 229.999C123.818 232.612 125.601 234.956 127.819 236.887C130.086 238.76 132.978 239.794 135.973 239.802C137.212 239.735 138.437 239.515 139.618 239.148Z" fill="#455A64"/>
<path d="M85.13 312.371C82.791 311.07 80.3399 309.964 77.8034 309.065C75.2014 308.361 72.5418 307.87 69.8533 307.596C70.6386 307.418 71.4506 307.376 72.2515 307.469C76.1706 307.665 79.9651 308.854 83.2474 310.913C83.9596 311.289 84.5969 311.783 85.13 312.371Z" fill="#455A64"/>
<path d="M213.52 391.576C213.52 391.726 206.589 394.102 197.931 396.88C189.274 399.658 182.211 401.781 182.151 401.62C182.091 401.46 189.07 399.084 197.74 396.317C206.409 393.551 213.52 391.393 213.52 391.576Z" fill="#455A64"/>
<path d="M13.6145 387.273L19.4542 377.436L45.1633 398.281L37.2611 406.535L13.6145 387.273Z" fill="#263238"/>
<path d="M45.1635 398.28C44.7775 398.065 44.4226 397.803 44.1083 397.5L41.3863 395.204C39.096 393.275 35.9303 390.612 32.297 387.857C28.6637 385.102 25.462 382.462 23.1357 380.568C21.9366 379.627 21.0373 378.846 20.4018 378.272C19.7662 377.698 19.4185 377.411 19.4544 377.377C19.8461 377.578 20.2157 377.817 20.5576 378.089C21.2411 378.582 22.2124 379.305 23.4115 380.201C25.8098 382.014 29.0954 384.54 32.6927 387.364C36.2901 390.187 39.4677 392.851 41.6861 394.859C42.8013 395.858 43.6766 396.685 44.2762 397.27C44.6143 397.57 44.9124 397.91 45.1635 398.28Z" fill="#455A64"/>
<path d="M140.374 8.18033C141.477 4.25453 144.559 2.32607 148.564 1.01747C150.584 0.376328 152.736 0.212676 154.837 0.540492C156.938 0.868308 158.924 1.67785 160.627 2.90002C162.881 4.54151 164.644 6.92913 167.318 7.813C171.731 9.28231 176.911 6.1256 181.132 8.01963C182.423 8.56623 183.471 9.53148 184.092 10.7453C184.713 11.9592 184.866 13.3438 184.525 14.6553C184.184 15.9667 183.37 17.1209 182.228 17.9145C181.085 18.7081 179.686 19.0902 178.278 18.9935C181.156 20.0036 182.043 23.9294 180.364 26.3859C178.686 28.8424 175.232 29.7607 172.222 29.2212C169.229 28.5227 166.492 27.054 164.308 24.974C162.03 23.0226 159.991 20.7957 157.557 19.0165C155.191 17.1067 152.198 16.0543 149.103 16.0434C144.967 16.2615 141.417 19.246 139.57 22.8045C137.724 26.363 137.292 30.4265 137.064 34.3868C136.836 38.347 136.765 42.422 135.529 46.1756C135.386 46.6233 135.17 47.1169 134.702 47.2546C134.031 47.4498 133.503 46.7725 133.131 46.1756C129.349 39.4629 126.986 32.1024 126.176 24.5149C125.709 20.1184 125.829 15.963 128.347 12.2668C130.865 8.57061 137.244 5.83863 140.338 8.18033" fill="#263238"/>
<path d="M132.388 26.5464L130.277 71.0158C129.905 78.5804 130.997 89.7609 143.467 89.7609C154.319 88.9803 157.533 79.2692 157.857 72.2096C158.013 68.8578 158.157 66.0684 158.193 65.724C158.193 65.724 170.076 65.173 171.455 54.004C172.126 48.6089 172.57 37.394 172.834 27.2351C172.974 21.9819 171.046 16.8703 167.432 12.915C163.817 8.95978 158.782 6.45012 153.324 5.88428L152.197 5.7695C139.966 5.18407 132.639 14.8149 132.388 26.5464Z" fill="#FFBE9D"/>
<path d="M158.276 65.5754C152.868 65.113 147.728 63.1144 143.515 59.8359C143.515 59.8359 146.213 68.25 157.989 68.4337L158.276 65.5754Z" fill="#EB996E"/>
<path d="M168.649 34.3528C168.606 34.7691 168.396 35.153 168.062 35.4231C167.729 35.6931 167.298 35.8281 166.862 35.7992C166.648 35.7933 166.437 35.7466 166.242 35.6616C166.047 35.5766 165.872 35.4551 165.727 35.3043C165.581 35.1535 165.469 34.9764 165.397 34.7834C165.324 34.5904 165.292 34.3855 165.303 34.1807C165.346 33.7644 165.557 33.3805 165.89 33.1104C166.224 32.8403 166.654 32.7054 167.09 32.7343C167.304 32.7401 167.515 32.7869 167.71 32.8719C167.905 32.9569 168.081 33.0784 168.226 33.2292C168.371 33.38 168.483 33.5571 168.556 33.7501C168.629 33.9431 168.66 34.148 168.649 34.3528Z" fill="#263238"/>
<path d="M169.764 32.4338C169.536 32.629 168.373 31.5959 166.575 31.4237C164.776 31.2515 163.373 31.9747 163.193 31.7451C163.013 31.5155 163.361 31.2859 163.984 30.9416C164.818 30.5039 165.773 30.3235 166.718 30.425C167.649 30.5238 168.525 30.8968 169.225 31.4926C169.728 31.9632 169.884 32.3535 169.764 32.4338Z" fill="#263238"/>
<path d="M150.974 33.1353C150.934 33.5536 150.725 33.9404 150.391 34.2129C150.057 34.4854 149.625 34.6219 149.187 34.5931C148.974 34.5858 148.763 34.5379 148.569 34.4524C148.375 34.3669 148.2 34.2454 148.055 34.0949C147.91 33.9444 147.798 33.7679 147.725 33.5757C147.651 33.3834 147.619 33.1791 147.628 32.9746C147.671 32.5584 147.881 32.1744 148.215 31.9044C148.549 31.6343 148.979 31.4994 149.415 31.5283C149.629 31.5326 149.839 31.578 150.034 31.6617C150.229 31.7455 150.405 31.8659 150.55 32.0158C150.695 32.1657 150.808 32.342 150.881 32.5343C150.953 32.7267 150.985 32.931 150.974 33.1353Z" fill="#263238"/>
<path d="M152.089 30.9651C151.849 31.1488 150.686 30.1272 148.899 29.9435C147.113 29.7598 145.686 30.4945 145.518 30.2649C145.35 30.0353 145.686 29.8058 146.297 29.4614C147.133 29.0277 148.087 28.8513 149.031 28.9563C149.968 29.0474 150.85 29.4213 151.55 30.0238C152.053 30.483 152.197 30.8733 152.089 30.9651Z" fill="#263238"/>
<path d="M157.161 44.3742C158.139 44.1819 159.139 44.1125 160.135 44.1676C160.591 44.1676 161.034 44.1676 161.142 43.8347C161.236 43.3861 161.181 42.9207 160.986 42.5031C160.675 41.3552 160.351 40.2073 160.003 39.0594C158.648 34.1005 157.725 30.06 157.929 30.0026C158.132 29.9452 159.403 33.9284 160.758 38.8758C161.082 40.0925 161.394 41.2519 161.682 42.3195C161.899 42.8824 161.899 43.5013 161.682 44.0643C161.597 44.2124 161.478 44.3406 161.335 44.4398C161.192 44.539 161.028 44.6068 160.854 44.6382C160.591 44.6661 160.326 44.6661 160.063 44.6382C159.088 44.6635 158.114 44.5748 157.161 44.3742Z" fill="#263238"/>
<path d="M153.3 24.2505C153.072 24.6981 151.297 24.2505 149.163 24.3308C147.028 24.4112 145.266 24.7326 145.038 24.3308C144.93 24.1127 145.278 23.711 146.021 23.3207C146.995 22.8502 148.072 22.6101 149.163 22.6205C150.252 22.5994 151.33 22.8318 152.304 23.2977C153.048 23.6536 153.396 24.0553 153.3 24.2505Z" fill="#263238"/>
<path d="M169.656 27.3962C169.296 27.752 168.109 27.224 166.622 27.0518C165.135 26.8796 163.852 27.0518 163.601 26.6041C163.493 26.386 163.744 26.0187 164.332 25.7088C165.114 25.3231 166.005 25.1864 166.874 25.3185C167.747 25.4213 168.564 25.7825 169.212 26.3516C169.692 26.7993 169.824 27.224 169.656 27.3962Z" fill="#263238"/>
<path d="M132.423 34.9031C132.231 34.7998 124.653 31.8152 124.029 39.4947C123.406 47.1741 131.608 46.1524 131.632 45.9343C131.656 45.7162 132.423 34.9031 132.423 34.9031Z" fill="#FFBE9D"/>
<path d="M129.438 42.8457C129.438 42.8457 129.294 42.926 129.042 43.0179C128.707 43.1462 128.334 43.1462 127.999 43.0179C127.504 42.6693 127.116 42.1999 126.876 41.6587C126.635 41.1176 126.551 40.5245 126.632 39.9415C126.662 39.2708 126.851 38.6154 127.183 38.0245C127.274 37.7887 127.424 37.5781 127.621 37.4118C127.818 37.2455 128.055 37.1287 128.311 37.0718C128.475 37.0396 128.647 37.0647 128.794 37.1425C128.941 37.2203 129.055 37.3458 129.114 37.4965C129.198 37.7146 129.114 37.8638 129.114 37.8868C129.114 37.9097 129.294 37.7605 129.258 37.4391C129.228 37.2492 129.13 37.0749 128.982 36.9455C128.881 36.8562 128.762 36.7878 128.632 36.7443C128.502 36.7009 128.364 36.6834 128.227 36.693C127.893 36.7297 127.576 36.8484 127.305 37.0374C127.034 37.2265 126.818 37.4796 126.68 37.772C126.284 38.4143 126.058 39.1393 126.02 39.8841C125.927 40.5631 126.047 41.2535 126.365 41.8669C126.683 42.4803 127.185 42.9889 127.807 43.3278C128.018 43.4022 128.244 43.4305 128.468 43.4106C128.692 43.3908 128.909 43.3233 129.102 43.213C129.402 43.0293 129.462 42.8572 129.438 42.8457Z" fill="#EB996E"/>
<path d="M175.615 25.1355C172.958 25.5092 170.246 25.2732 167.703 24.4469C165.159 23.6207 162.857 22.2279 160.986 20.3832C158.408 17.7775 156.585 14.242 153.132 12.8301C151.951 12.3965 150.692 12.1924 149.428 12.2299C148.164 12.2673 146.92 12.5455 145.769 13.0482C143.486 14.0624 141.445 15.516 139.774 17.3183C141.393 23.23 139.174 29.4286 136.98 35.1681C136.81 35.8282 136.413 36.4145 135.853 36.8325C134.833 37.4294 133.454 36.7522 132.747 35.8338C131.688 34.2898 131.129 32.4809 131.14 30.6339C130.76 26.4503 131.254 22.2361 132.591 18.2366C133.948 14.2276 136.504 10.6875 139.942 8.05482C144.377 4.90038 149.919 3.51759 155.398 4.1979C160.855 4.91288 165.937 7.25896 169.92 10.9016C171.844 12.5005 173.323 14.5318 174.224 16.8132" fill="#263238"/>
<path d="M157.737 49.2283C157.493 49.9193 157.145 50.5727 156.706 51.1683C156.483 51.4662 156.197 51.7155 155.866 51.8996C155.535 52.0837 155.168 52.1983 154.787 52.2358C154.38 52.2378 153.98 52.1409 153.624 51.9541C153.267 51.7674 152.966 51.497 152.748 51.1683C152.316 50.5029 152.114 49.7232 152.173 48.9413C152.173 48.2411 152.545 47.4032 153.276 47.3228C153.583 47.3104 153.889 47.3736 154.163 47.5065L157.989 48.9873" fill="#EB996E"/>
<path d="M156.214 52.2369C155.52 52.2832 154.824 52.2013 154.163 51.9959C153.498 51.7479 152.951 51.2738 152.628 50.6643C152.45 50.2875 152.358 49.8785 152.358 49.4648C152.358 49.051 152.45 48.642 152.628 48.2652C152.712 48.0694 152.821 47.8843 152.952 47.7142C153.108 47.565 153.084 47.565 153.24 47.588L153.863 47.8175L154.487 48.0701C155.302 48.38 156.046 48.667 156.669 48.8851C157.326 49.1928 158.031 49.3944 158.756 49.482C158.182 49.0515 157.543 48.707 156.861 48.4603C156.262 48.1849 155.542 47.8634 154.739 47.5191L154.115 47.2436C153.887 47.1632 153.72 47.0599 153.42 46.9681C153.232 46.9117 153.032 46.9117 152.844 46.9681C152.677 47.0373 152.532 47.1484 152.425 47.2895C152.251 47.501 152.106 47.7323 151.993 47.9782C151.787 48.4446 151.691 48.9487 151.712 49.4546C151.732 49.9606 151.869 50.4559 152.113 50.9054C152.314 51.2686 152.589 51.5892 152.923 51.8476C153.257 52.1061 153.642 52.2971 154.055 52.4091C154.59 52.5774 155.162 52.6012 155.71 52.478C156.046 52.3976 156.226 52.2828 156.214 52.2369Z" fill="#263238"/>
<path d="M195.593 110.893L173.421 156.258C172.386 158.377 170.807 160.212 168.832 161.591C166.857 162.969 164.55 163.848 162.126 164.144C159.016 164.525 155.86 163.931 153.132 162.452C150.404 160.972 148.25 158.686 146.993 155.937L130.445 119.652L159.224 87.2236L162.03 126.172L180.22 101.503L195.593 110.893Z" fill="#9953F5"/>
<path d="M155.554 141.474C156.302 138.732 157.26 136.047 158.42 133.439C159.377 130.775 160.527 128.179 161.862 125.668C161.111 128.391 160.153 131.057 158.996 133.646C158.041 136.329 156.891 138.945 155.554 141.474Z" fill="#263238"/>
<path d="M155.015 191.727L160.195 186.206C161.09 185.259 161.77 184.145 162.193 182.934C162.616 181.723 162.773 180.441 162.653 179.169L159.907 172.512L163.576 93.479C163.948 87.0738 163.864 77.8447 157.581 75.2505L130.421 67.5596C130.421 67.5596 111.906 71.3361 107.53 80.5996C104.088 87.8658 98.728 136.996 98.728 136.996L90.9337 156.935C90.0344 160.86 84.0868 182.854 83.739 187.928L84.7703 191.75L155.015 191.727Z" fill="#9953F5"/>
<path d="M159.907 172.514C159.907 172.514 159.907 172.376 159.907 172.101C159.907 171.825 159.907 171.389 159.907 170.953C159.907 169.805 159.907 168.324 159.907 166.453C159.907 162.539 159.991 157.098 160.039 150.715C160.423 146.261 160.746 141.303 161.058 136.08C161.646 126.013 162.101 116.898 162.593 110.298C162.833 107.004 163.073 104.34 163.252 102.504C163.36 101.631 163.432 100.931 163.492 100.38C163.512 100.132 163.556 99.8858 163.624 99.6455C163.655 99.8933 163.655 100.144 163.624 100.392C163.624 100.943 163.552 101.643 163.504 102.515C163.384 104.432 163.229 107.107 163.037 110.332C162.689 116.99 162.209 126.082 161.682 136.114C161.37 141.337 161.022 146.307 160.602 150.773C160.459 157.155 160.339 162.585 160.243 166.51C160.183 168.381 160.123 169.885 160.087 170.999C160.087 171.469 160.087 171.86 160.027 172.146C159.998 172.272 159.958 172.395 159.907 172.514Z" fill="#263238"/>
<path d="M110.827 207.386L135.361 199.236L114.101 144.492L128.646 96.9926C130.864 88.7966 126.991 77.2718 118.43 75.1826C118.058 75.0908 117.386 72.1522 117.015 72.3014C113.645 73.6215 105.239 79.074 101.762 84.4576C99.1229 88.6049 97.211 93.1378 96.102 97.8765L87.2765 134.196C85.55 141.298 86.1486 148.736 88.9912 155.501L110.827 207.386Z" fill="#9953F5"/>
<path d="M87.612 151.667C87.6712 151.743 87.7159 151.829 87.7439 151.92L88.0917 152.7L89.3747 155.731L94.1712 167.152L110.671 207.26L110.299 207.099L135.181 198.926L135.349 199.5C135.073 199.287 134.859 199.011 134.725 198.697L134.474 198.065C134.306 197.652 134.138 197.227 133.958 196.803C133.622 195.953 133.286 195.092 132.939 194.231C132.243 192.498 131.548 190.73 130.84 188.951C124.473 172.72 118.489 157.499 113.405 144.55V144.482V144.401C116.823 130.225 119.676 118.39 121.691 110.056C122.698 105.935 123.502 102.687 124.089 100.437C124.365 99.3463 124.581 98.5084 124.737 97.9115C124.809 97.636 124.869 97.4293 124.905 97.2572L124.977 97.0391C124.99 97.115 124.99 97.1927 124.977 97.2686C124.977 97.4408 124.893 97.6474 124.845 97.9229C124.701 98.5313 124.521 99.3808 124.281 100.471C123.753 102.767 123.01 105.993 122.063 110.125L113.993 144.562V144.413C119.089 157.349 125.096 172.559 131.5 188.79L133.586 194.059L134.617 196.642L135.121 197.904L135.373 198.524C135.39 198.548 135.4 198.576 135.4 198.605C135.4 198.634 135.39 198.662 135.373 198.685C135.364 198.723 135.364 198.762 135.373 198.8V198.88V198.938L135.433 199.213L135.541 199.512L110.395 207.639L110.131 207.73L110.036 207.478L93.7515 167.302L89.1469 155.823L87.9478 152.769C87.8279 152.436 87.7319 152.172 87.648 151.977C87.5641 151.782 87.612 151.667 87.612 151.667Z" fill="#263238"/>
<path d="M100.623 146.088C101.091 145.601 101.658 145.21 102.29 144.94C103.757 144.202 105.348 143.716 106.99 143.505C108.631 143.286 110.3 143.348 111.918 143.689C112.601 143.773 113.257 144 113.837 144.354C111.604 143.989 109.331 143.9 107.074 144.09C104.844 144.493 102.677 145.164 100.623 146.088Z" fill="#263238"/>
<g opacity="0.3">
<path d="M166.214 120.57L168.229 161.998C166.106 163.536 163.169 164.144 159.835 164.294C159.895 162.996 162.125 126.218 162.125 126.218L166.214 120.57Z" fill="black"/>
</g>
<path d="M163.553 87.224C163.409 87.3367 163.252 87.433 163.085 87.511C162.624 87.7714 162.148 88.0052 161.658 88.2112C159.856 88.9848 157.964 89.5513 156.022 89.8986C149.596 90.9571 142.999 90.5361 136.776 88.6704C130.522 86.8442 124.82 83.5994 120.156 79.2117C118.75 77.8926 117.454 76.4686 116.283 74.953C115.864 74.425 115.576 73.9773 115.372 73.6904C115.263 73.5434 115.17 73.3856 115.096 73.2197C115.557 73.7096 115.989 74.2231 116.391 74.7579C117.62 76.2086 118.95 77.5778 120.372 78.8559C125.058 83.0954 130.705 86.2385 136.872 88.039C143.037 89.9072 149.567 90.4019 155.962 89.4854C157.887 89.1813 159.772 88.681 161.586 87.9931C162.228 87.7055 162.884 87.4488 163.553 87.224Z" fill="#FAFAFA"/>
<path d="M121.391 109.998C120.994 110.058 120.59 110.058 120.192 109.998C119.121 109.912 118.056 109.766 117.003 109.562C113.521 108.879 110.171 107.683 107.074 106.015C103.992 104.326 101.191 102.206 98.764 99.7242C98.0288 98.9929 97.3325 98.2267 96.6776 97.4284C96.4206 97.1424 96.203 96.8261 96.03 96.4872C96.114 96.4183 97.1692 97.6351 99.0758 99.4717C101.558 101.833 104.352 103.874 107.386 105.544C110.434 107.18 113.702 108.408 117.099 109.194C119.737 109.722 121.403 109.895 121.391 109.998Z" fill="#FAFAFA"/>
<path d="M161.166 120.572C160.675 120.808 160.161 120.996 159.631 121.134C158.212 121.607 156.762 121.991 155.29 122.282C153.115 122.738 150.906 123.037 148.683 123.177C145.958 123.339 143.224 123.297 140.505 123.051C135.571 122.515 130.733 121.357 126.116 119.607C124.353 118.942 122.938 118.345 122.003 117.886C121.495 117.678 121.009 117.425 120.552 117.128C121.084 117.262 121.601 117.443 122.099 117.667C123.07 118.069 124.497 118.597 126.272 119.206C130.887 120.811 135.685 121.886 140.565 122.408C143.247 122.655 145.944 122.716 148.635 122.592C150.836 122.464 153.027 122.207 155.195 121.823C158.912 121.18 161.13 120.457 161.166 120.572Z" fill="#FAFAFA"/>
<path d="M159.559 151.862C159.024 152.145 158.462 152.38 157.881 152.562C157.214 152.822 156.534 153.048 155.842 153.239C155.039 153.469 154.139 153.779 153.096 153.997C152.053 154.215 150.95 154.491 149.715 154.674C148.48 154.858 147.16 155.03 145.77 155.179C142.737 155.425 139.689 155.425 136.656 155.179C133.63 154.873 130.637 154.316 127.711 153.515C126.368 153.113 125.097 152.746 123.946 152.298C122.794 151.85 121.715 151.426 120.756 151.001C119.797 150.576 118.957 150.129 118.202 149.761C117.446 149.394 116.847 149.027 116.343 148.717C115.811 148.429 115.306 148.099 114.832 147.729C115.406 147.941 115.956 148.207 116.475 148.522C116.979 148.797 117.614 149.13 118.37 149.463C119.125 149.796 119.953 150.243 120.936 150.611C121.919 150.978 122.95 151.449 124.125 151.827C125.301 152.206 126.524 152.608 127.867 152.975C130.788 153.725 133.767 154.247 136.776 154.536C139.77 154.801 142.782 154.831 145.782 154.628C147.161 154.491 148.468 154.399 149.691 154.181C150.914 153.963 152.029 153.802 153.06 153.584C154.091 153.366 155.003 153.125 155.806 152.918C156.61 152.711 157.305 152.516 157.857 152.344C158.406 152.129 158.976 151.967 159.559 151.862Z" fill="#FAFAFA"/>
<path d="M179.345 146.903C178.246 146.809 177.167 146.561 176.143 146.168C171.077 144.52 166.564 141.602 163.073 137.72C162.316 136.955 161.674 136.094 161.166 135.16C161.958 135.885 162.706 136.651 163.408 137.456C167.02 141.115 171.441 143.954 176.347 145.767C178.158 146.478 179.369 146.811 179.345 146.903Z" fill="#FAFAFA"/>
<path d="M189.537 122.89C188.558 122.762 187.604 122.495 186.708 122.098C184.485 121.268 182.378 120.177 180.436 118.849C178.489 117.529 176.718 115.988 175.16 114.258C174.476 113.575 173.899 112.802 173.445 111.962C175.697 114.3 178.156 116.447 180.796 118.379C183.566 120.125 186.491 121.635 189.537 122.89Z" fill="#FAFAFA"/>
<path d="M114.425 137.892C114.079 138.022 113.715 138.099 113.346 138.122C112.353 138.265 111.351 138.349 110.348 138.375C103.658 138.579 97.0497 136.916 91.3297 133.588C90.4677 133.09 89.6387 132.542 88.8475 131.946C88.2959 131.522 87.9962 131.281 88.0201 131.246C88.0441 131.212 89.3512 132.05 91.6175 133.221C97.3604 136.287 103.82 137.914 110.396 137.95C112.854 137.961 114.413 137.789 114.425 137.892Z" fill="#FAFAFA"/>
<path d="M117.099 155.512C117.099 155.615 115.636 155.592 113.322 155.856C107.25 156.541 101.504 158.857 96.75 162.537C94.9273 163.938 93.932 164.959 93.8601 164.89C93.7881 164.821 94.04 164.58 94.4717 164.11C95.086 163.433 95.7513 162.8 96.4622 162.216C101.151 158.285 107.038 155.906 113.25 155.432C114.184 155.372 115.122 155.372 116.056 155.432C116.406 155.404 116.758 155.431 117.099 155.512Z" fill="#FAFAFA"/>
<path d="M130.037 186.265C130.037 186.38 128.502 186.127 126.044 186.15C124.609 186.173 123.178 186.3 121.763 186.529C118.294 187.093 114.969 188.285 111.966 190.042C110.739 190.751 109.572 191.554 108.477 192.441C106.606 193.967 105.635 195.104 105.539 195.035C105.704 194.725 105.914 194.439 106.163 194.185C106.776 193.45 107.45 192.763 108.177 192.131C109.255 191.181 110.419 190.325 111.655 189.571C113.175 188.664 114.781 187.895 116.451 187.275C118.137 186.683 119.88 186.252 121.655 185.989C123.103 185.773 124.568 185.688 126.032 185.737C127.018 185.75 128 185.842 128.97 186.012C129.336 186.047 129.696 186.132 130.037 186.265Z" fill="#FAFAFA"/>
<path d="M97.9966 177.977C93.9844 177.905 89.9904 177.44 86.0774 176.588C88.0847 176.515 90.0944 176.646 92.073 176.978C94.0779 177.117 96.0628 177.452 97.9966 177.977Z" fill="#FAFAFA"/>
<g opacity="0.3">
<path d="M89.5671 162.412C89.7637 167.75 90.7198 173.037 92.409 178.127C93.6082 181.892 89.4712 187.838 94.3396 191.73H103.933C99.268 180.744 94.8193 169.219 90.5264 158.877" fill="black"/>
</g>
<path d="M158.36 173.329C158.155 173.616 157.913 173.879 157.641 174.109C156.942 174.774 156.192 175.388 155.398 175.946C154.216 176.775 152.96 177.505 151.645 178.127C150.03 178.879 148.343 179.482 146.609 179.929C144.864 180.348 143.081 180.609 141.285 180.71C139.82 180.785 138.351 180.731 136.896 180.549C135.919 180.445 134.952 180.265 134.006 180.009C133.649 179.943 133.305 179.823 132.987 179.654C132.987 179.55 134.498 179.929 136.944 180.136C138.377 180.241 139.816 180.241 141.249 180.136C143.004 180.01 144.745 179.741 146.453 179.332C148.145 178.885 149.797 178.309 151.393 177.61C152.695 177.025 153.946 176.341 155.135 175.567C157.161 174.27 158.24 173.248 158.36 173.329Z" fill="#263238"/>
<path d="M145.638 179.835C144.936 180.31 144.158 180.675 143.335 180.914C141.385 181.589 139.348 182.006 137.28 182.154C135.217 182.296 133.144 182.203 131.104 181.878C130.251 181.803 129.414 181.605 128.622 181.293C128.622 181.086 132.495 181.878 137.232 181.557C140.085 181.246 142.901 180.669 145.638 179.835Z" fill="#FAFAFA"/>
<path d="M200.809 90.4278L212.56 89.6128C212.56 89.6128 215.126 92.7351 213.076 95.1686C211.025 97.6022 207.08 103.996 207.08 103.996L197.931 105.236L194.262 111.584L180.376 102.974L186.683 90.9444L196.888 82.3926L203.375 82.5188L206.972 86.6857C206.972 86.6857 202.967 88.5683 201.049 85.5378L197.943 86.1232V87.8451C197.939 88.1992 198.011 88.5503 198.156 88.8762C198.301 89.2021 198.515 89.4957 198.784 89.7385C199.053 89.9812 199.372 90.1678 199.721 90.2865C200.07 90.4051 200.44 90.4533 200.809 90.4278Z" fill="#FFBE9D"/>
<path d="M212.417 90.0359L220.415 87.8319C220.91 87.7745 221.412 87.8333 221.878 88.0033C222.344 88.1733 222.76 88.4494 223.089 88.8077L223.329 89.5997L213.52 93.6632L212.417 90.0359Z" fill="#FFBE9D"/>
<path d="M194.946 98.4507C195.229 97.854 195.592 97.2946 196.025 96.7863C196.983 95.5544 197.635 94.1292 197.931 92.6194C198.061 91.8025 197.983 90.9678 197.704 90.1859C197.565 89.8125 197.461 89.4285 197.392 89.038C197.329 88.6885 197.329 88.3314 197.392 87.9819C197.468 87.3206 197.671 86.6785 197.991 86.0879C198.016 86.7419 197.963 87.3965 197.835 88.0393C197.761 88.7105 197.89 89.388 198.207 89.9907C198.541 90.8517 198.644 91.7793 198.507 92.6883C198.199 94.2936 197.45 95.7913 196.337 97.0273C195.533 97.9801 195.006 98.4966 194.946 98.4507Z" fill="#EB996E"/>
<path d="M227.585 80.876C227.585 81.0941 228.784 83.5276 228.784 83.5276L196.252 98.9897L194.622 96.0741L227.585 80.876Z" fill="#263238"/>
<path d="M207.045 103.455C207.218 103.28 207.353 103.074 207.442 102.848C207.531 102.623 207.571 102.382 207.561 102.142C207.551 101.901 207.49 101.664 207.383 101.446C207.276 101.228 207.124 101.033 206.937 100.872C206.144 100.241 205.178 99.8428 204.155 99.7242C202.528 99.3542 200.862 99.1655 199.191 99.1618C198.642 99.1514 198.098 99.2696 197.608 99.5061C197.364 99.6301 197.164 99.8208 197.034 100.054C196.904 100.287 196.849 100.552 196.876 100.815C197.008 101.446 197.704 101.79 198.327 102.02C200.013 102.637 201.767 103.069 203.555 103.306" fill="#FFBE9D"/>
<path d="M203.555 103.374C202.476 103.404 201.398 103.264 200.366 102.961C199.886 102.846 199.358 102.697 198.807 102.525C198.167 102.366 197.567 102.085 197.044 101.699C196.889 101.564 196.766 101.399 196.683 101.215C196.6 101.03 196.56 100.831 196.564 100.631C196.6 100.221 196.797 99.8392 197.116 99.5634C197.762 99.0885 198.571 98.8632 199.382 98.9321C200.819 98.9415 202.251 99.1032 203.651 99.4142C204.849 99.5353 205.991 99.9593 206.961 100.642C207.281 100.91 207.513 101.26 207.63 101.651C207.747 102.042 207.744 102.457 207.62 102.846C207.404 103.397 207.045 103.512 207.045 103.489C207.045 103.466 207.272 103.271 207.392 102.789C207.451 102.449 207.416 102.101 207.289 101.779C207.163 101.456 206.951 101.171 206.673 100.952C205.73 100.381 204.656 100.038 203.543 99.9537C202.178 99.6842 200.788 99.542 199.394 99.529C198.737 99.462 198.077 99.6251 197.536 99.9882C197.428 100.06 197.338 100.155 197.274 100.265C197.21 100.375 197.172 100.497 197.164 100.623C197.156 100.749 197.178 100.875 197.228 100.991C197.277 101.108 197.354 101.212 197.452 101.297C197.904 101.641 198.421 101.898 198.975 102.054C199.514 102.25 200.018 102.41 200.485 102.548C202.356 103.099 203.567 103.271 203.555 103.374Z" fill="#EB996E"/>
<path d="M211.05 97.3831C208.483 96.304 206.613 95.7301 204.047 94.6625C203.252 94.2249 202.331 94.0438 201.421 94.146C200.521 94.3411 199.802 95.3742 200.293 96.1089C200.496 96.3518 200.749 96.5512 201.037 96.6943L208.495 101.033" fill="#FFBE9D"/>
<path d="M208.495 101.034C207.464 100.638 206.477 100.146 205.546 99.5652L202.428 97.8319L200.581 96.7758C200.38 96.6602 200.208 96.5035 200.078 96.317C199.947 96.1305 199.861 95.9187 199.826 95.6968C199.816 95.4718 199.853 95.2472 199.936 95.0362C200.018 94.8253 200.144 94.6323 200.305 94.4685C200.614 94.1282 201.039 93.9044 201.505 93.8372C201.9 93.7626 202.308 93.7626 202.704 93.8372C203.4 94.034 204.078 94.2875 204.73 94.5948L208.052 95.9378C209.103 96.2861 210.106 96.7564 211.037 97.3383C209.962 97.0749 208.908 96.7373 207.884 96.3281C206.925 95.9952 205.761 95.6049 204.502 95.0999C203.876 94.8196 203.226 94.5893 202.56 94.4111C202.251 94.3096 201.918 94.2934 201.6 94.3645C201.282 94.4355 200.991 94.5909 200.761 94.8129C200.551 95.0275 200.435 95.311 200.437 95.6049C200.46 95.7404 200.515 95.8689 200.598 95.9805C200.681 96.0921 200.79 96.1836 200.917 96.2478L202.716 97.3153L205.761 99.1634C206.733 99.7027 207.648 100.329 208.495 101.034Z" fill="#EB996E"/>
<path d="M213.52 93.6648L206.493 91.1969C205.667 90.814 204.734 90.6933 203.831 90.8525C202.956 91.0935 202.296 92.1726 202.836 92.8728C203.05 93.1095 203.316 93.2976 203.615 93.4238L211.35 97.2922" fill="#FFBE9D"/>
<path d="M211.338 97.2904C210.287 96.9516 209.272 96.5212 208.304 96.0047L205.126 94.4665L203.22 93.5367C203.01 93.4411 202.826 93.3017 202.681 93.1289C202.536 92.956 202.433 92.7541 202.38 92.5381C202.345 92.3134 202.36 92.0844 202.421 91.8651C202.483 91.6459 202.592 91.4413 202.74 91.2639C203.009 90.9076 203.399 90.652 203.843 90.5407C204.239 90.4656 204.646 90.4656 205.042 90.5407C205.755 90.6768 206.45 90.8845 207.117 91.1606L210.474 92.4003C211.529 92.7321 212.546 93.1668 213.508 93.6975C212.42 93.4873 211.353 93.1878 210.318 92.8021L206.925 91.6542C206.284 91.4097 205.622 91.2214 204.946 91.0917C204.631 91.0146 204.299 91.0243 203.99 91.1198C203.68 91.2152 203.405 91.3925 203.196 91.6312C202.164 92.8824 204.323 93.3416 205.354 93.9959L208.508 95.6489C209.504 96.1079 210.451 96.6576 211.338 97.2904Z" fill="#EB996E"/>
<path d="M213.004 81.6464C212.932 81.6464 213.136 80.9691 213.82 80.0967C214.731 78.9756 215.952 78.1207 217.345 77.6287C218.741 77.1348 220.255 77.0313 221.71 77.3303C222.813 77.5713 223.412 77.9387 223.377 78.0075C223.341 78.0764 222.705 77.8698 221.638 77.755C220.262 77.5914 218.865 77.7408 217.561 78.1912C216.266 78.6584 215.101 79.4047 214.155 80.3722C213.436 81.1183 213.088 81.6464 213.004 81.6464Z" fill="#263238"/>
<path d="M210.222 80.2339C210.468 79.3992 210.93 78.6373 211.565 78.0185C213.014 76.436 214.921 75.3013 217.045 74.7585C219.159 74.2241 221.378 74.1926 223.508 74.6666C224.394 74.809 225.244 75.1087 226.014 75.5505C226.014 75.6424 225.019 75.3324 223.424 75.0914C221.359 74.7522 219.242 74.8344 217.213 75.3324C215.194 75.8549 213.357 76.8808 211.889 78.3055C210.774 79.4074 210.318 80.2913 210.222 80.2339Z" fill="#263238"/>
<path d="M206.193 78.9712C206.193 78.9712 206.313 78.6498 206.661 78.1562C207.152 77.4614 207.71 76.8119 208.328 76.2163C210.367 74.2095 212.898 72.722 215.69 71.8887C218.485 71.0738 221.446 70.9318 224.312 71.4755C225.173 71.6368 226.016 71.875 226.83 72.1872C227.142 72.2734 227.434 72.4134 227.693 72.6004C227.693 72.7037 226.386 72.2101 224.24 71.8887C221.448 71.463 218.591 71.6556 215.889 72.4515C213.186 73.2475 210.71 74.6257 208.651 76.4803C207.044 77.9381 206.325 79.0286 206.193 78.9712Z" fill="#263238"/>
<path d="M203.339 77.6743C203.407 77.294 203.537 76.9261 203.723 76.5838C204.176 75.6289 204.774 74.7432 205.497 73.9552C206.564 72.7812 207.809 71.7674 209.191 70.9477C210.878 69.9457 212.681 69.133 214.563 68.5256C217.992 67.385 221.68 67.155 225.235 67.8598C226.302 68.0601 227.349 68.3482 228.364 68.7208C228.75 68.823 229.114 68.9859 229.444 69.2029C229.444 69.3062 227.825 68.6978 225.151 68.2731C221.673 67.7087 218.102 67.9889 214.766 69.0881C211.394 70.0834 208.324 71.8482 205.821 74.2306C204.868 75.2905 204.036 76.445 203.339 77.6743Z" fill="#263238"/>
<path d="M136.524 209.337C134.126 208.51 134.33 210.129 135.205 212.034C130.553 214.847 125.468 218.348 119.964 218.382L114.113 205.847L130.781 200.406L131.08 201.21C132.76 202.74 134.582 204.119 136.524 205.331C137.518 205.966 138.616 206.436 139.774 206.72C141.2 207.122 142.676 207.334 144.163 207.351C144.444 207.31 144.732 207.354 144.986 207.477C145.24 207.6 145.447 207.796 145.579 208.038C145.711 208.279 145.761 208.554 145.722 208.824C145.683 209.094 145.557 209.345 145.362 209.544C144.403 210.324 140.661 210.737 136.524 209.337Z" fill="#FFBE9D"/>
<path d="M137.004 210.749C136.428 211.499 135.737 212.161 134.953 212.712C133.146 214.149 131.161 215.368 129.042 216.339C126.925 217.314 124.689 218.031 122.387 218.474C121.444 218.71 120.471 218.815 119.497 218.784C125.931 217.526 131.94 214.766 136.992 210.749H137.004Z" fill="#455A64"/>
</svg>
