<svg width="555" height="490" viewBox="0 0 555 490" fill="none" xmlns="http://www.w3.org/2000/svg">
<path d="M48.1926 143.3C47.3293 143.3 46.6338 134.622 46.6338 123.912C46.6338 113.202 47.3293 104.524 48.1926 104.524C49.056 104.524 49.7635 113.202 49.7635 123.912C49.7635 134.622 49.056 143.3 48.1926 143.3Z" fill="#E0E0E0"/>
<path d="M37.0288 132.601C36.1655 132.601 35.47 128.468 35.47 123.418C35.47 118.367 36.1655 114.234 37.0288 114.234C37.8922 114.234 38.5877 118.367 38.5877 123.418C38.5877 128.468 37.8922 132.601 37.0288 132.601Z" fill="#E0E0E0"/>
<path d="M25.8172 129.617C24.9658 129.617 24.1504 127.528 24.0185 124.853C23.8866 122.179 24.4742 119.998 25.3255 119.952C26.1769 119.906 27.0043 122.041 27.1362 124.716C27.2681 127.39 26.6805 129.571 25.8172 129.617Z" fill="#E0E0E0"/>
<path d="M59.86 133.898C58.9966 133.898 58.409 128.939 58.5289 122.844C58.6489 116.748 59.4523 111.824 60.3156 111.847C61.179 111.87 61.7786 116.806 61.6467 122.901C61.5147 128.996 60.7233 133.921 59.86 133.898Z" fill="#E0E0E0"/>
<path d="M72.5467 129.847C71.6833 129.847 70.9758 127.689 70.9758 125.026C70.9758 122.363 71.6833 120.193 72.5467 120.193C73.41 120.193 74.1055 122.351 74.1055 125.026C74.1055 127.701 73.41 129.847 72.5467 129.847Z" fill="#E0E0E0"/>
<path d="M88.3033 125.026C88.3033 125.026 88.3033 124.808 88.3033 124.406C88.3033 124.004 88.2314 123.361 88.1714 122.581C88.1714 122.179 88.1714 121.731 88.0875 121.238C88.0035 120.744 87.9196 120.216 87.8357 119.631C87.6575 118.296 87.3769 116.977 86.9963 115.682C86.063 112.091 84.5628 108.658 82.5475 105.5C79.6333 100.86 75.7274 96.8619 71.086 93.7679C66.4446 90.6739 61.1725 88.554 55.6153 87.5471C53.951 87.2577 52.2686 87.0737 50.579 86.9961C49.7157 86.9961 48.8523 86.8813 47.977 86.9042L45.3389 87.0305C44.8952 87.0305 44.4515 87.0305 44.0079 87.1108L42.6769 87.306C41.7895 87.4552 40.8902 87.547 40.0028 87.7307C38.1992 88.1135 36.4244 88.612 34.6907 89.223C32.9088 89.8326 31.1738 90.5614 29.4985 91.404C28.6592 91.8402 27.8558 92.3452 27.0164 92.8274C26.1775 93.2985 25.376 93.8279 24.6181 94.4115C23.0277 95.5338 21.5211 96.7612 20.1094 98.0847C18.6639 99.4781 17.3216 100.966 16.0924 102.539C13.6211 105.721 11.7019 109.263 10.4086 113.03C7.67472 120.833 7.67472 129.276 10.4086 137.079C11.7031 140.838 13.6223 144.373 16.0924 147.547C17.2873 149.098 18.5893 150.571 19.9895 151.955C21.4109 153.277 22.921 154.508 24.5102 155.64C25.2739 156.216 26.075 156.745 26.9085 157.224C27.7478 157.695 28.5512 158.2 29.3906 158.636C31.068 159.478 32.8027 160.21 34.5828 160.829C36.3183 161.434 38.0927 161.933 39.8949 162.321C40.7822 162.493 41.6936 162.596 42.5809 162.734L43.9 162.929C44.3436 162.929 44.7873 162.929 45.231 163.021L47.869 163.147C48.7444 163.147 49.6078 163.078 50.4711 163.056C52.1615 162.98 53.8444 162.793 55.5074 162.493C61.0667 161.492 66.3412 159.374 70.9833 156.279C75.6255 153.185 79.5301 149.184 82.4396 144.54C84.4524 141.385 85.9525 137.956 86.8884 134.37C87.2702 133.071 87.5508 131.748 87.7277 130.409C87.8117 129.835 87.9316 129.262 87.9796 128.802C88.0275 128.343 88.0395 127.873 88.0635 127.471C88.0635 126.679 88.1594 126.082 88.1954 125.646C88.2314 125.209 88.1954 125.026 88.1954 125.026C88.1954 125.026 88.1954 125.232 88.1954 125.646C88.1954 126.059 88.1954 126.69 88.1954 127.471C88.1954 127.873 88.1954 128.332 88.1954 128.825C88.1954 129.319 88.0515 129.847 87.9676 130.432C87.8137 131.781 87.5531 133.116 87.1881 134.427C86.2852 138.065 84.8051 141.549 82.7994 144.758C79.8845 149.464 75.9576 153.523 71.2792 156.666C66.6008 159.809 61.2778 161.963 55.6633 162.987C53.9763 163.29 52.2696 163.482 50.5551 163.561C49.6917 163.561 48.8163 163.675 47.929 163.664L45.255 163.538C44.8113 163.538 44.3556 163.538 43.9 163.457L42.5569 163.262C41.6576 163.124 40.7463 163.021 39.8349 162.849C38.0075 162.462 36.2088 161.96 34.4509 161.345C32.6432 160.723 30.8806 159.987 29.1748 159.141C28.3234 158.694 27.496 158.177 26.6566 157.706C25.8192 157.225 25.0179 156.688 24.2584 156.099C22.6468 154.954 21.1165 153.708 19.6778 152.369C18.2502 150.964 16.9241 149.469 15.7087 147.892C13.1948 144.657 11.2393 141.056 9.91694 137.228C7.12697 129.308 7.12697 120.732 9.91694 112.812C11.2302 108.982 13.182 105.381 15.6967 102.148C16.9121 100.572 18.2382 99.0758 19.6658 97.6715C21.1047 96.3357 22.6349 95.0933 24.2464 93.9523C25.0059 93.364 25.8072 92.827 26.6446 92.3452C27.496 91.8631 28.3114 91.3466 29.1628 90.9104C30.8679 90.0796 32.6307 89.3624 34.4389 88.7638C36.1968 88.149 37.9955 87.6466 39.823 87.2601C40.7343 87.0764 41.6456 86.9846 42.545 86.8354L43.888 86.6402C44.3436 86.6402 44.7873 86.6402 45.243 86.5599L47.917 86.4336C48.7924 86.4336 49.6797 86.5139 50.5431 86.5369C52.2573 86.6252 53.9637 86.8208 55.6513 87.1223C61.2686 88.1504 66.5933 90.3105 71.2718 93.4592C75.9503 96.6079 79.8757 100.673 82.7874 105.385C84.7924 108.594 86.2725 112.078 87.1761 115.716C87.54 117.023 87.8005 118.355 87.9556 119.7C88.0395 120.285 88.1354 120.847 88.1834 121.318C88.2314 121.789 88.1834 122.259 88.1834 122.661C88.1834 123.453 88.1834 124.062 88.1834 124.498C88.1834 124.934 88.3033 125.026 88.3033 125.026Z" fill="#E0E0E0"/>
<path d="M407.005 485.934C385.769 476.751 377.027 454.126 373.646 433.005C373.082 429.481 371.967 425.865 373.106 422.479C374.245 419.093 377.903 416.28 381.5 417.176C384.45 417.91 386.225 420.723 388.227 422.915C390.898 425.895 394.4 428.085 398.324 429.228C400.878 429.975 403.9 430.17 405.962 428.551C408.804 426.324 408.36 422.077 407.665 418.599C406.362 412.117 405.059 405.632 403.756 399.142C402.863 395.699 402.555 392.141 402.844 388.604C403.336 385.103 405.243 381.579 408.528 380.041C411.814 378.503 416.454 379.639 417.845 382.922C418.264 384.339 418.581 385.781 418.793 387.238C419.176 388.673 420.196 390.143 421.706 390.292C423.217 390.441 424.5 389.144 425.388 387.996C428.457 383.806 430.184 378.813 431.635 373.9C433.086 368.987 434.561 363.948 437.223 359.505C439.885 355.063 444.01 351.183 449.214 349.978C454.418 348.773 460.522 350.85 462.788 355.522C465.055 360.194 463.04 365.704 460.558 370.261C456.855 377.039 452.145 383.268 446.576 388.754C445.455 389.64 444.66 390.847 444.31 392.197C443.974 394.665 446.708 396.559 449.262 396.892C452.14 397.283 455.03 396.491 457.932 396.295C460.834 396.1 464.143 396.766 465.714 399.142C467.896 402.437 465.51 406.718 462.92 409.714C457.736 415.697 451.519 420.783 444.538 424.752C442.043 426.164 439.381 427.495 437.571 429.676C435.76 431.857 435.065 435.22 436.851 437.447C438.638 439.674 442.127 439.858 444.837 438.859C447.547 437.861 449.766 435.955 452.26 434.52C456.901 431.823 463.424 431.008 467.429 434.578C468.685 435.825 469.621 437.336 470.162 438.989C470.703 440.643 470.835 442.394 470.547 444.105C469.949 447.513 468.645 450.773 466.709 453.69C460.549 464.191 451.592 472.94 440.748 479.047C429.896 484.959 419.356 487.909 407.041 485.934" fill="#EBEBEB"/>
<path d="M408.876 489.757C408.06 481.297 408.947 482.95 410.147 471.792C411.574 459.715 413.728 447.726 416.598 435.886C417.329 432.741 418.061 429.619 418.78 426.554C419.5 423.489 420.231 420.459 421.119 417.531C422.851 411.918 424.905 406.4 427.27 401.002C429.5 395.825 431.803 391.004 433.985 386.504C436.167 382.004 438.326 377.849 440.436 374.141C443.745 368.277 447.534 362.673 451.768 357.382C453.255 355.511 454.466 354.099 455.293 353.146L456.253 352.067C456.355 351.94 456.472 351.825 456.6 351.723C456.508 351.858 456.408 351.989 456.301 352.113C456.085 352.388 455.785 352.767 455.401 353.261C454.61 354.237 453.435 355.683 451.972 357.577C447.836 362.913 444.125 368.538 440.868 374.405C438.782 378.113 436.671 382.268 434.501 386.768C432.33 391.268 430.052 396.1 427.846 401.266C425.509 406.651 423.479 412.154 421.766 417.75C420.879 420.665 420.171 423.673 419.44 426.738C418.708 429.802 418.001 432.913 417.257 436.07C414.405 447.887 412.247 459.847 410.794 471.896C409.595 483.007 408.624 481.32 409.379 489.745" fill="#E0E0E0"/>
<path d="M421.287 417.474C421.015 417.025 420.798 416.547 420.639 416.051C420.268 415.121 419.764 413.755 419.176 412.079C417.977 408.635 416.514 403.975 414.908 398.775C413.301 393.575 411.766 388.88 410.519 385.528C409.907 383.852 409.404 382.498 409.032 381.568C408.809 381.098 408.644 380.605 408.54 380.099C408.834 380.532 409.08 380.993 409.272 381.476C409.715 382.383 410.303 383.715 410.974 385.367C412.329 388.696 413.948 393.403 415.555 398.591C417.162 403.78 418.541 408.383 419.632 411.93C420.124 413.537 420.555 414.891 420.891 415.97C421.084 416.455 421.217 416.96 421.287 417.474Z" fill="#E0E0E0"/>
<path d="M466.445 400.783C465.858 401.022 465.247 401.207 464.623 401.334C463.424 401.644 461.733 402.092 459.634 402.712C455.438 403.917 449.694 405.777 443.458 408.095C437.223 410.414 431.671 412.756 427.702 414.558C425.723 415.442 424.105 416.199 423.025 416.716C422.474 417.024 421.891 417.278 421.287 417.474C421.792 417.099 422.334 416.773 422.905 416.498C423.973 415.901 425.531 415.074 427.498 414.133C431.419 412.228 436.959 409.806 443.207 407.475C448.542 405.474 453.981 403.735 459.503 402.264C461.613 401.701 463.352 401.323 464.563 401.116C465.178 400.95 465.809 400.839 466.445 400.783Z" fill="#E0E0E0"/>
<path d="M410.602 470.863C410.602 470.863 410.434 470.714 410.17 470.381L409.055 468.9C408.096 467.615 406.753 465.709 405.134 463.345C401.872 458.615 397.603 451.946 392.987 444.531C388.37 437.115 384.149 430.411 380.996 425.625L377.254 419.966L376.247 418.416C376.113 418.246 376.007 418.056 375.935 417.854C376.095 418.001 376.236 418.167 376.355 418.347C376.667 418.749 377.026 419.231 377.47 419.828C378.441 421.114 379.772 423.008 381.403 425.372C384.653 430.102 388.934 436.771 393.55 444.198C398.167 451.625 402.376 458.305 405.542 463.092L409.283 468.751L410.302 470.301C410.42 470.479 410.521 470.667 410.602 470.863Z" fill="#E0E0E0"/>
<path d="M469.012 440.628C468.84 440.774 468.646 440.894 468.436 440.984L466.745 441.879L460.486 445.128C455.21 447.883 447.955 451.751 439.957 456.033C431.959 460.314 424.644 464.137 419.308 466.777C416.634 468.097 414.512 469.142 412.941 469.842L411.19 470.634C410.996 470.741 410.786 470.818 410.567 470.863C410.736 470.72 410.926 470.6 411.13 470.508L412.821 469.612L419.08 466.364C424.369 463.62 431.611 459.752 439.621 455.459C447.631 451.166 454.922 447.355 460.258 444.714C462.932 443.394 465.055 442.35 466.625 441.661L468.376 440.869C468.577 440.763 468.79 440.683 469.012 440.628Z" fill="#E0E0E0"/>
<path d="M555 489.702C555 489.874 430.747 490.001 277.512 490.001C124.277 490.001 0 489.874 0 489.702C0 489.53 124.229 489.381 277.5 489.381C430.771 489.381 555 489.542 555 489.702Z" fill="#263238"/>
<path d="M69.1294 456.091C70.3285 451.339 67.1028 446.598 63.4455 443.177C59.7882 439.756 55.4114 436.691 53.4809 432.146C50.3751 424.799 54.4402 415.226 49.164 409.096C46.0703 405.503 40.5304 404.321 37.7724 400.464C36.4962 398.338 35.6462 396.002 35.2663 393.576C32.281 381.339 25.9203 370.093 16.8478 361.011C16.2982 371.932 18.8333 382.793 24.1864 392.452C26.3328 396.308 28.9829 400.062 29.6904 404.378C30.8895 411.38 26.8245 418.624 28.6591 425.488C30.7696 433.351 40.0387 438.574 40.5184 446.667C40.9261 453.554 34.7266 459.569 35.2303 466.41C35.6237 469.319 36.7334 472.097 38.4679 474.514C44.0558 483.284 52.2218 489.311 64.5367 489.047L79.6456 489.38L69.1294 456.091Z" fill="#9953F5"/>
<g opacity="0.3">
<path d="M69.1294 456.09C70.3285 451.338 67.1028 446.597 63.4455 443.176C59.7882 439.755 55.4114 436.69 53.4809 432.145C50.3751 424.798 54.4402 415.225 49.164 409.095C46.0703 405.502 40.5304 404.32 37.7724 400.463C36.4962 398.337 35.6462 396.001 35.2663 393.576C32.281 381.338 25.9203 370.092 16.8478 361.01C16.2982 371.931 18.8333 382.792 24.1864 392.451C26.3328 396.307 28.9829 400.061 29.6904 404.377C30.8895 411.379 26.8245 418.623 28.6591 425.487C30.7696 433.35 40.0387 438.573 40.5184 446.666C40.9261 453.553 34.7266 459.568 35.2303 466.409C35.6237 469.318 36.7334 472.096 38.4679 474.513C44.0558 483.283 52.2218 489.31 64.5367 489.046L79.6456 489.379L69.1294 456.09Z" fill="black"/>
</g>
<path d="M82.6794 489.782C82.6794 489.782 83.0512 489.782 83.7347 489.782C84.7764 489.768 85.8151 489.672 86.8404 489.495C88.4768 489.218 90.0826 488.795 91.6369 488.232C93.7733 487.478 95.7632 486.388 97.5245 485.007C98.5554 484.192 99.3554 483.142 99.8508 481.953C100.269 480.589 100.479 479.174 100.474 477.752C100.473 476.171 100.57 474.592 100.762 473.023C101.039 471.313 101.663 469.671 102.597 468.19C104.395 465.102 107.249 462.278 108.101 458.387C108.952 454.496 108.293 450.352 107.537 445.967C106.782 441.582 106.026 436.784 107.777 432.066C109.528 427.348 112.681 423.273 114.216 418.348C115.751 413.424 114.972 407.96 115.271 402.381C115.362 399.512 116.03 396.686 117.238 394.059C118.437 391.407 120.164 388.985 121.423 386.357C123.965 381.088 124.409 375.015 125.092 368.943C125.428 365.901 125.764 362.813 126.112 359.703C126.313 356.522 126.864 353.371 127.754 350.301C128.764 347.217 129.966 344.192 131.352 341.244C132.04 339.789 132.597 338.279 133.018 336.733C133.254 335.135 133.402 333.525 133.462 331.912C133.603 328.623 133.45 325.328 133.006 322.063C132.575 318.769 131.927 315.463 131.532 312.088C131.532 311.893 131.532 311.686 131.46 311.502L132.143 311.87C129.087 313.385 126.436 315.553 124.397 318.206C122.388 320.844 120.773 323.738 119.6 326.804C117.202 332.899 116.291 339.339 115.044 345.583C113.797 351.828 112.202 358.061 108.808 363.387C107.117 366.027 105.127 368.392 103.412 370.86C101.618 373.206 100.39 375.903 99.8148 378.758C98.9395 384.497 102.465 389.823 101.769 395.597C101.414 398.365 100.45 401.03 98.9395 403.414C97.5365 405.779 95.9177 407.937 94.4068 410.084C92.8798 412.137 91.5513 414.319 90.4377 416.604C89.4179 418.823 88.817 421.197 88.663 423.617C88.3033 428.381 89.0348 433.007 88.663 437.472C88.24 441.702 86.9569 445.813 84.8858 449.571C83.0392 453.153 81.0127 456.367 79.3099 459.466C78.4727 460.958 77.7162 462.491 77.0436 464.058C76.4399 465.496 76.0017 466.993 75.7365 468.523C75.2787 471.211 75.2303 473.949 75.5927 476.65C75.963 480.424 77.397 484.03 79.7416 487.084C80.613 488.099 81.5982 489.019 82.6794 489.828C82.6794 489.828 82.3797 489.656 81.8161 489.254C81.4554 489.025 81.1217 488.759 80.8208 488.462C80.3867 488.072 79.9858 487.65 79.6217 487.199C77.1729 484.159 75.6574 480.526 75.2449 476.707C74.8262 473.975 74.8262 471.198 75.2449 468.465C75.5058 466.895 75.9399 465.356 76.54 463.874C77.2142 462.308 77.9706 460.775 78.8063 459.282C80.4851 456.16 82.4996 452.934 84.2982 449.376C86.2943 445.674 87.5162 441.634 87.8956 437.484C88.2433 433.11 87.4879 428.496 87.8956 423.629C88.0397 421.126 88.653 418.669 89.7063 416.374C90.8283 414.033 92.1687 411.793 93.7113 409.682C95.2222 407.524 96.829 405.377 98.184 403.058C99.6328 400.768 100.557 398.209 100.894 395.551C101.59 390.133 98.0401 384.784 98.9035 378.677C99.4766 375.697 100.739 372.877 102.597 370.424C104.324 367.898 106.314 365.545 107.957 362.963C111.242 357.786 112.849 351.667 114.048 345.457C115.247 339.247 116.159 332.739 118.641 326.517C119.843 323.362 121.506 320.386 123.581 317.678C125.706 314.909 128.472 312.65 131.663 311.078L132.275 310.779L132.347 311.445C132.347 311.617 132.347 311.824 132.419 312.019C132.815 315.359 133.462 318.654 133.894 321.983C134.344 325.297 134.497 328.642 134.349 331.981C134.292 333.644 134.14 335.304 133.894 336.951C133.458 338.555 132.885 340.121 132.179 341.635C130.795 344.548 129.593 347.538 128.582 350.588C127.708 353.61 127.166 356.711 126.963 359.84C126.619 362.947 126.275 366.008 125.932 369.023C125.236 375.061 124.804 381.237 122.154 386.69C120.847 389.387 119.169 391.809 117.958 394.38C116.781 396.915 116.129 399.644 116.039 402.416C115.727 407.88 116.531 413.401 114.912 418.555C113.293 423.709 110.007 427.738 108.413 432.33C106.818 436.921 107.417 441.57 108.137 445.898C108.856 450.225 109.636 454.564 108.628 458.525C107.621 462.485 104.755 465.412 102.993 468.443C102.097 469.864 101.498 471.439 101.23 473.08C101.029 474.63 100.921 476.19 100.906 477.752C100.897 479.215 100.667 480.668 100.223 482.068C99.6841 483.309 98.8359 484.405 97.7524 485.259C95.9508 486.637 93.9254 487.723 91.7568 488.473C90.1641 489.031 88.5171 489.435 86.8404 489.679C85.4706 489.947 84.0619 489.982 82.6794 489.782Z" fill="#263238"/>
<path d="M129.349 319.354C129.373 319.506 129.373 319.66 129.349 319.813C129.277 320.157 129.205 320.593 129.109 321.133C128.881 322.281 128.606 323.991 128.09 326.195C127.574 328.399 126.243 330.867 125.152 333.84C124.061 336.813 122.838 340.245 121.771 344.102C120.703 347.959 119.744 352.218 118.737 356.821C117.73 361.424 116.638 366.44 114 371.169C112.801 373.546 111.422 375.922 110.403 378.459C109.367 381.067 108.679 383.79 108.353 386.563C107.634 392.466 106.585 398.329 105.211 404.126L96.817 437.552L89.6223 464.769C87.5478 472.448 85.8691 478.693 84.6939 483.135L83.243 488.071C83.0871 488.588 82.9672 489.012 82.8593 489.357C82.7514 489.701 82.7154 489.793 82.6914 489.781C82.6999 489.63 82.724 489.48 82.7634 489.334C82.8433 488.989 82.9392 488.553 83.0511 488.025C83.3509 486.808 83.7586 485.132 84.2503 483.009L88.8908 464.642C90.8814 456.86 93.2556 447.631 95.8817 437.38C98.5078 427.129 101.254 415.811 104.216 403.965C105.585 398.191 106.633 392.351 107.357 386.471C107.702 383.631 108.415 380.843 109.48 378.172C110.571 375.566 111.95 373.178 113.173 370.825C115.787 366.234 116.854 361.275 117.969 356.695C119.085 352.114 120.008 347.821 121.135 343.964C122.262 340.107 123.461 336.664 124.661 333.702C125.86 330.741 127.167 328.273 127.742 326.138C128.318 324.002 128.642 322.269 128.941 321.133L129.265 319.824C129.278 319.665 129.306 319.508 129.349 319.354Z" fill="#263238"/>
<path d="M85.3537 489.816C95.1745 484.156 97.8965 467.11 93.7476 456.894C89.5986 446.678 82.332 437.38 81.1568 426.429C80.2455 418.038 83.0754 409.394 80.977 401.175C78.159 390.121 66.8034 381.604 66.8753 370.182C66.8753 363.788 70.6645 357.75 70.3288 351.38C69.9091 343.551 63.6017 337.375 59.6686 330.499C53.673 319.973 53.1934 307.541 51.0829 295.672C48.9725 283.803 44.164 271.28 33.1801 265.54C31.6212 275.596 28.8992 282.494 29.8465 296.108C30.1823 300.987 36.1779 310.319 37.0413 321.029C37.5689 327.423 37.9406 333.84 38.3843 340.245C38.816 346.478 39.2716 352.872 41.6459 358.611C43.4685 363.077 46.3584 367.129 47.7134 371.732C50.2675 380.398 47.0419 389.823 49.1164 398.615C50.8671 406.065 56.3111 412.448 57.4383 420.001C59.0451 430.607 51.9343 441.684 55.6756 451.797C57.5222 456.814 61.863 460.82 63.1221 466.008C64.0934 470.026 63.1221 474.296 63.9735 478.337C65.4004 484.857 78.3629 489.816 85.3537 489.402" fill="#9953F5"/>
<path d="M35.9497 275.457C36.0147 275.636 36.0628 275.821 36.0936 276.008C36.1775 276.421 36.2855 276.961 36.4174 277.638C36.7171 279.073 37.0529 281.219 37.6165 283.928C38.1801 286.637 39.7749 289.668 41.046 293.479C42.5464 297.719 43.8231 302.029 44.8711 306.393C46.0703 311.237 47.0895 316.598 48.1447 322.348C49.2 328.099 50.3151 334.264 53.3249 340.164C54.7279 343.148 56.3227 346.167 57.5338 349.45C58.722 352.792 59.4673 356.262 59.7522 359.781C60.3819 367.145 61.4186 374.471 62.8579 381.729C65.9397 396.594 68.8535 410.759 71.5395 423.65C74.2256 436.541 76.7797 448.089 78.8781 457.834C80.9766 467.58 82.5834 475.397 83.7466 480.907C84.2862 483.593 84.7179 485.694 85.0176 487.186C85.1495 487.863 85.2455 488.403 85.3294 488.828C85.3695 489.013 85.3936 489.201 85.4014 489.39C85.3225 489.217 85.2661 489.036 85.2335 488.85C85.1256 488.437 84.9936 487.898 84.8258 487.22C84.478 485.74 83.9984 483.651 83.3748 480.976L78.2066 458.018C76.0602 448.272 73.5061 436.713 70.6762 423.868L61.9106 381.936C60.4963 374.669 59.4876 367.335 58.8888 359.965C58.6288 356.498 57.9117 353.077 56.7544 349.783C55.5553 346.569 53.9964 343.562 52.6055 340.6C49.5717 334.619 48.4925 328.295 47.4373 322.578C46.382 316.862 45.4467 311.466 44.2956 306.634C43.1444 301.801 41.8973 297.451 40.6023 293.731C39.3072 290.012 37.8803 286.844 37.3047 284.089C36.7291 281.334 36.5133 279.211 36.2735 277.764L36.0456 276.111C35.9882 275.897 35.956 275.678 35.9497 275.457Z" fill="#263238"/>
<path d="M405.997 426.635C407.49 427.316 408.824 428.276 409.922 429.459C411.02 430.642 411.859 432.024 412.389 433.523C413.415 436.546 413.706 439.754 413.24 442.901C412.509 448.985 408.899 455.126 405.014 459.993C399.654 455.528 398.419 447.722 398.059 443.716C397.484 437.403 400.458 425.648 405.997 426.589" fill="#9953F5"/>
<path d="M411.238 470.095C410.87 468.354 410.99 466.551 411.586 464.87C412.182 463.188 413.233 461.688 414.631 460.521C416.049 459.379 417.69 458.519 419.458 457.991C421.227 457.462 423.087 457.277 424.932 457.445C425.787 457.435 426.634 457.603 427.415 457.938C428.196 458.273 428.891 458.767 429.452 459.385C429.867 460.04 430.092 460.79 430.105 461.556C430.117 462.323 429.917 463.079 429.524 463.747C428.708 465.072 427.542 466.168 426.143 466.926C421.502 469.716 416.478 471.598 411.238 470.095Z" fill="#9953F5"/>
<path d="M404.367 488.759C404.385 488.337 404.45 487.918 404.559 487.508C404.727 486.624 404.943 485.488 405.206 484.122C405.791 480.359 407.006 476.712 408.804 473.32C410.696 469.941 413.488 467.101 416.898 465.09C417.937 464.502 419.043 464.032 420.195 463.689C420.511 463.596 420.831 463.519 421.155 463.46C421.266 463.442 421.379 463.442 421.49 463.46C419.951 463.963 418.469 464.613 417.066 465.4C413.769 467.451 411.067 470.266 409.211 473.584C407.421 476.937 406.164 480.528 405.482 484.236C405.158 485.648 404.895 486.796 404.691 487.588C404.624 487.988 404.515 488.38 404.367 488.759Z" fill="#263238"/>
<path d="M404.607 435.783C404.625 435.963 404.625 436.143 404.607 436.323C404.607 436.724 404.667 437.253 404.703 437.895C404.787 439.261 404.871 441.236 404.954 443.635C405.11 448.513 405.242 455.252 405.206 462.701C405.17 470.151 404.99 476.889 404.775 481.768C404.679 484.201 404.571 486.176 404.487 487.507C404.487 488.15 404.403 488.655 404.367 489.08C404.365 489.261 404.345 489.442 404.307 489.619C404.281 489.437 404.281 489.251 404.307 489.068C404.307 488.667 404.307 488.139 404.307 487.496C404.307 486.084 404.391 484.121 404.451 481.756C404.571 476.878 404.715 470.14 404.751 462.701C404.787 455.263 404.751 448.525 404.619 443.646C404.619 441.247 404.547 439.284 404.523 437.907V436.334C404.531 436.148 404.56 435.964 404.607 435.783Z" fill="#263238"/>
<path d="M401.969 473.791C401.316 470.107 399.758 466.625 397.423 463.631C395.088 460.637 392.043 458.218 388.538 456.572C386.752 455.746 384.413 455.218 382.939 456.492C381.464 457.766 381.799 460.051 382.519 461.83C384.092 465.504 386.766 468.65 390.204 470.872C393.641 473.095 397.689 474.294 401.837 474.319" fill="#9953F5"/>
<path d="M389.402 462.324C389.797 462.443 390.179 462.601 390.541 462.795C390.98 462.992 391.408 463.21 391.824 463.449C392.304 463.736 392.891 464.023 393.467 464.436C394.114 464.853 394.738 465.302 395.338 465.779C396.031 466.325 396.695 466.903 397.328 467.513C398.764 468.923 400.031 470.482 401.105 472.162C402.149 473.863 402.986 475.673 403.6 477.557C403.855 478.38 404.063 479.215 404.223 480.059C404.377 480.795 404.485 481.538 404.547 482.286C404.608 482.897 404.636 483.51 404.631 484.123C404.669 484.589 404.669 485.057 404.631 485.523C404.627 485.91 404.578 486.295 404.487 486.671C404.391 486.671 404.571 484.984 404.259 482.286C404.163 481.62 404.079 480.886 403.887 480.105C403.695 479.325 403.48 478.51 403.228 477.66C402.597 475.818 401.765 474.044 400.746 472.368C399.69 470.716 398.452 469.176 397.052 467.777C396.442 467.166 395.798 466.587 395.122 466.043C394.51 465.504 393.923 465.079 393.311 464.666C390.973 463.116 389.366 462.405 389.402 462.324Z" fill="#263238"/>
<path d="M286.002 489.701L114.073 488.944C104.142 488.898 94.636 485.08 87.6452 478.327C80.6544 471.575 76.7506 462.441 76.7921 452.934L78.6147 40.3239C78.6352 35.6143 79.6248 30.9546 81.5272 26.6112C83.4295 22.2678 86.2073 18.3258 89.7017 15.0105C93.1962 11.6952 97.3388 9.07155 101.893 7.28946C106.447 5.50736 111.323 4.60178 116.243 4.62444L288.173 5.38205C293.091 5.4016 297.958 6.34861 302.495 8.16899C307.031 9.98936 311.148 12.6474 314.611 15.9914C318.074 19.3353 320.815 23.2996 322.678 27.6578C324.54 32.0161 325.487 36.6828 325.465 41.3915L323.643 454.002C323.622 458.713 322.632 463.373 320.729 467.717C318.826 472.061 316.047 476.004 312.551 479.319C309.056 482.635 304.912 485.258 300.356 487.04C295.801 488.821 290.923 489.726 286.002 489.701Z" fill="#455A64"/>
<path d="M287.921 19.6269L254.585 19.4777C252.396 19.5169 250.312 20.3841 248.788 21.8897C247.265 23.3954 246.426 25.417 246.455 27.5129V33.2524C246.487 35.3492 245.649 37.3726 244.125 38.8789C242.601 40.3852 240.515 41.2514 238.325 41.2877L173.357 41.0007C172.269 40.9739 171.198 40.742 170.204 40.3183C169.21 39.8946 168.313 39.2874 167.564 38.5314C166.816 37.7755 166.23 36.8856 165.842 35.9128C165.453 34.94 165.268 33.9033 165.299 32.8621V27.1226C165.35 25.0224 164.532 22.9879 163.022 21.4631C161.513 19.9383 159.434 19.0471 157.241 18.9841H145.513L116.339 18.8578C112.891 18.8397 109.474 19.4721 106.282 20.719C103.09 21.9659 100.186 23.8028 97.7359 26.1247C95.2859 28.4466 93.3379 31.2079 92.0034 34.2509C90.6688 37.2938 89.9738 40.5587 89.9581 43.8589L88.2074 446.609C88.1885 449.908 88.8488 453.179 90.1506 456.234C91.4524 459.289 93.3701 462.068 95.7944 464.413C98.2186 466.758 101.102 468.623 104.279 469.902C107.456 471.18 110.866 471.846 114.312 471.863L285.906 472.62C289.354 472.638 292.771 472.006 295.963 470.759C299.155 469.512 302.059 467.675 304.509 465.353C306.959 463.032 308.907 460.27 310.241 457.227C311.576 454.184 312.271 450.919 312.287 447.619L314.061 44.8691C314.08 41.5675 313.419 38.2948 312.115 35.2383C310.81 32.1818 308.889 29.4016 306.461 27.0569C304.033 24.7122 301.145 22.849 297.964 21.574C294.782 20.2991 291.37 19.6374 287.921 19.6269Z" fill="#FAFAFA"/>
<path d="M202.675 325.357C202.843 325.357 202.987 335.482 202.987 347.959C202.987 360.437 202.843 370.573 202.675 370.573C202.507 370.573 202.364 360.449 202.364 347.959C202.364 335.47 202.507 325.357 202.675 325.357Z" fill="#1DB954"/>
<path d="M196.524 330.328C196.692 330.328 196.836 338.053 196.836 347.547C196.836 357.04 196.692 364.765 196.524 364.765C196.356 364.765 196.212 357.04 196.212 347.547C196.212 338.053 196.344 330.328 196.524 330.328Z" fill="#1DB954"/>
<path d="M189.593 335.265C189.761 335.265 189.905 340.855 189.905 347.754C189.905 354.653 189.761 360.254 189.593 360.254C189.425 360.254 189.281 354.664 189.281 347.754C189.281 340.843 189.425 335.265 189.593 335.265Z" fill="#1DB954"/>
<path d="M183.549 339.512C183.981 344.148 183.981 348.811 183.549 353.447C183.134 348.811 183.134 344.148 183.549 339.512Z" fill="#1DB954"/>
<path d="M178.225 342.91C178.641 345.447 178.641 348.03 178.225 350.567C177.809 348.03 177.809 345.447 178.225 342.91Z" fill="#1DB954"/>
<path d="M172.194 338.834C172.609 343.471 172.609 348.133 172.194 352.769C171.762 348.133 171.762 343.47 172.194 338.834Z" fill="#1DB954"/>
<path d="M166.51 333.266C166.678 333.266 166.822 339.12 166.822 346.352C166.822 353.583 166.678 359.449 166.51 359.449C166.342 359.449 166.186 353.583 166.186 346.352C166.186 339.12 166.33 333.266 166.51 333.266Z" fill="#1DB954"/>
<path d="M238.577 335.265C238.745 335.265 238.889 340.855 238.889 347.754C238.889 354.653 238.745 360.254 238.577 360.254C238.41 360.254 238.266 354.664 238.266 347.754C238.266 340.843 238.41 335.265 238.577 335.265Z" fill="#1DB954"/>
<path d="M232.533 339.512C232.949 344.148 232.949 348.811 232.533 353.447C232.118 348.811 232.118 344.148 232.533 339.512Z" fill="#1DB954"/>
<path d="M227.209 342.91C227.625 345.447 227.625 348.03 227.209 350.567C226.794 348.03 226.794 345.447 227.209 342.91Z" fill="#1DB954"/>
<path d="M221.142 336.791C221.466 339.784 221.574 342.795 221.466 345.802C221.574 348.809 221.466 351.82 221.142 354.813C220.833 351.819 220.729 348.809 220.83 345.802C220.729 342.795 220.833 339.785 221.142 336.791Z" fill="#1DB954"/>
<path d="M215.482 333.266C215.662 333.266 215.806 339.12 215.806 346.352C215.806 353.583 215.662 359.449 215.482 359.449C215.302 359.449 215.17 353.583 215.17 346.352C215.17 339.12 215.314 333.266 215.482 333.266Z" fill="#1DB954"/>
<path d="M208.563 330.5C208.731 330.5 208.875 337.961 208.875 347.156C208.875 356.351 208.731 363.823 208.563 363.823C208.395 363.823 208.251 356.362 208.251 347.156C208.251 337.95 208.383 330.5 208.563 330.5Z" fill="#1DB954"/>
<path d="M245.028 352.78C244.612 348.144 244.612 343.481 245.028 338.845C245.444 343.481 245.444 348.144 245.028 352.78Z" fill="#1DB954"/>
<path d="M250.364 349.338C249.949 346.801 249.949 344.218 250.364 341.682C250.78 344.218 250.78 346.801 250.364 349.338Z" fill="#1DB954"/>
<path d="M160.946 338.834C161.361 343.471 161.361 348.133 160.946 352.769C160.53 348.133 160.53 343.471 160.946 338.834Z" fill="#1DB954"/>
<path d="M155.61 342.233C156.026 344.766 156.026 347.346 155.61 349.878C155.194 347.346 155.194 344.766 155.61 342.233Z" fill="#1DB954"/>
<path d="M150.298 338.834C150.713 343.471 150.713 348.133 150.298 352.769C149.882 348.133 149.882 343.471 150.298 338.834Z" fill="#1DB954"/>
<path d="M144.614 333.266C144.782 333.266 144.926 339.12 144.926 346.352C144.926 353.583 144.782 359.449 144.614 359.449C144.446 359.449 144.302 353.583 144.302 346.352C144.302 339.12 144.398 333.266 144.614 333.266Z" fill="#1DB954"/>
<path d="M139.05 338.834C139.466 343.471 139.466 348.133 139.05 352.769C138.635 348.133 138.635 343.471 139.05 338.834Z" fill="#1DB954"/>
<path d="M133.726 342.233C134.142 344.766 134.142 347.346 133.726 349.878C133.31 347.346 133.31 344.766 133.726 342.233Z" fill="#1DB954"/>
<path d="M267.248 338.834C267.664 343.471 267.664 348.133 267.248 352.769C266.832 348.133 266.832 343.471 267.248 338.834Z" fill="#1DB954"/>
<path d="M261.564 333.266C261.744 333.266 261.875 339.12 261.875 346.352C261.875 353.583 261.744 359.449 261.564 359.449C261.384 359.449 261.252 353.583 261.252 346.352C261.252 339.12 261.396 333.266 261.564 333.266Z" fill="#1DB954"/>
<path d="M256.012 338.834C256.428 343.471 256.428 348.133 256.012 352.769C255.58 348.133 255.58 343.47 256.012 338.834Z" fill="#1DB954"/>
<path d="M250.676 342.233C251.091 344.766 251.091 347.346 250.676 349.878C250.26 347.346 250.26 344.766 250.676 342.233Z" fill="#1DB954"/>
<path d="M274.191 342.233C274.606 344.766 274.606 347.346 274.191 349.878C273.775 347.346 273.775 344.766 274.191 342.233Z" fill="#1DB954"/>
<g opacity="0.3">
<path d="M295.283 182.019C295.283 182.019 295.283 181.536 295.211 180.595C295.139 179.654 295.211 178.299 295.019 176.428C294.643 171.098 293.764 165.812 292.393 160.633C291.4 156.891 290.146 153.218 288.64 149.636C286.874 145.375 284.753 141.256 282.296 137.32C276.27 127.711 268.392 119.285 259.081 112.491C247.769 104.259 234.605 98.6694 220.638 96.1675C212.884 94.7823 204.976 94.3694 197.111 94.9393C193.004 95.2197 188.922 95.7643 184.892 96.5693C180.751 97.4261 176.673 98.542 172.685 99.9097C155.722 105.828 140.969 116.421 130.284 130.352C127.495 133.985 125.009 137.824 122.85 141.831C121.722 143.828 120.763 145.917 119.78 148.006C118.797 150.096 117.993 152.254 117.274 154.458C114.193 163.344 112.614 172.644 112.597 182.007C112.628 186.716 113.028 191.417 113.796 196.069C114.558 200.657 115.717 205.176 117.262 209.579C117.993 211.783 118.893 213.907 119.78 216.031C120.667 218.154 121.71 220.209 122.838 222.206C133.375 241.669 151.166 256.631 172.685 264.127C176.673 265.495 180.751 266.611 184.892 267.468C196.673 269.807 208.815 269.944 220.65 267.87C234.614 265.37 247.775 259.781 259.081 251.546C268.397 244.747 276.275 236.313 282.296 226.695C284.766 222.762 286.895 218.642 288.664 214.378C290.175 210.801 291.433 207.131 292.429 203.392C293.791 198.213 294.666 192.926 295.043 187.597C295.211 185.772 295.175 184.372 295.235 183.43C295.295 182.489 295.307 182.019 295.307 182.019C295.307 182.019 295.307 182.489 295.307 183.43C295.307 184.372 295.307 185.726 295.175 187.609C294.856 192.952 294.017 198.255 292.669 203.45C290.513 211.679 287.124 219.567 282.608 226.867C276.592 236.538 268.705 245.023 259.369 251.868C253.947 255.848 248.069 259.225 241.85 261.935C235.124 264.899 228.039 267.051 220.758 268.34C212.959 269.747 205.002 270.175 197.087 269.614C192.953 269.333 188.843 268.789 184.784 267.984C180.62 267.128 176.518 266.012 172.505 264.644C155.419 258.694 140.557 248.033 129.793 234.007C126.988 230.354 124.486 226.497 122.31 222.47C121.111 220.45 120.212 218.349 119.216 216.249C118.221 214.148 117.418 211.967 116.686 209.752C115.134 205.316 113.963 200.767 113.185 196.149C112.417 191.466 112.016 186.735 111.986 181.996C112.005 172.567 113.591 163.202 116.686 154.251C117.418 152.036 118.341 149.9 119.228 147.754C120.116 145.607 121.183 143.564 122.31 141.544C124.489 137.535 126.995 133.696 129.804 130.065C140.565 116.042 155.423 105.385 172.505 99.4391C176.518 98.0711 180.62 96.9553 184.784 96.0987C188.843 95.2936 192.953 94.749 197.087 94.4687C204.981 93.8804 212.922 94.2778 220.71 95.651C234.747 98.1737 247.972 103.811 259.321 112.112C268.657 118.959 276.548 127.443 282.572 137.113C285.035 141.069 287.157 145.212 288.916 149.499C290.41 153.096 291.652 156.785 292.633 160.541C293.982 165.736 294.821 171.039 295.139 176.382C295.295 178.219 295.235 179.619 295.271 180.561C295.307 181.502 295.283 182.019 295.283 182.019Z" fill="#9953F5"/>
</g>
<path d="M283.688 180.126C283.688 180.126 283.688 179.713 283.688 178.898C283.688 178.083 283.688 176.878 283.508 175.305C282.746 164.532 279.582 154.04 274.229 144.536C268.876 135.032 261.458 126.735 252.475 120.206C242.718 113.11 231.364 108.294 219.319 106.144C212.632 104.952 205.813 104.593 199.03 105.077C195.484 105.324 191.959 105.796 188.478 106.489C184.911 107.23 181.398 108.192 177.961 109.37C159.41 115.843 144.07 128.741 134.973 145.517C133.065 149.012 131.46 152.652 130.177 156.399C124.82 171.833 124.82 188.511 130.177 203.945C131.45 207.7 133.055 211.344 134.973 214.838C136.836 218.29 138.981 221.594 141.388 224.722C150.603 236.744 163.329 245.886 177.961 250.997C181.399 252.17 184.911 253.128 188.478 253.867C191.958 254.565 195.483 255.037 199.03 255.279C205.813 255.774 212.634 255.415 219.319 254.211C231.364 252.061 242.718 247.246 252.475 240.15C261.475 233.611 268.903 225.297 274.255 215.771C279.607 206.245 282.759 195.729 283.496 184.936C283.652 183.363 283.616 182.158 283.676 181.343C283.736 180.528 283.676 180.126 283.676 180.126C283.676 180.126 283.676 181.791 283.568 184.947C282.866 196.912 279.164 208.539 272.776 218.845C267.582 227.19 260.778 234.514 252.726 240.425C242.928 247.595 231.511 252.466 219.391 254.647C209.12 256.476 198.575 256.37 188.346 254.337C184.751 253.597 181.21 252.634 177.746 251.456C163 246.336 150.169 237.149 140.873 225.055C138.44 221.904 136.275 218.572 134.397 215.091C132.477 211.57 130.873 207.898 129.601 204.117C124.197 188.565 124.197 171.756 129.601 156.204C130.873 152.423 132.477 148.752 134.397 145.23C136.278 141.757 138.439 138.429 140.861 135.278C150.156 123.183 162.987 113.996 177.734 108.876C181.197 107.693 184.738 106.731 188.334 105.995C191.833 105.291 195.379 104.819 198.946 104.583C205.764 104.118 212.617 104.504 219.331 105.731C231.445 107.913 242.858 112.78 252.654 119.942C260.696 125.814 267.5 133.094 272.704 141.396C279.093 151.702 282.794 163.329 283.496 175.294C283.736 178.462 283.688 180.126 283.688 180.126Z" fill="#9953F5"/>
<path d="M203.778 244.248C239.679 244.248 268.783 216.388 268.783 182.02C268.783 147.653 239.679 119.793 203.778 119.793C167.878 119.793 138.774 147.653 138.774 182.02C138.774 216.388 167.878 244.248 203.778 244.248Z" fill="#1DB954"/>
<path d="M204.306 163.125H203.047C198.649 163.125 195.085 166.537 195.085 170.747V181.618C195.085 185.827 198.649 189.24 203.047 189.24H204.306C208.703 189.24 212.268 185.827 212.268 181.618V170.747C212.268 166.537 208.703 163.125 204.306 163.125Z" fill="#FAFAFA"/>
<path d="M203.671 194.222C200.314 194.216 197.097 192.937 194.724 190.665C192.35 188.393 191.014 185.313 191.008 182.1C191.008 181.948 191.071 181.802 191.183 181.694C191.296 181.587 191.448 181.526 191.607 181.526C191.766 181.526 191.919 181.587 192.031 181.694C192.144 181.802 192.207 181.948 192.207 182.1C192.21 185.01 193.419 187.799 195.568 189.857C197.717 191.914 200.631 193.071 203.671 193.074C205.195 193.141 206.717 192.903 208.14 192.375C209.564 191.848 210.856 191.042 211.936 190.009C213.016 188.977 213.859 187.74 214.411 186.379C214.964 185.017 215.214 183.56 215.146 182.1C215.146 181.948 215.209 181.802 215.322 181.694C215.434 181.587 215.587 181.526 215.746 181.526C215.905 181.526 216.057 181.587 216.17 181.694C216.282 181.802 216.345 181.948 216.345 182.1C216.345 189.229 211.129 194.211 203.671 194.222Z" fill="#FAFAFA"/>
<path d="M204.27 193.637H203.071V199.583H204.27V193.637Z" fill="white"/>
<path d="M211.177 199.905H196.176C196.017 199.905 195.864 199.844 195.752 199.737C195.64 199.629 195.576 199.483 195.576 199.331C195.576 199.179 195.64 199.033 195.752 198.925C195.864 198.817 196.017 198.757 196.176 198.757H211.177C211.336 198.757 211.488 198.817 211.601 198.925C211.713 199.033 211.777 199.179 211.777 199.331C211.773 199.482 211.709 199.626 211.598 199.733C211.486 199.84 211.335 199.902 211.177 199.905Z" fill="white"/>
<path d="M191.164 167.878C191.092 168.027 190.181 167.717 189.102 167.281C188.022 166.845 187.159 166.42 187.207 166.26C187.255 166.099 188.238 166.26 189.341 166.73C190.445 167.201 191.164 167.729 191.164 167.878Z" fill="white"/>
<path d="M195.96 161.725C195.828 161.829 195.049 161.037 194.221 159.969C193.394 158.902 192.842 157.949 193.022 157.857C193.202 157.765 193.934 158.546 194.761 159.613C195.588 160.681 196.08 161.634 195.96 161.725Z" fill="white"/>
<path d="M203.719 159.52C203.539 159.52 203.419 158.522 203.431 157.224C203.443 155.927 203.599 154.929 203.767 154.929C204.182 156.406 204.182 157.962 203.767 159.44L203.719 159.52Z" fill="white"/>
<path d="M213.695 157.902C213.839 157.994 213.467 158.843 212.772 159.739C212.076 160.634 211.309 161.208 211.189 161.093C211.069 160.978 211.585 160.244 212.268 159.371C212.952 158.499 213.539 157.822 213.695 157.902Z" fill="white"/>
<path d="M220.398 165.673C220.482 165.822 219.679 166.407 218.611 166.993C217.544 167.578 216.609 167.923 216.525 167.785C216.441 167.647 217.232 167.05 218.3 166.465C219.367 165.879 220.314 165.535 220.398 165.673Z" fill="white"/>
<path d="M153.752 304.42L151.833 301.768H149.711V304.42H147.396V294.881H151.713C154.375 294.881 156.042 296.212 156.042 298.325C156.076 298.972 155.896 299.613 155.528 300.157C155.16 300.7 154.622 301.12 153.991 301.355L156.222 304.42H153.752ZM151.593 296.683H149.723V299.978H151.593C153.008 299.978 153.716 299.346 153.716 298.313C153.716 297.28 152.996 296.683 151.593 296.683Z" fill="#263238"/>
<path d="M165.167 301.354H159.375C159.491 301.813 159.778 302.217 160.182 302.489C160.585 302.761 161.078 302.884 161.569 302.835C161.923 302.846 162.275 302.788 162.605 302.666C162.934 302.544 163.235 302.359 163.488 302.123L164.687 303.351C164.277 303.749 163.781 304.057 163.235 304.256C162.689 304.454 162.104 304.537 161.521 304.499C160.97 304.552 160.413 304.494 159.886 304.328C159.36 304.162 158.875 303.893 158.464 303.537C158.053 303.181 157.724 302.747 157.499 302.262C157.274 301.778 157.157 301.253 157.157 300.723C157.149 300.214 157.251 299.709 157.455 299.24C157.659 298.77 157.962 298.345 158.343 297.992C158.725 297.638 159.179 297.363 159.676 297.183C160.173 297.003 160.703 296.922 161.234 296.946C161.764 296.918 162.294 296.997 162.79 297.178C163.286 297.358 163.737 297.637 164.113 297.995C164.49 298.353 164.783 298.783 164.975 299.257C165.167 299.731 165.253 300.238 165.227 300.745C165.215 300.952 165.179 301.182 165.167 301.354ZM159.351 300.114H163.116C163.045 299.686 162.816 299.295 162.471 299.014C162.126 298.732 161.687 298.578 161.234 298.578C160.78 298.578 160.342 298.732 159.997 299.014C159.652 299.295 159.423 299.686 159.351 300.114Z" fill="#263238"/>
<path d="M173.261 300.24V304.419H171.175V303.512C170.919 303.866 170.568 304.149 170.158 304.328C169.749 304.508 169.296 304.579 168.849 304.533C167.05 304.533 165.983 303.581 165.983 302.306C165.983 301.032 166.942 300.114 169.268 300.114H171.031C171.031 299.207 170.467 298.668 169.268 298.668C168.475 298.665 167.701 298.907 167.062 299.356L166.27 297.864C167.257 297.269 168.402 296.962 169.568 296.98C171.906 296.98 173.261 298.025 173.261 300.24ZM171.031 302.111V301.354H169.508C168.477 301.354 168.141 301.721 168.141 302.215C168.141 302.708 168.621 303.099 169.34 303.099C169.696 303.136 170.056 303.06 170.362 302.881C170.668 302.703 170.903 302.432 171.031 302.111Z" fill="#263238"/>
<path d="M183.154 294.319V304.421H181.031V303.583C180.735 303.908 180.364 304.163 179.948 304.328C179.532 304.493 179.082 304.564 178.633 304.536C177.587 304.536 176.583 304.138 175.843 303.429C175.103 302.721 174.688 301.761 174.688 300.759C174.688 299.757 175.103 298.797 175.843 298.089C176.583 297.38 177.587 296.982 178.633 296.982C179.059 296.963 179.484 297.032 179.879 297.185C180.274 297.338 180.63 297.57 180.923 297.866V294.319H183.154ZM180.971 300.759C180.941 300.393 180.8 300.044 180.565 299.755C180.33 299.465 180.012 299.247 179.65 299.128C179.287 299.009 178.897 298.994 178.525 299.084C178.154 299.174 177.819 299.367 177.56 299.637C177.301 299.908 177.131 300.245 177.07 300.607C177.008 300.969 177.059 301.34 177.215 301.675C177.371 302.01 177.625 302.294 177.948 302.492C178.27 302.69 178.646 302.794 179.029 302.791C179.3 302.792 179.568 302.739 179.816 302.635C180.064 302.531 180.287 302.378 180.47 302.187C180.653 301.995 180.792 301.77 180.878 301.524C180.965 301.278 180.996 301.017 180.971 300.759Z" fill="#263238"/>
<path d="M192.807 297.097L189.341 304.879C189.17 305.553 188.762 306.149 188.185 306.567C187.609 306.985 186.899 307.2 186.176 307.175C185.405 307.194 184.652 306.959 184.041 306.509L184.845 304.994C185.195 305.286 185.64 305.452 186.104 305.465C186.715 305.465 187.051 305.201 187.303 304.547V304.478L183.981 297.097H186.367L188.514 302.067L190.684 297.097H192.807Z" fill="#263238"/>
<path d="M202.687 304.077C202.145 304.399 201.515 304.559 200.877 304.536C200.499 304.587 200.114 304.554 199.751 304.442C199.389 304.329 199.057 304.139 198.782 303.886C198.508 303.633 198.296 303.323 198.165 302.98C198.033 302.638 197.985 302.271 198.023 301.907V298.9H196.824V297.258H198.023V295.468H200.241V297.258H202.148V298.9H200.241V301.873C200.223 301.999 200.235 302.128 200.275 302.249C200.315 302.371 200.383 302.482 200.474 302.576C200.564 302.669 200.675 302.742 200.799 302.789C200.923 302.836 201.056 302.857 201.189 302.849C201.511 302.85 201.826 302.754 202.088 302.573L202.687 304.077Z" fill="#263238"/>
<path d="M203.155 300.759C203.099 299.95 203.299 299.144 203.729 298.445C204.158 297.747 204.797 297.188 205.563 296.842C206.328 296.495 207.185 296.377 208.021 296.503C208.858 296.629 209.635 296.992 210.253 297.547C210.871 298.101 211.3 298.82 211.485 299.611C211.671 300.402 211.603 301.228 211.291 301.982C210.98 302.735 210.439 303.382 209.738 303.837C209.038 304.293 208.21 304.536 207.364 304.535C206.824 304.57 206.282 304.498 205.773 304.324C205.263 304.149 204.797 303.877 204.402 303.523C204.007 303.168 203.693 302.74 203.478 302.265C203.264 301.789 203.154 301.277 203.155 300.759ZM209.318 300.759C209.288 300.394 209.147 300.045 208.913 299.755C208.679 299.466 208.361 299.248 208 299.128C207.638 299.009 207.248 298.993 206.877 299.083C206.506 299.172 206.17 299.363 205.911 299.633C205.652 299.902 205.481 300.238 205.418 300.599C205.355 300.96 205.404 301.331 205.558 301.667C205.712 302.002 205.965 302.287 206.286 302.486C206.607 302.686 206.981 302.792 207.364 302.791C207.634 302.79 207.901 302.736 208.147 302.631C208.394 302.526 208.615 302.373 208.797 302.182C208.979 301.991 209.117 301.766 209.202 301.521C209.288 301.276 209.319 301.016 209.294 300.759H209.318Z" fill="#263238"/>
<path d="M217.053 294.319H219.271V304.421H217.053V294.319Z" fill="#263238"/>
<path d="M221.07 294.88C221.079 294.717 221.122 294.557 221.197 294.41C221.272 294.264 221.376 294.133 221.505 294.026C221.634 293.919 221.784 293.837 221.946 293.787C222.108 293.736 222.279 293.718 222.449 293.732C222.621 293.707 222.796 293.718 222.963 293.764C223.13 293.811 223.284 293.891 223.416 294C223.547 294.11 223.652 294.245 223.723 294.397C223.794 294.548 223.83 294.713 223.828 294.88C223.828 295.23 223.683 295.566 223.424 295.813C223.165 296.061 222.815 296.2 222.449 296.2C222.083 296.2 221.732 296.061 221.474 295.813C221.215 295.566 221.07 295.23 221.07 294.88ZM221.346 297.095H223.54V304.419H221.322L221.346 297.095Z" fill="#263238"/>
<path d="M224.883 303.742L225.626 302.215C226.431 302.677 227.35 302.923 228.288 302.927C229.32 302.927 229.703 302.663 229.703 302.261C229.703 301.056 225.075 302.261 225.075 299.357C225.075 297.968 226.382 296.981 228.612 296.981C229.636 296.96 230.649 297.181 231.562 297.624L230.818 299.139C230.147 298.77 229.386 298.58 228.612 298.588C227.617 298.588 227.197 298.898 227.197 299.277C227.197 300.528 231.814 299.277 231.814 302.204C231.814 303.57 230.495 304.5 228.216 304.5C227.055 304.53 225.906 304.269 224.883 303.742Z" fill="#263238"/>
<path d="M238.133 304.077C237.591 304.399 236.961 304.559 236.323 304.536C235.945 304.586 235.559 304.554 235.196 304.441C234.833 304.329 234.501 304.139 234.225 303.886C233.95 303.633 233.737 303.324 233.604 302.981C233.471 302.638 233.421 302.271 233.457 301.907V298.9H232.258V297.258H233.457V295.468H235.675V297.258H237.582V298.9H235.675V301.873C235.657 302 235.669 302.13 235.71 302.252C235.75 302.375 235.819 302.487 235.911 302.58C236.003 302.674 236.116 302.747 236.241 302.793C236.366 302.839 236.501 302.858 236.635 302.849C236.957 302.847 237.271 302.751 237.534 302.573L238.133 304.077Z" fill="#263238"/>
<path d="M246.599 301.354H240.807C240.924 301.813 241.21 302.217 241.614 302.489C242.018 302.761 242.511 302.884 243.002 302.835C243.355 302.846 243.707 302.788 244.037 302.666C244.367 302.544 244.667 302.359 244.92 302.123L246.119 303.351C245.712 303.75 245.219 304.059 244.675 304.257C244.13 304.456 243.547 304.538 242.966 304.499C240.316 304.499 238.589 302.903 238.589 300.723C238.582 300.213 238.684 299.707 238.889 299.237C239.093 298.766 239.397 298.341 239.78 297.987C240.163 297.633 240.618 297.358 241.116 297.179C241.615 297 242.146 296.921 242.678 296.946C243.208 296.918 243.738 296.997 244.234 297.178C244.73 297.358 245.181 297.637 245.558 297.995C245.934 298.353 246.228 298.783 246.42 299.257C246.611 299.731 246.697 300.238 246.671 300.745C246.647 300.952 246.611 301.182 246.599 301.354ZM240.771 300.114H244.549C244.469 299.69 244.237 299.306 243.891 299.029C243.546 298.752 243.11 298.601 242.66 298.601C242.21 298.601 241.774 298.752 241.429 299.029C241.083 299.306 240.851 299.69 240.771 300.114Z" fill="#263238"/>
<path d="M255.916 300.23V304.42H253.698V300.551C253.698 299.404 253.122 298.83 252.151 298.83C251.18 298.83 250.304 299.449 250.304 300.804V304.42H248.122V297.096H250.245V297.957C250.571 297.634 250.965 297.379 251.401 297.211C251.837 297.043 252.305 296.965 252.775 296.981C253.215 296.959 253.656 297.03 254.064 297.189C254.473 297.348 254.84 297.591 255.14 297.901C255.44 298.211 255.665 298.581 255.799 298.983C255.933 299.385 255.973 299.811 255.916 300.23Z" fill="#263238"/>
<path d="M183.333 416.949C183.326 416.426 183.431 415.907 183.641 415.424C183.851 414.941 184.163 414.504 184.556 414.141C184.949 413.777 185.416 413.495 185.927 413.31C186.439 413.126 186.984 413.044 187.53 413.069C188.088 413.044 188.646 413.133 189.165 413.331C189.684 413.529 190.153 413.831 190.54 414.217L189.797 414.906C189.515 414.612 189.172 414.379 188.79 414.223C188.407 414.067 187.994 413.99 187.578 413.999C186.77 413.999 185.996 414.306 185.425 414.853C184.853 415.399 184.532 416.141 184.532 416.914C184.532 417.688 184.853 418.429 185.425 418.976C185.996 419.523 186.77 419.83 187.578 419.83C187.995 419.836 188.408 419.758 188.791 419.599C189.173 419.441 189.516 419.207 189.797 418.912L190.54 419.6C190.151 419.987 189.68 420.289 189.159 420.487C188.638 420.685 188.078 420.774 187.518 420.748C186.98 420.771 186.443 420.691 185.939 420.51C185.434 420.33 184.973 420.055 184.582 419.7C184.192 419.345 183.88 418.919 183.665 418.446C183.45 417.973 183.338 417.464 183.333 416.949Z" fill="#263238"/>
<path d="M196.668 417.269V420.713H195.637V419.956C195.408 420.241 195.108 420.466 194.764 420.61C194.42 420.755 194.044 420.814 193.67 420.782C192.315 420.782 191.452 420.082 191.452 419.095C191.452 418.107 192.075 417.407 193.85 417.407H195.565V417.201C195.565 416.328 195.037 415.823 193.958 415.823C193.271 415.819 192.603 416.037 192.063 416.443L191.608 415.662C192.326 415.159 193.2 414.9 194.09 414.928C195.733 414.951 196.668 415.708 196.668 417.269ZM195.577 418.98V418.211H193.91C192.831 418.211 192.531 418.613 192.531 419.106C192.531 419.6 193.023 420.036 193.85 420.036C194.218 420.059 194.584 419.97 194.895 419.78C195.205 419.59 195.444 419.309 195.577 418.98Z" fill="#263238"/>
<path d="M204.354 417.429V420.735H203.263V417.556C203.263 416.408 202.675 415.88 201.656 415.88C201.393 415.859 201.128 415.895 200.881 415.984C200.634 416.074 200.411 416.215 200.229 416.398C200.046 416.58 199.908 416.8 199.825 417.04C199.742 417.28 199.717 417.535 199.75 417.785V420.735H198.67V414.996H199.702V415.914C199.96 415.606 200.292 415.362 200.67 415.202C201.048 415.042 201.46 414.971 201.872 414.996C202.21 414.971 202.549 415.017 202.867 415.131C203.184 415.245 203.471 415.425 203.708 415.657C203.945 415.889 204.125 416.168 204.237 416.474C204.349 416.781 204.389 417.107 204.354 417.429Z" fill="#263238"/>
<path d="M205.853 417.868C205.845 417.472 205.924 417.08 206.082 416.714C206.241 416.349 206.477 416.019 206.776 415.745C207.074 415.471 207.428 415.26 207.816 415.123C208.204 414.987 208.618 414.929 209.03 414.952C209.508 414.929 209.982 415.03 210.405 415.245C210.827 415.459 211.181 415.778 211.429 416.169L210.601 416.674C210.428 416.416 210.187 416.206 209.904 416.063C209.62 415.92 209.303 415.85 208.982 415.859C208.423 415.859 207.886 416.072 207.49 416.451C207.094 416.83 206.872 417.344 206.872 417.88C206.872 418.415 207.094 418.929 207.49 419.308C207.886 419.687 208.423 419.9 208.982 419.9C209.304 419.907 209.621 419.834 209.905 419.69C210.189 419.545 210.428 419.333 210.601 419.073L211.429 419.567C211.183 419.961 210.83 420.285 210.408 420.503C209.986 420.721 209.51 420.826 209.03 420.807C208.616 420.829 208.202 420.769 207.813 420.631C207.424 420.492 207.069 420.278 206.771 420.002C206.472 419.726 206.237 419.394 206.079 419.027C205.921 418.66 205.844 418.265 205.853 417.868Z" fill="#263238"/>
<path d="M218.168 418.211H213.311C213.378 418.706 213.64 419.156 214.044 419.471C214.448 419.785 214.963 419.938 215.482 419.899C215.806 419.909 216.128 419.852 216.426 419.731C216.724 419.61 216.991 419.428 217.209 419.198L217.808 419.876C217.364 420.304 216.8 420.599 216.184 420.728C215.568 420.856 214.926 420.812 214.336 420.599C213.746 420.387 213.233 420.017 212.857 419.532C212.482 419.047 212.261 418.469 212.22 417.867C212.205 417.483 212.273 417.1 212.418 416.743C212.564 416.385 212.784 416.059 213.066 415.786C213.348 415.513 213.686 415.298 214.058 415.154C214.43 415.011 214.829 414.942 215.23 414.951C215.632 414.941 216.032 415.011 216.405 415.157C216.777 415.303 217.113 415.522 217.392 415.8C217.671 416.077 217.886 416.408 218.024 416.77C218.161 417.132 218.219 417.517 218.192 417.901C218.19 418.005 218.182 418.108 218.168 418.211ZM213.311 417.465H217.149C217.096 417.013 216.871 416.596 216.517 416.293C216.163 415.99 215.705 415.823 215.23 415.823C214.755 415.823 214.297 415.99 213.943 416.293C213.589 416.596 213.364 417.013 213.311 417.465Z" fill="#263238"/>
<path d="M219.703 412.7H220.782V420.735H219.703V412.7Z" fill="#263238"/>
<path d="M257.007 436.382C257.007 436.382 257.307 436.382 257.883 436.301L258.95 436.233L260.425 436.003C264.612 435.21 268.376 433.034 271.058 429.856C273.741 426.677 275.172 422.698 275.102 418.612C275.139 417.111 275.087 415.609 274.946 414.113C274.735 412.535 274.307 410.992 273.675 409.521C272.97 407.977 272.055 406.53 270.953 405.217C269.753 403.869 268.361 402.69 266.816 401.715C263.433 399.676 259.462 398.716 255.472 398.972H242.414H213.635H147.684C144.781 399 141.928 399.693 139.362 400.992C136.849 402.239 134.683 404.041 133.042 406.25C131.404 408.416 130.335 410.928 129.925 413.573C129.807 414.222 129.743 414.878 129.733 415.536C129.733 416.19 129.733 416.868 129.733 417.533C129.69 418.842 129.762 420.151 129.949 421.448C130.33 424.006 131.314 426.447 132.827 428.588C134.329 430.673 136.284 432.424 138.558 433.719C140.789 434.983 143.281 435.767 145.861 436.015L147.768 436.095H153.523L207.4 436.152L243.721 436.244H253.602L243.721 436.301L207.4 436.393L153.523 436.451H147.768L145.801 436.359C143.137 436.106 140.563 435.299 138.259 433.994C135.906 432.659 133.882 430.854 132.323 428.702C130.762 426.488 129.742 423.965 129.337 421.321C129.152 419.994 129.08 418.654 129.121 417.315C129.121 416.638 129.121 415.984 129.121 415.295C129.126 414.614 129.19 413.934 129.313 413.263C129.74 410.529 130.842 407.932 132.527 405.687C134.231 403.402 136.474 401.534 139.074 400.235C141.717 398.937 144.642 398.253 147.612 398.237H213.563H242.342H255.401C258.381 398.033 261.369 398.512 264.117 399.634C266.866 400.756 269.296 402.488 271.205 404.688C273.443 407.285 274.846 410.447 275.246 413.791C275.374 415.319 275.418 416.851 275.378 418.383C275.449 420.94 274.938 423.481 273.88 425.83C272.822 428.18 271.242 430.28 269.25 431.985C266.769 434.111 263.724 435.541 260.449 436.118L258.962 436.313C258.542 436.313 258.17 436.313 257.883 436.313L257.007 436.382Z" fill="#1DB954"/>
<path d="M295.283 64.1194C292.206 64.4438 289.108 64.5513 286.014 64.4408C282.916 64.5515 279.814 64.4441 276.733 64.1194C279.815 63.8017 282.916 63.6943 286.014 63.798C289.108 63.6945 292.205 63.8019 295.283 64.1194Z" fill="#1DB954"/>
<path d="M295.283 59.4827C292.206 59.8071 289.108 59.9145 286.014 59.8041C282.916 59.9148 279.814 59.8074 276.733 59.4827C279.815 59.165 282.916 59.0575 286.014 59.1613C289.108 59.0577 292.205 59.1651 295.283 59.4827Z" fill="#1DB954"/>
<path d="M295.283 54.846C292.206 55.1704 289.108 55.2778 286.014 55.1674C282.916 55.2781 279.814 55.1706 276.733 54.846C279.815 54.5282 282.916 54.4208 286.014 54.5246C289.108 54.421 292.205 54.5284 295.283 54.846Z" fill="#1DB954"/>
<path d="M110.427 67.1149C110.559 67.099 110.692 67.099 110.823 67.1149H111.938L116.027 67.023L115.919 67.1378C115.919 66.2654 115.919 65.3242 115.919 64.2911C115.919 63.763 115.919 63.2694 115.919 62.6611C115.995 62.3559 116.169 62.0812 116.416 61.8754C116.664 61.6696 116.972 61.5429 117.298 61.5132C117.958 61.5132 118.497 61.5132 119.253 61.5132C119.629 61.5707 119.971 61.7551 120.217 62.033C120.463 62.3109 120.598 62.6639 120.596 63.0284C120.596 64.3485 120.596 65.7374 120.596 67.1723L120.404 66.9886H125.572L125.368 67.1723C125.368 65.1864 125.368 63.1317 125.368 61.0196C125.368 60.4915 125.368 59.9635 125.368 59.4469C125.342 59.2171 125.265 58.9955 125.14 58.7973C125.016 58.5991 124.848 58.4291 124.649 58.2991L122.394 56.1755L120.212 54.1207L119.157 53.122C118.797 52.7892 118.509 52.4333 118.09 52.353C117.886 52.2997 117.672 52.2916 117.464 52.3294C117.256 52.3672 117.06 52.4498 116.89 52.5711C116.579 52.8236 116.243 53.1794 115.931 53.4779C115.296 54.0863 114.732 54.6258 114.085 55.2686C112.885 56.4165 111.686 57.4841 110.811 58.4827C110.551 59.0649 110.464 59.7043 110.559 60.3308C110.559 60.9392 110.559 61.4787 110.559 62.0756C110.559 63.1432 110.559 64.073 110.559 64.8765C110.559 65.68 110.559 66.1851 110.559 66.6672C110.576 66.885 110.576 67.1037 110.559 67.3215C110.542 67.1229 110.542 66.9232 110.559 66.7246C110.559 66.2425 110.559 65.6685 110.559 64.9568C110.559 64.2451 110.559 63.2006 110.487 62.133C110.487 61.5706 110.487 60.9851 110.487 60.3538C110.487 60.0324 110.487 59.711 110.487 59.3781C110.489 59.0158 110.588 58.66 110.775 58.345C111.734 57.1971 112.873 56.2328 114.049 55.039L115.619 53.0302C115.955 52.7203 116.219 52.4104 116.615 52.089C116.826 51.9357 117.07 51.8303 117.33 51.7806C117.589 51.7309 117.857 51.7382 118.114 51.802C118.588 51.9727 119.003 52.2669 119.313 52.6514L120.38 53.6501L122.562 55.6933L124.817 57.8284C125.036 58.0049 125.233 58.2052 125.404 58.4253C125.57 58.6723 125.661 58.9583 125.668 59.2518C125.668 59.7798 125.668 60.2964 125.668 60.8359C125.668 62.9365 125.668 65.0028 125.668 66.9886V67.1837H125.464H120.296H120.116V67.0001C120.116 65.5652 120.116 64.1763 120.116 62.8562C120.119 62.5759 120.014 62.3045 119.822 62.093C119.63 61.8816 119.363 61.7447 119.073 61.7083C118.473 61.7083 117.778 61.7083 117.19 61.7083C116.923 61.7352 116.672 61.8434 116.473 62.0169C116.275 62.1904 116.139 62.4201 116.087 62.6725C116.087 63.1661 116.087 63.7401 116.087 64.2451V67.1952H115.967H111.806H110.727L110.427 67.1149Z" fill="#1DB954"/>
<path d="M435.16 131.523C435.328 136.907 431.346 137.423 428.601 137.641C425.855 137.859 422.713 136.666 420.207 135.529C415.122 133.233 410.194 130.846 408.144 125.474" fill="#FFBE9D"/>
<path d="M497.538 81.2803C497.706 81.2803 497.85 89.3155 497.85 99.13C497.85 108.945 497.706 116.968 497.538 116.968C497.37 116.968 497.226 108.933 497.226 99.13C497.226 89.327 497.37 81.2803 497.538 81.2803Z" fill="#9953F5"/>
<path d="M502.395 85.2061C502.562 85.2061 502.706 91.3014 502.706 98.8316C502.706 106.362 502.562 112.446 502.395 112.446C502.227 112.446 502.083 106.35 502.083 98.8316C502.083 91.3129 502.227 85.2061 502.395 85.2061Z" fill="#9953F5"/>
<path d="M507.862 89.0957C508.171 92.3737 508.275 95.6663 508.174 98.9561C508.275 102.25 508.171 105.546 507.862 108.828C507.547 105.547 507.442 102.25 507.551 98.9561C507.443 95.6663 507.547 92.3732 507.862 89.0957Z" fill="#9953F5"/>
<path d="M512.623 92.4492C512.938 94.2693 513.042 96.1171 512.935 97.9591C513.042 99.7973 512.937 101.641 512.623 103.458C512.316 101.64 512.211 99.7973 512.311 97.9591C512.211 96.1171 512.315 94.2701 512.623 92.4492Z" fill="#9953F5"/>
<path d="M516.832 95.1357C517.247 97.1287 517.247 99.1807 516.832 101.174C516.416 99.1807 516.416 97.1287 516.832 95.1357Z" fill="#9953F5"/>
<path d="M521.604 91.9092C521.912 93.73 522.016 95.577 521.916 97.4191C522.017 99.2573 521.912 101.101 521.604 102.917C521.289 101.101 521.184 99.2573 521.292 97.4191C521.185 95.577 521.289 93.7293 521.604 91.9092Z" fill="#9953F5"/>
<path d="M526.089 87.4893C526.398 90.9245 526.502 94.3737 526.401 97.8203C526.502 101.267 526.398 104.716 526.089 108.151C525.773 104.717 525.669 101.267 525.777 97.8203C525.669 94.3737 525.773 90.9241 526.089 87.4893Z" fill="#9953F5"/>
<path d="M469.203 89.0957C469.511 92.3737 469.615 95.6663 469.515 98.9561C469.616 102.25 469.512 105.546 469.203 108.828C468.887 105.547 468.783 102.25 468.891 98.9561C468.783 95.6663 468.887 92.3732 469.203 89.0957Z" fill="#9953F5"/>
<path d="M473.963 92.4492C474.278 94.2693 474.383 96.1171 474.275 97.9591C474.382 99.7973 474.278 101.641 473.963 103.458C473.656 101.64 473.551 99.7973 473.651 97.9591C473.551 96.1171 473.656 94.2701 473.963 92.4492Z" fill="#9953F5"/>
<path d="M478.172 95.1357C478.588 97.1287 478.588 99.1807 478.172 101.174C477.861 100.197 477.755 99.1708 477.86 98.1547C477.755 97.1385 477.861 96.1125 478.172 95.1357Z" fill="#9953F5"/>
<path d="M482.933 90.3008C483.248 92.6603 483.352 95.0412 483.244 97.4177C483.353 99.7904 483.248 102.168 482.933 104.523C482.624 102.167 482.52 99.7904 482.621 97.4177C482.52 95.0412 482.625 92.6609 482.933 90.3008Z" fill="#9953F5"/>
<path d="M487.417 87.4893C487.741 90.9236 487.849 94.3735 487.741 97.8203C487.849 101.267 487.741 104.717 487.417 108.151C487.109 104.716 487.004 101.267 487.105 97.8203C487.004 94.3737 487.109 90.9245 487.417 87.4893Z" fill="#9953F5"/>
<path d="M492.886 85.3223C493.065 85.3223 493.197 91.211 493.197 98.4656C493.197 105.72 493.065 111.621 492.886 111.621C492.706 111.621 492.574 105.732 492.574 98.4656C492.574 91.1995 492.718 85.3223 492.886 85.3223Z" fill="#9953F5"/>
<path d="M464.107 102.917C463.792 101.101 463.687 99.2573 463.795 97.4191C463.687 95.577 463.792 93.7293 464.107 91.9092C464.414 93.73 464.519 95.577 464.419 97.4191C464.519 99.2573 464.415 101.101 464.107 102.917Z" fill="#9953F5"/>
<path d="M459.898 100.243C459.482 98.25 459.482 96.198 459.898 94.2051C460.313 96.198 460.313 98.25 459.898 100.243Z" fill="#9953F5"/>
<path d="M530.514 91.9092C530.821 93.73 530.926 95.577 530.826 97.4191C530.926 99.2573 530.822 101.101 530.514 102.917C530.199 101.101 530.094 99.2573 530.202 97.4191C530.094 95.577 530.199 93.7293 530.514 91.9092Z" fill="#9953F5"/>
<path d="M534.687 94.5957C535.102 96.5887 535.102 98.6407 534.687 100.634C534.374 99.6571 534.268 98.6308 534.375 97.6147C534.27 96.5985 534.376 95.5725 534.687 94.5957Z" fill="#9953F5"/>
<path d="M492.394 443.545L501.135 467.811C501.135 467.811 529.842 467.467 531.905 471.806L483.364 489.702L468.16 452.418L492.394 443.545Z" fill="#9953F5"/>
<path d="M485.307 471.333C484.895 471.643 484.617 472.087 484.526 472.581C484.435 473.074 484.538 473.583 484.815 474.008C485.122 474.413 485.578 474.69 486.091 474.781C486.605 474.873 487.135 474.773 487.573 474.502C488.009 474.173 488.302 473.701 488.397 473.178C488.492 472.655 488.382 472.117 488.089 471.666C487.722 471.275 487.211 471.034 486.664 470.996C486.116 470.957 485.574 471.124 485.151 471.46" fill="#E0E0E0"/>
<g opacity="0.6">
<path d="M483.364 489.702L481.973 485.937L529.039 470.199C529.039 470.199 531.569 470.303 531.904 471.852L483.364 489.702Z" fill="white"/>
</g>
<path d="M501.831 467.282C501.915 467.511 500.763 468.051 499.888 469.21C499.013 470.369 498.785 471.563 498.533 471.506C498.281 471.449 498.101 470.048 499.181 468.671C500.26 467.293 501.795 467.064 501.831 467.282Z" fill="#263238"/>
<path d="M507.73 467.421C507.874 467.628 506.999 468.386 506.531 469.648C506.064 470.911 506.292 472.001 506.052 472.082C505.812 472.162 505.14 470.934 505.692 469.373C506.244 467.812 507.635 467.215 507.73 467.421Z" fill="#263238"/>
<path d="M512.971 472.162C512.779 472.288 511.988 471.278 512.096 469.866C512.203 468.454 513.115 467.49 513.295 467.65C513.474 467.811 513.043 468.718 512.983 469.946C512.923 471.174 513.199 472.081 512.971 472.162Z" fill="#263238"/>
<path d="M499.193 461.967C499.193 462.208 497.994 462.3 496.663 462.874C495.332 463.448 494.468 464.251 494.264 464.102C494.061 463.953 494.732 462.77 496.279 462.105C497.826 461.439 499.241 461.749 499.193 461.967Z" fill="#263238"/>
<path d="M307.694 434.797L307.142 435.486L296.686 448.617L283.675 457.158L301.098 489.299H320.284C320.284 489.299 318.893 484.879 309.672 482.595L309.061 464.952L325.632 447.527" fill="#9953F5"/>
<g opacity="0.6">
<path d="M283.627 457.157L301.05 489.287L320.236 489.31L318.078 486.543L302.477 485.705L286.397 455.332L283.627 457.157Z" fill="white"/>
</g>
<path d="M309.504 474.525C309.36 474.709 308.305 474.112 306.77 474.146C305.235 474.181 304.192 474.778 304.048 474.594C303.904 474.41 304.947 473.354 306.758 473.343C308.569 473.331 309.684 474.376 309.504 474.525Z" fill="#263238"/>
<path d="M309.192 470.153C309.001 470.279 308.149 469.2 306.614 468.913C305.079 468.626 303.868 469.292 303.748 469.097C303.629 468.902 303.904 468.706 304.444 468.431C305.165 468.079 305.99 467.969 306.784 468.122C307.579 468.274 308.296 468.678 308.821 469.269C309.204 469.728 309.288 470.095 309.192 470.153Z" fill="#263238"/>
<path d="M309.324 464.527C309.109 464.631 308.461 463.575 307.13 463.127C305.799 462.679 304.588 463.127 304.492 462.897C304.396 462.668 304.684 462.541 305.211 462.358C305.921 462.115 306.696 462.115 307.406 462.358C308.114 462.598 308.718 463.059 309.12 463.666C309.408 464.126 309.42 464.493 309.324 464.527Z" fill="#263238"/>
<path d="M314.457 460.176C314.229 460.256 313.701 459.212 312.502 458.466C311.303 457.72 310.104 457.616 310.104 457.387C310.104 457.157 311.531 456.87 312.97 457.8C314.409 458.73 314.672 460.153 314.457 460.176Z" fill="#263238"/>
<g opacity="0.6">
<path d="M298.928 456.607C298.928 457.038 298.795 457.46 298.544 457.818C298.294 458.177 297.938 458.457 297.522 458.622C297.105 458.787 296.647 458.83 296.205 458.746C295.763 458.662 295.358 458.454 295.039 458.149C294.72 457.844 294.503 457.455 294.415 457.032C294.327 456.609 294.373 456.171 294.545 455.772C294.717 455.374 295.009 455.033 295.384 454.793C295.759 454.554 296.199 454.426 296.65 454.426C297.254 454.426 297.834 454.656 298.261 455.065C298.688 455.474 298.928 456.028 298.928 456.607Z" fill="white"/>
</g>
<path d="M408.323 288.716C412.856 290.323 391.14 375.852 391.14 375.852L325.584 451.303L303.736 433.281L352.768 361.09L368.153 244.763L403.503 246.599L408.323 288.716Z" fill="#263238"/>
<path d="M438.433 244.763C439.057 246.416 475.486 366.555 475.486 366.555L495.739 448.48L469.359 456.71C469.359 456.71 434.752 380.043 430.591 367.175C426.43 354.307 416.597 335.562 416.597 335.562L397.412 287.006C397.412 287.006 366.738 270.786 368.992 243.386L438.433 244.763Z" fill="#263238"/>
<path d="M498.845 454.345L497.286 444.484L465.533 454.356L469.227 464.779L498.845 454.345Z" fill="#263238"/>
<path d="M369.244 244.763C369.244 244.763 369.304 245.084 369.388 245.727L369.76 248.551C370.195 252.137 370.896 255.689 371.858 259.18C372.571 261.663 373.573 264.062 374.844 266.332C376.366 268.993 378.235 271.458 380.408 273.667C385.726 278.926 391.989 283.226 398.898 286.362L399.006 286.42V286.523C400.205 290.885 401.776 295.396 403.491 300.057C405.206 304.717 407.088 309.527 409.031 314.486C412.94 324.392 417.257 334.861 421.73 345.686C427.965 360.608 433.721 374.945 439.321 387.848C444.921 400.75 450.017 412.309 454.334 422.021C458.65 431.732 462.164 439.583 464.49 445.047C465.689 447.779 466.541 449.914 467.116 451.361L467.764 453.025C467.908 453.392 467.968 453.588 467.968 453.588C467.968 453.588 467.872 453.404 467.704 453.037L467.008 451.407L464.274 445.139C461.876 439.698 458.279 431.858 453.926 422.181C449.573 412.504 444.333 400.945 438.781 388.043C433.229 375.141 427.389 360.815 421.166 345.892C416.693 335.068 412.388 324.599 408.491 314.669C406.537 309.722 404.69 304.889 402.987 300.217C401.285 295.546 399.714 291.034 398.527 286.638L398.659 286.799C391.711 283.616 385.422 279.257 380.096 273.931C377.913 271.687 376.036 269.187 374.508 266.492C373.251 264.19 372.266 261.761 371.57 259.249C370.633 255.74 369.976 252.167 369.604 248.562C369.472 247.334 369.376 246.393 369.304 245.727C369.232 245.061 369.244 244.763 369.244 244.763Z" fill="#455A64"/>
<path d="M423.037 292.182C422.773 292.4 422.467 292.568 422.138 292.676C421.273 293.024 420.352 293.23 419.416 293.284C416.275 293.405 413.205 292.374 410.83 290.403C408.537 288.419 406.745 285.962 405.59 283.217C405.134 282.184 404.822 281.323 404.618 280.726C404.482 280.425 404.405 280.102 404.391 279.773C404.487 279.773 404.99 281.036 405.997 283.033C407.236 285.647 409.019 287.99 411.238 289.921C413.504 291.794 416.397 292.829 419.392 292.836C420.631 292.769 421.856 292.549 423.037 292.182Z" fill="#455A64"/>
<path d="M368.549 365.405C366.21 364.104 363.759 362.998 361.222 362.099C358.62 361.396 355.961 360.904 353.272 360.63C354.057 360.452 354.869 360.41 355.67 360.503C359.589 360.7 363.384 361.888 366.666 363.947C367.378 364.323 368.016 364.817 368.549 365.405Z" fill="#455A64"/>
<path d="M496.939 444.611C496.939 444.76 490.008 447.136 481.35 449.914C472.692 452.692 465.63 454.815 465.57 454.655C465.51 454.494 472.489 452.118 481.158 449.351C489.828 446.585 496.939 444.427 496.939 444.611Z" fill="#455A64"/>
<path d="M297.033 440.307L302.873 430.47L328.582 451.315L320.68 459.569L297.033 440.307Z" fill="#263238"/>
<path d="M328.582 451.314C328.196 451.1 327.841 450.837 327.527 450.534L324.805 448.238C322.515 446.309 319.349 443.646 315.716 440.891C312.082 438.136 308.881 435.496 306.554 433.602C305.355 432.661 304.456 431.88 303.82 431.306C303.185 430.733 302.837 430.446 302.873 430.411C303.265 430.612 303.634 430.851 303.976 431.123C304.66 431.616 305.631 432.34 306.83 433.235C309.228 435.049 312.514 437.574 316.111 440.398C319.709 443.222 322.886 445.885 325.105 447.894C326.22 448.892 327.095 449.719 327.695 450.304C328.033 450.605 328.331 450.944 328.582 451.314Z" fill="#455A64"/>
<path d="M423.793 61.2145C424.896 57.2887 427.977 55.3603 431.983 54.0517C434.003 53.4105 436.155 53.2469 438.256 53.5747C440.356 53.9025 442.343 54.712 444.046 55.9342C446.3 57.5757 448.063 59.9633 450.737 60.8472C455.15 62.3165 460.33 59.1598 464.551 61.0538C465.842 61.6004 466.89 62.5657 467.511 63.7795C468.131 64.9934 468.285 66.378 467.944 67.6895C467.603 69.0009 466.789 70.1551 465.646 70.9487C464.504 71.7423 463.105 72.1244 461.697 72.0277C464.575 73.0378 465.462 76.9636 463.783 79.4201C462.104 81.8766 458.651 82.7949 455.641 82.2554C452.648 81.5569 449.911 80.0882 447.727 78.0082C445.449 76.0568 443.41 73.8299 440.976 72.0506C438.61 70.1409 435.617 69.0885 432.522 69.0776C428.385 69.2957 424.836 72.2802 422.989 75.8387C421.143 79.3972 420.711 83.4607 420.483 87.4209C420.255 91.3812 420.183 95.4562 418.948 99.2098C418.804 99.6575 418.588 100.151 418.121 100.289C417.449 100.484 416.922 99.8067 416.55 99.2098C412.768 92.497 410.404 85.1366 409.595 77.549C409.127 73.1526 409.247 68.9972 411.765 65.301C414.284 61.6048 420.663 58.8728 423.757 61.2145" fill="#263238"/>
<path d="M415.806 79.5806L413.696 124.05C413.324 131.615 414.415 142.795 426.886 142.795C437.738 142.015 440.952 132.303 441.276 125.244C441.431 121.892 441.575 119.103 441.611 118.758C441.611 118.758 453.495 118.207 454.874 107.038C455.545 101.643 455.989 90.4282 456.253 80.2693C456.393 75.0161 454.464 69.9045 450.85 65.9492C447.236 61.994 442.2 59.4843 436.743 58.9185L435.616 58.8037C423.385 58.2182 416.058 67.8491 415.806 79.5806Z" fill="#FFBE9D"/>
<path d="M441.695 118.61C436.287 118.147 431.147 116.149 426.934 112.87C426.934 112.87 429.632 121.284 441.407 121.468L441.695 118.61Z" fill="#EB996E"/>
<path d="M452.068 87.387C452.025 87.8033 451.815 88.1872 451.481 88.4573C451.147 88.7273 450.717 88.8622 450.281 88.8334C450.067 88.8275 449.856 88.7807 449.661 88.6957C449.466 88.6108 449.291 88.4893 449.145 88.3385C449 88.1877 448.888 88.0105 448.815 87.8176C448.743 87.6246 448.711 87.4197 448.722 87.2148C448.765 86.7986 448.975 86.4147 449.309 86.1446C449.643 85.8745 450.073 85.7396 450.509 85.7685C450.723 85.7743 450.934 85.8211 451.129 85.9061C451.324 85.9911 451.499 86.1126 451.644 86.2634C451.79 86.4142 451.902 86.5913 451.975 86.7843C452.047 86.9772 452.079 87.1822 452.068 87.387Z" fill="#263238"/>
<path d="M453.183 85.468C452.955 85.6632 451.792 84.6301 449.993 84.4579C448.195 84.2857 446.792 85.0089 446.612 84.7793C446.432 84.5497 446.78 84.3201 447.403 83.9758C448.237 83.5381 449.192 83.3577 450.137 83.4592C451.068 83.558 451.944 83.931 452.643 84.5267C453.147 84.9974 453.303 85.3877 453.183 85.468Z" fill="#263238"/>
<path d="M434.393 86.1695C434.353 86.5878 434.144 86.9746 433.81 87.2471C433.476 87.5196 433.044 87.656 432.606 87.6273C432.392 87.6199 432.182 87.5721 431.988 87.4866C431.794 87.4011 431.619 87.2796 431.474 87.1291C431.329 86.9786 431.217 86.8021 431.143 86.6098C431.07 86.4175 431.037 86.2133 431.047 86.0088C431.09 85.5925 431.3 85.2086 431.634 84.9385C431.967 84.6685 432.398 84.5335 432.834 84.5624C433.047 84.5668 433.258 84.6122 433.453 84.6959C433.648 84.7796 433.823 84.9 433.969 85.05C434.114 85.1999 434.227 85.3762 434.299 85.5685C434.372 85.7608 434.404 85.9652 434.393 86.1695Z" fill="#263238"/>
<path d="M435.508 83.9993C435.268 84.183 434.105 83.1613 432.318 82.9777C430.531 82.794 429.105 83.5287 428.937 83.2991C428.769 83.0695 429.105 82.8399 429.716 82.4956C430.551 82.0619 431.506 81.8855 432.45 81.9905C433.386 82.0816 434.268 82.4555 434.968 83.058C435.472 83.5172 435.616 83.9075 435.508 83.9993Z" fill="#263238"/>
<path d="M440.58 97.4084C441.558 97.2161 442.557 97.1467 443.554 97.2018C444.009 97.2018 444.453 97.2018 444.561 96.8689C444.655 96.4203 444.6 95.9549 444.405 95.5373C444.093 94.3894 443.769 93.2415 443.422 92.0936C442.067 87.1347 441.143 83.0941 441.347 83.0367C441.551 82.9794 442.822 86.9625 444.177 91.91C444.501 93.1267 444.813 94.2861 445.1 95.3536C445.318 95.9166 445.318 96.5355 445.1 97.0984C445.015 97.2465 444.897 97.3748 444.754 97.474C444.611 97.5732 444.447 97.641 444.273 97.6724C444.01 97.7002 443.745 97.7002 443.482 97.6724C442.507 97.6977 441.532 97.609 440.58 97.4084Z" fill="#263238"/>
<path d="M436.718 77.2846C436.491 77.7323 434.716 77.2846 432.581 77.365C430.447 77.4453 428.684 77.7668 428.457 77.365C428.349 77.1469 428.696 76.7451 429.44 76.3549C430.413 75.8844 431.491 75.6443 432.581 75.6546C433.671 75.6336 434.749 75.866 435.723 76.3319C436.467 76.6877 436.814 77.0895 436.718 77.2846Z" fill="#263238"/>
<path d="M453.075 80.4304C452.715 80.7862 451.528 80.2582 450.041 80.086C448.554 79.9138 447.271 80.086 447.019 79.6383C446.911 79.4202 447.163 79.0529 447.751 78.743C448.533 78.3573 449.424 78.2206 450.293 78.3527C451.166 78.4555 451.983 78.8166 452.631 79.3858C453.111 79.8335 453.243 80.2582 453.075 80.4304Z" fill="#263238"/>
<path d="M415.842 87.9373C415.65 87.834 408.072 84.8494 407.448 92.5288C406.825 100.208 415.027 99.1866 415.051 98.9685C415.075 98.7504 415.842 87.9373 415.842 87.9373Z" fill="#FFBE9D"/>
<path d="M412.856 95.8799C412.856 95.8799 412.713 95.9602 412.461 96.0521C412.126 96.1804 411.752 96.1804 411.417 96.0521C410.923 95.7035 410.535 95.2341 410.294 94.6929C410.054 94.1517 409.97 93.5587 410.05 92.9757C410.081 92.305 410.269 91.6496 410.602 91.0587C410.693 90.8229 410.843 90.6123 411.04 90.446C411.237 90.2797 411.474 90.1628 411.729 90.1059C411.894 90.0738 412.065 90.0989 412.213 90.1767C412.36 90.2545 412.473 90.38 412.533 90.5307C412.617 90.7488 412.533 90.898 412.533 90.921C412.533 90.9439 412.713 90.7947 412.677 90.4733C412.646 90.2833 412.549 90.1091 412.401 89.9797C412.3 89.8904 412.18 89.822 412.05 89.7785C411.92 89.7351 411.783 89.7176 411.645 89.7271C411.312 89.7639 410.995 89.8825 410.723 90.0716C410.452 90.2607 410.237 90.5138 410.098 90.8062C409.703 91.4485 409.476 92.1734 409.439 92.9183C409.345 93.5973 409.465 94.2877 409.783 94.9011C410.102 95.5145 410.604 96.0231 411.226 96.362C411.437 96.4364 411.663 96.4647 411.887 96.4448C412.111 96.4249 412.327 96.3574 412.521 96.2472C412.82 96.0635 412.88 95.8913 412.856 95.8799Z" fill="#EB996E"/>
<path d="M459.034 78.1697C456.377 78.5433 453.665 78.3074 451.121 77.4811C448.578 76.6549 446.276 75.2621 444.405 73.4174C441.827 70.8117 440.004 67.2762 436.551 65.8642C435.37 65.4307 434.11 65.2266 432.846 65.2641C431.582 65.3015 430.339 65.5797 429.188 66.0823C426.904 67.0966 424.864 68.5502 423.192 70.3525C424.811 76.2642 422.593 82.4628 420.398 88.2023C420.228 88.8624 419.831 89.4486 419.271 89.8667C418.252 90.4636 416.873 89.7863 416.166 88.868C415.107 87.324 414.548 85.515 414.559 83.6681C414.179 79.4844 414.672 75.2703 416.01 71.2708C417.367 67.2617 419.923 63.7217 423.36 61.089C427.796 57.9346 433.337 56.5518 438.817 57.2321C444.274 57.9471 449.356 60.2931 453.338 63.9358C455.262 65.5347 456.742 67.566 457.643 69.8474" fill="#263238"/>
<path d="M441.155 102.262C440.912 102.953 440.564 103.607 440.124 104.202C439.902 104.5 439.616 104.75 439.285 104.934C438.954 105.118 438.586 105.232 438.206 105.27C437.799 105.272 437.399 105.175 437.042 104.988C436.686 104.802 436.385 104.531 436.167 104.202C435.734 103.537 435.533 102.757 435.592 101.976C435.592 101.275 435.963 100.437 436.695 100.357C437.002 100.345 437.308 100.408 437.582 100.541L441.407 102.021" fill="#EB996E"/>
<path d="M439.632 105.271C438.939 105.317 438.243 105.236 437.582 105.03C436.917 104.782 436.37 104.308 436.047 103.698C435.869 103.322 435.776 102.913 435.776 102.499C435.776 102.085 435.869 101.676 436.047 101.299C436.131 101.104 436.239 100.918 436.371 100.748C436.527 100.599 436.503 100.599 436.659 100.622L437.282 100.852L437.906 101.104C438.721 101.414 439.465 101.701 440.088 101.919C440.745 102.227 441.449 102.429 442.175 102.516C441.601 102.086 440.962 101.741 440.28 101.495C439.68 101.219 438.961 100.898 438.158 100.553L437.534 100.278C437.306 100.197 437.138 100.094 436.839 100.002C436.651 99.9459 436.45 99.9459 436.263 100.002C436.096 100.072 435.951 100.183 435.843 100.324C435.67 100.535 435.525 100.767 435.412 101.012C435.206 101.479 435.109 101.983 435.13 102.489C435.151 102.995 435.288 103.49 435.531 103.94C435.732 104.303 436.008 104.623 436.342 104.882C436.676 105.14 437.061 105.331 437.474 105.443C438.009 105.612 438.581 105.635 439.129 105.512C439.465 105.432 439.644 105.317 439.632 105.271Z" fill="#263238"/>
<path d="M479.012 163.927L456.84 209.292C455.804 211.412 454.226 213.246 452.251 214.625C450.276 216.004 447.969 216.882 445.544 217.178C442.434 217.559 439.279 216.965 436.551 215.486C433.823 214.006 431.669 211.72 430.412 208.971L413.864 172.686L442.643 140.258L445.449 179.206L463.639 154.538L479.012 163.927Z" fill="#9953F5"/>
<path d="M438.973 194.509C439.721 191.767 440.679 189.081 441.839 186.473C442.796 183.81 443.946 181.213 445.28 178.702C444.529 181.425 443.571 184.091 442.414 186.68C441.46 189.363 440.31 191.979 438.973 194.509Z" fill="#263238"/>
<path d="M438.433 244.761L443.614 239.24C444.508 238.293 445.189 237.179 445.612 235.968C446.035 234.757 446.191 233.475 446.072 232.204L443.326 225.546L446.995 146.513C447.367 140.108 447.283 130.879 440.999 128.285L413.839 120.594C413.839 120.594 395.325 124.37 390.948 133.634C387.507 140.9 382.147 190.03 382.147 190.03L374.352 209.969C373.453 213.895 367.505 235.888 367.158 240.962L368.189 244.784L438.433 244.761Z" fill="#9953F5"/>
<path d="M443.326 225.548C443.326 225.548 443.326 225.41 443.326 225.135C443.326 224.859 443.326 224.423 443.326 223.987C443.326 222.839 443.326 221.358 443.326 219.487C443.326 215.573 443.41 210.132 443.458 203.75C443.841 199.296 444.165 194.337 444.477 189.114C445.064 179.047 445.52 169.933 446.012 163.332C446.252 160.038 446.491 157.375 446.671 155.538C446.779 154.666 446.851 153.965 446.911 153.414C446.93 153.166 446.975 152.92 447.043 152.68C447.074 152.928 447.074 153.178 447.043 153.426C447.043 153.977 446.971 154.677 446.923 155.549C446.803 157.466 446.647 160.141 446.455 163.367C446.108 170.024 445.628 179.116 445.1 189.148C444.789 194.371 444.441 199.342 444.021 203.807C443.877 210.189 443.757 215.619 443.661 219.545C443.601 221.416 443.542 222.919 443.506 224.033C443.506 224.503 443.506 224.894 443.446 225.181C443.416 225.306 443.376 225.429 443.326 225.548Z" fill="#263238"/>
<path d="M394.246 260.42L418.78 252.27L397.519 197.527L412.065 150.027C414.283 141.831 410.41 130.306 401.848 128.217C401.477 128.125 400.805 125.186 400.433 125.336C397.064 126.656 388.658 132.108 385.181 137.492C382.542 141.639 380.63 146.172 379.521 150.911L370.695 187.23C368.969 194.332 369.567 201.77 372.41 208.535L394.246 260.42Z" fill="#9953F5"/>
<path d="M371.031 204.702C371.09 204.778 371.135 204.863 371.163 204.954L371.51 205.735L372.793 208.765L377.59 220.187L394.09 260.294L393.718 260.133L418.6 251.96L418.768 252.534C418.492 252.321 418.277 252.045 418.144 251.731L417.892 251.099C417.724 250.686 417.557 250.261 417.377 249.837C417.041 248.987 416.705 248.126 416.357 247.265C415.662 245.532 414.966 243.764 414.259 241.985C407.892 225.754 401.908 210.533 396.824 197.585V197.516V197.435C400.241 183.259 403.095 171.424 405.11 163.09C406.117 158.969 406.92 155.721 407.508 153.471C407.784 152.38 408 151.543 408.155 150.946C408.227 150.67 408.287 150.464 408.323 150.291L408.395 150.073C408.409 150.149 408.409 150.227 408.395 150.303C408.395 150.475 408.311 150.682 408.263 150.957C408.119 151.565 407.94 152.415 407.7 153.505C407.172 155.801 406.429 159.027 405.481 163.159L397.411 197.596V197.447C402.508 210.384 408.515 225.593 414.918 241.824L417.005 247.093L418.036 249.676L418.54 250.939L418.792 251.559C418.809 251.582 418.819 251.61 418.819 251.639C418.819 251.668 418.809 251.696 418.792 251.719C418.783 251.757 418.783 251.796 418.792 251.834V251.914V251.972L418.852 252.247L418.959 252.546L393.814 260.673L393.55 260.765L393.454 260.512L377.17 220.336L372.566 208.857L371.366 205.803C371.247 205.471 371.151 205.207 371.067 205.011C370.983 204.816 371.031 204.702 371.031 204.702Z" fill="#263238"/>
<path d="M384.042 199.122C384.51 198.635 385.077 198.244 385.708 197.974C387.175 197.236 388.766 196.75 390.409 196.539C392.05 196.32 393.719 196.382 395.337 196.723C396.02 196.807 396.675 197.034 397.256 197.389C395.023 197.023 392.75 196.934 390.493 197.125C388.263 197.527 386.095 198.198 384.042 199.122Z" fill="#263238"/>
<g opacity="0.3">
<path d="M449.633 173.604L451.647 215.032C449.525 216.57 446.587 217.179 443.254 217.328C443.314 216.031 445.544 179.252 445.544 179.252L449.633 173.604Z" fill="black"/>
</g>
<path d="M446.971 140.258C446.827 140.371 446.671 140.467 446.504 140.545C446.043 140.806 445.566 141.039 445.077 141.245C443.274 142.019 441.382 142.585 439.441 142.933C433.015 143.991 426.417 143.57 420.195 141.705C413.94 139.878 408.239 136.634 403.575 132.246C402.168 130.927 400.873 129.503 399.702 127.987C399.282 127.459 398.995 127.012 398.791 126.725C398.681 126.578 398.589 126.42 398.515 126.254C398.975 126.744 399.408 127.257 399.81 127.792C401.038 129.243 402.369 130.612 403.791 131.89C408.477 136.13 414.124 139.273 420.291 141.073C426.456 142.941 432.986 143.436 439.381 142.52C441.306 142.215 443.191 141.715 445.005 141.027C445.646 140.74 446.303 140.483 446.971 140.258Z" fill="#FAFAFA"/>
<path d="M404.81 163.032C404.413 163.092 404.008 163.092 403.611 163.032C402.54 162.946 401.475 162.8 400.421 162.596C396.94 161.913 393.59 160.717 390.493 159.049C387.411 157.36 384.61 155.24 382.183 152.758C381.448 152.027 380.751 151.261 380.096 150.463C379.839 150.177 379.622 149.86 379.449 149.521C379.533 149.452 380.588 150.669 382.495 152.506C384.977 154.867 387.771 156.908 390.804 158.578C393.852 160.214 397.121 161.442 400.517 162.229C403.155 162.757 404.822 162.929 404.81 163.032Z" fill="#FAFAFA"/>
<path d="M444.585 173.606C444.094 173.842 443.58 174.03 443.05 174.168C441.631 174.641 440.181 175.025 438.709 175.316C436.533 175.772 434.325 176.071 432.102 176.211C429.377 176.373 426.642 176.331 423.924 176.085C418.99 175.549 414.152 174.391 409.535 172.642C407.772 171.976 406.357 171.379 405.422 170.92C404.914 170.713 404.428 170.459 403.971 170.162C404.502 170.297 405.02 170.477 405.518 170.702C406.489 171.103 407.916 171.631 409.69 172.24C414.306 173.846 419.104 174.921 423.984 175.442C426.666 175.689 429.363 175.75 432.054 175.626C434.255 175.498 436.445 175.241 438.613 174.857C442.33 174.214 444.549 173.491 444.585 173.606Z" fill="#FAFAFA"/>
<path d="M442.978 204.896C442.443 205.179 441.881 205.414 441.299 205.596C440.633 205.856 439.952 206.082 439.261 206.274C438.457 206.503 437.558 206.813 436.515 207.031C435.472 207.249 434.368 207.525 433.133 207.708C431.898 207.892 430.579 208.064 429.188 208.213C426.156 208.459 423.107 208.459 420.075 208.213C417.049 207.907 414.056 207.35 411.129 206.549C409.786 206.147 408.515 205.78 407.364 205.332C406.213 204.885 405.134 204.46 404.175 204.035C403.215 203.61 402.376 203.163 401.62 202.795C400.865 202.428 400.265 202.061 399.762 201.751C399.23 201.463 398.725 201.133 398.251 200.764C398.824 200.975 399.375 201.241 399.894 201.556C400.397 201.831 401.033 202.164 401.788 202.497C402.544 202.83 403.371 203.278 404.354 203.645C405.338 204.012 406.369 204.483 407.544 204.862C408.719 205.24 409.942 205.642 411.285 206.01C414.206 206.759 417.186 207.281 420.195 207.571C423.189 207.835 426.201 207.865 429.2 207.663C430.579 207.525 431.886 207.433 433.109 207.215C434.332 206.997 435.448 206.836 436.479 206.618C437.51 206.4 438.421 206.159 439.225 205.952C440.028 205.746 440.724 205.55 441.275 205.378C441.825 205.163 442.395 205.002 442.978 204.896Z" fill="#FAFAFA"/>
<path d="M462.763 199.937C461.664 199.843 460.586 199.596 459.562 199.203C454.495 197.554 449.982 194.637 446.491 190.754C445.735 189.99 445.093 189.128 444.585 188.194C445.376 188.919 446.125 189.685 446.827 190.49C450.439 194.149 454.86 196.988 459.766 198.801C461.576 199.513 462.787 199.845 462.763 199.937Z" fill="#FAFAFA"/>
<path d="M472.956 175.924C471.977 175.796 471.023 175.529 470.126 175.132C467.903 174.302 465.797 173.211 463.855 171.883C461.908 170.564 460.136 169.022 458.579 167.292C457.895 166.609 457.317 165.836 456.864 164.996C459.116 167.335 461.575 169.482 464.215 171.413C466.984 173.159 469.91 174.669 472.956 175.924Z" fill="#FAFAFA"/>
<path d="M397.843 190.927C397.498 191.056 397.134 191.133 396.764 191.156C395.771 191.299 394.77 191.384 393.766 191.409C387.076 191.613 380.468 189.95 374.748 186.622C373.886 186.124 373.057 185.576 372.266 184.981C371.715 184.556 371.415 184.315 371.439 184.28C371.463 184.246 372.77 185.084 375.036 186.255C380.779 189.321 387.239 190.948 393.814 190.984C396.273 190.995 397.831 190.823 397.843 190.927Z" fill="#FAFAFA"/>
<path d="M400.518 208.546C400.518 208.65 399.055 208.627 396.741 208.891C390.668 209.575 384.923 211.891 380.169 215.571C378.346 216.972 377.351 217.993 377.279 217.925C377.207 217.856 377.459 217.615 377.89 217.144C378.505 216.467 379.17 215.834 379.881 215.25C384.569 211.32 390.456 208.941 396.669 208.466C397.603 208.406 398.54 208.406 399.474 208.466C399.824 208.438 400.177 208.465 400.518 208.546Z" fill="#FAFAFA"/>
<path d="M413.456 239.299C413.456 239.414 411.921 239.161 409.463 239.184C408.028 239.207 406.597 239.334 405.182 239.563C401.713 240.127 398.388 241.319 395.385 243.076C394.157 243.785 392.99 244.588 391.896 245.475C390.025 247.001 389.054 248.138 388.958 248.069C389.122 247.759 389.332 247.473 389.581 247.22C390.195 246.485 390.868 245.797 391.596 245.165C392.674 244.215 393.838 243.359 395.073 242.605C396.594 241.698 398.199 240.929 399.87 240.309C401.556 239.717 403.299 239.286 405.074 239.024C406.521 238.807 407.987 238.723 409.451 238.771C410.436 238.784 411.419 238.876 412.389 239.047C412.755 239.081 413.115 239.166 413.456 239.299Z" fill="#FAFAFA"/>
<path d="M381.415 231.011C377.403 230.939 373.409 230.474 369.496 229.622C371.503 229.549 373.513 229.68 375.492 230.012C377.497 230.151 379.481 230.486 381.415 231.011Z" fill="#FAFAFA"/>
<g opacity="0.3">
<path d="M372.986 215.447C373.182 220.784 374.139 226.071 375.828 231.161C377.027 234.926 372.89 240.872 377.758 244.764H387.351C382.687 233.779 378.238 222.254 373.945 211.911" fill="black"/>
</g>
<path d="M441.779 226.364C441.574 226.652 441.332 226.914 441.059 227.144C440.361 227.809 439.611 228.423 438.817 228.981C437.634 229.811 436.378 230.54 435.064 231.162C433.448 231.914 431.762 232.517 430.028 232.964C428.282 233.383 426.5 233.644 424.703 233.745C423.238 233.82 421.769 233.766 420.315 233.584C419.338 233.48 418.371 233.3 417.425 233.045C417.068 232.978 416.724 232.858 416.406 232.689C416.406 232.585 417.916 232.964 420.363 233.171C421.795 233.276 423.235 233.276 424.667 233.171C426.423 233.045 428.164 232.776 429.872 232.367C431.564 231.92 433.216 231.344 434.812 230.645C436.113 230.06 437.364 229.377 438.553 228.602C440.58 227.305 441.659 226.283 441.779 226.364Z" fill="#263238"/>
<path d="M429.056 232.869C428.354 233.345 427.577 233.709 426.754 233.948C424.804 234.623 422.766 235.04 420.698 235.188C418.636 235.33 416.563 235.237 414.523 234.912C413.67 234.837 412.833 234.639 412.041 234.327C412.041 234.12 415.914 234.912 420.65 234.591C423.504 234.28 426.319 233.703 429.056 232.869Z" fill="#FAFAFA"/>
<path d="M484.228 143.462L495.979 142.647C495.979 142.647 498.545 145.769 496.495 148.203C494.444 150.636 490.499 157.03 490.499 157.03L481.35 158.27L477.68 164.618L463.795 156.009L470.102 143.979L480.307 135.427L486.794 135.553L490.391 139.72C490.391 139.72 486.386 141.602 484.468 138.572L481.362 139.157V140.879C481.358 141.233 481.43 141.584 481.575 141.91C481.72 142.236 481.933 142.53 482.203 142.773C482.472 143.015 482.791 143.202 483.14 143.321C483.488 143.439 483.859 143.487 484.228 143.462Z" fill="#FFBE9D"/>
<path d="M495.835 143.07L503.834 140.866C504.329 140.809 504.831 140.867 505.297 141.037C505.763 141.207 506.178 141.484 506.508 141.842L506.747 142.634L496.939 146.697L495.835 143.07Z" fill="#FFBE9D"/>
<path d="M478.364 151.485C478.648 150.888 479.011 150.329 479.443 149.82C480.402 148.589 481.054 147.163 481.35 145.654C481.479 144.837 481.401 144.002 481.122 143.22C480.984 142.847 480.88 142.463 480.81 142.072C480.748 141.723 480.748 141.366 480.81 141.016C480.887 140.355 481.09 139.713 481.41 139.122C481.434 139.776 481.382 140.431 481.254 141.074C481.18 141.745 481.309 142.422 481.626 143.025C481.96 143.886 482.063 144.813 481.926 145.722C481.618 147.328 480.869 148.825 479.755 150.061C478.952 151.014 478.424 151.531 478.364 151.485Z" fill="#EB996E"/>
<path d="M511.004 133.91C511.004 134.128 512.203 136.562 512.203 136.562L479.671 152.024L478.04 149.108L511.004 133.91Z" fill="#263238"/>
<path d="M490.464 156.489C490.637 156.314 490.772 156.108 490.861 155.883C490.949 155.657 490.99 155.417 490.98 155.176C490.97 154.935 490.909 154.699 490.802 154.481C490.695 154.262 490.543 154.067 490.356 153.906C489.563 153.276 488.597 152.877 487.574 152.758C485.947 152.388 484.281 152.2 482.609 152.196C482.06 152.186 481.517 152.304 481.026 152.54C480.783 152.664 480.583 152.855 480.453 153.088C480.322 153.321 480.267 153.586 480.295 153.849C480.427 154.48 481.122 154.825 481.746 155.054C483.432 155.672 485.186 156.103 486.974 156.34" fill="#FFBE9D"/>
<path d="M486.974 156.409C485.894 156.438 484.817 156.299 483.784 155.995C483.305 155.881 482.777 155.731 482.225 155.559C481.586 155.401 480.986 155.119 480.463 154.733C480.308 154.598 480.184 154.433 480.102 154.249C480.019 154.065 479.978 153.866 479.983 153.665C480.018 153.255 480.216 152.873 480.535 152.598C481.181 152.123 481.99 151.897 482.801 151.966C484.238 151.976 485.67 152.137 487.07 152.448C488.267 152.57 489.41 152.993 490.379 153.677C490.699 153.944 490.932 154.295 491.049 154.686C491.166 155.076 491.162 155.491 491.039 155.881C490.823 156.432 490.463 156.546 490.463 156.523C490.463 156.5 490.691 156.305 490.811 155.823C490.87 155.484 490.834 155.135 490.708 154.813C490.582 154.49 490.369 154.205 490.092 153.987C489.149 153.415 488.074 153.073 486.962 152.988C485.596 152.718 484.207 152.576 482.813 152.563C482.156 152.496 481.496 152.659 480.954 153.022C480.847 153.095 480.757 153.189 480.693 153.299C480.629 153.409 480.591 153.532 480.583 153.657C480.575 153.783 480.596 153.909 480.646 154.026C480.696 154.142 480.773 154.247 480.87 154.331C481.322 154.675 481.84 154.932 482.393 155.089C482.933 155.284 483.436 155.444 483.904 155.582C485.775 156.133 486.986 156.305 486.974 156.409Z" fill="#EB996E"/>
<path d="M494.468 150.417C491.902 149.338 490.032 148.764 487.465 147.697C486.671 147.259 485.75 147.078 484.839 147.18C483.94 147.375 483.221 148.408 483.712 149.143C483.914 149.386 484.168 149.585 484.456 149.728L491.914 154.068" fill="#FFBE9D"/>
<path d="M491.914 154.069C490.883 153.672 489.895 153.18 488.964 152.599L485.847 150.866L484 149.81C483.799 149.694 483.627 149.538 483.496 149.351C483.366 149.165 483.28 148.953 483.244 148.731C483.235 148.506 483.272 148.281 483.355 148.07C483.437 147.859 483.563 147.666 483.724 147.503C484.033 147.162 484.458 146.939 484.923 146.871C485.319 146.797 485.726 146.797 486.122 146.871C486.819 147.068 487.497 147.322 488.149 147.629L491.47 148.972C492.522 149.32 493.524 149.791 494.456 150.372C493.381 150.109 492.327 149.771 491.302 149.362C490.343 149.029 489.18 148.639 487.921 148.134C487.294 147.854 486.645 147.623 485.978 147.445C485.669 147.344 485.337 147.328 485.019 147.399C484.701 147.47 484.41 147.625 484.18 147.847C483.97 148.062 483.854 148.345 483.856 148.639C483.878 148.775 483.933 148.903 484.017 149.015C484.1 149.126 484.209 149.218 484.336 149.282L486.134 150.349L489.18 152.198C490.151 152.737 491.067 153.363 491.914 154.069Z" fill="#EB996E"/>
<path d="M496.939 146.699L489.912 144.231C489.085 143.848 488.153 143.728 487.25 143.887C486.374 144.128 485.715 145.207 486.255 145.907C486.469 146.144 486.735 146.332 487.034 146.458L494.768 150.326" fill="#FFBE9D"/>
<path d="M494.756 150.325C493.706 149.986 492.69 149.555 491.722 149.039L488.545 147.501L486.638 146.571C486.429 146.475 486.245 146.336 486.1 146.163C485.955 145.99 485.852 145.788 485.799 145.572C485.764 145.348 485.778 145.119 485.84 144.899C485.902 144.68 486.01 144.475 486.159 144.298C486.428 143.942 486.817 143.686 487.262 143.575C487.658 143.5 488.065 143.5 488.461 143.575C489.173 143.711 489.869 143.919 490.535 144.195L493.893 145.435C494.948 145.766 495.964 146.201 496.927 146.732C495.839 146.522 494.771 146.222 493.737 145.836L490.343 144.688C489.703 144.444 489.041 144.256 488.365 144.126C488.05 144.049 487.718 144.059 487.408 144.154C487.099 144.249 486.823 144.427 486.614 144.665C485.583 145.917 487.741 146.376 488.773 147.03L491.926 148.683C492.922 149.142 493.87 149.692 494.756 150.325Z" fill="#EB996E"/>
<path d="M496.423 134.681C496.351 134.681 496.555 134.003 497.238 133.131C498.15 132.01 499.371 131.155 500.764 130.663C502.16 130.169 503.673 130.065 505.128 130.364C506.232 130.606 506.831 130.973 506.795 131.042C506.759 131.111 506.124 130.904 505.056 130.789C503.681 130.626 502.284 130.775 500.979 131.225C499.685 131.693 498.519 132.439 497.574 133.406C496.855 134.153 496.507 134.681 496.423 134.681Z" fill="#263238"/>
<path d="M493.641 133.268C493.887 132.433 494.349 131.671 494.984 131.053C496.432 129.47 498.34 128.336 500.464 127.793C502.578 127.258 504.797 127.227 506.927 127.701C507.813 127.843 508.663 128.143 509.433 128.585C509.433 128.677 508.438 128.367 506.843 128.126C504.778 127.786 502.661 127.869 500.631 128.367C498.613 128.889 496.776 129.915 495.307 131.34C494.192 132.442 493.737 133.326 493.641 133.268Z" fill="#263238"/>
<path d="M489.612 132.005C489.612 132.005 489.732 131.684 490.079 131.19C490.571 130.496 491.129 129.846 491.746 129.25C493.786 127.244 496.317 125.756 499.109 124.923C501.903 124.108 504.865 123.966 507.73 124.51C508.591 124.671 509.434 124.909 510.249 125.221C510.56 125.308 510.853 125.448 511.112 125.635C511.112 125.738 509.805 125.244 507.659 124.923C504.866 124.497 502.01 124.69 499.307 125.486C496.605 126.282 494.129 127.66 492.07 129.514C490.463 130.972 489.744 132.063 489.612 132.005Z" fill="#263238"/>
<path d="M486.758 130.709C486.826 130.328 486.955 129.96 487.141 129.618C487.595 128.663 488.193 127.777 488.916 126.989C489.983 125.815 491.228 124.802 492.609 123.982C494.297 122.98 496.099 122.167 497.981 121.56C501.411 120.419 505.099 120.189 508.653 120.894C509.721 121.094 510.768 121.382 511.783 121.755C512.168 121.857 512.533 122.02 512.862 122.237C512.862 122.34 511.244 121.732 508.57 121.307C505.091 120.743 501.521 121.023 498.185 122.122C494.812 123.118 491.742 124.882 489.24 127.265C488.286 128.325 487.454 129.479 486.758 130.709Z" fill="#263238"/>
<path d="M419.943 262.371C417.545 261.545 417.749 263.163 418.624 265.069C413.971 267.881 408.887 271.382 403.383 271.416L397.531 258.881L414.199 253.44L414.499 254.244C416.178 255.774 418.001 257.153 419.943 258.365C420.936 259.001 422.035 259.47 423.193 259.754C424.618 260.156 426.095 260.369 427.581 260.385C427.863 260.344 428.151 260.388 428.405 260.511C428.658 260.635 428.866 260.831 428.998 261.072C429.13 261.313 429.18 261.588 429.141 261.858C429.102 262.128 428.976 262.38 428.781 262.578C427.821 263.358 424.08 263.771 419.943 262.371Z" fill="#FFBE9D"/>
<path d="M420.423 263.783C419.847 264.533 419.156 265.195 418.372 265.746C416.565 267.183 414.579 268.402 412.46 269.373C410.344 270.348 408.108 271.066 405.805 271.509C404.863 271.745 403.889 271.849 402.916 271.818C409.35 270.56 415.359 267.8 420.411 263.783H420.423Z" fill="#455A64"/>
</svg>
