<svg width="408" height="486" viewBox="0 0 408 486" fill="none" xmlns="http://www.w3.org/2000/svg">
<path d="M332.876 485.756C332.06 477.296 332.947 478.949 334.147 467.791C335.574 455.714 337.728 443.725 340.598 431.885C341.329 428.74 342.061 425.618 342.78 422.553C343.5 419.488 344.231 416.458 345.119 413.53C346.851 407.917 348.905 402.399 351.27 397.001C353.5 391.824 355.803 387.003 357.985 382.503C360.167 378.003 362.326 373.848 364.436 370.14C367.745 364.276 371.534 358.672 375.768 353.381C377.255 351.51 378.466 350.098 379.293 349.145L380.253 348.066C380.355 347.939 380.472 347.824 380.6 347.722C380.508 347.857 380.408 347.988 380.301 348.112C380.085 348.387 379.785 348.766 379.401 349.26C378.61 350.236 377.435 351.682 375.972 353.576C371.836 358.912 368.125 364.537 364.868 370.404C362.782 374.112 360.671 378.267 358.501 382.767C356.33 387.267 354.052 392.099 351.846 397.265C349.509 402.65 347.479 408.153 345.766 413.749C344.879 416.664 344.171 419.672 343.44 422.737C342.708 425.801 342.001 428.912 341.257 432.069C338.405 443.886 336.247 455.846 334.794 467.895C333.595 479.006 332.624 477.319 333.379 485.744" fill="#E0E0E0"/>
<path d="M331.005 481.934C309.769 472.751 301.027 450.126 297.646 429.005C297.082 425.481 295.967 421.865 297.106 418.479C298.245 415.093 301.903 412.28 305.5 413.176C308.45 413.91 310.225 416.723 312.227 418.915C314.898 421.895 318.4 424.085 322.324 425.228C324.878 425.975 327.9 426.17 329.962 424.551C332.804 422.324 332.36 418.077 331.665 414.599C330.362 408.117 329.059 401.632 327.756 395.142C326.863 391.699 326.555 388.141 326.844 384.604C327.336 381.103 329.243 377.579 332.528 376.041C335.814 374.503 340.454 375.639 341.845 378.922C342.264 380.339 342.581 381.781 342.793 383.238C343.176 384.673 344.196 386.143 345.706 386.292C347.217 386.441 348.5 385.144 349.388 383.996C352.457 379.806 354.184 374.813 355.635 369.9C357.086 364.987 358.561 359.948 361.223 355.505C363.885 351.063 368.01 347.183 373.214 345.978C378.418 344.773 384.522 346.85 386.788 351.522C389.055 356.194 387.04 361.704 384.558 366.261C380.855 373.039 376.145 379.268 370.576 384.754C369.455 385.64 368.66 386.847 368.31 388.197C367.974 390.665 370.708 392.559 373.262 392.892C376.14 393.283 379.03 392.491 381.932 392.295C384.834 392.1 388.143 392.766 389.714 395.142C391.896 398.437 389.51 402.718 386.92 405.714C381.736 411.697 375.519 416.783 368.538 420.752C366.043 422.164 363.381 423.495 361.571 425.676C359.76 427.857 359.065 431.22 360.851 433.447C362.638 435.674 366.127 435.858 368.837 434.859C371.547 433.861 373.766 431.955 376.26 430.52C380.901 427.823 387.424 427.008 391.429 430.578C392.685 431.825 393.621 433.336 394.162 434.989C394.703 436.643 394.835 438.394 394.547 440.105C393.949 443.513 392.645 446.773 390.709 449.69C384.549 460.191 375.592 468.94 364.748 475.047C353.896 480.959 343.356 483.909 331.041 481.934" fill="#EBEBEB"/>
<path d="M345.287 413.474C345.015 413.025 344.798 412.547 344.639 412.051C344.268 411.121 343.764 409.755 343.176 408.079C341.977 404.635 340.514 399.975 338.908 394.775C337.301 389.575 335.766 384.88 334.519 381.528C333.907 379.852 333.404 378.498 333.032 377.568C332.809 377.098 332.644 376.605 332.54 376.099C332.834 376.532 333.08 376.993 333.272 377.476C333.715 378.383 334.303 379.715 334.974 381.367C336.329 384.696 337.948 389.403 339.555 394.591C341.162 399.78 342.541 404.383 343.632 407.93C344.124 409.537 344.555 410.891 344.891 411.97C345.084 412.455 345.217 412.96 345.287 413.474Z" fill="#E0E0E0"/>
<path d="M390.445 396.783C389.858 397.022 389.247 397.207 388.623 397.334C387.424 397.644 385.733 398.092 383.634 398.712C379.438 399.917 373.694 401.777 367.458 404.095C361.223 406.414 355.671 408.756 351.702 410.558C349.723 411.442 348.105 412.199 347.025 412.716C346.474 413.024 345.891 413.278 345.287 413.474C345.792 413.099 346.334 412.773 346.905 412.498C347.973 411.901 349.531 411.074 351.498 410.133C355.419 408.228 360.959 405.806 367.207 403.475C372.542 401.474 377.981 399.735 383.503 398.264C385.613 397.701 387.352 397.323 388.563 397.116C389.178 396.95 389.809 396.839 390.445 396.783Z" fill="#E0E0E0"/>
<path d="M334.602 466.863C334.602 466.863 334.434 466.714 334.17 466.381L333.055 464.9C332.096 463.615 330.753 461.709 329.134 459.345C325.872 454.615 321.603 447.946 316.987 440.531C312.37 433.115 308.149 426.411 304.996 421.625L301.254 415.966L300.247 414.416C300.113 414.246 300.007 414.056 299.935 413.854C300.095 414.001 300.236 414.167 300.355 414.347C300.667 414.749 301.026 415.231 301.47 415.828C302.441 417.114 303.772 419.008 305.403 421.372C308.653 426.102 312.934 432.771 317.55 440.198C322.167 447.625 326.376 454.305 329.542 459.092L333.283 464.751L334.302 466.301C334.42 466.479 334.521 466.667 334.602 466.863Z" fill="#E0E0E0"/>
<path d="M393.012 436.627C392.84 436.773 392.646 436.893 392.436 436.983L390.745 437.878L384.486 441.127C379.21 443.882 371.955 447.75 363.957 452.032C355.959 456.313 348.644 460.136 343.308 462.776C340.634 464.096 338.512 465.141 336.941 465.841L335.19 466.633C334.996 466.74 334.786 466.817 334.567 466.862C334.736 466.719 334.926 466.599 335.13 466.507L336.821 465.611L343.08 462.363C348.369 459.619 355.611 455.751 363.621 451.458C371.631 447.165 378.922 443.354 384.258 440.713C386.932 439.393 389.055 438.349 390.625 437.66L392.376 436.868C392.577 436.763 392.79 436.682 393.012 436.627Z" fill="#E0E0E0"/>
<path d="M407 484.146C407 483.485 316.105 483 204.009 483C91.9123 483 1 483.485 1 484.146C1 484.808 91.8772 485.381 204 485.381C316.123 485.381 407 484.764 407 484.146Z" fill="#263238"/>
<path d="M210.002 485.701L38.0727 484.944C28.1417 484.898 18.636 481.08 11.6452 474.327C4.65438 467.575 0.750634 458.441 0.792075 448.934L2.61473 36.3239C2.63515 31.6143 3.62482 26.9546 5.52718 22.6112C7.42954 18.2678 10.2073 14.3258 13.7017 11.0105C17.1962 7.69521 21.3388 5.07155 25.8929 3.28946C30.447 1.50736 35.3232 0.601777 40.2431 0.624438L212.173 1.38205C217.091 1.4016 221.958 2.34861 226.495 4.16899C231.031 5.98936 235.148 8.64744 238.611 11.9914C242.074 15.3353 244.815 19.2996 246.678 23.6578C248.54 28.0161 249.487 32.6828 249.465 37.3915L247.643 450.002C247.622 454.713 246.632 459.373 244.729 463.717C242.826 468.062 240.047 472.004 236.551 475.319C233.056 478.635 228.912 481.258 224.356 483.04C219.801 484.821 214.923 485.726 210.002 485.701Z" fill="#455A64"/>
<path d="M211.921 15.6269L178.585 15.4777C176.396 15.5169 174.312 16.3841 172.788 17.8897C171.265 19.3954 170.426 21.417 170.455 23.5129V29.2524C170.487 31.3492 169.649 33.3726 168.125 34.8789C166.601 36.3852 164.515 37.2514 162.325 37.2877L97.3568 37.0007C96.2691 36.9739 95.1976 36.742 94.2037 36.3183C93.2097 35.8946 92.3128 35.2874 91.5643 34.5314C90.8158 33.7755 90.2305 32.8856 89.8417 31.9128C89.4529 30.94 89.2684 29.9033 89.2987 28.8621V23.1226C89.3504 21.0224 88.5321 18.9879 87.0224 17.4631C85.5127 15.9383 83.4343 15.0471 81.2407 14.9841H69.5133L40.3387 14.8578C36.8913 14.8397 33.4739 15.4721 30.2819 16.719C27.0899 17.9659 24.1859 19.8028 21.7359 22.1247C19.2859 24.4466 17.3379 27.2079 16.0034 30.2509C14.6688 33.2938 13.9738 36.5587 13.9581 39.8589L12.2074 442.609C12.1885 445.908 12.8488 449.179 14.1506 452.234C15.4524 455.289 17.3701 458.068 19.7944 460.413C22.2186 462.758 25.1017 464.623 28.2791 465.902C31.4564 467.18 34.8658 467.846 38.3122 467.863L209.906 468.62C213.354 468.638 216.771 468.006 219.963 466.759C223.155 465.512 226.059 463.675 228.509 461.353C230.959 459.032 232.907 456.27 234.241 453.227C235.576 450.184 236.271 446.919 236.287 443.619L238.061 40.8691C238.08 37.5675 237.419 34.2948 236.115 31.2383C234.81 28.1818 232.889 25.4016 230.461 23.0569C228.033 20.7122 225.145 18.849 221.964 17.574C218.782 16.2991 215.37 15.6374 211.921 15.6269Z" fill="#FAFAFA"/>
<path d="M126.675 321.357C126.843 321.357 126.987 331.482 126.987 343.959C126.987 356.437 126.843 366.573 126.675 366.573C126.507 366.573 126.364 356.449 126.364 343.959C126.364 331.47 126.507 321.357 126.675 321.357Z" fill="#1DB954"/>
<path d="M120.524 326.328C120.692 326.328 120.836 334.053 120.836 343.547C120.836 353.04 120.692 360.765 120.524 360.765C120.356 360.765 120.212 353.04 120.212 343.547C120.212 334.053 120.344 326.328 120.524 326.328Z" fill="#1DB954"/>
<path d="M113.593 331.265C113.761 331.265 113.905 336.855 113.905 343.754C113.905 350.653 113.761 356.254 113.593 356.254C113.425 356.254 113.281 350.664 113.281 343.754C113.281 336.843 113.425 331.265 113.593 331.265Z" fill="#1DB954"/>
<path d="M107.549 335.512C107.981 340.148 107.981 344.811 107.549 349.447C107.134 344.811 107.134 340.148 107.549 335.512Z" fill="#1DB954"/>
<path d="M102.225 338.91C102.641 341.447 102.641 344.03 102.225 346.567C101.809 344.03 101.809 341.447 102.225 338.91Z" fill="#1DB954"/>
<path d="M96.1936 334.834C96.6092 339.471 96.6092 344.133 96.1936 348.769C95.762 344.133 95.762 339.47 96.1936 334.834Z" fill="#1DB954"/>
<path d="M90.51 329.266C90.6779 329.266 90.8218 335.12 90.8218 342.352C90.8218 349.583 90.6779 355.449 90.51 355.449C90.3422 355.449 90.1863 349.583 90.1863 342.352C90.1863 335.12 90.3302 329.266 90.51 329.266Z" fill="#1DB954"/>
<path d="M162.577 331.265C162.745 331.265 162.889 336.855 162.889 343.754C162.889 350.653 162.745 356.254 162.577 356.254C162.41 356.254 162.266 350.664 162.266 343.754C162.266 336.843 162.41 331.265 162.577 331.265Z" fill="#1DB954"/>
<path d="M156.533 335.512C156.949 340.148 156.949 344.811 156.533 349.447C156.118 344.811 156.118 340.148 156.533 335.512Z" fill="#1DB954"/>
<path d="M151.209 338.91C151.625 341.447 151.625 344.03 151.209 346.567C150.794 344.03 150.794 341.447 151.209 338.91Z" fill="#1DB954"/>
<path d="M145.142 332.791C145.466 335.784 145.574 338.795 145.466 341.802C145.574 344.809 145.466 347.82 145.142 350.813C144.833 347.819 144.729 344.809 144.83 341.802C144.729 338.795 144.833 335.785 145.142 332.791Z" fill="#1DB954"/>
<path d="M139.482 329.266C139.662 329.266 139.806 335.12 139.806 342.352C139.806 349.583 139.662 355.449 139.482 355.449C139.302 355.449 139.17 349.583 139.17 342.352C139.17 335.12 139.314 329.266 139.482 329.266Z" fill="#1DB954"/>
<path d="M132.563 326.5C132.731 326.5 132.875 333.961 132.875 343.156C132.875 352.351 132.731 359.823 132.563 359.823C132.395 359.823 132.251 352.362 132.251 343.156C132.251 333.95 132.383 326.5 132.563 326.5Z" fill="#1DB954"/>
<path d="M169.028 348.78C168.612 344.144 168.612 339.481 169.028 334.845C169.444 339.481 169.444 344.144 169.028 348.78Z" fill="#1DB954"/>
<path d="M174.364 345.338C173.949 342.801 173.949 340.218 174.364 337.682C174.78 340.218 174.78 342.801 174.364 345.338Z" fill="#1DB954"/>
<path d="M84.9457 334.834C85.3613 339.471 85.3613 344.133 84.9457 348.769C84.5301 344.133 84.5301 339.471 84.9457 334.834Z" fill="#1DB954"/>
<path d="M79.6099 338.233C80.0257 340.766 80.0257 343.346 79.6099 345.878C79.1941 343.346 79.1941 340.766 79.6099 338.233Z" fill="#1DB954"/>
<path d="M74.2978 334.834C74.7134 339.471 74.7134 344.133 74.2978 348.769C73.8822 344.133 73.8822 339.471 74.2978 334.834Z" fill="#1DB954"/>
<path d="M68.6143 329.266C68.7821 329.266 68.926 335.12 68.926 342.352C68.926 349.583 68.7821 355.449 68.6143 355.449C68.4464 355.449 68.3025 349.583 68.3025 342.352C68.3025 335.12 68.3984 329.266 68.6143 329.266Z" fill="#1DB954"/>
<path d="M63.0502 334.834C63.4658 339.471 63.4658 344.133 63.0502 348.769C62.6346 344.133 62.6346 339.471 63.0502 334.834Z" fill="#1DB954"/>
<path d="M57.7261 338.233C58.1419 340.766 58.1419 343.346 57.7261 345.878C57.3104 343.346 57.3104 340.766 57.7261 338.233Z" fill="#1DB954"/>
<path d="M191.248 334.834C191.664 339.471 191.664 344.133 191.248 348.769C190.832 344.133 190.832 339.471 191.248 334.834Z" fill="#1DB954"/>
<path d="M185.564 329.266C185.744 329.266 185.875 335.12 185.875 342.352C185.875 349.583 185.744 355.449 185.564 355.449C185.384 355.449 185.252 349.583 185.252 342.352C185.252 335.12 185.396 329.266 185.564 329.266Z" fill="#1DB954"/>
<path d="M180.012 334.834C180.428 339.471 180.428 344.133 180.012 348.769C179.58 344.133 179.58 339.47 180.012 334.834Z" fill="#1DB954"/>
<path d="M174.676 338.233C175.091 340.766 175.091 343.346 174.676 345.878C174.26 343.346 174.26 340.766 174.676 338.233Z" fill="#1DB954"/>
<path d="M198.191 338.233C198.606 340.766 198.606 343.346 198.191 345.878C197.775 343.346 197.775 340.766 198.191 338.233Z" fill="#1DB954"/>
<g opacity="0.3">
<path d="M219.283 178.019C219.283 178.019 219.283 177.536 219.211 176.595C219.139 175.654 219.211 174.299 219.019 172.428C218.643 167.098 217.764 161.812 216.393 156.633C215.4 152.891 214.146 149.218 212.64 145.636C210.874 141.375 208.753 137.256 206.296 133.32C200.27 123.711 192.392 115.285 183.081 108.491C171.769 100.259 158.605 94.6694 144.638 92.1675C136.884 90.7823 128.976 90.3694 121.111 90.9393C117.004 91.2197 112.922 91.7643 108.892 92.5693C104.751 93.4261 100.673 94.542 96.685 95.9097C79.7223 101.828 64.9691 112.421 54.2841 126.352C51.4951 129.985 49.0092 133.824 46.8496 137.831C45.7224 139.828 44.7631 141.917 43.7799 144.006C42.7966 146.096 41.9932 148.254 41.2737 150.458C38.193 159.344 36.6142 168.644 36.5971 178.007C36.6276 182.716 37.0285 187.417 37.7963 192.069C38.5582 196.657 39.7174 201.176 41.2617 205.579C41.9932 207.783 42.8925 209.907 43.7799 212.031C44.6672 214.154 45.7104 216.209 46.8376 218.206C57.3745 237.669 75.1659 252.631 96.685 260.127C100.673 261.495 104.751 262.611 108.892 263.468C120.673 265.807 132.815 265.944 144.65 263.87C158.614 261.37 171.775 255.781 183.081 247.546C192.397 240.747 200.275 232.313 206.296 222.695C208.766 218.762 210.895 214.642 212.664 210.378C214.175 206.801 215.433 203.131 216.429 199.392C217.791 194.213 218.666 188.926 219.043 183.597C219.211 181.772 219.175 180.372 219.235 179.43C219.295 178.489 219.307 178.019 219.307 178.019C219.307 178.019 219.307 178.489 219.307 179.43C219.307 180.372 219.307 181.726 219.175 183.609C218.856 188.952 218.017 194.255 216.669 199.45C214.513 207.679 211.124 215.567 206.608 222.867C200.592 232.538 192.705 241.023 183.369 247.868C177.947 251.848 172.069 255.225 165.85 257.935C159.124 260.899 152.039 263.051 144.758 264.34C136.959 265.747 129.002 266.175 121.087 265.614C116.953 265.333 112.843 264.789 108.784 263.984C104.62 263.128 100.518 262.012 96.5051 260.644C79.4192 254.694 64.5567 244.033 53.7925 230.007C50.988 226.354 48.4862 222.497 46.31 218.47C45.1109 216.45 44.2115 214.349 43.2163 212.249C42.221 210.148 41.4176 207.967 40.6861 205.752C39.1342 201.316 37.9632 196.767 37.1847 192.149C36.4169 187.467 36.0161 182.735 35.9856 177.996C36.0047 168.567 37.5914 159.202 40.6861 150.251C41.4176 148.036 42.3409 145.9 43.2283 143.754C44.1156 141.607 45.1828 139.564 46.31 137.544C48.4887 133.535 50.9946 129.696 53.8045 126.065C64.5646 112.042 79.4234 101.385 96.5051 95.4391C100.518 94.0711 104.62 92.9553 108.784 92.0987C112.843 91.2936 116.953 90.749 121.087 90.4687C128.981 89.8804 136.922 90.2778 144.71 91.651C158.747 94.1737 171.972 99.8114 183.321 108.112C192.657 114.959 200.548 123.443 206.572 133.113C209.035 137.069 211.157 141.212 212.916 145.499C214.41 149.096 215.652 152.785 216.633 156.541C217.982 161.736 218.821 167.039 219.139 172.382C219.295 174.219 219.235 175.619 219.271 176.561C219.307 177.502 219.283 178.019 219.283 178.019Z" fill="#9953F5"/>
</g>
<path d="M207.688 176.126C207.688 176.126 207.688 175.713 207.688 174.898C207.688 174.083 207.688 172.878 207.508 171.305C206.746 160.532 203.582 150.04 198.229 140.536C192.876 131.032 185.458 122.735 176.475 116.206C166.718 109.11 155.364 104.294 143.319 102.144C136.632 100.952 129.813 100.593 123.03 101.077C119.484 101.324 115.959 101.796 112.478 102.489C108.911 103.23 105.398 104.192 101.961 105.37C83.4103 111.843 68.0704 124.741 58.973 141.517C57.0647 145.012 55.4604 148.652 54.1765 152.399C48.8204 167.833 48.8204 184.511 54.1765 199.945C55.45 203.7 57.0546 207.344 58.973 210.838C60.8361 214.29 62.9812 217.594 65.3883 220.722C74.6033 232.744 87.3287 241.886 101.961 246.997C105.399 248.17 108.911 249.128 112.478 249.867C115.958 250.565 119.483 251.037 123.03 251.279C129.813 251.774 136.634 251.415 143.319 250.211C155.364 248.061 166.718 243.246 176.475 236.15C185.475 229.611 192.903 221.297 198.255 211.771C203.607 202.245 206.759 191.729 207.496 180.936C207.652 179.363 207.616 178.158 207.676 177.343C207.736 176.528 207.676 176.126 207.676 176.126C207.676 176.126 207.676 177.791 207.568 180.947C206.866 192.912 203.164 204.539 196.776 214.845C191.582 223.19 184.778 230.514 176.726 236.425C166.928 243.595 155.511 248.466 143.391 250.647C133.12 252.476 122.575 252.37 112.346 250.337C108.751 249.597 105.21 248.634 101.746 247.456C87 242.336 74.1693 233.149 64.8727 221.055C62.4404 217.904 60.2751 214.572 58.3974 211.091C56.4772 207.57 54.8726 203.898 53.601 200.117C48.1968 184.565 48.1968 167.756 53.601 152.204C54.8729 148.423 56.4775 144.752 58.3974 141.23C60.2782 137.757 62.4392 134.429 64.8607 131.278C74.1563 119.183 86.9873 109.996 101.734 104.876C105.197 103.693 108.738 102.731 112.334 101.995C115.833 101.291 119.379 100.819 122.946 100.583C129.764 100.118 136.617 100.504 143.331 101.731C155.445 103.913 166.858 108.78 176.654 115.942C184.696 121.814 191.5 129.094 196.704 137.396C203.093 147.702 206.794 159.329 207.496 171.294C207.736 174.462 207.688 176.126 207.688 176.126Z" fill="#9953F5"/>
<path d="M127.778 240.248C163.679 240.248 192.783 212.388 192.783 178.02C192.783 143.653 163.679 115.793 127.778 115.793C91.8776 115.793 62.7742 143.653 62.7742 178.02C62.7742 212.388 91.8776 240.248 127.778 240.248Z" fill="#1DB954"/>
<path d="M128.306 159.125H127.047C122.649 159.125 119.085 162.537 119.085 166.747V177.618C119.085 181.827 122.649 185.24 127.047 185.24H128.306C132.703 185.24 136.268 181.827 136.268 177.618V166.747C136.268 162.537 132.703 159.125 128.306 159.125Z" fill="#FAFAFA"/>
<path d="M127.671 190.222C124.314 190.216 121.097 188.937 118.724 186.665C116.35 184.393 115.014 181.313 115.008 178.1C115.008 177.948 115.071 177.802 115.183 177.694C115.296 177.587 115.448 177.526 115.607 177.526C115.766 177.526 115.919 177.587 116.031 177.694C116.144 177.802 116.207 177.948 116.207 178.1C116.21 181.01 117.419 183.799 119.568 185.857C121.717 187.914 124.631 189.071 127.671 189.074C129.195 189.141 130.717 188.903 132.14 188.375C133.564 187.848 134.856 187.042 135.936 186.009C137.016 184.977 137.859 183.74 138.411 182.379C138.964 181.017 139.214 179.56 139.146 178.1C139.146 177.948 139.209 177.802 139.322 177.694C139.434 177.587 139.587 177.526 139.746 177.526C139.905 177.526 140.057 177.587 140.17 177.694C140.282 177.802 140.345 177.948 140.345 178.1C140.345 185.229 135.129 190.211 127.671 190.222Z" fill="#FAFAFA"/>
<path d="M128.27 189.637H127.071V195.583H128.27V189.637Z" fill="white"/>
<path d="M135.177 195.905H120.176C120.017 195.905 119.864 195.844 119.752 195.737C119.64 195.629 119.576 195.483 119.576 195.331C119.576 195.179 119.64 195.033 119.752 194.925C119.864 194.817 120.017 194.757 120.176 194.757H135.177C135.336 194.757 135.488 194.817 135.601 194.925C135.713 195.033 135.777 195.179 135.777 195.331C135.773 195.482 135.709 195.626 135.598 195.733C135.486 195.84 135.335 195.902 135.177 195.905Z" fill="white"/>
<path d="M115.164 163.878C115.092 164.027 114.181 163.717 113.102 163.281C112.022 162.845 111.159 162.42 111.207 162.26C111.255 162.099 112.238 162.26 113.341 162.73C114.445 163.201 115.164 163.729 115.164 163.878Z" fill="white"/>
<path d="M119.96 157.725C119.828 157.829 119.049 157.037 118.221 155.969C117.394 154.902 116.842 153.949 117.022 153.857C117.202 153.765 117.934 154.546 118.761 155.613C119.588 156.681 120.08 157.634 119.96 157.725Z" fill="white"/>
<path d="M127.719 155.52C127.539 155.52 127.419 154.522 127.431 153.224C127.443 151.927 127.599 150.929 127.767 150.929C128.182 152.406 128.182 153.962 127.767 155.44L127.719 155.52Z" fill="white"/>
<path d="M137.695 153.902C137.839 153.994 137.467 154.843 136.772 155.739C136.076 156.634 135.309 157.208 135.189 157.093C135.069 156.978 135.585 156.244 136.268 155.371C136.952 154.499 137.539 153.822 137.695 153.902Z" fill="white"/>
<path d="M144.398 161.673C144.482 161.822 143.679 162.407 142.611 162.993C141.544 163.578 140.609 163.923 140.525 163.785C140.441 163.647 141.232 163.05 142.3 162.465C143.367 161.879 144.314 161.535 144.398 161.673Z" fill="white"/>
<path d="M77.7516 300.42L75.833 297.768H73.7105V300.42H71.3962V290.881H75.7131C78.3751 290.881 80.0419 292.212 80.0419 294.325C80.0755 294.972 79.8955 295.613 79.5275 296.157C79.1595 296.7 78.6221 297.12 77.9914 297.355L80.2218 300.42H77.7516ZM75.5932 292.683H73.7225V295.978H75.5932C77.0081 295.978 77.7156 295.346 77.7156 294.313C77.7156 293.28 76.9961 292.683 75.5932 292.683Z" fill="#263238"/>
<path d="M89.1667 297.354H83.375C83.4914 297.813 83.778 298.217 84.1815 298.489C84.5851 298.761 85.0783 298.884 85.5694 298.835C85.9227 298.846 86.2748 298.788 86.6045 298.666C86.9342 298.544 87.2347 298.359 87.4879 298.123L88.6871 299.351C88.2765 299.749 87.7813 300.057 87.235 300.256C86.6887 300.454 86.1042 300.537 85.5214 300.499C84.9699 300.552 84.413 300.494 83.8864 300.328C83.3599 300.162 82.8754 299.893 82.4643 299.537C82.0531 299.181 81.7243 298.747 81.4991 298.262C81.2738 297.778 81.1572 297.253 81.1566 296.723C81.1495 296.214 81.2511 295.709 81.4552 295.24C81.6593 294.77 81.9615 294.345 82.3434 293.992C82.7252 293.638 83.1786 293.363 83.6756 293.183C84.1726 293.003 84.7028 292.922 85.2336 292.946C85.7636 292.918 86.2938 292.997 86.7899 293.178C87.286 293.358 87.7368 293.637 88.1133 293.995C88.4898 294.353 88.7834 294.783 88.9752 295.257C89.167 295.731 89.2527 296.238 89.2267 296.745C89.2147 296.952 89.1787 297.182 89.1667 297.354ZM83.351 296.114H87.1162C87.0445 295.686 86.8156 295.295 86.4706 295.014C86.1256 294.732 85.687 294.578 85.2336 294.578C84.7802 294.578 84.3416 294.732 83.9966 295.014C83.6516 295.295 83.4227 295.686 83.351 296.114Z" fill="#263238"/>
<path d="M97.2613 296.24V300.419H95.1749V299.512C94.9188 299.866 94.5676 300.149 94.1582 300.328C93.7488 300.508 93.2964 300.579 92.8486 300.533C91.0499 300.533 89.9827 299.581 89.9827 298.306C89.9827 297.032 90.942 296.114 93.2683 296.114H95.031C95.031 295.207 94.4674 294.668 93.2683 294.668C92.4747 294.665 91.7013 294.907 91.0619 295.356L90.2705 293.864C91.2565 293.269 92.4025 292.962 93.568 292.98C95.9063 292.98 97.2613 294.025 97.2613 296.24ZM95.031 298.111V297.354H93.5081C92.4768 297.354 92.1411 297.721 92.1411 298.215C92.1411 298.708 92.6207 299.099 93.3402 299.099C93.6964 299.136 94.0557 299.06 94.3617 298.881C94.6677 298.703 94.9031 298.432 95.031 298.111Z" fill="#263238"/>
<path d="M107.154 290.319V300.421H105.031V299.583C104.735 299.908 104.364 300.163 103.948 300.328C103.532 300.493 103.082 300.564 102.633 300.536C101.587 300.536 100.583 300.138 99.8432 299.429C99.1034 298.721 98.6877 297.761 98.6877 296.759C98.6877 295.757 99.1034 294.797 99.8432 294.089C100.583 293.38 101.587 292.982 102.633 292.982C103.059 292.963 103.484 293.032 103.879 293.185C104.274 293.338 104.63 293.57 104.923 293.866V290.319H107.154ZM104.971 296.759C104.941 296.393 104.8 296.044 104.565 295.755C104.33 295.465 104.012 295.247 103.65 295.128C103.287 295.009 102.897 294.994 102.525 295.084C102.154 295.174 101.819 295.367 101.56 295.637C101.301 295.908 101.131 296.245 101.07 296.607C101.008 296.969 101.059 297.34 101.215 297.675C101.371 298.01 101.625 298.294 101.948 298.492C102.27 298.69 102.646 298.794 103.029 298.791C103.3 298.792 103.568 298.739 103.816 298.635C104.064 298.531 104.287 298.378 104.47 298.187C104.653 297.995 104.792 297.77 104.878 297.524C104.965 297.278 104.996 297.017 104.971 296.759Z" fill="#263238"/>
<path d="M116.807 293.097L113.341 300.879C113.17 301.553 112.762 302.149 112.185 302.567C111.609 302.985 110.899 303.2 110.176 303.175C109.405 303.194 108.652 302.959 108.041 302.509L108.845 300.994C109.195 301.286 109.64 301.452 110.104 301.465C110.715 301.465 111.051 301.201 111.303 300.547V300.478L107.981 293.097H110.367L112.514 298.067L114.684 293.097H116.807Z" fill="#263238"/>
<path d="M126.687 300.077C126.145 300.399 125.515 300.559 124.877 300.536C124.499 300.587 124.114 300.554 123.751 300.442C123.389 300.329 123.057 300.139 122.782 299.886C122.508 299.633 122.296 299.323 122.165 298.98C122.033 298.638 121.985 298.271 122.023 297.907V294.9H120.824V293.258H122.023V291.468H124.241V293.258H126.148V294.9H124.241V297.873C124.223 297.999 124.235 298.128 124.275 298.249C124.315 298.371 124.383 298.482 124.474 298.576C124.564 298.669 124.675 298.742 124.799 298.789C124.923 298.836 125.056 298.857 125.189 298.849C125.511 298.85 125.826 298.754 126.088 298.573L126.687 300.077Z" fill="#263238"/>
<path d="M127.155 296.759C127.099 295.95 127.299 295.144 127.729 294.445C128.158 293.747 128.797 293.188 129.563 292.842C130.328 292.495 131.185 292.377 132.021 292.503C132.858 292.629 133.635 292.992 134.253 293.547C134.871 294.101 135.3 294.82 135.485 295.611C135.671 296.402 135.603 297.228 135.291 297.982C134.98 298.735 134.439 299.382 133.738 299.837C133.038 300.293 132.21 300.536 131.364 300.535C130.824 300.57 130.282 300.498 129.773 300.324C129.263 300.149 128.797 299.877 128.402 299.523C128.007 299.168 127.693 298.74 127.478 298.265C127.264 297.789 127.154 297.277 127.155 296.759ZM133.318 296.759C133.288 296.394 133.147 296.045 132.913 295.755C132.679 295.466 132.361 295.248 132 295.128C131.638 295.009 131.248 294.993 130.877 295.083C130.506 295.172 130.17 295.363 129.911 295.633C129.652 295.902 129.481 296.238 129.418 296.599C129.355 296.96 129.404 297.331 129.558 297.667C129.712 298.002 129.965 298.287 130.286 298.486C130.607 298.686 130.981 298.792 131.364 298.791C131.634 298.79 131.901 298.736 132.147 298.631C132.394 298.526 132.615 298.373 132.797 298.182C132.979 297.991 133.117 297.766 133.202 297.521C133.288 297.276 133.319 297.016 133.294 296.759H133.318Z" fill="#263238"/>
<path d="M141.053 290.319H143.271V300.421H141.053V290.319Z" fill="#263238"/>
<path d="M145.07 290.88C145.079 290.717 145.122 290.557 145.197 290.41C145.272 290.264 145.376 290.133 145.505 290.026C145.634 289.919 145.784 289.837 145.946 289.787C146.108 289.736 146.279 289.718 146.449 289.732C146.621 289.707 146.796 289.718 146.963 289.764C147.13 289.811 147.284 289.891 147.416 290C147.547 290.11 147.652 290.245 147.723 290.397C147.794 290.548 147.83 290.713 147.828 290.88C147.828 291.23 147.683 291.566 147.424 291.813C147.165 292.061 146.815 292.2 146.449 292.2C146.083 292.2 145.732 292.061 145.474 291.813C145.215 291.566 145.07 291.23 145.07 290.88ZM145.346 293.095H147.54V300.419H145.322L145.346 293.095Z" fill="#263238"/>
<path d="M148.883 299.742L149.626 298.215C150.431 298.677 151.35 298.923 152.288 298.927C153.32 298.927 153.703 298.663 153.703 298.261C153.703 297.056 149.075 298.261 149.075 295.357C149.075 293.968 150.382 292.981 152.612 292.981C153.636 292.96 154.649 293.181 155.562 293.624L154.818 295.139C154.147 294.77 153.386 294.58 152.612 294.588C151.617 294.588 151.197 294.898 151.197 295.277C151.197 296.528 155.814 295.277 155.814 298.204C155.814 299.57 154.495 300.5 152.216 300.5C151.055 300.53 149.906 300.269 148.883 299.742Z" fill="#263238"/>
<path d="M162.133 300.077C161.591 300.399 160.961 300.559 160.323 300.536C159.945 300.586 159.559 300.554 159.196 300.441C158.833 300.329 158.501 300.139 158.225 299.886C157.95 299.633 157.737 299.324 157.604 298.981C157.471 298.638 157.421 298.271 157.457 297.907V294.9H156.258V293.258H157.457V291.468H159.675V293.258H161.582V294.9H159.675V297.873C159.657 298 159.669 298.13 159.71 298.252C159.75 298.375 159.819 298.487 159.911 298.58C160.003 298.674 160.116 298.747 160.241 298.793C160.366 298.839 160.501 298.858 160.635 298.849C160.957 298.847 161.271 298.751 161.534 298.573L162.133 300.077Z" fill="#263238"/>
<path d="M170.599 297.354H164.807C164.924 297.813 165.21 298.217 165.614 298.489C166.018 298.761 166.511 298.884 167.002 298.835C167.355 298.846 167.707 298.788 168.037 298.666C168.367 298.544 168.667 298.359 168.92 298.123L170.119 299.351C169.712 299.75 169.219 300.059 168.675 300.257C168.13 300.456 167.547 300.538 166.966 300.499C164.316 300.499 162.589 298.903 162.589 296.723C162.582 296.213 162.684 295.707 162.889 295.237C163.093 294.766 163.397 294.341 163.78 293.987C164.163 293.633 164.618 293.358 165.116 293.179C165.615 293 166.146 292.921 166.678 292.946C167.208 292.918 167.738 292.997 168.234 293.178C168.73 293.358 169.181 293.637 169.558 293.995C169.934 294.353 170.228 294.783 170.42 295.257C170.611 295.731 170.697 296.238 170.671 296.745C170.647 296.952 170.611 297.182 170.599 297.354ZM164.771 296.114H168.549C168.469 295.69 168.237 295.306 167.891 295.029C167.546 294.752 167.11 294.601 166.66 294.601C166.21 294.601 165.774 294.752 165.429 295.029C165.083 295.306 164.851 295.69 164.771 296.114Z" fill="#263238"/>
<path d="M179.916 296.23V300.42H177.698V296.551C177.698 295.404 177.122 294.83 176.151 294.83C175.18 294.83 174.304 295.449 174.304 296.804V300.42H172.122V293.096H174.245V293.957C174.571 293.634 174.965 293.379 175.401 293.211C175.837 293.043 176.305 292.965 176.775 292.981C177.215 292.959 177.656 293.03 178.064 293.189C178.473 293.348 178.84 293.591 179.14 293.901C179.44 294.211 179.665 294.581 179.799 294.983C179.933 295.385 179.973 295.811 179.916 296.23Z" fill="#263238"/>
<path d="M107.333 412.949C107.326 412.426 107.431 411.907 107.641 411.424C107.851 410.941 108.163 410.504 108.556 410.141C108.949 409.777 109.416 409.495 109.927 409.31C110.439 409.126 110.984 409.044 111.53 409.069C112.088 409.044 112.646 409.133 113.165 409.331C113.684 409.529 114.153 409.831 114.54 410.217L113.797 410.906C113.515 410.612 113.172 410.379 112.79 410.223C112.407 410.067 111.994 409.99 111.578 409.999C110.77 409.999 109.996 410.306 109.425 410.853C108.853 411.399 108.532 412.141 108.532 412.914C108.532 413.688 108.853 414.429 109.425 414.976C109.996 415.523 110.77 415.83 111.578 415.83C111.995 415.836 112.408 415.758 112.791 415.599C113.173 415.441 113.516 415.207 113.797 414.912L114.54 415.6C114.151 415.987 113.68 416.289 113.159 416.487C112.638 416.685 112.078 416.774 111.518 416.748C110.98 416.771 110.443 416.691 109.939 416.51C109.434 416.33 108.973 416.055 108.582 415.7C108.192 415.345 107.88 414.919 107.665 414.446C107.45 413.973 107.338 413.464 107.333 412.949Z" fill="#263238"/>
<path d="M120.668 413.269V416.713H119.637V415.956C119.408 416.241 119.108 416.466 118.764 416.61C118.42 416.755 118.044 416.814 117.67 416.782C116.315 416.782 115.452 416.082 115.452 415.095C115.452 414.107 116.075 413.407 117.85 413.407H119.565V413.201C119.565 412.328 119.037 411.823 117.958 411.823C117.271 411.819 116.603 412.037 116.063 412.443L115.608 411.662C116.326 411.159 117.2 410.9 118.09 410.928C119.733 410.951 120.668 411.708 120.668 413.269ZM119.577 414.98V414.211H117.91C116.831 414.211 116.531 414.613 116.531 415.106C116.531 415.6 117.023 416.036 117.85 416.036C118.218 416.059 118.584 415.97 118.895 415.78C119.205 415.59 119.444 415.309 119.577 414.98Z" fill="#263238"/>
<path d="M128.354 413.429V416.735H127.263V413.556C127.263 412.408 126.675 411.88 125.656 411.88C125.393 411.859 125.128 411.895 124.881 411.984C124.634 412.074 124.411 412.215 124.229 412.398C124.046 412.58 123.908 412.8 123.825 413.04C123.742 413.28 123.717 413.535 123.75 413.785V416.735H122.67V410.996H123.702V411.914C123.96 411.606 124.292 411.362 124.67 411.202C125.048 411.042 125.46 410.971 125.872 410.996C126.21 410.971 126.549 411.017 126.867 411.131C127.184 411.245 127.471 411.425 127.708 411.657C127.945 411.889 128.125 412.168 128.237 412.474C128.349 412.781 128.389 413.107 128.354 413.429Z" fill="#263238"/>
<path d="M129.853 413.868C129.845 413.472 129.924 413.08 130.082 412.714C130.241 412.349 130.477 412.019 130.776 411.745C131.074 411.471 131.428 411.26 131.816 411.123C132.204 410.987 132.618 410.929 133.03 410.952C133.508 410.929 133.982 411.03 134.405 411.245C134.827 411.459 135.181 411.778 135.429 412.169L134.601 412.674C134.428 412.416 134.187 412.206 133.904 412.063C133.62 411.92 133.303 411.85 132.982 411.859C132.423 411.859 131.886 412.072 131.49 412.451C131.094 412.83 130.872 413.344 130.872 413.88C130.872 414.415 131.094 414.929 131.49 415.308C131.886 415.687 132.423 415.9 132.982 415.9C133.304 415.907 133.621 415.834 133.905 415.69C134.189 415.545 134.428 415.333 134.601 415.073L135.429 415.567C135.183 415.961 134.83 416.285 134.408 416.503C133.986 416.721 133.51 416.826 133.03 416.807C132.616 416.829 132.202 416.769 131.813 416.631C131.424 416.492 131.069 416.278 130.771 416.002C130.472 415.726 130.237 415.394 130.079 415.027C129.921 414.66 129.844 414.265 129.853 413.868Z" fill="#263238"/>
<path d="M142.168 414.211H137.311C137.378 414.706 137.64 415.156 138.044 415.471C138.448 415.785 138.963 415.938 139.482 415.899C139.806 415.909 140.128 415.852 140.426 415.731C140.724 415.61 140.991 415.428 141.209 415.198L141.808 415.876C141.364 416.304 140.8 416.599 140.184 416.728C139.568 416.856 138.926 416.812 138.336 416.599C137.746 416.387 137.233 416.017 136.857 415.532C136.482 415.047 136.261 414.469 136.22 413.867C136.205 413.483 136.273 413.1 136.418 412.743C136.564 412.385 136.784 412.059 137.066 411.786C137.348 411.513 137.686 411.298 138.058 411.154C138.43 411.011 138.829 410.942 139.23 410.951C139.632 410.941 140.032 411.011 140.405 411.157C140.777 411.303 141.113 411.522 141.392 411.8C141.671 412.077 141.886 412.408 142.024 412.77C142.161 413.132 142.219 413.517 142.192 413.901C142.19 414.005 142.182 414.108 142.168 414.211ZM137.311 413.465H141.149C141.096 413.013 140.871 412.596 140.517 412.293C140.163 411.99 139.705 411.823 139.23 411.823C138.755 411.823 138.297 411.99 137.943 412.293C137.589 412.596 137.364 413.013 137.311 413.465Z" fill="#263238"/>
<path d="M143.703 408.7H144.782V416.735H143.703V408.7Z" fill="#263238"/>
<path d="M181.007 432.382C181.007 432.382 181.307 432.382 181.883 432.301L182.95 432.233L184.425 432.003C188.612 431.21 192.376 429.034 195.058 425.856C197.741 422.677 199.172 418.698 199.102 414.612C199.139 413.111 199.087 411.609 198.946 410.113C198.735 408.535 198.307 406.992 197.675 405.521C196.97 403.977 196.055 402.53 194.953 401.217C193.753 399.869 192.361 398.69 190.816 397.715C187.433 395.676 183.462 394.716 179.472 394.972H166.414H137.635H71.6837C68.7811 395 65.9277 395.693 63.3618 396.992C60.8488 398.239 58.6825 400.041 57.0425 402.25C55.4041 404.416 54.3347 406.928 53.9248 409.573C53.8075 410.222 53.7433 410.878 53.7329 411.536C53.7329 412.19 53.7329 412.868 53.7329 413.533C53.6895 414.842 53.7617 416.151 53.9487 417.448C54.3299 420.006 55.3141 422.447 56.8266 424.588C58.3289 426.673 60.2841 428.424 62.5584 429.719C64.7893 430.983 67.2814 431.767 69.861 432.015L71.7676 432.095H77.5234L131.4 432.152L167.721 432.244H177.602L167.721 432.301L131.4 432.393L77.5234 432.451H71.7676L69.8011 432.359C67.137 432.106 64.5628 431.299 62.2586 429.994C59.9063 428.659 57.8819 426.854 56.323 424.702C54.7622 422.488 53.7417 419.965 53.3372 417.321C53.1518 415.994 53.0796 414.654 53.1214 413.315C53.1214 412.638 53.1214 411.984 53.1214 411.295C53.1257 410.614 53.1899 409.934 53.3132 409.263C53.7402 406.529 54.8419 403.932 56.5269 401.687C58.2306 399.402 60.4738 397.534 63.074 396.235C65.7169 394.937 68.6416 394.253 71.6118 394.237H137.563H166.342H179.401C182.381 394.033 185.369 394.512 188.117 395.634C190.866 396.756 193.296 398.488 195.205 400.688C197.443 403.285 198.846 406.447 199.246 409.791C199.374 411.319 199.418 412.851 199.378 414.383C199.449 416.94 198.938 419.481 197.88 421.83C196.822 424.18 195.242 426.28 193.25 427.985C190.769 430.111 187.724 431.541 184.449 432.118L182.962 432.313C182.542 432.313 182.17 432.313 181.883 432.313L181.007 432.382Z" fill="#1DB954"/>
<path d="M219.283 60.1194C216.206 60.4438 213.108 60.5513 210.014 60.4408C206.916 60.5515 203.814 60.4441 200.733 60.1194C203.815 59.8017 206.916 59.6943 210.014 59.798C213.108 59.6945 216.205 59.8019 219.283 60.1194Z" fill="#1DB954"/>
<path d="M219.283 55.4827C216.206 55.8071 213.108 55.9145 210.014 55.8041C206.916 55.9148 203.814 55.8074 200.733 55.4827C203.815 55.165 206.916 55.0575 210.014 55.1613C213.108 55.0577 216.205 55.1651 219.283 55.4827Z" fill="#1DB954"/>
<path d="M219.283 50.846C216.206 51.1704 213.108 51.2778 210.014 51.1674C206.916 51.2781 203.814 51.1706 200.733 50.846C203.815 50.5282 206.916 50.4208 210.014 50.5246C213.108 50.421 216.205 50.5284 219.283 50.846Z" fill="#1DB954"/>
<path d="M34.4272 63.1149C34.5586 63.099 34.6916 63.099 34.823 63.1149H35.9381L40.0271 63.023L39.9192 63.1378C39.9192 62.2654 39.9192 61.3242 39.9192 60.2911C39.9192 59.763 39.9192 59.2694 39.9192 58.6611C39.9953 58.3559 40.1691 58.0812 40.4164 57.8754C40.6637 57.6696 40.972 57.5429 41.2982 57.5132C41.9577 57.5132 42.4973 57.5132 43.2528 57.5132C43.6287 57.5707 43.9707 57.7551 44.217 58.033C44.4633 58.3109 44.5977 58.6639 44.5958 59.0284C44.5958 60.3485 44.5958 61.7374 44.5958 63.1723L44.4039 62.9886H49.5721L49.3683 63.1723C49.3683 61.1864 49.3683 59.1317 49.3683 57.0196C49.3683 56.4915 49.3683 55.9635 49.3683 55.4469C49.3423 55.2171 49.2646 54.9955 49.1404 54.7973C49.0161 54.5991 48.8484 54.4291 48.6488 54.2991L46.3945 52.1755L44.2121 50.1207L43.1568 49.122C42.7971 48.7892 42.5093 48.4333 42.0896 48.353C41.8856 48.2997 41.6715 48.2916 41.4637 48.3294C41.2559 48.3672 41.0599 48.4498 40.8905 48.5711C40.5787 48.8236 40.243 49.1794 39.9312 49.4779C39.2957 50.0863 38.7321 50.6258 38.0846 51.2686C36.8854 52.4165 35.6863 53.4841 34.811 54.4827C34.5512 55.0649 34.464 55.7043 34.5591 56.3308C34.5591 56.9392 34.5591 57.4787 34.5591 58.0756C34.5591 59.1432 34.5591 60.073 34.5591 60.8765C34.5591 61.68 34.5591 62.1851 34.5591 62.6672C34.576 62.885 34.576 63.1037 34.5591 63.3215C34.5422 63.1229 34.5422 62.9232 34.5591 62.7246C34.5591 62.2425 34.5591 61.6685 34.5591 60.9568C34.5591 60.2451 34.5592 59.2006 34.4872 58.133C34.4872 57.5706 34.4872 56.9851 34.4872 56.3538C34.4872 56.0324 34.4872 55.711 34.4872 55.3781C34.489 55.0158 34.5881 54.66 34.775 54.345C35.7343 53.1971 36.8735 52.2328 38.0486 51.039L39.6194 49.0302C39.9552 48.7203 40.219 48.4104 40.6147 48.089C40.8256 47.9357 41.0701 47.8303 41.3297 47.7806C41.5893 47.7309 41.8574 47.7382 42.1136 47.802C42.5881 47.9727 43.0034 48.2669 43.3127 48.6514L44.3799 49.6501L46.5623 51.6933L48.8167 53.8284C49.036 54.0049 49.2332 54.2052 49.4042 54.4253C49.5699 54.6723 49.6612 54.9583 49.668 55.2518C49.668 55.7798 49.668 56.2964 49.668 56.8359C49.668 58.9365 49.668 61.0028 49.668 62.9886V63.1837H49.4642H44.296H44.1161V63.0001C44.1161 61.5652 44.1161 60.1763 44.1161 58.8562C44.1186 58.5759 44.0139 58.3045 43.8217 58.093C43.6295 57.8816 43.3632 57.7447 43.0729 57.7083C42.4733 57.7083 41.7778 57.7083 41.1903 57.7083C40.923 57.7352 40.6717 57.8434 40.4732 58.0169C40.2747 58.1904 40.1394 58.4201 40.0871 58.6725C40.0871 59.1661 40.0871 59.7401 40.0871 60.2451V63.1952H39.9672H35.8062H34.727L34.4272 63.1149Z" fill="#1DB954"/>
<path d="M307.533 127.113C307.701 132.497 303.72 133.013 300.974 133.231C298.228 133.449 295.086 132.255 292.58 131.119C287.495 128.823 282.567 126.436 280.517 121.063" fill="#FFBE9D"/>
<path d="M369.911 76.8701C370.079 76.8701 370.223 84.9054 370.223 94.7199C370.223 104.534 370.079 112.558 369.911 112.558C369.743 112.558 369.599 104.523 369.599 94.7199C369.599 84.9168 369.743 76.8701 369.911 76.8701Z" fill="#9953F5"/>
<path d="M374.768 80.7959C374.935 80.7959 375.079 86.8912 375.079 94.4214C375.079 101.952 374.935 108.035 374.768 108.035C374.6 108.035 374.456 101.94 374.456 94.4214C374.456 86.9027 374.6 80.7959 374.768 80.7959Z" fill="#9953F5"/>
<path d="M380.235 84.6855C380.544 87.9635 380.648 91.2561 380.547 94.546C380.648 97.8396 380.544 101.136 380.235 104.418C379.92 101.136 379.815 97.8396 379.924 94.546C379.816 91.2561 379.92 87.9631 380.235 84.6855Z" fill="#9953F5"/>
<path d="M384.996 88.0391C385.311 89.8592 385.415 91.7069 385.308 93.5489C385.415 95.3872 385.31 97.2311 384.996 99.0474C384.689 97.2303 384.584 95.3872 384.684 93.5489C384.584 91.7069 384.688 89.8599 384.996 88.0391Z" fill="#9953F5"/>
<path d="M389.205 90.7256C389.62 92.7186 389.62 94.7705 389.205 96.7635C388.789 94.7705 388.789 92.7186 389.205 90.7256Z" fill="#9953F5"/>
<path d="M393.977 87.499C394.285 89.3199 394.389 91.1669 394.289 93.0089C394.39 94.8471 394.285 96.6904 393.977 98.5073C393.662 96.6911 393.557 94.8471 393.665 93.0089C393.558 91.1669 393.662 89.3191 393.977 87.499Z" fill="#9953F5"/>
<path d="M398.462 83.0791C398.771 86.5143 398.875 89.9636 398.774 93.4101C398.875 96.8567 398.771 100.306 398.462 103.741C398.146 100.306 398.042 96.8567 398.15 93.4101C398.042 89.9636 398.146 86.5139 398.462 83.0791Z" fill="#9953F5"/>
<path d="M341.576 84.6855C341.884 87.9635 341.989 91.2561 341.888 94.546C341.989 97.8396 341.885 101.136 341.576 104.418C341.26 101.136 341.156 97.8396 341.264 94.546C341.156 91.2561 341.26 87.9631 341.576 84.6855Z" fill="#9953F5"/>
<path d="M346.336 88.0391C346.651 89.8592 346.756 91.7069 346.648 93.5489C346.755 95.3872 346.651 97.2311 346.336 99.0474C346.029 97.2303 345.924 95.3872 346.024 93.5489C345.924 91.7069 346.029 89.8599 346.336 88.0391Z" fill="#9953F5"/>
<path d="M350.545 90.7256C350.961 92.7186 350.961 94.7705 350.545 96.7635C350.234 95.7867 350.128 94.7607 350.233 93.7445C350.128 92.7284 350.234 91.7024 350.545 90.7256Z" fill="#9953F5"/>
<path d="M355.306 85.8906C355.621 88.2501 355.725 90.6311 355.618 93.0076C355.726 95.3802 355.621 97.7574 355.306 100.113C354.997 97.7568 354.893 95.3802 354.994 93.0076C354.893 90.6311 354.998 88.2507 355.306 85.8906Z" fill="#9953F5"/>
<path d="M359.79 83.0791C360.114 86.5135 360.222 89.9634 360.114 93.4101C360.222 96.8569 360.114 100.307 359.79 103.741C359.482 100.306 359.377 96.8567 359.478 93.4101C359.377 89.9636 359.482 86.5143 359.79 83.0791Z" fill="#9953F5"/>
<path d="M365.259 80.9121C365.438 80.9121 365.57 86.8008 365.57 94.0555C365.57 101.31 365.438 107.21 365.259 107.21C365.079 107.21 364.947 101.322 364.947 94.0555C364.947 86.7893 365.091 80.9121 365.259 80.9121Z" fill="#9953F5"/>
<path d="M336.48 98.5073C336.165 96.6911 336.06 94.8471 336.168 93.0089C336.061 91.1669 336.165 89.3191 336.48 87.499C336.788 89.3199 336.892 91.1669 336.792 93.0089C336.892 94.8471 336.788 96.6904 336.48 98.5073Z" fill="#9953F5"/>
<path d="M332.271 95.8328C331.855 93.8399 331.855 91.7879 332.271 89.7949C332.686 91.7879 332.686 93.8399 332.271 95.8328Z" fill="#9953F5"/>
<path d="M402.887 87.499C403.195 89.3199 403.299 91.1669 403.199 93.0089C403.299 94.8471 403.195 96.6904 402.887 98.5073C402.572 96.6911 402.467 94.8471 402.575 93.0089C402.468 91.1669 402.572 89.3191 402.887 87.499Z" fill="#9953F5"/>
<path d="M407.06 90.1855C407.475 92.1785 407.475 94.2305 407.06 96.2235C406.747 95.2469 406.641 94.2207 406.748 93.2045C406.643 92.1884 406.749 91.1623 407.06 90.1855Z" fill="#9953F5"/>
<path d="M364.767 439.135L373.508 463.401C373.508 463.401 402.215 463.057 404.278 467.396L355.738 485.292L340.533 448.008L364.767 439.135Z" fill="#9953F5"/>
<path d="M357.68 466.923C357.268 467.233 356.99 467.677 356.899 468.17C356.808 468.664 356.911 469.173 357.188 469.598C357.495 470.003 357.951 470.279 358.465 470.371C358.978 470.463 359.508 470.363 359.946 470.092C360.382 469.762 360.675 469.291 360.77 468.768C360.865 468.245 360.755 467.707 360.462 467.256C360.095 466.864 359.584 466.624 359.037 466.586C358.489 466.547 357.947 466.713 357.524 467.05" fill="#E0E0E0"/>
<g opacity="0.6">
<path d="M355.737 485.292L354.346 481.527L401.412 465.789C401.412 465.789 403.942 465.892 404.277 467.442L355.737 485.292Z" fill="white"/>
</g>
<path d="M374.204 462.871C374.288 463.101 373.136 463.641 372.261 464.8C371.386 465.959 371.158 467.153 370.906 467.096C370.654 467.038 370.474 465.638 371.554 464.26C372.633 462.883 374.168 462.653 374.204 462.871Z" fill="#263238"/>
<path d="M380.104 463.011C380.247 463.218 379.372 463.975 378.904 465.238C378.437 466.501 378.665 467.591 378.425 467.672C378.185 467.752 377.513 466.524 378.065 464.963C378.617 463.401 380.008 462.805 380.104 463.011Z" fill="#263238"/>
<path d="M385.344 467.751C385.152 467.878 384.361 466.867 384.469 465.456C384.576 464.044 385.488 463.079 385.668 463.24C385.848 463.401 385.416 464.308 385.356 465.536C385.296 466.764 385.572 467.671 385.344 467.751Z" fill="#263238"/>
<path d="M371.566 457.557C371.566 457.798 370.367 457.89 369.036 458.463C367.705 459.037 366.841 459.841 366.637 459.692C366.434 459.543 367.105 458.36 368.652 457.694C370.199 457.029 371.614 457.339 371.566 457.557Z" fill="#263238"/>
<path d="M180.067 430.387L179.515 431.075L169.059 444.207L156.048 452.748L173.472 484.889H192.657C192.657 484.889 191.266 480.469 182.045 478.185L181.434 460.542L198.006 443.117" fill="#9953F5"/>
<g opacity="0.6">
<path d="M156 452.747L173.423 484.877L192.609 484.9L190.451 482.133L174.85 481.295L158.77 450.922L156 452.747Z" fill="white"/>
</g>
<path d="M181.877 470.115C181.733 470.299 180.678 469.702 179.143 469.736C177.608 469.771 176.565 470.368 176.421 470.184C176.277 470 177.32 468.944 179.131 468.933C180.942 468.921 182.057 469.966 181.877 470.115Z" fill="#263238"/>
<path d="M181.565 465.743C181.374 465.869 180.522 464.79 178.987 464.503C177.452 464.216 176.241 464.882 176.121 464.687C176.002 464.491 176.277 464.296 176.817 464.021C177.539 463.668 178.363 463.559 179.158 463.711C179.952 463.863 180.669 464.268 181.194 464.859C181.577 465.318 181.661 465.685 181.565 465.743Z" fill="#263238"/>
<path d="M181.697 460.117C181.482 460.22 180.834 459.164 179.503 458.717C178.172 458.269 176.961 458.717 176.865 458.487C176.769 458.258 177.057 458.131 177.584 457.948C178.294 457.705 179.069 457.705 179.779 457.948C180.487 458.188 181.091 458.649 181.494 459.256C181.781 459.715 181.793 460.083 181.697 460.117Z" fill="#263238"/>
<path d="M186.83 455.766C186.602 455.846 186.074 454.802 184.875 454.056C183.676 453.309 182.477 453.206 182.477 452.977C182.477 452.747 183.904 452.46 185.343 453.39C186.782 454.32 187.045 455.743 186.83 455.766Z" fill="#263238"/>
<g opacity="0.6">
<path d="M171.301 452.197C171.301 452.628 171.168 453.05 170.917 453.408C170.667 453.767 170.311 454.047 169.895 454.212C169.479 454.377 169.02 454.42 168.578 454.336C168.137 454.252 167.731 454.044 167.412 453.739C167.093 453.434 166.876 453.045 166.788 452.622C166.7 452.199 166.746 451.761 166.918 451.362C167.091 450.963 167.383 450.623 167.757 450.383C168.132 450.144 168.572 450.016 169.023 450.016C169.627 450.016 170.207 450.245 170.634 450.654C171.061 451.063 171.301 451.618 171.301 452.197Z" fill="white"/>
</g>
<path d="M280.696 284.305C285.229 285.912 263.513 371.442 263.513 371.442L197.957 446.893L176.109 428.871L225.141 356.68L240.526 240.353L275.876 242.189L280.696 284.305Z" fill="#263238"/>
<path d="M310.806 240.353C311.43 242.006 347.859 362.145 347.859 362.145L368.112 444.07L341.732 452.3C341.732 452.3 307.125 375.632 302.964 362.764C298.803 349.897 288.971 331.151 288.971 331.151L269.785 282.596C269.785 282.596 239.111 266.376 241.366 238.976L310.806 240.353Z" fill="#263238"/>
<path d="M371.218 449.935L369.659 440.074L337.906 449.946L341.6 460.369L371.218 449.935Z" fill="#263238"/>
<path d="M241.617 240.353C241.617 240.353 241.677 240.674 241.761 241.317L242.133 244.141C242.568 247.727 243.269 251.279 244.231 254.77C244.944 257.253 245.946 259.652 247.217 261.921C248.739 264.583 250.608 267.048 252.781 269.257C258.099 274.516 264.362 278.816 271.271 281.952L271.379 282.01V282.113C272.578 286.475 274.149 290.986 275.864 295.647C277.579 300.307 279.461 305.117 281.404 310.076C285.313 319.982 289.63 330.451 294.103 341.275C300.338 356.198 306.094 370.535 311.694 383.438C317.294 396.34 322.39 407.899 326.707 417.61C331.023 427.322 334.537 435.173 336.863 440.637C338.062 443.369 338.914 445.504 339.489 446.951L340.137 448.615C340.281 448.982 340.341 449.177 340.341 449.177C340.341 449.177 340.245 448.994 340.077 448.626L339.381 446.996L336.647 440.729C334.249 435.288 330.652 427.448 326.299 417.771C321.946 408.094 316.706 396.535 311.154 383.633C305.602 370.73 299.762 356.405 293.539 341.482C289.066 330.657 284.761 320.189 280.864 310.259C278.91 305.312 277.063 300.479 275.36 295.807C273.658 291.135 272.087 286.624 270.9 282.228L271.032 282.388C264.084 279.206 257.795 274.847 252.469 269.521C250.287 267.276 248.409 264.777 246.881 262.082C245.624 259.78 244.639 257.35 243.943 254.839C243.006 251.329 242.349 247.757 241.977 244.152C241.845 242.924 241.749 241.983 241.677 241.317C241.605 240.651 241.617 240.353 241.617 240.353Z" fill="#455A64"/>
<path d="M295.41 287.772C295.146 287.99 294.841 288.158 294.511 288.266C293.646 288.614 292.725 288.82 291.789 288.874C288.648 288.994 285.578 287.964 283.203 285.993C280.91 284.009 279.118 281.552 277.963 278.807C277.507 277.774 277.195 276.913 276.992 276.316C276.855 276.015 276.778 275.692 276.764 275.363C276.86 275.363 277.363 276.626 278.37 278.623C279.609 281.237 281.393 283.58 283.611 285.511C285.877 287.384 288.77 288.418 291.765 288.426C293.004 288.359 294.229 288.139 295.41 287.772Z" fill="#455A64"/>
<path d="M240.922 360.995C238.583 359.694 236.132 358.588 233.595 357.689C230.993 356.985 228.334 356.494 225.645 356.22C226.43 356.042 227.242 356 228.043 356.093C231.962 356.289 235.757 357.478 239.039 359.537C239.751 359.913 240.389 360.407 240.922 360.995Z" fill="#455A64"/>
<path d="M369.312 440.2C369.312 440.35 362.381 442.726 353.723 445.504C345.066 448.282 338.003 450.405 337.943 450.244C337.883 450.084 344.862 447.708 353.531 444.941C362.201 442.175 369.312 440.017 369.312 440.2Z" fill="#455A64"/>
<path d="M169.406 435.897L175.246 426.06L200.955 446.905L193.053 455.159L169.406 435.897Z" fill="#263238"/>
<path d="M200.955 446.904C200.569 446.69 200.214 446.427 199.9 446.124L197.178 443.828C194.888 441.899 191.722 439.236 188.089 436.481C184.455 433.726 181.254 431.086 178.927 429.192C177.728 428.251 176.829 427.47 176.194 426.896C175.558 426.322 175.21 426.035 175.246 426.001C175.638 426.202 176.007 426.441 176.349 426.713C177.033 427.206 178.004 427.929 179.203 428.825C181.602 430.638 184.887 433.164 188.484 435.988C192.082 438.811 195.259 441.475 197.478 443.483C198.593 444.482 199.468 445.309 200.068 445.894C200.406 446.194 200.704 446.534 200.955 446.904Z" fill="#455A64"/>
<path d="M296.166 56.8044C297.269 52.8786 300.351 50.9501 304.356 49.6415C306.376 49.0004 308.528 48.8367 310.629 49.1645C312.729 49.4923 314.716 50.3019 316.419 51.524C318.673 53.1655 320.436 55.5531 323.11 56.437C327.523 57.9063 332.703 54.7496 336.924 56.6436C338.215 57.1903 339.263 58.1555 339.884 59.3694C340.505 60.5832 340.658 61.9678 340.317 63.2793C339.976 64.5908 339.162 65.7449 338.019 66.5385C336.877 67.3321 335.478 67.7142 334.07 67.6175C336.948 68.6277 337.835 72.5535 336.156 75.01C334.477 77.4665 331.024 78.3848 328.014 77.8453C325.021 77.1467 322.284 75.678 320.1 73.598C317.822 71.6466 315.783 69.4197 313.349 67.6405C310.983 65.7307 307.99 64.6783 304.895 64.6674C300.758 64.8855 297.209 67.8701 295.362 71.4285C293.516 74.987 293.084 79.0505 292.856 83.0108C292.628 86.971 292.556 91.046 291.321 94.7997C291.177 95.2473 290.961 95.7409 290.494 95.8787C289.822 96.0738 289.295 95.3966 288.923 94.7997C285.141 88.0869 282.777 80.7264 281.968 73.1389C281.5 68.7425 281.62 64.5871 284.138 60.8909C286.657 57.1946 293.036 54.4627 296.13 56.8044" fill="#263238"/>
<path d="M288.179 75.1704L286.069 119.64C285.697 127.204 286.788 138.385 299.259 138.385C310.111 137.604 313.325 127.893 313.649 120.834C313.804 117.482 313.948 114.692 313.984 114.348C313.984 114.348 325.868 113.797 327.247 102.628C327.918 97.2329 328.362 86.018 328.626 75.8591C328.766 70.6059 326.837 65.4943 323.223 61.5391C319.609 57.5838 314.573 55.0741 309.116 54.5083L307.989 54.3935C295.758 53.8081 288.431 63.4389 288.179 75.1704Z" fill="#FFBE9D"/>
<path d="M314.068 114.199C308.66 113.737 303.52 111.738 299.307 108.46C299.307 108.46 302.005 116.874 313.78 117.058L314.068 114.199Z" fill="#EB996E"/>
<path d="M324.441 82.9769C324.398 83.3931 324.188 83.777 323.854 84.0471C323.52 84.3172 323.09 84.4521 322.654 84.4232C322.44 84.4174 322.229 84.3706 322.034 84.2856C321.839 84.2006 321.664 84.0791 321.518 83.9283C321.373 83.7775 321.261 83.6004 321.188 83.4074C321.116 83.2145 321.084 83.0095 321.095 82.8047C321.138 82.3884 321.348 82.0045 321.682 81.7344C322.016 81.4644 322.446 81.3294 322.882 81.3583C323.096 81.3642 323.307 81.411 323.502 81.496C323.697 81.581 323.872 81.7024 324.018 81.8532C324.163 82.0041 324.275 82.1811 324.348 82.3741C324.42 82.5671 324.452 82.772 324.441 82.9769Z" fill="#263238"/>
<path d="M325.556 81.0579C325.328 81.253 324.165 80.2199 322.366 80.0477C320.568 79.8755 319.165 80.5987 318.985 80.3691C318.805 80.1395 319.153 79.91 319.776 79.5656C320.61 79.1279 321.565 78.9475 322.51 79.049C323.441 79.1478 324.317 79.5209 325.016 80.1166C325.52 80.5872 325.676 80.9775 325.556 81.0579Z" fill="#263238"/>
<path d="M306.766 81.7593C306.726 82.1776 306.517 82.5645 306.183 82.8369C305.849 83.1094 305.417 83.2459 304.979 83.2172C304.765 83.2098 304.555 83.162 304.361 83.0765C304.167 82.9909 303.992 82.8694 303.847 82.7189C303.702 82.5684 303.59 82.392 303.517 82.1997C303.443 82.0074 303.41 81.8031 303.42 81.5986C303.463 81.1824 303.673 80.7985 304.007 80.5284C304.34 80.2583 304.771 80.1234 305.207 80.1523C305.42 80.1566 305.631 80.202 305.826 80.2857C306.021 80.3695 306.196 80.4899 306.342 80.6398C306.487 80.7897 306.6 80.966 306.672 81.1584C306.745 81.3507 306.777 81.5551 306.766 81.7593Z" fill="#263238"/>
<path d="M307.881 79.5891C307.641 79.7728 306.478 78.7512 304.691 78.5675C302.904 78.3839 301.478 79.1185 301.31 78.8889C301.142 78.6594 301.478 78.4298 302.089 78.0854C302.924 77.6517 303.879 77.4753 304.823 77.5803C305.76 77.6715 306.641 78.0453 307.341 78.6479C307.845 79.107 307.989 79.4973 307.881 79.5891Z" fill="#263238"/>
<path d="M312.953 92.9982C313.931 92.806 314.93 92.7365 315.927 92.7916C316.382 92.7916 316.826 92.7916 316.934 92.4587C317.028 92.0101 316.973 91.5448 316.778 91.1272C316.466 89.9793 316.143 88.8314 315.795 87.6835C314.44 82.7246 313.516 78.684 313.72 78.6266C313.924 78.5692 315.195 82.5524 316.55 87.4998C316.874 88.7166 317.186 89.8759 317.474 90.9435C317.691 91.5064 317.691 92.1253 317.474 92.6883C317.388 92.8364 317.27 92.9646 317.127 93.0638C316.984 93.1631 316.82 93.2308 316.646 93.2622C316.383 93.2901 316.118 93.2901 315.855 93.2622C314.88 93.2875 313.905 93.1989 312.953 92.9982Z" fill="#263238"/>
<path d="M309.091 72.8745C308.864 73.3222 307.089 72.8745 304.955 72.9548C302.82 73.0352 301.057 73.3566 300.83 72.9548C300.722 72.7367 301.069 72.335 301.813 71.9447C302.787 71.4743 303.864 71.2341 304.955 71.2445C306.044 71.2234 307.122 71.4558 308.096 71.9217C308.84 72.2776 309.187 72.6793 309.091 72.8745Z" fill="#263238"/>
<path d="M325.448 76.0202C325.088 76.3761 323.901 75.848 322.414 75.6758C320.927 75.5037 319.644 75.6758 319.392 75.2282C319.284 75.0101 319.536 74.6427 320.124 74.3328C320.906 73.9472 321.797 73.8105 322.666 73.9425C323.539 74.0453 324.356 74.4065 325.004 74.9756C325.484 75.4233 325.616 75.848 325.448 76.0202Z" fill="#263238"/>
<path d="M288.215 83.5271C288.023 83.4238 280.445 80.4393 279.821 88.1187C279.198 95.7981 287.4 94.7765 287.424 94.5584C287.448 94.3403 288.215 83.5271 288.215 83.5271Z" fill="#FFBE9D"/>
<path d="M285.229 91.4697C285.229 91.4697 285.086 91.5501 284.834 91.6419C284.499 91.7703 284.125 91.7703 283.791 91.6419C283.296 91.2933 282.908 90.8239 282.667 90.2828C282.427 89.7416 282.343 89.1485 282.424 88.5655C282.454 87.8948 282.642 87.2394 282.975 86.6485C283.066 86.4127 283.216 86.2022 283.413 86.0359C283.61 85.8695 283.847 85.7527 284.102 85.6958C284.267 85.6636 284.438 85.6887 284.586 85.7665C284.733 85.8444 284.846 85.9699 284.906 86.1205C284.99 86.3386 284.906 86.4878 284.906 86.5108C284.906 86.5338 285.086 86.3845 285.05 86.0631C285.02 85.8732 284.922 85.6989 284.774 85.5695C284.673 85.4803 284.553 85.4118 284.423 85.3684C284.293 85.3249 284.156 85.3074 284.018 85.317C283.685 85.3537 283.368 85.4724 283.096 85.6615C282.825 85.8506 282.61 86.1036 282.471 86.396C282.076 87.0383 281.849 87.7633 281.812 88.5081C281.718 89.1872 281.838 89.8775 282.157 90.4909C282.475 91.1043 282.977 91.613 283.599 91.9518C283.81 92.0262 284.036 92.0545 284.26 92.0346C284.484 92.0148 284.7 91.9473 284.894 91.837C285.194 91.6534 285.253 91.4812 285.229 91.4697Z" fill="#EB996E"/>
<path d="M331.407 73.7595C328.75 74.1332 326.038 73.8972 323.494 73.071C320.951 72.2447 318.649 70.8519 316.778 69.0072C314.2 66.4015 312.377 62.866 308.924 61.4541C307.743 61.0205 306.484 60.8165 305.219 60.8539C303.955 60.8914 302.712 61.1695 301.561 61.6722C299.277 62.6864 297.237 64.14 295.565 65.9423C297.184 71.854 294.966 78.0526 292.772 83.7921C292.602 84.4523 292.205 85.0385 291.644 85.4565C290.625 86.0534 289.246 85.3762 288.539 84.4579C287.48 82.9138 286.921 81.1049 286.932 79.2579C286.552 75.0743 287.045 70.8601 288.383 66.8607C289.74 62.8516 292.296 59.3116 295.733 56.6788C300.169 53.5244 305.71 52.1416 311.19 52.8219C316.647 53.5369 321.729 55.883 325.711 59.5256C327.636 61.1245 329.115 63.1559 330.016 65.4373" fill="#263238"/>
<path d="M313.529 97.8523C313.285 98.5433 312.937 99.1968 312.497 99.7923C312.275 100.09 311.989 100.34 311.658 100.524C311.327 100.708 310.959 100.822 310.579 100.86C310.172 100.862 309.772 100.765 309.415 100.578C309.059 100.391 308.758 100.121 308.54 99.7923C308.107 99.1269 307.906 98.3472 307.965 97.5654C307.965 96.8651 308.336 96.0272 309.068 95.9468C309.375 95.9344 309.681 95.9976 309.955 96.1305L313.78 97.6113" fill="#EB996E"/>
<path d="M312.006 100.861C311.312 100.907 310.616 100.825 309.955 100.62C309.29 100.372 308.743 99.8978 308.42 99.2883C308.242 98.9115 308.149 98.5025 308.149 98.0888C308.149 97.675 308.242 97.266 308.42 96.8892C308.504 96.6934 308.613 96.5083 308.744 96.3382C308.9 96.189 308.876 96.189 309.032 96.212L309.655 96.4416L310.279 96.6941C311.094 97.004 311.838 97.291 312.461 97.5091C313.118 97.8168 313.823 98.0185 314.548 98.106C313.974 97.6755 313.335 97.3311 312.653 97.0844C312.053 96.8089 311.334 96.4875 310.531 96.1431L309.907 95.8676C309.679 95.7873 309.511 95.6839 309.212 95.5921C309.024 95.5357 308.823 95.5357 308.636 95.5921C308.469 95.6614 308.324 95.7724 308.216 95.9135C308.043 96.125 307.898 96.3564 307.785 96.6023C307.579 97.0686 307.483 97.5727 307.503 98.0786C307.524 98.5846 307.661 99.0799 307.905 99.5294C308.105 99.8927 308.381 100.213 308.715 100.472C309.049 100.73 309.434 100.921 309.847 101.033C310.382 101.201 310.954 101.225 311.502 101.102C311.838 101.022 312.017 100.907 312.006 100.861Z" fill="#263238"/>
<path d="M351.385 159.517L329.213 204.882C328.178 207.001 326.599 208.836 324.624 210.215C322.649 211.593 320.342 212.472 317.918 212.768C314.807 213.149 311.652 212.555 308.924 211.076C306.196 209.596 304.042 207.31 302.785 204.561L286.237 168.276L315.016 135.848L317.822 174.796L336.012 150.127L351.385 159.517Z" fill="#9953F5"/>
<path d="M311.346 190.098C312.094 187.356 313.052 184.671 314.212 182.063C315.169 179.399 316.319 176.803 317.653 174.292C316.902 177.015 315.944 179.681 314.787 182.27C313.833 184.953 312.683 187.569 311.346 190.098Z" fill="#263238"/>
<path d="M310.806 240.351L315.987 234.83C316.881 233.883 317.562 232.769 317.985 231.558C318.408 230.347 318.564 229.065 318.445 227.793L315.699 221.136L319.368 142.103C319.74 135.698 319.656 126.469 313.372 123.874L286.212 116.184C286.212 116.184 267.698 119.96 263.321 129.224C259.88 136.49 254.52 185.62 254.52 185.62L246.725 205.559C245.826 209.484 239.879 231.478 239.531 236.552L240.562 240.374L310.806 240.351Z" fill="#9953F5"/>
<path d="M315.699 221.138C315.699 221.138 315.699 221 315.699 220.725C315.699 220.449 315.699 220.013 315.699 219.577C315.699 218.429 315.699 216.948 315.699 215.077C315.699 211.163 315.783 205.722 315.831 199.339C316.214 194.886 316.538 189.927 316.85 184.704C317.437 174.637 317.893 165.522 318.385 158.922C318.625 155.628 318.864 152.964 319.044 151.128C319.152 150.255 319.224 149.555 319.284 149.004C319.303 148.756 319.348 148.51 319.416 148.27C319.447 148.517 319.447 148.768 319.416 149.016C319.416 149.567 319.344 150.267 319.296 151.139C319.176 153.056 319.02 155.731 318.828 158.956C318.481 165.614 318.001 174.706 317.473 184.738C317.162 189.961 316.814 194.931 316.394 199.397C316.25 205.779 316.13 211.209 316.034 215.134C315.975 217.005 315.915 218.509 315.879 219.623C315.879 220.093 315.879 220.484 315.819 220.771C315.789 220.896 315.749 221.019 315.699 221.138Z" fill="#263238"/>
<path d="M266.619 256.01L291.153 247.86L269.893 193.116L284.438 145.617C286.656 137.421 282.783 125.896 274.221 123.807C273.85 123.715 273.178 120.776 272.806 120.925C269.437 122.245 261.031 127.698 257.554 133.082C254.915 137.229 253.003 141.762 251.894 146.5L243.068 182.82C241.342 189.922 241.94 197.36 244.783 204.125L266.619 256.01Z" fill="#9953F5"/>
<path d="M243.404 200.291C243.463 200.367 243.508 200.453 243.536 200.544L243.883 201.324L245.166 204.355L249.963 215.776L266.463 255.884L266.091 255.723L290.973 247.55L291.141 248.124C290.865 247.911 290.65 247.635 290.517 247.321L290.265 246.689C290.097 246.276 289.93 245.851 289.75 245.427C289.414 244.577 289.078 243.716 288.73 242.855C288.035 241.122 287.339 239.354 286.632 237.575C280.265 221.344 274.281 206.123 269.197 193.174V193.106V193.025C272.614 178.849 275.468 167.014 277.483 158.68C278.49 154.559 279.293 151.311 279.881 149.061C280.157 147.97 280.373 147.132 280.528 146.535C280.6 146.26 280.66 146.053 280.696 145.881L280.768 145.663C280.782 145.739 280.782 145.817 280.768 145.893C280.768 146.065 280.684 146.271 280.636 146.547C280.492 147.155 280.313 148.005 280.073 149.095C279.545 151.391 278.802 154.617 277.854 158.749L269.784 193.186V193.037C274.881 205.973 280.888 221.183 287.292 237.414L289.378 242.683L290.409 245.266L290.913 246.529L291.165 247.148C291.182 247.172 291.192 247.2 291.192 247.229C291.192 247.258 291.182 247.286 291.165 247.309C291.156 247.347 291.156 247.386 291.165 247.424V247.504V247.562L291.225 247.837L291.333 248.136L266.187 256.263L265.923 256.354L265.827 256.102L249.543 215.926L244.939 204.447L243.74 201.393C243.62 201.06 243.524 200.796 243.44 200.601C243.356 200.406 243.404 200.291 243.404 200.291Z" fill="#263238"/>
<path d="M256.415 194.712C256.883 194.225 257.45 193.834 258.081 193.564C259.548 192.826 261.139 192.34 262.782 192.129C264.423 191.91 266.092 191.972 267.71 192.313C268.393 192.397 269.048 192.624 269.629 192.978C267.396 192.613 265.123 192.524 262.866 192.714C260.636 193.117 258.468 193.788 256.415 194.712Z" fill="#263238"/>
<g opacity="0.3">
<path d="M322.006 169.194L324.021 210.622C321.898 212.16 318.96 212.768 315.627 212.918C315.687 211.62 317.917 174.842 317.917 174.842L322.006 169.194Z" fill="black"/>
</g>
<path d="M319.344 135.848C319.201 135.961 319.044 136.057 318.877 136.135C318.416 136.395 317.939 136.629 317.45 136.835C315.647 137.609 313.755 138.175 311.814 138.523C305.388 139.581 298.791 139.16 292.568 137.294C286.313 135.468 280.612 132.223 275.948 127.836C274.541 126.517 273.246 125.093 272.075 123.577C271.655 123.049 271.368 122.601 271.164 122.314C271.054 122.167 270.962 122.01 270.888 121.844C271.348 122.334 271.781 122.847 272.183 123.382C273.412 124.833 274.742 126.202 276.164 127.48C280.85 131.719 286.497 134.863 292.664 136.663C298.829 138.531 305.359 139.026 311.754 138.109C313.679 137.805 315.564 137.305 317.378 136.617C318.019 136.33 318.676 136.073 319.344 135.848Z" fill="#FAFAFA"/>
<path d="M277.183 158.622C276.786 158.682 276.381 158.682 275.984 158.622C274.913 158.536 273.848 158.39 272.794 158.186C269.313 157.503 265.963 156.307 262.866 154.639C259.784 152.95 256.983 150.83 254.556 148.348C253.821 147.617 253.124 146.851 252.469 146.052C252.212 145.766 251.995 145.45 251.822 145.111C251.906 145.042 252.961 146.259 254.868 148.096C257.35 150.457 260.144 152.498 263.177 154.168C266.226 155.804 269.494 157.032 272.89 157.818C275.528 158.346 277.195 158.519 277.183 158.622Z" fill="#FAFAFA"/>
<path d="M316.958 169.196C316.467 169.432 315.953 169.62 315.423 169.758C314.004 170.231 312.554 170.615 311.082 170.906C308.906 171.362 306.698 171.661 304.475 171.801C301.75 171.963 299.015 171.921 296.297 171.675C291.363 171.139 286.525 169.981 281.908 168.231C280.145 167.566 278.73 166.969 277.795 166.51C277.287 166.302 276.801 166.049 276.344 165.752C276.875 165.886 277.393 166.067 277.891 166.291C278.862 166.693 280.289 167.221 282.064 167.83C286.679 169.435 291.477 170.51 296.357 171.032C299.039 171.279 301.736 171.34 304.427 171.216C306.628 171.088 308.818 170.831 310.986 170.447C314.704 169.804 316.922 169.081 316.958 169.196Z" fill="#FAFAFA"/>
<path d="M315.351 200.486C314.816 200.769 314.254 201.004 313.672 201.186C313.006 201.446 312.325 201.672 311.634 201.863C310.83 202.093 309.931 202.403 308.888 202.621C307.845 202.839 306.741 203.115 305.506 203.298C304.271 203.482 302.952 203.654 301.561 203.803C298.529 204.049 295.48 204.049 292.448 203.803C289.422 203.497 286.429 202.94 283.503 202.139C282.16 201.737 280.888 201.37 279.737 200.922C278.586 200.474 277.507 200.05 276.548 199.625C275.588 199.2 274.749 198.753 273.994 198.385C273.238 198.018 272.639 197.651 272.135 197.341C271.603 197.053 271.098 196.723 270.624 196.354C271.197 196.565 271.748 196.831 272.267 197.146C272.77 197.421 273.406 197.754 274.161 198.087C274.917 198.42 275.744 198.867 276.728 199.235C277.711 199.602 278.742 200.073 279.917 200.451C281.092 200.83 282.315 201.232 283.658 201.599C286.579 202.349 289.559 202.871 292.568 203.161C295.562 203.425 298.574 203.455 301.573 203.252C302.952 203.115 304.259 203.023 305.482 202.805C306.705 202.587 307.821 202.426 308.852 202.208C309.883 201.99 310.794 201.749 311.598 201.542C312.401 201.335 313.097 201.14 313.648 200.968C314.198 200.753 314.768 200.591 315.351 200.486Z" fill="#FAFAFA"/>
<path d="M335.136 195.527C334.037 195.433 332.959 195.185 331.935 194.792C326.868 193.144 322.355 190.226 318.864 186.344C318.108 185.58 317.466 184.718 316.958 183.784C317.749 184.509 318.498 185.275 319.2 186.08C322.812 189.739 327.233 192.578 332.139 194.391C333.949 195.102 335.16 195.435 335.136 195.527Z" fill="#FAFAFA"/>
<path d="M345.329 171.514C344.35 171.386 343.396 171.119 342.499 170.722C340.276 169.892 338.17 168.801 336.228 167.473C334.281 166.153 332.509 164.612 330.952 162.882C330.268 162.199 329.69 161.426 329.237 160.586C331.489 162.924 333.948 165.071 336.588 167.003C339.357 168.749 342.283 170.259 345.329 171.514Z" fill="#FAFAFA"/>
<path d="M270.216 186.516C269.871 186.646 269.507 186.723 269.137 186.746C268.144 186.889 267.143 186.973 266.139 186.999C259.449 187.203 252.841 185.54 247.121 182.212C246.259 181.714 245.43 181.166 244.639 180.57C244.088 180.146 243.788 179.905 243.812 179.87C243.836 179.836 245.143 180.674 247.409 181.845C253.152 184.911 259.612 186.538 266.187 186.574C268.646 186.585 270.204 186.413 270.216 186.516Z" fill="#FAFAFA"/>
<path d="M272.891 204.136C272.891 204.239 271.428 204.216 269.114 204.48C263.041 205.165 257.296 207.481 252.542 211.161C250.719 212.562 249.724 213.583 249.652 213.514C249.58 213.446 249.832 213.204 250.263 212.734C250.878 212.057 251.543 211.424 252.254 210.84C256.942 206.909 262.829 204.53 269.042 204.056C269.976 203.996 270.913 203.996 271.848 204.056C272.198 204.028 272.55 204.055 272.891 204.136Z" fill="#FAFAFA"/>
<path d="M285.829 234.889C285.829 235.004 284.294 234.751 281.836 234.774C280.401 234.797 278.97 234.924 277.555 235.153C274.086 235.717 270.761 236.909 267.758 238.666C266.53 239.375 265.363 240.178 264.269 241.065C262.398 242.591 261.427 243.728 261.331 243.659C261.495 243.349 261.705 243.063 261.954 242.809C262.568 242.074 263.241 241.387 263.969 240.755C265.047 239.805 266.211 238.949 267.446 238.195C268.967 237.288 270.573 236.519 272.243 235.899C273.929 235.307 275.672 234.876 277.447 234.613C278.894 234.397 280.36 234.312 281.824 234.361C282.809 234.374 283.792 234.466 284.762 234.636C285.128 234.671 285.488 234.756 285.829 234.889Z" fill="#FAFAFA"/>
<path d="M253.788 226.601C249.776 226.529 245.782 226.064 241.869 225.212C243.876 225.139 245.886 225.27 247.865 225.602C249.87 225.741 251.855 226.076 253.788 226.601Z" fill="#FAFAFA"/>
<g opacity="0.3">
<path d="M245.359 211.036C245.555 216.374 246.512 221.661 248.201 226.751C249.4 230.516 245.263 236.462 250.131 240.354H259.724C255.06 229.368 250.611 217.844 246.318 207.501" fill="black"/>
</g>
<path d="M314.152 221.954C313.947 222.241 313.705 222.504 313.432 222.734C312.734 223.399 311.984 224.013 311.19 224.571C310.007 225.4 308.751 226.13 307.437 226.752C305.821 227.504 304.135 228.107 302.401 228.554C300.655 228.973 298.873 229.234 297.076 229.335C295.611 229.41 294.142 229.356 292.688 229.174C291.711 229.07 290.744 228.89 289.798 228.634C289.441 228.568 289.097 228.448 288.779 228.279C288.779 228.175 290.289 228.554 292.736 228.761C294.169 228.866 295.608 228.866 297.041 228.761C298.796 228.635 300.537 228.366 302.245 227.957C303.937 227.51 305.589 226.934 307.185 226.235C308.486 225.65 309.737 224.966 310.926 224.192C312.953 222.895 314.032 221.873 314.152 221.954Z" fill="#263238"/>
<path d="M301.429 228.459C300.727 228.934 299.95 229.299 299.127 229.538C297.177 230.213 295.14 230.63 293.071 230.778C291.009 230.92 288.936 230.827 286.896 230.502C286.043 230.427 285.206 230.229 284.414 229.917C284.414 229.71 288.287 230.502 293.023 230.181C295.877 229.87 298.692 229.293 301.429 228.459Z" fill="#FAFAFA"/>
<path d="M356.601 139.052L368.352 138.237C368.352 138.237 370.918 141.359 368.868 143.793C366.817 146.226 362.872 152.62 362.872 152.62L353.723 153.86L350.054 160.208L336.168 151.598L342.475 139.568L352.68 131.017L359.167 131.143L362.764 135.31C362.764 135.31 358.759 137.192 356.841 134.162L353.735 134.747V136.469C353.731 136.823 353.803 137.174 353.948 137.5C354.093 137.826 354.306 138.12 354.576 138.362C354.845 138.605 355.164 138.792 355.513 138.911C355.861 139.029 356.232 139.077 356.601 139.052Z" fill="#FFBE9D"/>
<path d="M368.208 138.66L376.207 136.456C376.702 136.398 377.204 136.457 377.67 136.627C378.136 136.797 378.551 137.073 378.881 137.432L379.12 138.224L369.312 142.287L368.208 138.66Z" fill="#FFBE9D"/>
<path d="M350.737 147.075C351.021 146.478 351.384 145.919 351.817 145.41C352.775 144.178 353.427 142.753 353.723 141.243C353.852 140.427 353.774 139.592 353.495 138.81C353.357 138.437 353.253 138.053 353.183 137.662C353.121 137.313 353.121 136.955 353.183 136.606C353.26 135.945 353.463 135.303 353.783 134.712C353.807 135.366 353.755 136.021 353.627 136.663C353.553 137.334 353.682 138.012 353.999 138.615C354.333 139.476 354.436 140.403 354.299 141.312C353.991 142.918 353.242 144.415 352.128 145.651C351.325 146.604 350.797 147.121 350.737 147.075Z" fill="#EB996E"/>
<path d="M383.377 129.5C383.377 129.718 384.576 132.152 384.576 132.152L352.044 147.614L350.413 144.698L383.377 129.5Z" fill="#263238"/>
<path d="M362.837 152.079C363.01 151.904 363.145 151.698 363.234 151.472C363.322 151.247 363.363 151.007 363.353 150.766C363.343 150.525 363.282 150.288 363.175 150.07C363.068 149.852 362.916 149.657 362.729 149.496C361.936 148.865 360.97 148.467 359.947 148.348C358.32 147.978 356.654 147.79 354.982 147.786C354.433 147.775 353.89 147.894 353.4 148.13C353.156 148.254 352.956 148.445 352.826 148.678C352.695 148.911 352.641 149.176 352.668 149.439C352.8 150.07 353.495 150.414 354.119 150.644C355.805 151.261 357.559 151.693 359.347 151.93" fill="#FFBE9D"/>
<path d="M359.347 151.998C358.267 152.028 357.19 151.888 356.157 151.585C355.678 151.47 355.15 151.321 354.598 151.149C353.959 150.99 353.359 150.709 352.836 150.323C352.681 150.188 352.558 150.023 352.475 149.839C352.392 149.654 352.352 149.455 352.356 149.255C352.391 148.845 352.589 148.463 352.908 148.187C353.554 147.713 354.363 147.487 355.174 147.556C356.611 147.566 358.043 147.727 359.443 148.038C360.64 148.159 361.783 148.583 362.752 149.266C363.072 149.534 363.305 149.884 363.422 150.275C363.539 150.666 363.535 151.081 363.412 151.47C363.196 152.021 362.836 152.136 362.836 152.113C362.836 152.09 363.064 151.895 363.184 151.413C363.243 151.073 363.208 150.725 363.081 150.403C362.955 150.08 362.742 149.795 362.465 149.576C361.522 149.005 360.447 148.662 359.335 148.578C357.97 148.308 356.58 148.166 355.186 148.153C354.529 148.086 353.869 148.249 353.327 148.612C353.22 148.684 353.13 148.779 353.066 148.889C353.002 148.999 352.964 149.121 352.956 149.247C352.948 149.373 352.97 149.499 353.019 149.615C353.069 149.732 353.146 149.836 353.243 149.921C353.696 150.265 354.213 150.522 354.766 150.678C355.306 150.874 355.81 151.034 356.277 151.172C358.148 151.723 359.359 151.895 359.347 151.998Z" fill="#EB996E"/>
<path d="M366.841 146.007C364.275 144.928 362.405 144.354 359.838 143.287C359.044 142.849 358.123 142.668 357.212 142.77C356.313 142.965 355.594 143.998 356.085 144.733C356.287 144.976 356.541 145.175 356.829 145.318L364.287 149.657" fill="#FFBE9D"/>
<path d="M364.287 149.659C363.256 149.262 362.268 148.77 361.337 148.189L358.22 146.456L356.373 145.4C356.172 145.284 356 145.128 355.869 144.941C355.739 144.755 355.653 144.543 355.617 144.321C355.608 144.096 355.645 143.871 355.728 143.66C355.81 143.449 355.936 143.256 356.097 143.093C356.406 142.752 356.831 142.528 357.296 142.461C357.692 142.387 358.099 142.387 358.495 142.461C359.192 142.658 359.87 142.912 360.522 143.219L363.843 144.562C364.895 144.91 365.897 145.38 366.829 145.962C365.754 145.699 364.7 145.361 363.676 144.952C362.716 144.619 361.553 144.229 360.294 143.724C359.667 143.444 359.018 143.213 358.351 143.035C358.042 142.934 357.71 142.917 357.392 142.989C357.074 143.06 356.783 143.215 356.553 143.437C356.343 143.652 356.227 143.935 356.229 144.229C356.251 144.364 356.306 144.493 356.39 144.605C356.473 144.716 356.582 144.808 356.709 144.872L358.507 145.939L361.553 147.787C362.524 148.327 363.44 148.953 364.287 149.659Z" fill="#EB996E"/>
<path d="M369.312 142.289L362.285 139.821C361.458 139.438 360.526 139.317 359.623 139.477C358.748 139.718 358.088 140.797 358.628 141.497C358.842 141.733 359.108 141.922 359.407 142.048L367.141 145.916" fill="#FFBE9D"/>
<path d="M367.129 145.914C366.079 145.576 365.064 145.145 364.096 144.629L360.918 143.091L359.011 142.161C358.802 142.065 358.618 141.926 358.473 141.753C358.328 141.58 358.225 141.378 358.172 141.162C358.137 140.937 358.151 140.708 358.213 140.489C358.275 140.27 358.383 140.065 358.532 139.888C358.801 139.532 359.191 139.276 359.635 139.165C360.031 139.09 360.438 139.09 360.834 139.165C361.546 139.301 362.242 139.509 362.908 139.785L366.266 141.024C367.321 141.356 368.338 141.791 369.3 142.321C368.212 142.111 367.144 141.812 366.11 141.426L362.717 140.278C362.076 140.034 361.414 139.845 360.738 139.716C360.423 139.639 360.091 139.648 359.781 139.744C359.472 139.839 359.196 140.017 358.987 140.255C357.956 141.506 360.114 141.966 361.146 142.62L364.299 144.273C365.296 144.732 366.243 145.282 367.129 145.914Z" fill="#EB996E"/>
<path d="M368.796 130.27C368.724 130.27 368.928 129.593 369.611 128.721C370.523 127.6 371.744 126.745 373.137 126.253C374.533 125.759 376.046 125.655 377.501 125.954C378.605 126.195 379.204 126.563 379.168 126.632C379.132 126.7 378.497 126.494 377.43 126.379C376.054 126.215 374.657 126.365 373.353 126.815C372.058 127.282 370.892 128.029 369.947 128.996C369.228 129.742 368.88 130.27 368.796 130.27Z" fill="#263238"/>
<path d="M366.014 128.858C366.26 128.023 366.722 127.261 367.357 126.643C368.806 125.06 370.713 123.925 372.837 123.382C374.951 122.848 377.17 122.817 379.3 123.291C380.186 123.433 381.036 123.733 381.806 124.175C381.806 124.266 380.811 123.956 379.216 123.715C377.151 123.376 375.034 123.458 373.005 123.956C370.986 124.479 369.149 125.505 367.68 126.929C366.565 128.031 366.11 128.915 366.014 128.858Z" fill="#263238"/>
<path d="M361.985 127.595C361.985 127.595 362.105 127.274 362.453 126.78C362.944 126.085 363.502 125.436 364.119 124.84C366.159 122.834 368.69 121.346 371.482 120.513C374.276 119.698 377.238 119.556 380.104 120.099C380.964 120.261 381.807 120.499 382.622 120.811C382.933 120.897 383.226 121.037 383.485 121.224C383.485 121.328 382.178 120.834 380.032 120.513C377.239 120.087 374.383 120.28 371.68 121.076C368.978 121.872 366.502 123.25 364.443 125.104C362.836 126.562 362.117 127.653 361.985 127.595Z" fill="#263238"/>
<path d="M359.131 126.298C359.199 125.918 359.328 125.55 359.514 125.208C359.968 124.253 360.566 123.367 361.289 122.579C362.356 121.405 363.601 120.391 364.982 119.572C366.67 118.57 368.473 117.757 370.354 117.15C373.784 116.009 377.472 115.779 381.026 116.484C382.094 116.684 383.141 116.972 384.156 117.345C384.541 117.447 384.906 117.61 385.235 117.827C385.235 117.93 383.617 117.322 380.943 116.897C377.464 116.333 373.894 116.613 370.558 117.712C367.185 118.707 364.115 120.472 361.613 122.855C360.659 123.915 359.827 125.069 359.131 126.298Z" fill="#263238"/>
<path d="M292.316 257.961C289.918 257.134 290.122 258.753 290.997 260.658C286.344 263.471 281.26 266.972 275.756 267.006L269.905 254.471L286.572 249.03L286.872 249.834C288.551 251.364 290.374 252.743 292.316 253.955C293.309 254.591 294.408 255.06 295.566 255.344C296.991 255.746 298.468 255.958 299.954 255.975C300.236 255.934 300.524 255.978 300.778 256.101C301.032 256.224 301.239 256.42 301.371 256.662C301.503 256.903 301.553 257.178 301.514 257.448C301.475 257.718 301.349 257.969 301.154 258.168C300.194 258.948 296.453 259.361 292.316 257.961Z" fill="#FFBE9D"/>
<path d="M292.796 259.373C292.22 260.123 291.529 260.785 290.745 261.336C288.938 262.773 286.952 263.992 284.834 264.963C282.717 265.938 280.481 266.655 278.178 267.098C277.236 267.334 276.262 267.439 275.289 267.408C281.723 266.15 287.732 263.39 292.784 259.373H292.796Z" fill="#455A64"/>
</svg>
